<?xml version="1.0" standalone="no"?>
<!DOCTYPE svg PUBLIC "-//W3C//DTD SVG 20010904//EN"
 "http://www.w3.org/TR/2001/REC-SVG-20010904/DTD/svg10.dtd">
<svg version="1.0" xmlns="http://www.w3.org/2000/svg"
 width="512.000000pt" height="512.000000pt" viewBox="0 0 512.000000 512.000000"
 preserveAspectRatio="xMidYMid meet">
<metadata>
Created by potrace 1.14, written by Peter Selinger 2001-2017
</metadata>
<g transform="translate(0.000000,512.000000) scale(0.100000,-0.100000)"
fill="#000000" stroke="none">
<path d="M2377 4663 c-1 0 -204 -4 -452 -7 -247 -4 -451 -8 -453 -11 -2 -2 -4
-24 -4 -48 l0 -45 -66 0 c-37 -1 -76 -1 -87 -1 -20 -1 -20 -7 -18 -1948 1
-1072 2 -1958 2 -1970 l1 -21 348 1 347 2 -1 47 c0 54 -8 50 104 49 41 0 62 4
63 12 1 7 2 368 3 802 l1 790 40 -1 c167 -2 322 -66 449 -185 62 -57 185 -212
220 -274 9 -16 21 -37 26 -45 90 -138 196 -357 425 -882 l138 -316 374 1 c206
0 376 4 379 8 3 5 -5 26 -16 49 l-20 40 22 1 c13 0 60 1 106 1 45 -1 82 3 82
7 0 7 -62 156 -95 227 -8 16 -30 68 -50 114 -20 46 -42 98 -50 114 -7 17 -41
96 -75 176 -34 80 -71 165 -83 190 -11 25 -34 79 -52 120 -155 356 -326 641
-476 790 -47 47 -105 96 -127 110 -23 14 -42 27 -42 30 0 3 24 18 53 33 84 44
242 139 245 149 2 4 8 8 13 8 9 0 54 37 114 95 83 79 171 223 208 340 72 227
68 572 -9 777 -59 155 -103 223 -224 344 -115 116 -358 236 -550 273 -30 6
-64 12 -75 15 -11 2 -47 7 -80 11 -32 3 -62 8 -65 10 -17 11 -583 28 -593 18z
m186 -613 c270 -41 450 -186 521 -420 48 -161 32 -396 -37 -520 -90 -163 -148
-181 -587 -185 l-295 -3 0 572 0 572 160 -2 c88 -1 195 -7 238 -14z"/>
</g>
</svg>
