<svg xmlns="http://www.w3.org/2000/svg" viewBox="0 0 3500 2000"><defs><style>.cls-1{isolation:isolate;}.cls-2{fill:#e4f0ff;}.cls-17,.cls-22,.cls-3,.cls-49,.cls-56{opacity:0.5;}.cls-4,.cls-44{fill:#fff;}.cls-5{fill:#ffc0bb;}.cls-6{fill:#7683c4;}.cls-7{fill:#3c2340;}.cls-8{fill:#07085b;}.cls-40,.cls-9{fill:#f99893;}.cls-10{fill:#333;}.cls-11{fill:#2c377a;}.cls-12{fill:#404996;}.cls-13{fill:#838ccf;}.cls-14{fill:#ff5b7e;}.cls-15{fill:#e5426e;}.cls-16,.cls-17{fill:#4c2816;}.cls-17{mix-blend-mode:screen;}.cls-18{fill:#f484a2;}.cls-19{fill:#fcb7b4;}.cls-20{fill:#f24c78;}.cls-21,.cls-22{fill:#fee4cb;}.cls-22,.cls-32,.cls-40,.cls-46,.cls-47,.cls-48{mix-blend-mode:multiply;}.cls-23{fill:#e8b891;}.cls-24,.cls-49{fill:#88c7ff;}.cls-25{fill:#b0d6ff;}.cls-26{fill:#c9eafd;}.cls-26,.cls-32,.cls-40,.cls-42,.cls-48,.cls-54{opacity:0.3;}.cls-27{fill:#142666;}.cls-28{fill:#feb546;}.cls-29,.cls-32{fill:#e87b50;}.cls-30{fill:#f3fdff;}.cls-31{fill:#ea426e;}.cls-33{fill:#f76390;}.cls-34{fill:#06062d;}.cls-35{fill:#09083c;}.cls-36{fill:#29589b;}.cls-37{fill:#3660ac;}.cls-38{fill:#f9a435;}.cls-39{fill:#ef972e;}.cls-41,.cls-56{fill:#70c0fd;}.cls-42,.cls-50{fill:#4188e4;}.cls-43{fill:#e6f7ff;}.cls-44,.cls-46{opacity:0.2;}.cls-45{fill:#183658;}.cls-46{fill:#e0a689;}.cls-47,.cls-48,.cls-53,.cls-54{fill:#daeef7;}.cls-51{fill:#18196b;}.cls-52{fill:#ff7b8c;}.cls-55{fill:#afdbfe;}.cls-57{fill:#97cef7;}</style></defs><title>coffetable</title><g class="cls-1"><g id="Layer_1" data-name="Layer 1"><path class="cls-2" d="M3312.63,1619.22c-56.24-198.34,53.25-407.29-59-595.24-35.66-59.69-91.36-112.23-138.17-168-70.67-84.24-121.49-176.86-149.18-271.89-18.11-62.16-26.48-125.46-52.05-186.6C2843.29,227.87,2631.4,88.23,2398.16,57.37c-188-24.88-382.47,7-536.19,79C1171.49,460.2,811.76,307,570.72,418.75c-151.09,70-225.5,200.22-270.37,330.38s-62.84,358.76-128,506c-216.54,488.86,100.53,662.82,241.91,714,5.05,1.83,26.38,4.37,31.58,6L806,1980.35c71.67-10,235.27-6.4,293.48-4.78,228.61,6.37,418-5.71,617.35-3.61,496.6,5.22,961.63,7.11,1429.42,4.27,68.46-.41,108.13-18,159-49.16,54.18-33.25,67.83-92.4,59-146.76S3327.92,1673.17,3312.63,1619.22Z"/><g class="cls-3"><polygon class="cls-4" points="1757.01 529.68 2107.59 529.68 2268.62 195.43 1918.04 195.43 1757.01 529.68"/><polygon class="cls-4" points="2322.08 195.43 2161.05 529.68 2511.63 529.68 2672.66 195.43 2322.08 195.43"/><polygon class="cls-4" points="1579.85 897.43 1930.43 897.43 2091.46 563.17 1740.88 563.17 1579.85 897.43"/><polygon class="cls-4" points="1983.89 897.43 2334.47 897.43 2495.5 563.17 2144.91 563.17 1983.89 897.43"/></g><path class="cls-5" d="M2054,1352a1.52,1.52,0,0,0,.74,2.57c9.17,2,38,8.24,38,10.68.05,2.91-25.84-2.08-27.2.24s24,6.56,23.54,9.68-23.46-1.52-24.11-.27,20.92,8,21.75,10-23.07-2.46-24.29-1.17,14.26,9.85,13.68,11.26-.73,2.45-41.09-6.84l-15.73-4.33-10.93-10.48,6.8-16.88s48.68-21.69,50.53-20.52S2067.21,1338.89,2054,1352Z"/><path class="cls-6" d="M1853.67,1135.42l44.82,177.95,123.07,38.55s-2.76,35.36-2.43,35.14-163.5,1.42-181.4-12.77-22.87-206.75-22.87-206.75Z"/><path class="cls-7" d="M1643.21,1932.26l25.55-.1a4.57,4.57,0,0,0,4.27-4h0a2.67,2.67,0,0,1,2.83-2.36l.34,0c2.62.34,0,1.45,0,4.46l8.31,9.09,5,4.57a32.55,32.55,0,0,0,19.94,8.57l7.59.44a8.22,8.22,0,0,1,6,3.25l.73.93a21.59,21.59,0,0,1,4.42,13.39h0l-59.07.73a9.58,9.58,0,0,1-5.65-1.92l-8.14-5.83-.06,7.66-16.52-.11.24-31.24C1639,1935.63,1639.54,1932.27,1643.21,1932.26Z"/><rect class="cls-8" x="1638.75" y="1970.9" width="16.54" height="2.02" transform="translate(-17.41 14.67) rotate(-0.51)"/><path class="cls-8" d="M1666.33,1970.45h61.85a0,0,0,0,1,0,0v2a0,0,0,0,1,0,0h-61.42a.43.43,0,0,1-.43-.43v-1.59A0,0,0,0,1,1666.33,1970.45Z" transform="translate(-17.51 15.22) rotate(-0.51)"/><path class="cls-7" d="M1812.55,1932.26l25.55-.1a4.57,4.57,0,0,0,4.27-4h0a2.67,2.67,0,0,1,2.83-2.36l.34,0c2.62.34,0,1.45,0,4.46l8.31,9.09,5,4.57a32.55,32.55,0,0,0,19.94,8.57l7.59.44a8.22,8.22,0,0,1,5.95,3.25l.73.93a21.59,21.59,0,0,1,4.42,13.39h0l-59.07.73a9.58,9.58,0,0,1-5.65-1.92l-8.14-5.83-.06,7.66-16.52-.11.24-31.24C1808.35,1935.63,1808.88,1932.27,1812.55,1932.26Z"/><rect class="cls-8" x="1808.09" y="1970.9" width="16.54" height="2.02" transform="translate(-17.4 16.17) rotate(-0.51)"/><path class="cls-8" d="M1835.67,1970.45h61.85a0,0,0,0,1,0,0v2a0,0,0,0,1,0,0H1836.1a.43.43,0,0,1-.43-.43v-1.59A0,0,0,0,1,1835.67,1970.45Z" transform="translate(-17.51 16.73) rotate(-0.51)"/><path class="cls-8" d="M1723.23,1034.45s-11.87-49.86,15.68-68.77,56.88-17.06,76.9-6,32.19,50,23.36,72.43l-66.38-20.82Z"/><polygon class="cls-5" points="1755.16 1078.89 1752.87 1135.24 1802.31 1130.72 1794.44 1081.25 1755.16 1078.89"/><path class="cls-9" d="M1798.18,1104.78l-3.74-23.53-39.27-2.36-.8,19.52C1762.48,1105.82,1776.81,1113.24,1798.18,1104.78Z"/><path class="cls-9" d="M1825.71,1037.93c-2.71,6.29-.83,13.15,4.2,15.32s11.31-1.18,14-7.47.83-13.15-4.2-15.32S1828.42,1031.64,1825.71,1037.93Z"/><path class="cls-5" d="M1823.15,1075a51.22,51.22,0,0,0,4.16-8.59,98.28,98.28,0,0,0,5.78-24.27c.19-1.62.48-3.22.79-4.82a53,53,0,1,0-105-11.25,11.48,11.48,0,0,0-10.3-1c-6.34,2.69-8.77,11.29-5.41,19.22s11.21,12.18,17.55,9.49a10.1,10.1,0,0,0,2.41-1.45c2.12,26,23,46.43,48.47,46.52a47.56,47.56,0,0,0,32.52-12.79,23.19,23.19,0,0,0,1.82-1.64A45.79,45.79,0,0,0,1823.15,1075Z"/><path class="cls-9" d="M1793.77,1026.83c.23,3,.38,6,.66,8.88s.76,5.85,2,7.8l.24.31c.09.11.12.17.3.38a6.66,6.66,0,0,1,.85,1.11,5.91,5.91,0,0,1,.91,2.74,6.23,6.23,0,0,1-2.09,5,10.21,10.21,0,0,1-9,2.17c2.94-.65,5.73-1.79,7.3-3.79a4,4,0,0,0,1-3.09,3.48,3.48,0,0,0-.58-1.42,4.93,4.93,0,0,0-.52-.65l-.4-.48-.45-.57a11.81,11.81,0,0,1-1.64-4.78,24.47,24.47,0,0,1-.18-4.67A31.59,31.59,0,0,1,1793.77,1026.83Z"/><path class="cls-10" d="M1776.38,1031.6a4.63,4.63,0,1,1-4.61-4.64A4.62,4.62,0,0,1,1776.38,1031.6Z"/><path class="cls-10" d="M1816.09,1034.34a4.63,4.63,0,1,1-4.61-4.64A4.62,4.62,0,0,1,1816.09,1034.34Z"/><path class="cls-8" d="M1781.73,1020.92a46.35,46.35,0,0,0-6.83-1.33,23.3,23.3,0,0,0-6.42.14,21.73,21.73,0,0,0-6.11,1.9c-1,.38-1.95,1-3,1.55s-1.95,1.26-3.09,1.82a19.48,19.48,0,0,1,1.91-3.17,16.4,16.4,0,0,1,2.69-2.64,14.91,14.91,0,0,1,7-3.06,15.67,15.67,0,0,1,7.64.68A14.21,14.21,0,0,1,1781.73,1020.92Z"/><path class="cls-8" d="M1802.18,1022.32a14.19,14.19,0,0,1,6.59-3.41,15.58,15.58,0,0,1,7.67.15,14.86,14.86,0,0,1,6.66,3.81,15.75,15.75,0,0,1,2.39,2.91,19.26,19.26,0,0,1,1.56,3.36c-1.07-.68-1.93-1.47-2.88-2.15s-1.82-1.37-2.83-1.86a21.38,21.38,0,0,0-5.86-2.55,23.38,23.38,0,0,0-6.37-.84A48.81,48.81,0,0,0,1802.18,1022.32Z"/><path class="cls-8" d="M1729.67,1026.78c-3.05-2.62-5.38-2.42-5.38-2.42l1.3-16.15,5-9.74s19.53-26.26,20.22-26.92,15.65-9.18,16.57-9.62,22,2.64,22,2.64,36.91-7.71,30.76,11.64S1787,1005.8,1785.6,1005c4.36-4.35,4.76-16.65,4.76-16.65C1771.34,1009.1,1735.29,1024.46,1729.67,1026.78Z"/><path class="cls-4" d="M1805.42,1061.9c-1,5.8-6.42,10.3-13,10.48s-12.2-4.05-13.54-9.78Z"/><path class="cls-5" d="M1740.3,1121.92l69.6-.19,8.82,41.12-38.19,99.89s-38.2-41.13-38.2-47-17.62-49.94-14.68-55.81S1740.3,1121.92,1740.3,1121.92Z"/><path class="cls-11" d="M1867,1406.15c-29.46,44.32-88.33,108.26-88.33,108.26h0l27.14,429.49s39.3,4.24,52.81-6.19C1858.58,1937.71,1868.88,1530.54,1867,1406.15Z"/><path class="cls-12" d="M1855.81,1422.62c-.09-6.28,11.38,12.25,11.17,7.23-4.51-104.32-147.49-16.85-147.49-16.85l-30-6.31-55.17,535.48s35.9,7.91,56.45,0l87.9-422.52S1810.09,1506.16,1855.81,1422.62Z"/><path class="cls-5" d="M1673.51,1498a1.52,1.52,0,0,0-2.61.59c-2.5,9-10.53,37.41-13,37.3-2.91-.13,3.65-25.66,1.41-27.17s-8,23.55-11.09,22.91,3-23.32,1.74-24-9.3,20.38-11.34,21.09,3.86-22.88,2.65-24.17-10.7,13.63-12.07,13-2.41-.88,9.32-40.6l5.28-15.44,11.12-10.27,16.44,7.81s18.69,49.91,17.41,51.69S1685.8,1512,1673.51,1498Z"/><path class="cls-7" d="M1746.47,1128.39s34.74,21,62.28,0c0,0,15.67,41.35,14.18,42.84s-17.82,46-17.82,47.53-19.31,19.31-28.23,5.94-14.85-11.88-26.73-40.1-20.8-37.14-17.83-40.11S1746.47,1128.39,1746.47,1128.39Z"/><path class="cls-13" d="M1742.33,1121.73s-70.5,5.87-85.19,29.37-49.94,158.64-47,199.77,29.38,120.45,29.38,120.45,23.5,2.94,32.32-11.75c0,0-17.63-111.64-14.69-120.45s35.25-99.88,35.25-99.88l-5.87,179.2s70.5,44.07,182.14,8.81c0,0,14.69-290.84-23.5-299.65l-35.26-5.87-14.69,85.19Z"/><polygon class="cls-5" points="2256.08 1079.65 2255.97 1088.68 2254.94 1111.13 2299.13 1105.31 2303.94 1098.76 2304.33 1081.71 2305.78 1065.73 2276.41 1065.73 2256.08 1079.65"/><path class="cls-8" d="M2323.81,963.59a36.62,36.62,0,0,1,36.9-1.67c20.16,10.43,21.89,48.62,14.56,58.1s1.38,21.49-13.56,34.12-39.38,18.13-54.08,4.83-5.79-44.85-5.79-44.85Z"/><path class="cls-9" d="M2229.32,1013.81c2.77,6.61.74,13.77-4.53,16s-11.8-1.34-14.57-7.94-.75-13.77,4.53-16S2226.55,1007.2,2229.32,1013.81Z"/><path class="cls-9" d="M2306.26,1061.69s-1.17,9.06-1.93,20a47.23,47.23,0,0,1-35.95,10.37,46.11,46.11,0,0,1-12.41-3.4c.31-7.15.2-13.77-.9-17C2252,1063,2306.26,1061.69,2306.26,1061.69Z"/><path class="cls-5" d="M2231.64,1052.62a55,55,0,0,1-4.26-9,102.82,102.82,0,0,1-5.81-25.45c-.19-1.69-.47-3.37-.78-5a55.34,55.34,0,1,1,109.72-10.76,11.9,11.9,0,0,1,10.76-1c6.6,2.87,9.05,11.89,5.47,20.15s-11.82,12.64-18.42,9.77a10.38,10.38,0,0,1-2.49-1.54c-2.47,27.17-24.43,48.37-51.06,48.21a49.54,49.54,0,0,1-33.83-13.69,23.68,23.68,0,0,1-1.89-1.73A48.62,48.62,0,0,1,2231.64,1052.62Z"/><path class="cls-10" d="M2279.62,1012.24a5.2,5.2,0,1,0,5.23-5.18A5.21,5.21,0,0,0,2279.62,1012.24Z"/><path class="cls-10" d="M2237,1014.17a5.2,5.2,0,1,0,5.23-5.18A5.2,5.2,0,0,0,2237,1014.17Z"/><path class="cls-9" d="M2263.32,1003c.1,1.68.2,3.35.21,5s0,3.34-.08,5a35.07,35.07,0,0,1-.58,4.94,12.17,12.17,0,0,1-1.66,4.51,5.55,5.55,0,0,1-.35.46c-.13.15-.24.28-.41.45a8.22,8.22,0,0,0-.83,1.05,5.6,5.6,0,0,0-.91,2.54,6.18,6.18,0,0,0,1.85,4.87,10.27,10.27,0,0,0,4.41,2.61,14.74,14.74,0,0,0,5,.58,20.77,20.77,0,0,1-2.48-.32,14.09,14.09,0,0,1-2.38-.69,10.25,10.25,0,0,1-4-2.67,5.49,5.49,0,0,1-1.52-4.28,4.89,4.89,0,0,1,.8-2.14,4.1,4.1,0,0,1,.35-.47,3.23,3.23,0,0,1,.39-.44l.44-.49a4.17,4.17,0,0,0,.41-.53,9.81,9.81,0,0,0,1.14-2.38,15.74,15.74,0,0,0,.62-2.5,30.9,30.9,0,0,0,.44-5.07A53.74,53.74,0,0,0,2263.32,1003Z"/><path class="cls-8" d="M2274.86,1003.76a32.57,32.57,0,0,1,7.19-3.14,23.06,23.06,0,0,1,7.54-.92,19.83,19.83,0,0,1,3.75.54c.62.12,1.22.33,1.84.51.3.09.6.22.9.32s.6.21.9.35a38.76,38.76,0,0,1,6.83,3.87,20.91,20.91,0,0,0-6.21-5.18,18.32,18.32,0,0,0-7.92-2.27,19,19,0,0,0-8.11,1.42,20.69,20.69,0,0,0-3.61,1.9A16.51,16.51,0,0,0,2274.86,1003.76Z"/><path class="cls-8" d="M2253.94,1004.71a16.3,16.3,0,0,0-3.32-2.31,20.13,20.13,0,0,0-3.77-1.57,18.93,18.93,0,0,0-8.2-.68,17.48,17.48,0,0,0-4,1.06,18.19,18.19,0,0,0-3.66,1.91,21,21,0,0,0-5.71,5.73,40,40,0,0,1,6.46-4.48,8.55,8.55,0,0,1,.86-.42c.29-.13.57-.29.87-.41.59-.23,1.17-.49,1.78-.67a19.41,19.41,0,0,1,3.69-.87,23.07,23.07,0,0,1,7.59.23A32.05,32.05,0,0,1,2253.94,1004.71Z"/><path class="cls-8" d="M2221.68,963.18c8.63-35.66,55.23-39,55.23-39,72.39,1.75,63.9,65.69,62,76.3a11.74,11.74,0,0,0-8.39,1.86A19.8,19.8,0,0,0,2327,1005c-8.62-2.21-11.83-16.24-16.54-22.85-6.39-9-32.48-3-42.76-9.12a24.69,24.69,0,0,1-11.77-16.21c-38.21,7.86-35.76,48.59-35.76,48.59a14.67,14.67,0,0,0-3.73,0S2214,995,2221.68,963.18Z"/><path class="cls-4" d="M2250.9,1042.09c1.56,5.35,8,9.21,15.65,9s13.81-4.56,15-10Z"/><path class="cls-5" d="M2055.71,1244.81l-48.23-22.36,10.21-25.13s23,8,46.61,15.8Z"/><path class="cls-5" d="M2163.67,1954.24l41.57-26,36.12,21.63-12.54,9-43.64,6.38s-17.06-2.1-17.81-2.61S2163.67,1954.24,2163.67,1954.24Z"/><path class="cls-5" d="M2264,1577.43s-5.95,143.93-6.5,168.78-13.23,209.27-18.74,225.28l-30.85-2.21s-21-357.06-14.44-391.85S2264,1577.43,2264,1577.43Z"/><path class="cls-13" d="M2163.67,1954.24l-10.54,6.86a5.8,5.8,0,0,0,3.12,10.69h80a5.11,5.11,0,0,0,5.11-5.12v-16.78C2188.08,1966.89,2169.67,1961.72,2163.67,1954.24Z"/><path class="cls-5" d="M2359.79,1955.5l37.58-31.48,38.76,16.43L2425,1951.13l-42.34,12.35s-17.18.28-18-.11S2359.79,1955.5,2359.79,1955.5Z"/><path class="cls-5" d="M2407,1568.44s14,143.37,16.92,168,15.88,209.09,12.64,225.71l-30.87,2.08s-70.27-350.71-68.54-386.07S2407,1568.44,2407,1568.44Z"/><path class="cls-8" d="M2359.79,1955.5l-9.49,8.26a5.81,5.81,0,0,0,4.57,10.16l79.23-11.08a5.12,5.12,0,0,0,4.35-5.78l-2.32-16.61C2385.71,1964.66,2366.77,1962.08,2359.79,1955.5Z"/><path class="cls-5" d="M2394.35,1360.65l31.22-34.54L2403,1302.59l-38.19,49.47s22.27,59.82,23.6,62.48,5.81,0,5.81,0c-1.34-10.25-.71-39.11-.28-53.74Z"/><path class="cls-13" d="M2215.2,1318s-41.23,46.14-44.74,194.16,4.21,201.32,4.21,201.32,113.18,27.6,270.78-24.55c0,0-38.82-279.89-95.87-375.3C2349.58,1313.58,2283.09,1273.91,2215.2,1318Z"/><path class="cls-5" d="M2024.46,1202.89c-.19-2.31-6.37-5.33-6.37-5.33a67.21,67.21,0,0,0-25.56-4.53,4.42,4.42,0,0,0-4,6h0l5.43.23a1.15,1.15,0,0,1-.61.34c-1.47.33-3.57.8-6,1.37l2.25,24.4c4.78-1,11,3.64,20.06,1.45l12.08-3.45a37.24,37.24,0,0,1-2.31-4.54,50.84,50.84,0,0,1-2.27-7.52C2016.65,1208.74,2024.68,1205.49,2024.46,1202.89Z"/><path class="cls-14" d="M1975.62,1230.78l6.48-1.53a22.19,22.19,0,0,0,9-4.56l1.48-1.23a18.7,18.7,0,0,0,6.26-11.68l.36-2.44a11.44,11.44,0,0,0-1.22-7.12h0a8.1,8.1,0,0,0-6.22-4.42l-7.36-.71Zm3.64-5.8,6-22.93,5,.48a5.5,5.5,0,0,1,4.24,3h0a7.82,7.82,0,0,1,.83,4.85l-.25,1.66a12.69,12.69,0,0,1-4.26,8l-1,.83a15.07,15.07,0,0,1-6.13,3.11Z"/><path class="cls-14" d="M1918.6,1191.44l.35,0,33.1,1,33.45-1,.06,0s.1.06.1.26c0,3.46-1.51,37.1-15.44,51.3a121.59,121.59,0,0,1-18.17,1.28c-8.64.19-19.51-2.92-19.51-2.92-13.88-14.14-14.12-46-14.11-49.62A.3.3,0,0,1,1918.6,1191.44Z"/><path class="cls-15" d="M1918.43,1191.72a.3.3,0,0,1,.17-.28l.35,0,33.1,1,2-.06c-7.07,4.39-13.64,10.85-14,19.79-.54,14.48,7.89,28.63,20.24,31.59a52.61,52.61,0,0,1-8.27.58c-8.64.19-19.51-2.92-19.51-2.92C1918.66,1227.2,1918.42,1195.37,1918.43,1191.72Z"/><path class="cls-14" d="M1918.44,1191.72c0,5,15.09,9,33.64,9s33.58-4,33.58-9-15-9-33.58-9S1918.44,1186.76,1918.44,1191.72Z"/><path class="cls-16" d="M1981.52,1196l-10.39,2.8-8.23,1.23-11.18.28-11-.56-7.06-.89-6.22-1.46-4.4-1.85s-1.13-1-2-1.76c4.8-3.4,17.1-5.82,31.49-5.82,14.59,0,27,2.49,31.64,6Z"/><path class="cls-17" d="M1925.2,1192.68a.58.58,0,0,1,.38-.38,99.43,99.43,0,0,1,25.76-3.36h.13a99.43,99.43,0,0,1,25.76,3.36.58.58,0,0,1,.38.38c.13.36.08,1-1.16,1.68a18.8,18.8,0,0,1-10.37.58,60.07,60.07,0,0,0-29.35,0,18.8,18.8,0,0,1-10.37-.58C1925.12,1193.65,1925.07,1193,1925.2,1192.68Z"/><path class="cls-4" d="M1980.14,1192a31.87,31.87,0,0,0-3.48-1.21c-1.17-.34-2.36-.64-3.54-.9s-2.39-.5-3.58-.7c-.6-.11-1.2-.2-1.8-.29s-1.2-.18-1.8-.25c-2.4-.32-4.82-.52-7.23-.66s-4.84-.2-7.25-.19a106.42,106.42,0,0,0-14.48,1c-2.4.35-4.79.79-7.16,1.37-1.18.3-2.36.63-3.53,1a27.74,27.74,0,0,0-3.44,1.33c.28-.13.56-.25.85-.36l.87-.32c.57-.21,1.16-.4,1.74-.58,1.17-.36,2.35-.67,3.53-.94,2.37-.56,4.76-1,7.16-1.29s4.81-.55,7.22-.7,4.82-.22,7.24-.22a118.43,118.43,0,0,1,14.46.78l1.8.23,1.8.27c1.19.19,2.39.41,3.57.66s2.38.53,3.56.85c.58.16,1.17.33,1.75.51S1979.57,1191.76,1980.14,1192Z"/><path class="cls-18" d="M1918.44,1191.72c0,5,15.09,9,33.64,9s33.58-4,33.58-9-15-9-33.58-9S1918.44,1186.76,1918.44,1191.72Zm1.4,0c0-4.6,14.46-8.32,32.24-8.32s32.18,3.73,32.18,8.32-14.41,8.33-32.18,8.33S1919.84,1196.32,1919.84,1191.72Z"/><path class="cls-19" d="M2001.44,1203.08c0,2-3.69,3.56-8.25,3.56s-8.25-1.59-8.25-3.56,3.69-3.55,8.25-3.55S2001.44,1201.12,2001.44,1203.08Z"/><path class="cls-19" d="M2000.8,1208.71c0,2-3.7,3.56-8.25,3.56s-8.26-1.6-8.26-3.56,3.7-3.56,8.26-3.56S2000.8,1206.74,2000.8,1208.71Z"/><path class="cls-19" d="M2000.19,1215c0,2-3.7,3.56-8.25,3.56s-8.25-1.6-8.25-3.56,3.69-3.56,8.25-3.56S2000.19,1213,2000.19,1215Z"/><path class="cls-19" d="M1999.78,1221.19c0,2-3.69,3.56-8.25,3.56s-8.25-1.6-8.25-3.56,3.69-3.56,8.25-3.56S1999.78,1219.22,1999.78,1221.19Z"/><path class="cls-14" d="M2486.13,1231c-10.91-36.79-94.78-132.81-124.08-137.8a116.1,116.1,0,0,0-53.94,4s-29.93,19-55.81,5.61a57.93,57.93,0,0,0-17,.46h0s-55.08,48.36-28.86,108.35c0,0,8.11,59.86,8.73,106.32,0,0,11.54,24.63,69.22,23.07s65.16-27.44,65.16-27.44,6.86-113.48,16.52-131.88c0,0,61.42,49.26,62.67,54.87s-32.12,67.35-43.34,81.07c0,0,7.79,17.29,34.3,23.45C2419.73,1341.09,2497.05,1267.75,2486.13,1231Z"/><path class="cls-20" d="M2235.33,1103.28h0c-15,2.4-36.9,10.93-53.49,38.51-27.75,46.15-56.43,75.45-56.43,75.45l-67-7.48s-8.11,25.57-4.05,37.1c0,0,48.94,29.31,77.32,20s74.82-55.19,74.82-55.19C2180.25,1151.64,2235.33,1103.28,2235.33,1103.28Z"/><polygon class="cls-4" points="2828.4 1634.17 2852.62 1980.35 2840.51 1980.35 2802.16 1637.92 2828.4 1634.17"/><polygon class="cls-4" points="2574 1634.17 2549.77 1980.35 2561.89 1980.35 2600.24 1637.92 2574 1634.17"/><path class="cls-21" d="M2934.1,1279.06s-193.61-5.74-206.14-4.84-24.12,41.18-24.12,41.18-56.55,209.83-55.43,215.6-52.76,141-52.76,141,46.49-1.23,48.54,0,179.77-15.25,182.24-16.9,11.52-32.57,11.93-34.21,14-122,14-122l7-66.36s26.74-57,27.15-57.13,25.1-50,26.74-52.53,27.15-30.09,28-32.56S2934.1,1279.06,2934.1,1279.06Z"/><path class="cls-22" d="M2934.1,1279.06s-66.75-2-124.4-3.43c22.41,13.19,35,50.06,25.64,115.66-7.92,55.75-16.72,116.25-51.83,188.8-18.08,37.37-95.93,16.44-159.73,20.14-13.75,35.68-28.13,71.75-28.13,71.75s46.49-1.23,48.54,0,179.77-15.25,182.24-16.9,11.52-32.57,11.93-34.21,14-122,14-122l7-66.36s26.74-57,27.15-57.13,25.1-50,26.74-52.53,27.15-30.09,28-32.56S2934.1,1279.06,2934.1,1279.06Z"/><path class="cls-23" d="M2560.28,1679.37h0a12,12,0,0,1,11.18-12.77c20.69-1.41,65.43-4.61,111.45-9,88.21-8.37,120.1-15.22,131.52-18.8a11.91,11.91,0,0,0,8-8.45c3.1-12.33,4.91-37.92,6.43-59.33,5.76-81.24,15.26-215.2,98.73-288.75A12,12,0,0,1,2945,1284h0a12,12,0,0,1-1.56,16.35c-76,66.78-84.78,189.9-90.62,272.37-3.34,47-5.39,70.08-15.66,80.82-5,5.18-14.17,14.81-148.29,27.7-47.58,4.57-94.42,7.93-115.81,9.38A12,12,0,0,1,2560.28,1679.37Zm260.07-43Z"/><polygon class="cls-4" points="1165.69 1634.17 1141.47 1980.35 1153.58 1980.35 1191.93 1637.92 1165.69 1634.17"/><polygon class="cls-4" points="1420.1 1634.17 1444.32 1980.35 1432.21 1980.35 1393.86 1637.92 1420.1 1634.17"/><path class="cls-21" d="M1060,1279.06s193.61-5.74,206.14-4.84,24.12,41.18,24.12,41.18,56.56,209.83,55.43,215.6,52.76,141,52.76,141-46.48-1.23-48.54,0-179.77-15.25-182.24-16.9-11.52-32.57-11.93-34.21-14-122-14-122l-7-66.36s-26.74-57-27.15-57.13-25.09-50-26.74-52.53-27.15-30.09-28-32.56S1060,1279.06,1060,1279.06Z"/><path class="cls-22" d="M1060,1279.06s66.75-2,124.4-3.43c-22.4,13.19-35,50.06-25.64,115.66,7.92,55.75,16.73,116.25,51.83,188.8,18.08,37.37,95.93,16.44,159.74,20.14,13.74,35.68,28.12,71.75,28.12,71.75s-46.48-1.23-48.54,0-179.77-15.25-182.24-16.9-11.52-32.57-11.93-34.21-14-122-14-122l-7-66.36s-26.74-57-27.15-57.13-25.09-50-26.74-52.53-27.15-30.09-28-32.56S1060,1279.06,1060,1279.06Z"/><path class="cls-23" d="M1421,1690.65c-21.39-1.45-68.23-4.81-115.81-9.38-134.12-12.89-143.33-22.52-148.28-27.7-10.27-10.74-12.33-33.81-15.67-80.82-5.84-82.47-14.57-205.59-90.62-272.37a12,12,0,0,1-1.55-16.35h0a12,12,0,0,1,17.45-1.74c83.47,73.55,93,207.51,98.73,288.75,1.52,21.41,3.33,47,6.43,59.33a11.92,11.92,0,0,0,8,8.45c11.41,3.58,43.3,10.43,131.51,18.8,46,4.36,90.77,7.56,111.45,9a12,12,0,0,1,11.18,12.77h0A12,12,0,0,1,1421,1690.65Zm-247.27-54.26Z"/><path class="cls-24" d="M3093.55,1715.08c-1.46-12.87-3.19-26-9.18-37.52-7.28-14-20.06-24-31.24-35.14a195,195,0,0,1-46.58-74.09c-7.45-21.5-11.17-44.41-21.44-64.71-6.28-12.39-14.83-23.48-22-35.4-13.54-22.68-22.13-48.66-36.85-70.24a7.14,7.14,0,0,0-13,4.31,102.28,102.28,0,0,0,24.18,61.74c5.62,6.55,12.14,12.45,16.43,20,7.78,13.6,7.07,30.19,8,45.83a201,201,0,0,0,24.12,84.25c15,27.45,36.62,51.91,44.63,82.15,6,22.66,4.22,48.07,17,67.71,1.38,2.13,3,4.27,3.31,6.78a14.89,14.89,0,0,1-.25,4.26c-.29,1.83-.57,3.65-.86,5.48-2.91,18.54-5.92,42.14,10,56,11.07,9.62,25.31,9.83,33.26-2.94s7.29-31.7,6.7-46.18C3098.86,1763.23,3096.27,1739.05,3093.55,1715.08Z"/><path class="cls-25" d="M3122.32,1700.16c-6.22-21.47-15.86-41.91-20.69-63.73-4.69-21.17-4.72-43-4.74-64.73q0-35.62,0-71.26c0-14.79,0-29.66-2.48-44.25-5.27-31.38-21.61-60.39-24.38-92.09-1.2-13.71.19-27.56-1.32-41.24a64.82,64.82,0,0,0-6.49-22.72,10.15,10.15,0,0,0-18.2.51c-7.94,17.16-13,35.72-9.76,54.1,1.92,11,6.71,21.32,10.28,31.94,15.92,47.25,7.47,99.56,19.79,147.88,3.71,14.59,9.34,28.89,10,43.93,1.56,36-25.37,68.87-22.9,104.81,2,29.46,23.26,53.85,32.17,82,5,15.76,6.05,32.59,11.4,48.24,4.15,12.15,13.8,26.92,28.8,23.23,14.24-3.51,9.94-15.1,9.3-26.18C3130.89,1773.13,3132.91,1736.77,3122.32,1700.16Z"/><path class="cls-24" d="M3154.91,1719.83c-.63-11.15-2.52-22.37-.95-33.43,1.32-9.34,5-18.15,7.71-27.2,5-17,6.22-34.77,7.43-52.41q3.29-48.11,6.58-96.2c3.42-49.85,6.85-99.83,16.19-148.92,2.59-13.62,5.5-28.39-.64-40.83-1.29-2.62-3.84-5.4-6.63-4.53-2,.62-3,2.81-3.68,4.76-20.42,55.37-28.13,115-50.92,169.41-5.46,13-11.81,25.86-14.63,39.71-3.4,16.64-1.53,33.81-1.09,50.78.62,24.34-1.75,48.86-8.48,72.25-3.53,12.24-8.24,24.21-10.17,36.8-2.41,15.69-.39,31.68,1.12,47.49a729.67,729.67,0,0,1,2.93,91.49c-.55,18,14.63,17.48,24.68,6.45,7-7.71,7-16.17,9.37-25.76C3141.64,1778.18,3156.83,1754,3154.91,1719.83Z"/><path class="cls-25" d="M3060.09,1768.49c-13.42-21.52-40.16-33.76-48.73-57.62-2.19-6.08-3-12.61-5.71-18.48-5.92-13.06-19.38-20.43-32.62-26.44a2.81,2.81,0,0,0-4,2.52h0a9.53,9.53,0,0,0,4.15,8.06,53.58,53.58,0,0,1,21.4,29.12c4.09,14,2.31,29.32,7.39,43,4.27,11.46,13,20.83,17.18,32.35,3.77,10.53,3.37,22,5.15,33.07s6.69,22.76,16.85,27.43C3078,1858.39,3068.76,1782.39,3060.09,1768.49Z"/><path class="cls-24" d="M3213,1761.38c-.57,10.41,1,21.32-3.05,30.9-2.61,6.14-7.31,11.1-11.16,16.54-13.53,19.1-18.44,46.16-39.23,56.91a7.07,7.07,0,0,1-4.43,1.06c-2.13-.39-3.52-2.44-4.38-4.43-5.1-11.86.62-25.21,4-37.66.59-2.17,1.09-4.6.05-6.61-1.15-2.2-3.75-3.15-5.54-4.88-3.55-3.45-3.21-9.16-2.51-14.06a317.1,317.1,0,0,1,7.42-36.34c1.8-6.77,3.88-13.61,7.79-19.43,4.31-6.41,10.57-11.19,16.43-16.22a194.22,194.22,0,0,0,56.82-83.71c2.41-7,4.55-14.36,9.51-19.83s13.82-8.29,19.86-4c4.3,3-13.32,31.3-15.37,34.69-5.87,9.69-5.95,18.12-9.27,28.89C3231.8,1709.53,3214.54,1733.13,3213,1761.38Z"/><path class="cls-25" d="M3192.49,1773.42c3.85-9.93,7.72-20,9-30.55,1.41-11.75-.46-23.76,1.55-35.42,2.59-15,11.35-28.18,15.68-42.76,3.13-10.53,3.9-21.59,5.78-32.41,5.38-31,20-61.19,15.78-92.32-.91-6.78-4-14.67-10.71-15.82-6.1-1.05-11.65,4.51-13.23,10.49s-.41,12.29,0,18.46a76.11,76.11,0,0,1-13.68,48.86c-9.57,13.52-23.47,23.7-32.09,37.86-10.57,17.36-12,38.56-17.4,58.15-10.73,39-37.64,73-42.55,113.11-1.95,16,1.81,35.38,16.57,41.75C3169.92,1871.27,3182.82,1798.38,3192.49,1773.42Z"/><path class="cls-4" d="M3117.83,1802.74h-98a10.38,10.38,0,0,0-10.09,12.78l35.73,150.35a10.37,10.37,0,0,0,10.09,8h117.74a10.38,10.38,0,0,0,10.1-8l35.73-150.35a10.38,10.38,0,0,0-10.1-12.78Z"/><path class="cls-26" d="M3028.32,1802.74h-8.51a10.38,10.38,0,0,0-10.09,12.78l35.73,150.35a10.37,10.37,0,0,0,10.09,8h117.74a10.38,10.38,0,0,0,10.1-8l1.32-5.57C3117.8,1922.86,3052.54,1870.73,3028.32,1802.74Z"/><path class="cls-27" d="M2625.76,124.32V261.81c-9.26,1.44-16.65,13.71-17.16,28.89-29.39,12.87-51.35,55.88-52,107.23l138.93,1.66c.61-51.35-20.31-94.88-49.39-108.44a45.53,45.53,0,0,0-2-13,36.05,36.05,0,0,0-8-13.1,16.82,16.82,0,0,0-2.61-1.79V128.09Q2629.71,126.18,2625.76,124.32Z"/><path class="cls-27" d="M1492.71,277.35v247c-8.12,3-14.33,14.41-14.79,28.28-29.39,12.86-51.35,55.88-52,107.22l138.93,1.66c.61-51.34-20.31-94.87-49.39-108.43a45.48,45.48,0,0,0-2-13,35.94,35.94,0,0,0-8-13.1,14.74,14.74,0,0,0-5-2.82V275.05C1498,275.82,1495.32,276.6,1492.71,277.35Z"/><path class="cls-27" d="M1913.85,322.89a45.18,45.18,0,0,0-2-13,36.11,36.11,0,0,0-8-13.1,14.32,14.32,0,0,0-6.19-3.15v-173c-2.63,1.09-5.25,2.18-7.86,3.29v170.7c-7.52,3.62-13.14,14.59-13.58,27.76-29.39,12.87-51.35,55.88-52,107.23l138.93,1.66C1963.85,380,1942.93,336.45,1913.85,322.89Z"/><path class="cls-27" d="M2396,615.89c.61-51.35-20.31-94.88-49.39-108.44a45.18,45.18,0,0,0-2-13,36.05,36.05,0,0,0-8-13.1,14.11,14.11,0,0,0-6.18-3.14V50.85q-3.93-.24-7.86-.45V479.24c-7.52,3.62-13.14,14.6-13.58,27.76-29.39,12.87-51.35,55.88-52,107.23Z"/><path class="cls-5" d="M2644.75,1204.81v48.06a7,7,0,0,1-3.46,6.24c-6.42,3.44-20.79,9.08-34.21.09a7.06,7.06,0,0,1-2.87-5.89V1209.9Z"/><path class="cls-9" d="M2644.75,1237.16v-22.55l-40.54,4.46v19.13C2611.81,1240.51,2626,1242.82,2644.75,1237.16Z"/><path class="cls-5" d="M2591,1251.16c1.46,1,64.65,0,64.65,0s7,6.9,5.81,8.06-25.22,17.7-25.22,17.7l-32-4.35Z"/><path class="cls-5" d="M2408.78,1276s-25,162.61,10.71,195.91,102.92-55.17,102.92-55.17l14.37-57.8L2474,1378.58l-22.73,28-11.75-150.86Z"/><path class="cls-28" d="M2432.25,1222.9l.34.29,18.47,16.06a4.61,4.61,0,0,1,.24,6.72l-41.19,41.49a4.62,4.62,0,0,1-5.23.93,79.86,79.86,0,0,1-33.35-29,4.59,4.59,0,0,1,.19-5.3l35.38-46.55a4.59,4.59,0,0,1,6.68-.69Z"/><path class="cls-10" d="M2414.39,1197c2-1.35,4.27-1.45,5.65-.26l19.89,17.3.33.29,19.9,17.3c1.37,1.2,1.58,3.44.53,5.64l-3.53,7.3a3.45,3.45,0,0,1-5.37,1.11l-22.08-19.21-.33-.29-22.09-19.2a3.46,3.46,0,0,1,.35-5.48Z"/><path class="cls-10" d="M2422.85,1193.6a2,2,0,0,1,2.79-.2l18.37,16,.33.29,18.38,16a2,2,0,0,1,.19,2.79l-3.89,4.47-18.93-18.68L2419,1198.07Z"/><path class="cls-29" d="M2445.27,1254.88l-19.08,18.55a1.07,1.07,0,0,1-1.22.2,107.38,107.38,0,0,1-41.61-36.19,1.08,1.08,0,0,1,0-1.24l15.72-21.47a1.07,1.07,0,0,1,1.72,0c8,10.61,32.6,32,44.22,38.46A1.07,1.07,0,0,1,2445.27,1254.88Z"/><path class="cls-30" d="M2407.17,1239.6a10.55,10.55,0,1,0,14.82,1.82A10.55,10.55,0,0,0,2407.17,1239.6Z"/><polygon class="cls-5" points="2419.22 1880.95 2412.77 1932.79 2378.09 1935.48 2378.63 1887.41 2419.22 1880.95"/><path class="cls-4" d="M2325.38,1973.43l94.76.64a3.65,3.65,0,0,0,3.72-3.65l0-2.74a3.77,3.77,0,0,0-3.78-3.69l-94.76-.64a3.63,3.63,0,0,0-3.71,3.64l0,2.74A3.79,3.79,0,0,0,2325.38,1973.43Z"/><path class="cls-31" d="M2418.85,1933.36l3.64,28.06c.44,3.45-1.5,6.58-4.1,6.56l-90.11-.61a6.69,6.69,0,0,1-5.92-4.16c-1.28-2.76-1.57-6.92,2.42-12.48,8-11.11,34.45-13.66,47.33-23.11l42,.29C2416.43,1927.92,2418.45,1930.23,2418.85,1933.36Z"/><path class="cls-4" d="M2378.63,1943.94h0a1.86,1.86,0,0,0,.49-2.28c-1.81-3.85-7.42-13.24-18.65-11.39-.65.1-1.09.94-1,1.82v0c.11.84.7,1.4,1.33,1.3,10.07-1.62,14.84,6.65,16.3,9.88A1,1,0,0,0,2378.63,1943.94Z"/><path class="cls-4" d="M2369.3,1947.49h0a1.85,1.85,0,0,0,.49-2.28c-1.8-3.86-7.41-13.24-18.65-11.4a1.54,1.54,0,0,0-1,1.82v0c.11.85.7,1.4,1.33,1.3,10.07-1.62,14.85,6.66,16.31,9.89A1,1,0,0,0,2369.3,1947.49Z"/><path class="cls-4" d="M2360.62,1950.8h0a1.85,1.85,0,0,0,.5-2.28c-1.81-3.86-7.42-13.25-18.66-11.4a1.55,1.55,0,0,0-1,1.82v0c.12.84.71,1.4,1.34,1.3,10.07-1.62,14.84,6.66,16.3,9.89A1,1,0,0,0,2360.62,1950.8Z"/><path class="cls-32" d="M2394.34,1967.82c6.9-22.6,19.12-25,25.81-24.45l2.34,18.05c.44,3.45-1.5,6.58-4.1,6.56Z"/><polygon class="cls-5" points="2472.46 1882.06 2457.13 1932.08 2421.83 1932.32 2427.98 1895.81 2472.46 1882.06"/><path class="cls-4" d="M2371.13,1974.35l94.75.64a3.63,3.63,0,0,0,3.72-3.64l0-2.74a3.79,3.79,0,0,0-3.79-3.7l-94.75-.64a3.65,3.65,0,0,0-3.72,3.65l0,2.73A3.79,3.79,0,0,0,2371.13,1974.35Z"/><path class="cls-33" d="M2464.6,1934.28l3.63,28.06c.45,3.46-1.5,6.59-4.09,6.57l-90.11-.61a6.69,6.69,0,0,1-5.92-4.16c-1.29-2.77-1.58-6.92,2.41-12.48,8-11.12,34.45-13.66,47.33-23.11l42,.28C2462.17,1928.85,2464.19,1931.16,2464.6,1934.28Z"/><path class="cls-4" d="M2424.37,1944.87h0a1.85,1.85,0,0,0,.49-2.28c-1.8-3.85-7.41-13.24-18.65-11.4a1.54,1.54,0,0,0-1,1.82v0c.11.85.7,1.41,1.33,1.3,10.07-1.61,14.85,6.66,16.31,9.89A1,1,0,0,0,2424.37,1944.87Z"/><path class="cls-4" d="M2415,1948.42h0a1.85,1.85,0,0,0,.49-2.29c-1.8-3.85-7.41-13.24-18.65-11.39-.65.1-1.08,1-1,1.82v0c.12.84.71,1.4,1.34,1.3,10.07-1.62,14.84,6.66,16.3,9.89A1,1,0,0,0,2415,1948.42Z"/><path class="cls-4" d="M2406.37,1951.72h0a1.86,1.86,0,0,0,.49-2.28c-1.8-3.85-7.42-13.24-18.65-11.39-.65.1-1.08,1-1,1.82v0c.11.84.7,1.4,1.33,1.3,10.07-1.62,14.84,6.65,16.3,9.88C2405.2,1951.77,2405.83,1952.05,2406.37,1951.72Z"/><path class="cls-32" d="M2440.09,1968.75c6.9-22.6,19.11-25,25.8-24.45l2.34,18c.45,3.46-1.5,6.59-4.09,6.57Z"/><path class="cls-34" d="M2584,1548.14s-175.64,19.34-209.13,51-11,270.28-5.45,292.16c0,0,30.57,14.57,54.76,7.11S2439,1786.57,2439,1786.57s-2.8-99.75.92-113.74,54.9-24.24,54.9-24.24,123-64.58,118.38-64.58S2584,1548.14,2584,1548.14Z"/><path class="cls-35" d="M2778.4,1589.67c.74-45.17-12.27-84-12.27-84l-78.83,68.07-.7-6.08s-197.33-23.49-224.31,66-47.44,266.64-47.44,266.64,26.05,15.85,61.4,0c0,0,50-190.19,68.73-208.83,11.94-11.89,86.13-25.58,129.52-26.22C2719.33,1664.59,2777.53,1643.18,2778.4,1589.67Z"/><path class="cls-36" d="M2591,1251.16s-44.19,8.06-66.83,33.31-53.54,87.94-53.54,87.94,23.25,46.54,48,50.5l55.17-53.55Z"/><path class="cls-37" d="M2591,1251.16s-41.14,34-47,64.65,4.58,241.63,4.58,241.63,31.34,34,125.38,22.86c0,0,88.16-81,90.12-82.94s-39.84-80.52-39.84-80.52,47.68-12.21,59.43-27.88c0,0-14.37-145-128-137.8C2655.63,1251.16,2627.55,1276,2591,1251.16Z"/><path class="cls-5" d="M2783.63,1389s-7.84,12.67-59.43,27.88c0,0,16.33,55.05,15,67.46-1.26,12-101,120.62-108,128.22l-.69-.35s-53.44,16.94-54.08,19.16.85,3.34,20.41,4.4a1.6,1.6,0,0,1,1.21,2.54c-5.86,7.92-24.12,33-22.44,34.89,2,2.31,18.86-19.66,21.56-18.79s-14.29,21.89-11.76,24,17.39-17.55,18.77-17-10.83,20.89-10.09,23,16.42-18,18.28-17.86-4.34,17.67-2.89,18.37,2.29,1.41,27.54-34l9.34-14.37.09-1c10-5.38,136.45-74.33,150.87-127C2812.36,1453.61,2783.63,1389,2783.63,1389Z"/><path class="cls-5" d="M2406.14,1209.34c4.87,4.77,6.52,11,3.69,13.87s-9.07,1.37-13.94-3.4-6.52-11-3.69-13.86S2401.27,1204.58,2406.14,1209.34Z"/><path class="cls-5" d="M2398.74,1216.9c4.87,4.77,6.52,11,3.69,13.87s-9.07,1.37-13.94-3.4-6.52-11-3.69-13.86S2393.87,1212.14,2398.74,1216.9Z"/><path class="cls-5" d="M2391.34,1224.47c4.86,4.76,6.51,11,3.68,13.86s-9.07,1.37-13.94-3.39-6.51-11-3.68-13.87S2386.47,1219.7,2391.34,1224.47Z"/><path class="cls-5" d="M2383.93,1232c4.87,4.76,6.52,11,3.69,13.86s-9.07,1.37-13.94-3.39-6.52-11-3.69-13.87S2379.06,1227.26,2383.93,1232Z"/><path class="cls-4" d="M2595,1196.39c.87,6.19,6.37,11.19,13.34,11.64s13.07-3.78,14.72-9.8Z"/><path class="cls-8" d="M2683,1170.69s14.62-52.35-13.75-73.54-59.45-20.42-81.08-9.53-36.11,51.7-27.69,75.8l71.06-19.32Z"/><path class="cls-9" d="M2574.49,1170.15c2.61,6.78.33,14-5.08,16.06s-11.91-1.71-14.52-8.49-.33-14,5.08-16.06S2571.88,1163.37,2574.49,1170.15Z"/><path class="cls-5" d="M2575.67,1209.54a54.59,54.59,0,0,1-4-9.29,104.41,104.41,0,0,1-5.13-26c-.13-1.72-.36-3.43-.63-5.14a56.1,56.1,0,1,1,111.5-7.58,12.11,12.11,0,0,1,10.93-.65c6.6,3.11,8.8,12.33,4.93,20.59s-12.36,12.45-19,9.34a10.47,10.47,0,0,1-2.48-1.64c-3.32,27.46-26.22,48.27-53.19,47.31a50.31,50.31,0,0,1-33.87-14.9,26,26,0,0,1-1.86-1.82A48.7,48.7,0,0,1,2575.67,1209.54Z"/><path class="cls-9" d="M2608.73,1159.71c-.37,3.2-.65,6.33-1.07,9.38s-1,6.16-2.41,8.18l-.27.32a4.6,4.6,0,0,1-.33.39,8.09,8.09,0,0,0-1,1.14,6.41,6.41,0,0,0-1.07,2.87,6.64,6.64,0,0,0,2,5.39,10.78,10.78,0,0,0,9.46,2.67c-3.08-.81-6-2.13-7.56-4.32a4.3,4.3,0,0,1-.89-3.31,3.53,3.53,0,0,1,.67-1.48,5.15,5.15,0,0,1,.58-.67l.44-.5.5-.58a12.64,12.64,0,0,0,1.94-5,26.73,26.73,0,0,0,.38-4.94A33.35,33.35,0,0,0,2608.73,1159.71Z"/><path class="cls-10" d="M2626.92,1165.48a4.9,4.9,0,1,0,5.07-4.73A4.91,4.91,0,0,0,2626.92,1165.48Z"/><path class="cls-10" d="M2584.81,1166.74a4.9,4.9,0,1,0,5.07-4.73A4.91,4.91,0,0,0,2584.81,1166.74Z"/><path class="cls-8" d="M2621.71,1153.93a51,51,0,0,1,7.28-1.12,24.7,24.7,0,0,1,6.79.41,23.15,23.15,0,0,1,6.37,2.27c1.1.44,2,1.19,3.12,1.76s2,1.43,3.2,2.07a19.6,19.6,0,0,0-1.9-3.44,16.69,16.69,0,0,0-2.73-2.91,15.87,15.87,0,0,0-7.32-3.54,16.42,16.42,0,0,0-8.1.4A15.14,15.14,0,0,0,2621.71,1153.93Z"/><path class="cls-8" d="M2600,1154.58a15.06,15.06,0,0,0-6.83-3.89,16.52,16.52,0,0,0-8.12-.16,15.81,15.81,0,0,0-7.2,3.76,17.42,17.42,0,0,0-2.65,3,21.79,21.79,0,0,0-1.79,3.5c1.17-.68,2.1-1.49,3.14-2.16s2-1.38,3.06-1.86a23,23,0,0,1,6.31-2.46,24.42,24.42,0,0,1,6.77-.62A48.89,48.89,0,0,1,2600,1154.58Z"/><path class="cls-8" d="M2676.53,1162.29c3.33-2.65,5.79-2.33,5.79-2.33l-.71-17.17-4.86-10.54s-19.58-28.64-20.28-29.36-16.18-10.38-17.13-10.88-23.32,1.89-23.32,1.89-38.73-9.7-33,11.06,33.77,32.74,35.27,31.89c-4.43-4.79-4.34-17.84-4.34-17.84C2633.18,1141.84,2670.68,1159.61,2676.53,1162.29Z"/><path class="cls-4" d="M2598.85,1198.17c1.64,6,7.74,10.29,14.71,9.86s12.49-5.4,13.36-11.58Z"/><polygon class="cls-5" points="1589.94 1886.26 1595.88 1934.06 1627.87 1936.55 1627.37 1892.21 1589.94 1886.26"/><path class="cls-4" d="M1676.48,1971.54l-87.4.59a3.35,3.35,0,0,1-3.42-3.36l0-2.52a3.5,3.5,0,0,1,3.49-3.42l87.39-.59a3.37,3.37,0,0,1,3.43,3.37l0,2.52A3.49,3.49,0,0,1,1676.48,1971.54Z"/><path class="cls-38" d="M1590.27,1934.59l-3.35,25.87c-.41,3.19,1.38,6.08,3.77,6.06l83.11-.56a6.18,6.18,0,0,0,5.46-3.84c1.19-2.55,1.45-6.38-2.22-11.51-7.35-10.25-31.78-12.6-43.66-21.31l-38.71.26C1592.51,1929.57,1590.65,1931.7,1590.27,1934.59Z"/><path class="cls-4" d="M1627.37,1944.35h0a1.71,1.71,0,0,1-.45-2.1c1.66-3.56,6.84-12.22,17.2-10.52.6.1,1,.88.89,1.69v0c-.11.78-.65,1.29-1.23,1.2-9.29-1.49-13.69,6.14-15,9.12C1628.45,1944.39,1627.87,1944.65,1627.37,1944.35Z"/><path class="cls-4" d="M1636,1947.62h0a1.71,1.71,0,0,1-.46-2.1c1.66-3.56,6.84-12.22,17.2-10.52.6.1,1,.88.89,1.69v0c-.11.78-.65,1.29-1.23,1.2-9.29-1.49-13.69,6.14-15,9.12A1,1,0,0,1,1636,1947.62Z"/><path class="cls-4" d="M1644,1950.67h0a1.71,1.71,0,0,1-.46-2.1c1.66-3.56,6.84-12.22,17.2-10.52.6.1,1,.88.89,1.69v0c-.11.78-.65,1.29-1.23,1.2-9.29-1.49-13.69,6.14-15,9.12A1,1,0,0,1,1644,1950.67Z"/><path class="cls-32" d="M1612.88,1966.37c-6.37-20.84-17.63-23.07-23.8-22.55l-2.16,16.64c-.41,3.19,1.38,6.08,3.77,6.06Z"/><polygon class="cls-5" points="1540.83 1887.27 1554.97 1933.4 1587.53 1933.63 1581.86 1899.95 1540.83 1887.27"/><path class="cls-4" d="M1634.29,1972.4l-87.39.59a3.37,3.37,0,0,1-3.43-3.37l0-2.52a3.49,3.49,0,0,1,3.49-3.41l87.39-.59a3.36,3.36,0,0,1,3.43,3.36l0,2.52A3.5,3.5,0,0,1,1634.29,1972.4Z"/><path class="cls-28" d="M1548.08,1935.44l-3.35,25.88c-.41,3.19,1.39,6.07,3.78,6.06l83.1-.57a6.16,6.16,0,0,0,5.46-3.83c1.19-2.56,1.45-6.39-2.22-11.52-7.35-10.25-31.78-12.59-43.66-21.31l-38.71.26C1550.32,1930.43,1548.46,1932.56,1548.08,1935.44Z"/><path class="cls-4" d="M1585.19,1945.21h0a1.72,1.72,0,0,1-.46-2.11c1.66-3.55,6.84-12.21,17.2-10.51a1.42,1.42,0,0,1,.89,1.68v0c-.11.78-.65,1.29-1.23,1.2-9.29-1.5-13.69,6.14-15,9.11C1586.26,1945.25,1585.68,1945.5,1585.19,1945.21Z"/><path class="cls-4" d="M1593.79,1948.47h0a1.7,1.7,0,0,1-.46-2.1c1.67-3.55,6.84-12.21,17.2-10.51a1.42,1.42,0,0,1,.89,1.68v0c-.11.78-.65,1.29-1.23,1.2-9.29-1.5-13.69,6.14-15,9.11A1,1,0,0,1,1593.79,1948.47Z"/><path class="cls-4" d="M1601.79,1951.53h0a1.72,1.72,0,0,1-.46-2.11c1.67-3.55,6.84-12.21,17.21-10.51.59.1,1,.88.88,1.68v0c-.11.78-.65,1.29-1.23,1.2-9.29-1.49-13.69,6.14-15,9.11A1,1,0,0,1,1601.79,1951.53Z"/><path class="cls-32" d="M1570.69,1967.23c-6.37-20.85-17.63-23.08-23.8-22.55l-2.16,16.64c-.41,3.19,1.39,6.07,3.78,6.06Z"/><path class="cls-34" d="M1438,1553.89s162,17.83,192.87,47.07,6.83,282.06,1.68,302.23c0,0-28.19,13.44-50.5,6.56s-10.38-136-10.38-136,2.57-92-.86-104.9-50.63-22.36-50.63-22.36-155.41-74.36-151.12-74.36S1438,1553.89,1438,1553.89Z"/><path class="cls-35" d="M1258.66,1592.19a328.2,328.2,0,0,1,11.32-77.47l72.71,62.77.64-5.6s182-21.66,206.88,60.88,41.21,278,41.21,278-18.23,24-50.84,9.37c0,0-49.36-216.86-66.63-234.06C1462.94,1675.12,1256.93,1688,1258.66,1592.19Z"/><path class="cls-5" d="M1506.72,1270a1.2,1.2,0,0,0,2-.64c1.3-7.25,5.56-30,7.48-30.12,2.28-.1-1,20.35.83,21.38s4.59-19,7-18.72-.64,18.47.35,18.95,5.82-16.62,7.37-17.31-1.39,18.18-.35,19.11,7.4-11.42,8.52-11,1.94.53-4.39,32.45l-3,12.46-8,8.82-13.42-5s-18.19-37.78-17.31-39.26S1496.11,1259.88,1506.72,1270Z"/><path class="cls-39" d="M1451.31,1396.56s24.8,58.75,67.24,59.4,17.62-163.86,17.62-163.86h-32s-4.55,87.48-6.85,88.14-22.53-48.31-22.53-48.31Z"/><polygon class="cls-5" points="1356.42 1204.89 1354.49 1233.22 1382.12 1250.24 1393.11 1244.83 1393.72 1209.75 1356.42 1204.89"/><path class="cls-9" d="M1393.33,1232.56l.39-22.81-37.29-4.86-.8,11.74A73.93,73.93,0,0,0,1393.33,1232.56Z"/><path class="cls-10" d="M1318.05,1162.13s-18.12-45.18,7.77-66.48,56.08-23.36,77.87-15.6,38.9,42.72,32.56,64.86L1365.91,1134Z"/><path class="cls-9" d="M1428.56,1154.35c-1.56,6.61,1.61,12.91,7.1,14.06s11.19-3.28,12.76-9.89-1.61-12.92-7.1-14.07S1430.13,1147.73,1428.56,1154.35Z"/><path class="cls-5" d="M1432.88,1190.79a49.68,49.68,0,0,0,2.59-9.13,93.22,93.22,0,0,0,1.33-24.64c-.11-1.6-.12-3.21-.11-4.82a50.39,50.39,0,0,0-3.8-19.81c-8.74-21.3-31.46-34.64-55.23-32.37-32,3-54.09,31.45-49,61.14a12.18,12.18,0,0,0-10.58,1c-5.91,3.8-6.75,12.61-1.89,19.66s13.59,9.7,19.49,5.89a10.76,10.76,0,0,0,2.16-1.86,50.45,50.45,0,0,0,57.6,36,49.69,49.69,0,0,0,30.44-18.56,21.22,21.22,0,0,0,1.53-1.94A45.21,45.21,0,0,0,1432.88,1190.79Z"/><path class="cls-10" d="M1379.58,1161.58a5,5,0,0,1-4.12,5.76,5,5,0,0,1-5.93-3.9,5.11,5.11,0,0,1,10-1.86Z"/><path class="cls-10" d="M1421.18,1156a5,5,0,0,1-4.12,5.76,4.92,4.92,0,1,1,4.12-5.76Z"/><path class="cls-10" d="M1382.76,1152.89a32.51,32.51,0,0,0-7.49-1.68,23.58,23.58,0,0,0-7.46.45,19.75,19.75,0,0,0-3.54,1.14c-.58.23-1.13.52-1.69.79-.29.14-.55.31-.82.46a8.21,8.21,0,0,0-.81.48,38.43,38.43,0,0,0-6,4.78,20.26,20.26,0,0,1,5.13-5.89,18.24,18.24,0,0,1,3.43-2.13,17.82,17.82,0,0,1,3.86-1.34,19.19,19.19,0,0,1,8.09-.09,20.76,20.76,0,0,1,3.82,1.14A15.94,15.94,0,0,1,1382.76,1152.89Z"/><path class="cls-10" d="M1403.18,1150.15a16.16,16.16,0,0,1,2.82-2.72,20.59,20.59,0,0,1,3.38-2.11,19.4,19.4,0,0,1,7.83-2,18,18,0,0,1,4.08.29,17.62,17.62,0,0,1,3.87,1.15,20.17,20.17,0,0,1,6.5,4.33,38.87,38.87,0,0,0-7-3,9.36,9.36,0,0,0-.91-.24c-.3-.07-.6-.17-.91-.23-.61-.11-1.22-.25-1.84-.32a20,20,0,0,0-3.71-.17,23.53,23.53,0,0,0-7.32,1.54A31.94,31.94,0,0,0,1403.18,1150.15Z"/><path class="cls-10" d="M1328.63,1161.16s34.79-19.18,51.4-43.48c0,0,1.16,11.94-2.4,16.67,1.41.66,25.47-12.45,28.84-31.89s-30.38-7.6-30.38-7.6-20.15-.49-21,.05-13.82,10.55-14.39,11.26-15.67,28.42-15.67,28.42l-3.46,10-3.56,17.52Z"/><path class="cls-40" d="M1388.6,1189.26a14.61,14.61,0,0,1,11.73-.07s5.57-4.45,10.8-1.61a11.49,11.49,0,0,1-11.07,9.7C1390.05,1198,1388.6,1189.26,1388.6,1189.26Z"/><path class="cls-9" d="M1383,1186.86a31.32,31.32,0,0,0,3.85,1.91,30.23,30.23,0,0,0,4,1.42,26.77,26.77,0,0,0,8.43,1,23,23,0,0,0,8.23-2,31.46,31.46,0,0,0,7.17-4.7,26.13,26.13,0,0,1-3.12,3,25.3,25.3,0,0,1-3.67,2.42,21.47,21.47,0,0,1-4.14,1.63,22.86,22.86,0,0,1-4.42.7,23.31,23.31,0,0,1-8.75-1.29A25.15,25.15,0,0,1,1383,1186.86Z"/><path class="cls-9" d="M1398,1156.83a58.15,58.15,0,0,1,4.67,6.4,52.54,52.54,0,0,1,3.81,7,20.11,20.11,0,0,1,1.29,3.86,7.59,7.59,0,0,1,.11,1.09c0,.19,0,.41,0,.61a2.71,2.71,0,0,1-.21.67l-.21.34-.19.21c-.13.13-.25.27-.38.39s-.53.48-.81.69a20.15,20.15,0,0,1-3.54,2.15,27.62,27.62,0,0,1-3.8,1.52,45.62,45.62,0,0,0,6.48-4.6c.24-.22.44-.45.66-.68l.29-.34.14-.17a.14.14,0,0,1,0-.09,2.86,2.86,0,0,0-.08-1.48,20,20,0,0,0-1.28-3.53c-1-2.35-2.23-4.65-3.4-7S1399.16,1159.21,1398,1156.83Z"/><path class="cls-10" d="M1354.5,1089.58s-32-61.59-85.5-56.32-65.24,48.62-62.8,70.1,17,45.38,3.24,75.36-10.54,75,31.6,71.52,32.82-46.53,33.23-61.86,30-13.73,22.69-41.68-26.74-56.71.4-60.77,43.36,8.51,43.36,8.51Z"/><path class="cls-41" d="M1463.37,1231.13v45.35a16.22,16.22,0,0,0,16.23,16.23h21.78a16.24,16.24,0,0,0,15.61-11.77,20.33,20.33,0,0,0,.62-40.64v-9.17Zm54.24,42.83v-26.69a13.38,13.38,0,0,1,0,26.69Z"/><path class="cls-42" d="M1506.22,1231.13h11.39v45.35a16.23,16.23,0,0,1-16.23,16.23H1479.6a16.23,16.23,0,0,1-13-6.53C1512.23,1287.51,1506.22,1231.13,1506.22,1231.13Z"/><path class="cls-43" d="M1463.37,1231.64c0,2.81,12.17,5.08,27.19,5.08s27.18-2.27,27.18-5.08-12.17-5.08-27.18-5.08S1463.37,1228.83,1463.37,1231.64Z"/><path class="cls-41" d="M1465.56,1231.64c0,2.16,11.19,3.91,25,3.91s25-1.75,25-3.91-11.19-3.91-25-3.91S1465.56,1229.48,1465.56,1231.64Z"/><ellipse class="cls-16" cx="1490.56" cy="1232.67" rx="24.12" ry="2.88"/><path class="cls-42" d="M1532.08,1260.61a13.4,13.4,0,0,1-12.42,13.35v-.31a13.38,13.38,0,0,0,0-26.07v-.31A13.39,13.39,0,0,1,1532.08,1260.61Z"/><path class="cls-44" d="M1469.36,1272.88h0a2.21,2.21,0,0,0,2.21-2.22V1242a2.21,2.21,0,0,0-2.21-2.21h0a2.21,2.21,0,0,0-2.22,2.21v28.62A2.21,2.21,0,0,0,1469.36,1272.88Z"/><path class="cls-5" d="M1466.89,1274.37a1.19,1.19,0,0,0,2.1-.09c3.17-6.65,13.27-27.51,15.14-27.09,2.23.51-6.34,19.37-4.81,20.85s9.41-17.14,11.71-16.22-5.47,17.66-4.64,18.38,10-14.5,11.66-14.76-6.12,17.18-5.36,18.35,10.14-9.08,11.11-8.37,1.74,1-12.77,30.14l-6.19,11.23-10,6.42-11.64-8.32s-7.62-41.23-6.38-42.44S1459.31,1261.83,1466.89,1274.37Z"/><path class="cls-28" d="M1351.42,1228.13s-60.71,14.36-68.54,52.87-41.79,242.86-28.08,309.45c0,0,37.22,57.45,125.35-3.27,0,0,34.6-30,59.41-33.29l-22.2-99.23,42.43-129.91s5.23-75.73-51.57-86.18C1408.22,1238.57,1378.19,1249,1351.42,1228.13Z"/><path class="cls-38" d="M1300.18,1268.92c9.43-8.88,24.84-6,31,5.44,15.13,28.08,58.27,107.76,62,110.45,4.57,3.26,64.64-88.31,64.64-88.31s21.54.83,31.33,8.66c0,0-32.64,176.26-91.4,162.56-44.94-10.49-86.07-89.36-102.92-125.85a79.25,79.25,0,0,1-5.12-52.95C1291.73,1281.17,1295,1273.81,1300.18,1268.92Z"/><rect class="cls-45" x="1347.88" y="1486.93" width="25.11" height="484.91"/><rect class="cls-45" x="1584.83" y="1486.93" width="25.11" height="484.91"/><rect class="cls-45" x="2301.53" y="1486.93" width="25.11" height="484.91"/><rect class="cls-45" x="2538.48" y="1486.93" width="25.11" height="484.91"/><rect class="cls-4" x="1280.64" y="1461.74" width="1353.67" height="30.92" rx="2.51"/><rect class="cls-46" x="2292.74" y="1461.74" width="341.56" height="30.92" rx="2.51"/><rect class="cls-8" x="314.34" y="1971.65" width="2922.77" height="13.44"/><path class="cls-47" d="M743,1087.39h0a25.13,25.13,0,0,0-21.71-24.89v-32a40.92,40.92,0,0,0-40.93-40.93H515.51a40.93,40.93,0,0,0-40.93,40.93v32.13a25.13,25.13,0,0,0-20.76,24.74h0a25.13,25.13,0,0,0,20.76,24.74v167.62a25.12,25.12,0,0,0-20.76,24.73h0a25.12,25.12,0,0,0,20.76,24.74v3.7a40.94,40.94,0,0,0,40.93,40.93h32.57a10.65,10.65,0,0,1,10.65,10.65v11.68H637.1V1384.5a10.65,10.65,0,0,1,10.65-10.65h32.57a40.93,40.93,0,0,0,40.93-40.93v-3.55A25.13,25.13,0,0,0,743,1304.48h0a25.12,25.12,0,0,0-21.71-24.88V1112.27A25.11,25.11,0,0,0,743,1087.39Z"/><polygon class="cls-24" points="474.58 1112.13 642.55 1114.26 474.58 1116.39 474.58 1112.13"/><polygon class="cls-24" points="721.24 1058.24 553.27 1060.38 721.24 1062.51 721.24 1058.24"/><polygon class="cls-24" points="474.58 1329.18 642.55 1331.32 474.58 1333.45 474.58 1329.18"/><polygon class="cls-24" points="721.24 1275.3 553.27 1277.43 721.24 1279.57 721.24 1275.3"/><path class="cls-48" d="M743,1087.39h0a25.13,25.13,0,0,0-21.71-24.89v-32a40.92,40.92,0,0,0-40.93-40.93H651.13c-13.3,115.69-49.11,290.71-145.42,383.07a41.09,41.09,0,0,0,9.8,1.19h32.57a10.65,10.65,0,0,1,10.65,10.65v11.68H637.1V1384.5a10.65,10.65,0,0,1,10.65-10.65h32.57a40.93,40.93,0,0,0,40.93-40.93v-3.55A25.13,25.13,0,0,0,743,1304.48h0a25.12,25.12,0,0,0-21.71-24.88V1112.27A25.11,25.11,0,0,0,743,1087.39Z"/><ellipse class="cls-24" cx="597.92" cy="1188.45" rx="123.34" ry="7.48"/><path class="cls-49" d="M721.25,1279.6v-91.11c-.4,4.11-55.46,7.43-123.33,7.43-68.12,0-123.34-3.34-123.34-7.47v91.3a25.12,25.12,0,0,0,0,49.47v3.7a40.94,40.94,0,0,0,40.93,40.93h32.57a10.65,10.65,0,0,1,10.65,10.65v11.68H637.1V1384.5a10.65,10.65,0,0,1,10.65-10.65h32.57a40.93,40.93,0,0,0,40.93-40.93v-3.55a25.12,25.12,0,0,0,0-49.77Z"/><rect class="cls-50" x="533.5" y="1389.01" width="129.77" height="52.27" rx="4.44"/><rect class="cls-24" x="459.03" y="1396.18" width="278.72" height="575.57" rx="23.66"/><path class="cls-50" d="M528.69,1484.19h139.4a14.25,14.25,0,0,1,14.25,14.25v165.34a0,0,0,0,1,0,0H514.43a0,0,0,0,1,0,0V1498.44A14.25,14.25,0,0,1,528.69,1484.19Z"/><path class="cls-25" d="M540.4,1497h116a11.86,11.86,0,0,1,11.86,11.86v154.89a0,0,0,0,1,0,0H528.54a0,0,0,0,1,0,0V1508.89A11.86,11.86,0,0,1,540.4,1497Z"/><rect class="cls-50" x="497.43" y="1663.78" width="204.3" height="11.85" rx="1.01"/><path class="cls-51" d="M691.63,1959.75H505.15a32.38,32.38,0,0,1-32.35-32.35V1458.66a32.38,32.38,0,0,1,32.35-32.35H691.63A32.39,32.39,0,0,1,724,1458.66V1927.4A32.39,32.39,0,0,1,691.63,1959.75ZM505.15,1428.44a30.25,30.25,0,0,0-30.21,30.22V1927.4a30.25,30.25,0,0,0,30.21,30.22H691.63a30.25,30.25,0,0,0,30.21-30.22V1458.66a30.25,30.25,0,0,0-30.21-30.22Z"/><path class="cls-50" d="M501.06,1934.46a5.77,5.77,0,1,1-5.77-5.77A5.76,5.76,0,0,1,501.06,1934.46Z"/><path class="cls-50" d="M501.06,1453.81a5.77,5.77,0,1,1-5.77-5.77A5.77,5.77,0,0,1,501.06,1453.81Z"/><path class="cls-50" d="M707.49,1934.46a5.77,5.77,0,1,1-5.77-5.77A5.76,5.76,0,0,1,707.49,1934.46Z"/><path class="cls-50" d="M707.49,1453.81a5.77,5.77,0,1,1-5.77-5.77A5.77,5.77,0,0,1,707.49,1453.81Z"/><path class="cls-51" d="M667.69,1888.79H529.09A16.09,16.09,0,0,1,513,1872.72V1823a16.09,16.09,0,0,1,16.08-16.08h138.6A16.09,16.09,0,0,1,683.77,1823v49.71A16.09,16.09,0,0,1,667.69,1888.79Zm-138.6-79A13.24,13.24,0,0,0,515.86,1823v49.71A13.24,13.24,0,0,0,529.09,1886h138.6a13.24,13.24,0,0,0,13.23-13.23V1823a13.24,13.24,0,0,0-13.23-13.23Z"/><path class="cls-4" d="M567.64,1575.81h-1.23l3.21-29a3.17,3.17,0,0,0-3.16-3.52H555a3.17,3.17,0,0,0-3.16,3.52l3.21,29h-1.23a2.38,2.38,0,0,0-2.37,2.37v7.94a2.37,2.37,0,0,0,2.37,2.37h13.81a2.37,2.37,0,0,0,2.37-2.37v-7.94A2.38,2.38,0,0,0,567.64,1575.81Z"/><rect class="cls-52" x="549.41" y="1579.95" width="22.85" height="4.86" rx="0.41"/><path class="cls-4" d="M642.75,1575.81h-1.22l3.2-29a3.17,3.17,0,0,0-3.15-3.52H630.12a3.17,3.17,0,0,0-3.16,3.52l3.21,29h-1.23a2.38,2.38,0,0,0-2.37,2.37v7.94a2.37,2.37,0,0,0,2.37,2.37h13.81a2.37,2.37,0,0,0,2.37-2.37v-7.94A2.38,2.38,0,0,0,642.75,1575.81Z"/><rect class="cls-53" x="624.52" y="1579.95" width="22.85" height="4.86" rx="0.41"/><polygon class="cls-14" points="641.81 1604.45 629.88 1604.45 612.69 1604.45 622.7 1663.9 629.88 1663.9 641.81 1663.9 648.99 1663.9 659 1604.45 641.81 1604.45"/><rect class="cls-53" x="609" y="1603.71" width="53.69" height="6.35" rx="0.54"/><path class="cls-54" d="M620.84,1619.4a18.43,18.43,0,0,0-5.49.84l6,35.8a18.32,18.32,0,0,0-.54-36.64Z"/><path class="cls-8" d="M1747.3,1334.33H1574.77l-48.91,119.3h-83.11a4.21,4.21,0,0,0-4.21,4.2h0a4.21,4.21,0,0,0,4.21,4.21H1690Z"/><path class="cls-53" d="M1661.75,1402.41c-1,5.08-5.45,8.48-9.91,7.59s-7.23-5.73-6.22-10.82,5.46-8.48,9.91-7.59S1662.77,1397.32,1661.75,1402.41Z"/><rect class="cls-4" x="2652.92" y="894.59" width="26.67" height="107.9"/><rect class="cls-55" x="2849.19" y="936.67" width="21.2" height="107.9" transform="translate(3850.41 -1869.16) rotate(90)"/><rect class="cls-4" x="2863.54" y="915.41" width="21.2" height="107.9" transform="translate(3843.5 -1904.79) rotate(90)"/><rect class="cls-27" x="2841.21" y="894.67" width="21.2" height="107.9" transform="translate(3800.43 -1903.19) rotate(90)"/><rect class="cls-55" x="2683.16" y="851.13" width="27.27" height="149.77"/><rect class="cls-27" x="2624.63" y="867.64" width="25.12" height="133.26"/><rect class="cls-27" x="2738.41" y="867.64" width="25.12" height="133.26" transform="translate(-131.01 1301.51) rotate(-26.02)"/><path class="cls-55" d="M3000.63,855.7a12,12,0,0,0-12,12V881a4.43,4.43,0,0,1-4.43,4.43h-5.48v-24.3a16.06,16.06,0,0,0-32.12,0v51.16h-3.08a7.08,7.08,0,0,1-7.08-7.07V894.53a12,12,0,0,0-12-12h0a12,12,0,0,0-12,12v17.78a24,24,0,0,0,23.95,24h10.16v30.55h32.12V909.41h9.91a24,24,0,0,0,24-24V867.68A12,12,0,0,0,3000.63,855.7Z"/><path class="cls-56" d="M2962.44,966.82V845.1a16.05,16.05,0,0,0-15.82,16v51.16h-3.08a7.08,7.08,0,0,1-7.08-7.07V894.53a12,12,0,0,0-12-12h0a12,12,0,0,0-12,12v17.78a24,24,0,0,0,23.95,24h10.16v30.55Z"/><path class="cls-8" d="M2972.51,1000.14h-20.15a17,17,0,0,1-17-16.95v-37.1h54.05v37.1A17,17,0,0,1,2972.51,1000.14Z"/><rect class="cls-8" x="2604.69" y="1000.14" width="431.45" height="12.19"/><ellipse class="cls-27" cx="673.6" cy="616.14" rx="121.65" ry="121.91"/><ellipse class="cls-4" cx="673.6" cy="616.14" rx="104.17" ry="104.38"/><rect class="cls-27" x="579.29" y="596.37" width="2.96" height="38.4" transform="translate(-34.79 1196.34) rotate(-90)"/><rect class="cls-27" x="765.18" y="596.37" width="2.96" height="38.4" transform="translate(151.09 1382.23) rotate(-90)"/><rect class="cls-27" x="671.96" y="504.67" width="2.95" height="38.48"/><rect class="cls-27" x="671.96" y="690.2" width="2.95" height="38.48"/><path class="cls-27" d="M676.78,616.14A3.18,3.18,0,1,1,673.6,613,3.19,3.19,0,0,1,676.78,616.14Z"/><path class="cls-27" d="M673.6,617.57a1.42,1.42,0,0,1-1-.42l-57.12-57.24a1.43,1.43,0,0,1,0-2,1.41,1.41,0,0,1,2,0l57.12,57.24a1.43,1.43,0,0,1-1,2.43Z"/><path class="cls-27" d="M692,674a1.05,1.05,0,0,1-.51-.6L673,617.5a1,1,0,0,1,2-.65l18.46,55.89A1,1,0,0,1,692,674Z"/><rect class="cls-27" x="834.45" y="883.8" width="29.03" height="117.69"/><rect class="cls-41" x="1048.06" y="929.82" width="23.12" height="117.45" transform="translate(2048.17 -71.08) rotate(90)"/><rect class="cls-27" x="1063.69" y="906.62" width="23.12" height="117.45" transform="translate(2040.6 -109.9) rotate(90)"/><rect class="cls-4" x="1039.38" y="884.01" width="23.12" height="117.45" transform="translate(1993.68 -108.21) rotate(90)"/><rect class="cls-4" x="867.37" y="836.39" width="29.69" height="163.36"/><rect class="cls-41" x="803.66" y="854.4" width="27.34" height="145.36"/><polygon class="cls-41" points="985.28 986.37 960.71 998.4 897.07 867.77 921.64 855.75 985.28 986.37"/><rect class="cls-50" x="781.96" y="998.93" width="359.91" height="13.3"/><rect class="cls-4" x="803.66" y="865.84" width="27.34" height="9.43"/><rect class="cls-57" x="840.83" y="893.76" width="16.28" height="44.9"/><rect class="cls-57" x="867.37" y="854.4" width="29.69" height="7.09"/><rect class="cls-57" x="867.37" y="976.91" width="29.69" height="9.3"/><rect class="cls-4" x="1100.09" y="607.83" width="203.81" height="203.81"/><rect class="cls-25" x="1120.97" y="628.71" width="162.04" height="162.04"/><rect class="cls-4" x="2739.76" y="528.22" width="161.69" height="161.69"/><rect class="cls-25" x="2756.32" y="544.79" width="128.56" height="128.56"/><rect class="cls-4" x="897.18" y="493.3" width="139.72" height="139.72"/><rect class="cls-25" x="911.5" y="507.62" width="111.09" height="111.09"/><rect class="cls-4" x="2572.35" y="635.66" width="109.08" height="109.07"/><rect class="cls-25" x="2583.53" y="646.84" width="86.72" height="86.72"/></g></g></svg>