<svg id="Layer_1" data-name="Layer 1" xmlns="http://www.w3.org/2000/svg" xmlns:xlink="http://www.w3.org/1999/xlink" viewBox="0 0 450 450"><defs><style>.cls-1{fill:none;}.cls-2{fill:#8050f2;}.cls-3{fill:#623ca4;}.cls-4{fill:#a184e9;}.cls-5{fill:#99aff0;}.cls-6{fill:#c7b2fd;}.cls-7{fill:#7c4f84;}.cls-8{fill:#b48db8;}.cls-9{fill:#986c9e;}.cls-10{fill:url(#linear-gradient);}.cls-11{fill:url(#linear-gradient-2);}.cls-12{fill:url(#linear-gradient-3);}.cls-13{fill:url(#linear-gradient-4);}.cls-14{fill:url(#linear-gradient-5);}.cls-15{fill:url(#linear-gradient-6);}.cls-16{fill:url(#linear-gradient-7);}.cls-17{fill:url(#linear-gradient-8);}.cls-18{fill:url(#linear-gradient-9);}.cls-19{fill:url(#linear-gradient-10);}.cls-20{fill:url(#linear-gradient-11);}.cls-21{fill:url(#linear-gradient-12);}.cls-22{fill:url(#linear-gradient-13);}.cls-23{fill:url(#linear-gradient-14);}.cls-24{fill:url(#linear-gradient-15);}.cls-25{fill:url(#linear-gradient-16);}.cls-26{fill:url(#linear-gradient-17);}.cls-27{fill:url(#linear-gradient-18);}.cls-28{fill:url(#linear-gradient-19);}.cls-29{fill:url(#linear-gradient-20);}.cls-30{fill:url(#linear-gradient-21);}.cls-31{fill:url(#linear-gradient-22);}.cls-32{fill:url(#linear-gradient-23);}.cls-33{fill:url(#linear-gradient-24);}.cls-34{fill:url(#linear-gradient-25);}.cls-35{fill:url(#linear-gradient-26);}.cls-36{fill:url(#linear-gradient-27);}.cls-37{fill:url(#linear-gradient-28);}.cls-38{fill:url(#linear-gradient-29);}.cls-39{fill:url(#linear-gradient-30);}.cls-40{fill:url(#linear-gradient-31);}.cls-41{fill:url(#linear-gradient-32);}.cls-42{fill:url(#linear-gradient-33);}.cls-43{fill:url(#linear-gradient-34);}.cls-44{fill:url(#linear-gradient-35);}.cls-45{fill:url(#linear-gradient-36);}.cls-46{fill:url(#linear-gradient-37);}.cls-47{fill:url(#linear-gradient-38);}.cls-48{fill:url(#linear-gradient-39);}.cls-49{fill:url(#linear-gradient-40);}.cls-50{fill:url(#linear-gradient-41);}.cls-51{fill:url(#linear-gradient-42);}.cls-52{fill:url(#linear-gradient-43);}.cls-53{fill:url(#linear-gradient-44);}.cls-54{fill:url(#linear-gradient-45);}.cls-55{fill:url(#linear-gradient-46);}.cls-56{fill:url(#linear-gradient-47);}.cls-57{fill:url(#linear-gradient-48);}.cls-58{fill:url(#linear-gradient-49);}.cls-59{fill:url(#linear-gradient-50);}.cls-60{fill:url(#linear-gradient-51);}.cls-61{fill:url(#linear-gradient-52);}.cls-62{fill:url(#linear-gradient-53);}.cls-63{fill:url(#linear-gradient-54);}.cls-64{fill:url(#linear-gradient-55);}.cls-65{fill:url(#linear-gradient-56);}.cls-66{fill:url(#linear-gradient-57);}.cls-67{fill:url(#linear-gradient-58);}.cls-68{fill:url(#linear-gradient-59);}.cls-69{fill:url(#linear-gradient-60);}.cls-70{fill:url(#linear-gradient-61);}.cls-71{fill:url(#linear-gradient-62);}.cls-72{fill:url(#linear-gradient-63);}.cls-73{fill:url(#linear-gradient-64);}.cls-74{fill:url(#linear-gradient-65);}.cls-75{fill:url(#linear-gradient-66);}.cls-76{fill:url(#linear-gradient-67);}.cls-77{fill:url(#linear-gradient-68);}.cls-78{fill:url(#linear-gradient-69);}.cls-79{fill:url(#linear-gradient-70);}.cls-80{fill:url(#linear-gradient-71);}.cls-81{fill:url(#linear-gradient-72);}.cls-82{fill:#fcd838;}.cls-83{opacity:0.31;}.cls-84{fill:#a27fb0;}.cls-85{fill:#956b9b;}.cls-105,.cls-86{fill:#190128;}.cls-87{fill:#fb7d5d;}.cls-88,.cls-90{opacity:0.06;}.cls-88{fill:url(#linear-gradient-73);}.cls-89{fill:#dccbde;}.cls-90{fill:url(#linear-gradient-74);}.cls-91{fill:#a2bfef;}.cls-92{fill:#879ade;}.cls-93{clip-path:url(#clip-path);}.cls-104,.cls-94{fill:#1e3667;}.cls-95{fill:#2e1238;}.cls-96{fill:#562c77;}.cls-97{fill:#925f97;}.cls-98{fill:#3c0a59;}.cls-99{fill:#aa80a0;}.cls-100{fill:#452751;}.cls-101{fill:#ed8d9b;}.cls-102,.cls-119{fill:#2a3463;}.cls-102,.cls-104,.cls-105{fill-rule:evenodd;}.cls-103{fill:#ec6379;}.cls-106{fill:#fdfdfd;}.cls-107{fill:#e9e3ff;}.cls-108,.cls-110{fill:#120a30;}.cls-108{opacity:0.25;}.cls-109{fill:#c4a1ba;}.cls-111{fill:#f7991d;}.cls-112{fill:#f6b735;}.cls-113{fill:#fad445;}.cls-114{fill:#fff;}.cls-115{fill:#d3e2f7;}.cls-116{fill:#a1e1fd;}.cls-117{fill:#32b2f6;}.cls-118{fill:#6dd1fd;}.cls-120{fill:#e8be33;}.cls-121{fill:#f2ca25;}.cls-122{fill:#ad3447;}.cls-123{fill:#d84e64;}.cls-124{fill:#96cc46;}.cls-125{fill:#254f24;}.cls-126{fill:#6d8a42;}.cls-127{fill:#ea6f00;}.cls-128{fill:#ff871a;}.cls-129{fill:#ffae59;}.cls-130{fill:#761f24;}</style><linearGradient id="linear-gradient" x1="86.83" y1="240.99" x2="90.28" y2="240.99" gradientTransform="translate(56.98)" gradientUnits="userSpaceOnUse"><stop offset="0" stop-color="#dccbde"/><stop offset="1" stop-color="#b48db8"/></linearGradient><linearGradient id="linear-gradient-2" x1="89.64" y1="242.62" x2="93.08" y2="242.62" xlink:href="#linear-gradient"/><linearGradient id="linear-gradient-3" x1="123.32" y1="262.21" x2="126.77" y2="262.21" xlink:href="#linear-gradient"/><linearGradient id="linear-gradient-4" x1="84.46" y1="242.15" x2="88.67" y2="242.15" xlink:href="#linear-gradient"/><linearGradient id="linear-gradient-5" x1="87.27" y1="243.78" x2="91.48" y2="243.78" xlink:href="#linear-gradient"/><linearGradient id="linear-gradient-6" x1="115.34" y1="260.1" x2="119.55" y2="260.1" xlink:href="#linear-gradient"/><linearGradient id="linear-gradient-7" x1="112.53" y1="258.47" x2="116.75" y2="258.47" xlink:href="#linear-gradient"/><linearGradient id="linear-gradient-8" x1="109.72" y1="256.84" x2="113.94" y2="256.84" xlink:href="#linear-gradient"/><linearGradient id="linear-gradient-9" x1="106.92" y1="255.21" x2="111.13" y2="255.21" xlink:href="#linear-gradient"/><linearGradient id="linear-gradient-10" x1="104.11" y1="253.57" x2="108.33" y2="253.57" xlink:href="#linear-gradient"/><linearGradient id="linear-gradient-11" x1="101.3" y1="251.94" x2="105.52" y2="251.94" xlink:href="#linear-gradient"/><linearGradient id="linear-gradient-12" x1="98.49" y1="250.31" x2="102.71" y2="250.31" xlink:href="#linear-gradient"/><linearGradient id="linear-gradient-13" x1="95.69" y1="248.68" x2="99.9" y2="248.68" xlink:href="#linear-gradient"/><linearGradient id="linear-gradient-14" x1="92.88" y1="247.04" x2="97.1" y2="247.04" xlink:href="#linear-gradient"/><linearGradient id="linear-gradient-15" x1="90.07" y1="245.41" x2="94.29" y2="245.41" xlink:href="#linear-gradient"/><linearGradient id="linear-gradient-16" x1="118.15" y1="262.55" x2="125.17" y2="262.55" xlink:href="#linear-gradient"/><linearGradient id="linear-gradient-17" x1="82.17" y1="243.87" x2="87.76" y2="243.87" xlink:href="#linear-gradient"/><linearGradient id="linear-gradient-18" x1="118.69" y1="264.7" x2="122.89" y2="264.7" xlink:href="#linear-gradient"/><linearGradient id="linear-gradient-19" x1="79.89" y1="245.38" x2="86.09" y2="245.38" xlink:href="#linear-gradient"/><linearGradient id="linear-gradient-20" x1="108.79" y1="261.6" x2="113" y2="261.6" xlink:href="#linear-gradient"/><linearGradient id="linear-gradient-21" x1="105.75" y1="259.87" x2="109.96" y2="259.87" xlink:href="#linear-gradient"/><linearGradient id="linear-gradient-22" x1="102.71" y1="258.13" x2="106.92" y2="258.13" xlink:href="#linear-gradient"/><linearGradient id="linear-gradient-23" x1="99.67" y1="256.39" x2="103.88" y2="256.39" xlink:href="#linear-gradient"/><linearGradient id="linear-gradient-24" x1="96.63" y1="254.65" x2="100.84" y2="254.65" xlink:href="#linear-gradient"/><linearGradient id="linear-gradient-25" x1="93.59" y1="252.91" x2="97.8" y2="252.91" xlink:href="#linear-gradient"/><linearGradient id="linear-gradient-26" x1="90.55" y1="251.17" x2="94.76" y2="251.17" xlink:href="#linear-gradient"/><linearGradient id="linear-gradient-27" x1="87.51" y1="249.43" x2="91.72" y2="249.43" xlink:href="#linear-gradient"/><linearGradient id="linear-gradient-28" x1="84.47" y1="247.69" x2="88.69" y2="247.69" xlink:href="#linear-gradient"/><linearGradient id="linear-gradient-29" x1="111.8" y1="263.36" x2="116.02" y2="263.36" xlink:href="#linear-gradient"/><linearGradient id="linear-gradient-30" x1="114.56" y1="265.49" x2="120.6" y2="265.49" xlink:href="#linear-gradient"/><linearGradient id="linear-gradient-31" x1="77.61" y1="246.94" x2="84.63" y2="246.94" xlink:href="#linear-gradient"/><linearGradient id="linear-gradient-32" x1="83.22" y1="249.39" x2="87.44" y2="249.39" xlink:href="#linear-gradient"/><linearGradient id="linear-gradient-33" x1="108.49" y1="264.09" x2="112.71" y2="264.09" xlink:href="#linear-gradient"/><linearGradient id="linear-gradient-34" x1="105.68" y1="262.45" x2="109.9" y2="262.45" xlink:href="#linear-gradient"/><linearGradient id="linear-gradient-35" x1="102.87" y1="260.82" x2="107.09" y2="260.82" xlink:href="#linear-gradient"/><linearGradient id="linear-gradient-36" x1="100.07" y1="259.18" x2="104.28" y2="259.18" xlink:href="#linear-gradient"/><linearGradient id="linear-gradient-37" x1="97.26" y1="257.55" x2="101.48" y2="257.55" xlink:href="#linear-gradient"/><linearGradient id="linear-gradient-38" x1="94.45" y1="255.91" x2="98.67" y2="255.91" xlink:href="#linear-gradient"/><linearGradient id="linear-gradient-39" x1="91.65" y1="254.28" x2="95.86" y2="254.28" xlink:href="#linear-gradient"/><linearGradient id="linear-gradient-40" x1="88.84" y1="252.64" x2="93.05" y2="252.64" xlink:href="#linear-gradient"/><linearGradient id="linear-gradient-41" x1="86.03" y1="251.01" x2="90.25" y2="251.01" xlink:href="#linear-gradient"/><linearGradient id="linear-gradient-42" x1="111.5" y1="266.6" x2="118.32" y2="266.6" xlink:href="#linear-gradient"/><linearGradient id="linear-gradient-43" x1="75.33" y1="247.46" x2="79.54" y2="247.46" xlink:href="#linear-gradient"/><linearGradient id="linear-gradient-44" x1="78.13" y1="249.09" x2="82.35" y2="249.09" xlink:href="#linear-gradient"/><linearGradient id="linear-gradient-45" x1="80.94" y1="250.72" x2="85.16" y2="250.72" xlink:href="#linear-gradient"/><linearGradient id="linear-gradient-46" x1="83.69" y1="252.35" x2="87.91" y2="252.35" xlink:href="#linear-gradient"/><linearGradient id="linear-gradient-47" x1="86.56" y1="258.88" x2="107.62" y2="258.88" xlink:href="#linear-gradient"/><linearGradient id="linear-gradient-48" x1="106.21" y1="265.68" x2="109.5" y2="265.68" xlink:href="#linear-gradient"/><linearGradient id="linear-gradient-49" x1="109.01" y1="267.05" x2="113.23" y2="267.05" xlink:href="#linear-gradient"/><linearGradient id="linear-gradient-50" x1="111.82" y1="268.95" x2="115.12" y2="268.95" xlink:href="#linear-gradient"/><linearGradient id="linear-gradient-51" x1="115.73" y1="262.98" x2="119.93" y2="262.98" xlink:href="#linear-gradient"/><linearGradient id="linear-gradient-52" x1="112.77" y1="261.26" x2="116.97" y2="261.26" xlink:href="#linear-gradient"/><linearGradient id="linear-gradient-53" x1="109.81" y1="259.54" x2="114.01" y2="259.54" xlink:href="#linear-gradient"/><linearGradient id="linear-gradient-54" x1="106.85" y1="257.82" x2="111.05" y2="257.82" xlink:href="#linear-gradient"/><linearGradient id="linear-gradient-55" x1="103.89" y1="256.1" x2="108.09" y2="256.1" xlink:href="#linear-gradient"/><linearGradient id="linear-gradient-56" x1="100.93" y1="254.38" x2="105.13" y2="254.38" xlink:href="#linear-gradient"/><linearGradient id="linear-gradient-57" x1="97.97" y1="252.66" x2="102.17" y2="252.66" xlink:href="#linear-gradient"/><linearGradient id="linear-gradient-58" x1="95.01" y1="250.94" x2="99.21" y2="250.94" xlink:href="#linear-gradient"/><linearGradient id="linear-gradient-59" x1="92.05" y1="249.22" x2="96.25" y2="249.22" xlink:href="#linear-gradient"/><linearGradient id="linear-gradient-60" x1="89.09" y1="247.5" x2="93.29" y2="247.5" xlink:href="#linear-gradient"/><linearGradient id="linear-gradient-61" x1="86.13" y1="245.78" x2="90.33" y2="245.78" xlink:href="#linear-gradient"/><linearGradient id="linear-gradient-62" x1="120.52" y1="260.58" x2="123.96" y2="260.58" xlink:href="#linear-gradient"/><linearGradient id="linear-gradient-63" x1="117.71" y1="258.94" x2="121.16" y2="258.94" xlink:href="#linear-gradient"/><linearGradient id="linear-gradient-64" x1="114.9" y1="257.31" x2="118.35" y2="257.31" xlink:href="#linear-gradient"/><linearGradient id="linear-gradient-65" x1="112.1" y1="255.68" x2="115.54" y2="255.68" xlink:href="#linear-gradient"/><linearGradient id="linear-gradient-66" x1="109.29" y1="254.04" x2="112.73" y2="254.04" xlink:href="#linear-gradient"/><linearGradient id="linear-gradient-67" x1="106.48" y1="252.41" x2="109.93" y2="252.41" xlink:href="#linear-gradient"/><linearGradient id="linear-gradient-68" x1="103.67" y1="250.77" x2="107.12" y2="250.77" xlink:href="#linear-gradient"/><linearGradient id="linear-gradient-69" x1="100.87" y1="249.14" x2="104.31" y2="249.14" xlink:href="#linear-gradient"/><linearGradient id="linear-gradient-70" x1="98.06" y1="247.5" x2="101.5" y2="247.5" xlink:href="#linear-gradient"/><linearGradient id="linear-gradient-71" x1="95.25" y1="245.87" x2="98.7" y2="245.87" xlink:href="#linear-gradient"/><linearGradient id="linear-gradient-72" x1="92.44" y1="244.23" x2="95.89" y2="244.23" xlink:href="#linear-gradient"/><linearGradient id="linear-gradient-73" x1="122.33" y1="199.17" x2="125.22" y2="220.27" gradientTransform="translate(56.98)" gradientUnits="userSpaceOnUse"><stop offset="0" stop-color="#fff"/><stop offset="0.15" stop-color="#d0c4d7"/><stop offset="0.32" stop-color="#a38cb1"/><stop offset="0.48" stop-color="#7e5d92"/><stop offset="0.63" stop-color="#623979"/><stop offset="0.77" stop-color="#4d1f67"/><stop offset="0.9" stop-color="#400f5d"/><stop offset="1" stop-color="#3c0a59"/></linearGradient><linearGradient id="linear-gradient-74" x1="184.23" y1="235.04" x2="187.12" y2="256.15" xlink:href="#linear-gradient-73"/><clipPath id="clip-path"><polygon class="cls-1" points="205 319.26 151.12 287.78 182.03 248.92 114.83 196.27 90.62 193.95 47.71 355.53 138.29 400.79 205 319.26"/></clipPath></defs><title>desk</title><polygon class="cls-2" points="208.9 392.25 201.91 388.07 201.91 316.93 208.9 321.12 208.9 392.25"/><polygon class="cls-2" points="87.29 321.64 80.3 317.45 80.3 243.78 87.29 247.97 87.29 321.64"/><polygon class="cls-3" points="87.29 321.64 165.96 278.03 128.69 225.05 87.29 247.97 87.29 321.64"/><polygon class="cls-3" points="281.03 348.71 208.9 392.25 208.9 321.12 281.03 277.57 281.03 348.71"/><polygon class="cls-4" points="208.75 321.46 77.12 244.4 77.12 240.04 283.34 272.26 283.34 276.62 208.75 321.46"/><polygon class="cls-5" points="208.75 317.1 77.12 240.04 152.69 193.95 283.34 272.26 208.75 317.1"/><polygon class="cls-6" points="208.75 317.1 77.12 240.04 152.69 193.95 283.34 272.26 208.75 317.1"/><path class="cls-7" d="M131.47,249.52,170,271.94a2.17,2.17,0,0,0,2,.08l15.48-7.41c.51-.29,1-6.76.35-4.66l-41.89-17.47a2.21,2.21,0,0,0-2-.09l-12.63,4.91C130.82,247.6,130.88,249.18,131.47,249.52Z"/><path class="cls-8" d="M131.47,248.46,170,270.88a2.21,2.21,0,0,0,2,.08s17.55-10.45,16.07-11.42l-38.79-22c-.58-.34-4.81,2.13-5.32,2.43l-12.63,7.34C130.82,247.6,130.88,248.11,131.47,248.46Z"/><polygon class="cls-9" points="146.07 242.47 143.81 241.15 145 240.46 147.26 241.78 146.07 242.47"/><polygon class="cls-9" points="148.88 244.1 146.62 242.79 147.81 242.1 150.07 243.41 148.88 244.1"/><polygon class="cls-9" points="143.7 243.85 141.44 242.53 143.4 241.4 145.66 242.71 143.7 243.85"/><polygon class="cls-9" points="146.51 245.48 144.25 244.17 146.21 243.03 148.47 244.34 146.51 245.48"/><polygon class="cls-9" points="182.15 263.93 180.2 265.07 175.13 262.13 175.13 261.65 182.15 263.46 182.15 263.93"/><polygon class="cls-9" points="144.75 244.83 142.79 245.97 139.16 243.86 141.12 242.72 144.75 244.83"/><polygon class="cls-9" points="141.12 247.66 136.88 245.19 138.83 244.05 143.08 246.52 141.12 247.66"/><polygon class="cls-9" points="165.02 261.56 162.76 260.24 164.72 259.1 166.97 260.42 165.02 261.56"/><polygon class="cls-9" points="177.59 266.59 175.63 267.73 171.54 265.35 177.59 266.11 177.59 266.59"/><polygon class="cls-9" points="139.66 249.46 134.59 246.52 136.55 245.38 141.62 248.32 139.66 249.46"/><polygon class="cls-9" points="142.47 251.1 140.21 249.78 142.16 248.64 144.43 249.96 142.47 251.1"/><polygon class="cls-9" points="164.93 264.16 162.67 262.84 164.62 261.7 166.88 263.02 164.93 264.16"/><polygon class="cls-9" points="173.35 269.06 168.49 266.23 168.49 265.75 175.31 267.44 175.31 267.92 173.35 269.06"/><polygon class="cls-9" points="142.99 254.06 140.73 252.74 142.69 251.6 144.95 252.92 142.99 254.06"/><polygon class="cls-9" points="164.6 264.35 162.64 265.49 143.54 254.38 143.54 253.9 164.6 263.87 164.6 264.35"/><polygon class="cls-9" points="165.45 267.12 163.19 265.8 163.19 265.33 166.49 266.04 166.49 266.51 165.45 267.12"/><polygon class="cls-9" points="168.26 268.75 166 267.44 166 266.96 170.22 267.14 170.22 267.61 168.26 268.75"/><polygon class="cls-9" points="171.06 270.38 168.81 269.07 168.81 268.59 172.1 269.3 172.1 269.78 171.06 270.38"/><rect class="cls-9" x="143.81" y="240.63" width="1.39" height="0.52"/><rect class="cls-9" x="146.36" y="241.3" width="0.9" height="0.4"/><rect class="cls-9" x="148.56" y="242.93" width="1.51" height="0.44"/><rect class="cls-9" x="146.62" y="242.31" width="1.54" height="0.48"/><rect class="cls-9" x="144.25" y="243.69" width="1.97" height="0.49"/><rect class="cls-9" x="147.06" y="243.85" width="1.41" height="0.5"/><rect class="cls-9" x="141.49" y="241.99" width="1.61" height="0.48"/><rect class="cls-9" x="143.54" y="242.21" width="2.12" height="0.5"/><rect class="cls-9" x="139.16" y="243.37" width="1.77" height="0.48"/><rect class="cls-9" x="140.97" y="244.35" width="3.77" height="0.49"/><rect class="cls-9" x="136.88" y="244.71" width="1.42" height="0.46"/><rect class="cls-9" x="139.98" y="246.03" width="3.1" height="0.49"/><rect class="cls-9" x="137.42" y="247.86" width="4.2" height="0.46"/><rect class="cls-9" x="134.59" y="246.03" width="1.2" height="0.49"/><rect class="cls-9" x="141.95" y="249.49" width="2.47" height="0.46"/><rect class="cls-9" x="140.21" y="249.29" width="1.53" height="0.49"/><polygon class="cls-10" points="146.07 241.99 143.81 240.68 145 239.99 147.26 241.3 146.07 241.99"/><polygon class="cls-11" points="148.88 243.62 146.62 242.31 147.81 241.62 150.07 242.94 148.88 243.62"/><polygon class="cls-9" points="182.57 263.69 180.31 262.38 180.31 261.9 183.75 262.53 183.75 263 182.57 263.69"/><polygon class="cls-12" points="182.57 263.22 180.31 261.9 181.5 261.21 183.75 262.53 182.57 263.22"/><polygon class="cls-13" points="143.7 243.37 141.44 242.06 143.4 240.92 145.66 242.23 143.7 243.37"/><polygon class="cls-14" points="146.51 245 144.25 243.69 146.21 242.55 148.47 243.87 146.51 245"/><polygon class="cls-9" points="174.58 261.81 172.32 260.49 172.32 260.02 176.54 260.19 176.54 260.67 174.58 261.81"/><polygon class="cls-15" points="174.58 261.33 172.32 260.02 174.28 258.88 176.54 260.19 174.58 261.33"/><polygon class="cls-9" points="171.78 260.17 169.52 258.86 169.52 258.38 173.73 258.56 173.73 259.04 171.78 260.17"/><polygon class="cls-16" points="171.78 259.7 169.52 258.38 171.47 257.25 173.73 258.56 171.78 259.7"/><polygon class="cls-9" points="168.97 258.54 166.71 257.23 166.71 256.75 170.93 256.93 170.93 257.4 168.97 258.54"/><polygon class="cls-17" points="168.97 258.06 166.71 256.75 168.66 255.61 170.93 256.93 168.97 258.06"/><polygon class="cls-9" points="166.16 256.91 163.9 255.59 163.9 255.12 168.12 255.29 168.12 255.77 166.16 256.91"/><polygon class="cls-18" points="166.16 256.43 163.9 255.12 165.86 253.98 168.12 255.29 166.16 256.43"/><polygon class="cls-9" points="163.35 255.28 161.09 253.96 161.09 253.49 165.31 253.66 165.31 254.14 163.35 255.28"/><polygon class="cls-19" points="163.35 254.8 161.09 253.49 163.05 252.35 165.31 253.66 163.35 254.8"/><polygon class="cls-9" points="160.55 253.64 158.29 252.33 158.29 251.85 162.5 252.03 162.5 252.5 160.55 253.64"/><polygon class="cls-20" points="160.55 253.17 158.29 251.85 160.24 250.72 162.5 252.03 160.55 253.17"/><polygon class="cls-9" points="157.74 252.01 155.48 250.7 155.48 250.22 159.69 250.4 159.69 250.87 157.74 252.01"/><polygon class="cls-21" points="157.74 251.53 155.48 250.22 157.44 249.08 159.69 250.4 157.74 251.53"/><polygon class="cls-9" points="154.93 250.38 152.67 249.06 152.67 248.59 156.89 248.76 156.89 249.24 154.93 250.38"/><polygon class="cls-22" points="154.93 249.9 152.67 248.59 154.63 247.45 156.89 248.76 154.93 249.9"/><polygon class="cls-9" points="152.12 248.75 149.86 247.43 149.86 246.96 154.08 247.13 154.08 247.61 152.12 248.75"/><polygon class="cls-23" points="152.12 248.27 149.86 246.96 151.82 245.82 154.08 247.13 152.12 248.27"/><polygon class="cls-9" points="149.32 247.11 147.06 245.8 147.06 245.32 151.27 245.5 151.27 245.97 149.32 247.11"/><polygon class="cls-24" points="149.32 246.64 147.06 245.32 149.01 244.18 151.27 245.5 149.32 246.64"/><polygon class="cls-25" points="182.15 263.46 180.2 264.6 175.13 261.65 177.09 260.51 182.15 263.46"/><polygon class="cls-26" points="144.75 244.36 142.79 245.5 139.16 243.38 141.12 242.25 144.75 244.36"/><polygon class="cls-9" points="177.91 265.92 175.66 264.61 175.66 265.08 177.91 266.4 179.87 265.26 179.87 264.79 177.91 265.92"/><path class="cls-27" d="M179.87,264.79l-2.26-1.32-1.93,1.13s2.23,1.32,2.23,1.32Z"/><polygon class="cls-28" points="141.12 247.18 136.88 244.71 138.83 243.57 143.08 246.04 141.12 247.18"/><polygon class="cls-9" points="168.03 262.83 165.77 261.52 165.77 261.99 168.03 263.31 169.99 262.17 169.99 261.69 168.03 262.83"/><polygon class="cls-29" points="169.99 261.69 167.73 260.38 165.77 261.52 168.03 262.83 169.99 261.69"/><polygon class="cls-9" points="164.99 261.09 162.73 259.78 162.73 260.25 164.99 261.57 166.95 260.43 166.95 259.95 164.99 261.09"/><polygon class="cls-30" points="166.95 259.95 164.69 258.64 162.73 259.78 164.99 261.09 166.95 259.95"/><polygon class="cls-9" points="161.95 259.35 159.69 258.04 159.69 258.52 161.95 259.83 163.91 258.69 163.91 258.21 161.95 259.35"/><polygon class="cls-31" points="163.91 258.21 161.65 256.9 159.69 258.04 161.95 259.35 163.91 258.21"/><polygon class="cls-9" points="158.91 257.61 156.65 256.3 156.65 256.78 158.91 258.09 160.87 256.95 160.87 256.48 158.91 257.61"/><polygon class="cls-32" points="160.87 256.48 158.61 255.16 156.65 256.3 158.91 257.61 160.87 256.48"/><polygon class="cls-9" points="155.87 255.88 153.61 254.56 153.61 255.04 155.87 256.35 157.83 255.21 157.83 254.74 155.87 255.88"/><polygon class="cls-33" points="157.83 254.74 155.57 253.42 153.61 254.56 155.87 255.88 157.83 254.74"/><polygon class="cls-9" points="152.83 254.14 150.57 252.82 150.57 253.3 152.83 254.61 154.79 253.47 154.79 253 152.83 254.14"/><polygon class="cls-34" points="154.79 253 152.53 251.68 150.57 252.82 152.83 254.14 154.79 253"/><polygon class="cls-9" points="149.79 252.4 147.53 251.08 147.53 251.56 149.79 252.87 151.75 251.74 151.75 251.26 149.79 252.4"/><polygon class="cls-35" points="151.75 251.26 149.49 249.95 147.53 251.08 149.79 252.4 151.75 251.26"/><polygon class="cls-9" points="146.75 250.66 144.49 249.34 144.49 249.82 146.75 251.14 148.71 250 148.71 249.52 146.75 250.66"/><polygon class="cls-36" points="148.71 249.52 146.45 248.21 144.49 249.34 146.75 250.66 148.71 249.52"/><polygon class="cls-9" points="143.71 248.92 141.45 247.61 141.45 248.08 143.71 249.4 145.67 248.26 145.67 247.78 143.71 248.92"/><polygon class="cls-37" points="145.67 247.78 143.41 246.47 141.45 247.61 143.71 248.92 145.67 247.78"/><polygon class="cls-9" points="171.04 264.58 168.78 263.27 168.78 263.75 171.04 265.06 173 263.92 173 263.44 171.04 264.58"/><polygon class="cls-38" points="173 263.44 170.74 262.13 168.78 263.27 171.04 264.58 173 263.44"/><polygon class="cls-39" points="177.59 266.11 175.63 267.25 171.54 264.87 173.5 263.74 177.59 266.11"/><polygon class="cls-40" points="139.66 248.99 134.59 246.04 136.55 244.9 141.62 247.85 139.66 248.99"/><polygon class="cls-41" points="142.47 250.62 140.21 249.31 142.16 248.17 144.43 249.48 142.47 250.62"/><polygon class="cls-9" points="167.73 265.31 165.47 264 165.47 264.48 167.73 265.79 169.69 264.65 169.69 264.18 167.73 265.31"/><polygon class="cls-42" points="169.69 264.18 167.43 262.86 165.47 264 167.73 265.31 169.69 264.18"/><polygon class="cls-9" points="164.93 263.68 162.67 262.36 162.67 262.84 164.93 264.15 166.88 263.02 166.88 262.54 164.93 263.68"/><polygon class="cls-43" points="166.88 262.54 164.62 261.23 162.67 262.36 164.93 263.68 166.88 262.54"/><polygon class="cls-9" points="162.12 262.04 159.86 260.73 159.86 261.21 162.12 262.52 164.08 261.38 164.08 260.91 162.12 262.04"/><polygon class="cls-44" points="164.08 260.91 161.82 259.59 159.86 260.73 162.12 262.04 164.08 260.91"/><polygon class="cls-9" points="159.31 260.41 157.05 259.1 157.05 259.57 159.31 260.89 161.27 259.75 161.27 259.27 159.31 260.41"/><polygon class="cls-45" points="161.27 259.27 159.01 257.96 157.05 259.1 159.31 260.41 161.27 259.27"/><polygon class="cls-9" points="156.5 258.77 154.25 257.46 154.25 257.94 156.5 259.25 158.46 258.11 158.46 257.64 156.5 258.77"/><polygon class="cls-46" points="158.46 257.64 156.2 256.32 154.25 257.46 156.5 258.77 158.46 257.64"/><polygon class="cls-9" points="153.7 257.14 151.44 255.82 151.44 256.3 153.7 257.62 155.65 256.48 155.65 256 153.7 257.14"/><polygon class="cls-47" points="155.65 256 153.39 254.69 151.44 255.82 153.7 257.14 155.65 256"/><polygon class="cls-9" points="150.89 255.5 148.63 254.19 148.63 254.67 150.89 255.98 152.85 254.84 152.85 254.37 150.89 255.5"/><polygon class="cls-48" points="152.85 254.37 150.59 253.05 148.63 254.19 150.89 255.5 152.85 254.37"/><polygon class="cls-9" points="148.08 253.87 145.82 252.56 145.82 253.03 148.08 254.35 150.04 253.21 150.04 252.73 148.08 253.87"/><polygon class="cls-49" points="150.04 252.73 147.78 251.42 145.82 252.56 148.08 253.87 150.04 252.73"/><polygon class="cls-9" points="145.28 252.24 143.02 250.92 143.02 251.4 145.28 252.71 147.23 251.57 147.23 251.1 145.28 252.24"/><polygon class="cls-50" points="147.23 251.1 144.97 249.78 143.02 250.92 145.28 252.24 147.23 251.1"/><polygon class="cls-51" points="173.35 268.58 168.49 265.75 170.44 264.61 175.31 267.44 173.35 268.58"/><path class="cls-9" d="M134.57,248.68l-2.26-1.31v.49s2.26,1.3,2.26,1.3l2-1.14v-.48Z"/><path class="cls-52" d="M134.27,246.23l-2,1.14,2.26,1.31,2-1.14Z"/><path class="cls-9" d="M137.38,250.31,135.12,249v.46s2.26,1.33,2.26,1.33l2-1.14v-.47Z"/><path class="cls-53" d="M137.08,247.86l-2,1.14,2.26,1.31,2-1.13Z"/><path class="cls-9" d="M140.19,252l-2.26-1.32v.47s2.26,1.32,2.26,1.32l1.95-1.13v-.48Z"/><path class="cls-54" d="M139.88,249.49l-1.95,1.14,2.26,1.32,1.95-1.14Z"/><path class="cls-9" d="M142.94,253.57l-2.26-1.31v.46s2.26,1.33,2.26,1.33l2-1.14v-.47Z"/><path class="cls-55" d="M142.64,251.12l-2,1.14,2.26,1.31,2-1.13Z"/><polygon class="cls-56" points="164.6 263.87 162.64 265.01 143.54 253.9 145.5 252.76 164.6 263.87"/><polygon class="cls-57" points="165.45 266.64 163.19 265.33 164.23 264.72 166.49 266.04 165.45 266.64"/><polygon class="cls-58" points="168.26 268.27 166 266.96 167.96 265.82 170.22 267.14 168.26 268.27"/><polygon class="cls-59" points="171.06 269.91 168.81 268.59 169.84 267.99 172.1 269.3 171.06 269.91"/><polygon class="cls-9" points="174.95 264.2 172.69 262.89 172.69 263.37 174.95 264.68 176.91 263.54 176.91 263.07 174.95 264.2"/><path class="cls-60" d="M176.91,263.07l-2.26-1.32-1.93,1.13S175,264.2,175,264.2Z"/><polygon class="cls-9" points="172 262.49 169.74 261.17 169.74 261.65 172 262.96 173.95 261.82 173.95 261.35 172 262.49"/><path class="cls-61" d="M174,261.35,171.69,260l-1.93,1.13s2.23,1.32,2.23,1.32Z"/><polygon class="cls-9" points="169.03 260.76 166.78 259.45 166.78 259.93 169.03 261.24 170.99 260.1 170.99 259.63 169.03 260.76"/><path class="cls-62" d="M171,259.63l-2.26-1.32-1.93,1.13s2.23,1.33,2.23,1.33Z"/><polygon class="cls-9" points="166.07 259.05 163.81 257.73 163.81 258.21 166.07 259.52 168.03 258.38 168.03 257.91 166.07 259.05"/><path class="cls-63" d="M168,257.91l-2.26-1.32-1.93,1.13s2.23,1.33,2.23,1.33Z"/><polygon class="cls-9" points="163.12 257.33 160.85 256.01 160.85 256.49 163.12 257.8 165.07 256.67 165.07 256.19 163.12 257.33"/><path class="cls-64" d="M165.07,256.19l-2.26-1.32L160.88,256s2.24,1.33,2.24,1.33Z"/><polygon class="cls-9" points="160.16 255.61 157.9 254.29 157.9 254.77 160.16 256.08 162.11 254.94 162.11 254.47 160.16 255.61"/><path class="cls-65" d="M162.11,254.47l-2.26-1.31-1.93,1.12s2.23,1.33,2.23,1.33Z"/><polygon class="cls-9" points="157.19 253.89 154.94 252.57 154.94 253.05 157.19 254.36 159.15 253.23 159.15 252.75 157.19 253.89"/><path class="cls-66" d="M159.15,252.75l-2.26-1.31L155,252.56s2.24,1.33,2.24,1.33Z"/><polygon class="cls-9" points="154.24 252.17 151.98 250.85 151.98 251.33 154.24 252.65 156.19 251.51 156.19 251.03 154.24 252.17"/><path class="cls-67" d="M156.19,251l-2.26-1.31L152,250.84s2.24,1.33,2.24,1.33Z"/><polygon class="cls-9" points="151.28 250.45 149.02 249.13 149.02 249.61 151.28 250.93 153.23 249.79 153.23 249.31 151.28 250.45"/><path class="cls-68" d="M153.23,249.31,151,248,149,249.12s2.24,1.33,2.24,1.33Z"/><polygon class="cls-9" points="148.32 248.73 146.06 247.42 146.06 247.89 148.32 249.21 150.27 248.07 150.27 247.59 148.32 248.73"/><path class="cls-69" d="M150.27,247.59,148,246.28l-1.93,1.12s2.24,1.33,2.24,1.33Z"/><polygon class="cls-9" points="145.36 247.01 143.1 245.7 143.1 246.17 145.36 247.49 147.31 246.35 147.31 245.87 145.36 247.01"/><path class="cls-70" d="M147.31,245.87l-2.26-1.31-1.93,1.12s2.24,1.33,2.24,1.33Z"/><polygon class="cls-9" points="179.76 262.06 177.5 260.74 177.5 260.27 180.95 260.89 180.95 261.37 179.76 262.06"/><polygon class="cls-71" points="179.76 261.58 177.5 260.27 178.69 259.58 180.95 260.89 179.76 261.58"/><polygon class="cls-9" points="176.95 260.42 174.69 259.11 174.69 258.63 178.14 259.26 178.14 259.73 176.95 260.42"/><polygon class="cls-72" points="176.95 259.95 174.69 258.63 175.88 257.94 178.14 259.26 176.95 259.95"/><polygon class="cls-9" points="174.15 258.79 171.89 257.47 171.89 257 175.33 257.62 175.33 258.1 174.15 258.79"/><polygon class="cls-73" points="174.15 258.31 171.89 257 173.07 256.31 175.33 257.62 174.15 258.31"/><polygon class="cls-9" points="171.34 257.15 169.08 255.84 169.08 255.36 172.53 255.99 172.53 256.46 171.34 257.15"/><polygon class="cls-74" points="171.34 256.68 169.08 255.36 170.27 254.67 172.53 255.99 171.34 256.68"/><polygon class="cls-9" points="168.53 255.52 166.27 254.2 166.27 253.73 169.72 254.35 169.72 254.83 168.53 255.52"/><polygon class="cls-75" points="168.53 255.04 166.27 253.73 167.46 253.04 169.72 254.35 168.53 255.04"/><polygon class="cls-9" points="165.72 253.88 163.47 252.57 163.47 252.09 166.91 252.72 166.91 253.19 165.72 253.88"/><polygon class="cls-76" points="165.72 253.41 163.47 252.09 164.65 251.4 166.91 252.72 165.72 253.41"/><polygon class="cls-9" points="162.92 252.25 160.66 250.94 160.66 250.46 164.1 251.08 164.1 251.56 162.92 252.25"/><polygon class="cls-77" points="162.92 251.77 160.66 250.46 161.84 249.77 164.1 251.08 162.92 251.77"/><polygon class="cls-9" points="160.11 250.61 157.85 249.3 157.85 248.82 161.3 249.45 161.3 249.93 160.11 250.61"/><polygon class="cls-78" points="160.11 250.14 157.85 248.82 159.04 248.13 161.3 249.45 160.11 250.14"/><polygon class="cls-9" points="157.3 248.98 155.04 247.66 155.04 247.19 158.49 247.81 158.49 248.29 157.3 248.98"/><polygon class="cls-79" points="157.3 248.5 155.04 247.19 156.23 246.5 158.49 247.81 157.3 248.5"/><polygon class="cls-9" points="154.5 247.34 152.24 246.03 152.24 245.55 155.68 246.18 155.68 246.66 154.5 247.34"/><polygon class="cls-80" points="154.5 246.87 152.24 245.55 153.42 244.87 155.68 246.18 154.5 246.87"/><polygon class="cls-9" points="151.69 245.71 149.43 244.4 149.43 243.92 152.88 244.54 152.88 245.02 151.69 245.71"/><polygon class="cls-81" points="151.69 245.23 149.43 243.92 150.62 243.23 152.88 244.54 151.69 245.23"/><polygon class="cls-82" points="132.74 244.35 159.15 229.1 143.21 219.9 116.8 235.15 132.74 244.35"/><path class="cls-8" d="M166.31,228.31l29.25,17s6.6-5,10.55-6.16L175,221.07a44.65,44.65,0,0,0-10.52,6.1,20.54,20.54,0,0,0,1.81,1.14Z"/><g class="cls-83"><path class="cls-84" d="M166.32,228.28c2.49,1.33,5,2.63,7.45,4l3.7,2,3.67,2.1c2.45,1.39,4.89,2.8,7.32,4.25l3.64,2.15c1.21.71,2.41,1.47,3.61,2.2l-.46.26a6.31,6.31,0,0,1,.52-.51,3.15,3.15,0,0,1,.29-.22l.23-.16.92-.62c.6-.43,1.24-.81,1.88-1.19L200,242c.31-.19.65-.35,1-.53l2-1s-1.89,1.16-1.89,1.16c-.31.19-.64.36-1,.57l-.92.61c-.62.41-1.24.8-1.84,1.24l-1.77,1.27c-.06,0-29.31-17-29.31-17Z"/></g><path class="cls-7" d="M206.11,239.15a44.78,44.78,0,0,0-10.55,6.13v2.17l10.59-6.15v-2.17Z"/><path class="cls-85" d="M166.31,228.31l-1.87-1.09c0,.72,0,1.45,0,2.17l31.13,18.1v-2.18Z"/><path class="cls-84" d="M183.15,219.54v12.85a1.08,1.08,0,0,0,.63.88,3.35,3.35,0,0,0,3,0,1.08,1.08,0,0,0,.63-.88V219.54Z"/><polygon class="cls-8" points="195.43 232.65 193.44 231.49 193.44 231 195.43 232.15 195.43 232.65"/><polygon class="cls-8" points="197.96 234.12 195.97 232.97 195.97 232.47 197.96 233.62 197.96 234.12"/><polygon class="cls-8" points="200.49 235.59 198.5 234.44 198.5 233.94 200.49 235.09 200.49 235.59"/><path class="cls-7" d="M207.77,199l-53.68-31.21a1.14,1.14,0,0,0-.81-.19,10.45,10.45,0,0,0-1.55.85l.88,1.64v35.35a3.3,3.3,0,0,0,1.48,2.59l53,30.84.28,1.28,1.16-.71c.42-.06.71-.43.71-1V201.58A3.33,3.33,0,0,0,207.77,199Z"/><path class="cls-85" d="M206.52,240l-53.67-31.21a3.33,3.33,0,0,1-1.49-2.6V169.36a1.11,1.11,0,0,1,.37-.93,1,1,0,0,1,1.12.06l53.67,31.22A3.28,3.28,0,0,1,208,202.3v36.79C208,240,207.35,240.43,206.52,240Z"/><path class="cls-8" d="M207.39,201.94v35.38c0,.53-.4.73-.87.46l-53.67-31.22a1.92,1.92,0,0,1-.86-1.5V169.72c0-.31.11-.51.31-.58a.58.58,0,0,1,.55.08l53.67,31.21A1.94,1.94,0,0,1,207.39,201.94Z"/><path class="cls-86" d="M207.38,201.93v35.39a.62.62,0,0,1-.55-.1L153.16,206a1.93,1.93,0,0,1-.87-1.51V169.13a.66.66,0,0,1,.56.08l53.67,31.22A1.9,1.9,0,0,1,207.38,201.93Z"/><polygon class="cls-8" points="173.11 185.09 153.94 174.03 153.94 172.11 173.11 183.17 173.11 185.09"/><polygon class="cls-8" points="188.46 193.95 179.35 188.69 179.35 186.78 188.46 192.03 188.46 193.95"/><polygon class="cls-8" points="162.88 186.76 153.94 181.6 153.94 179.68 162.88 184.84 162.88 186.76"/><polygon class="cls-8" points="168.38 189.93 164.52 187.7 164.52 185.78 168.38 188.01 168.38 189.93"/><polygon class="cls-8" points="173.2 192.72 169.62 190.65 169.62 188.73 173.2 190.8 173.2 192.72"/><polygon class="cls-8" points="164.52 191.93 153.94 185.82 153.94 183.9 164.52 190.01 164.52 191.93"/><polygon class="cls-87" points="169.52 194.81 165.88 192.71 165.88 190.79 169.52 192.9 169.52 194.81"/><polygon class="cls-87" points="169.44 198.99 153.94 190.05 153.94 188.13 169.44 197.07 169.44 198.99"/><polygon class="cls-8" points="173.99 201.62 168.84 198.64 168.84 196.72 173.99 199.7 173.99 201.62"/><polygon class="cls-8" points="179.52 204.81 175.31 202.38 175.31 200.46 179.52 202.89 179.52 204.81"/><polygon class="cls-8" points="164.19 200.18 153.94 194.27 153.94 192.35 164.19 198.27 164.19 200.18"/><polygon class="cls-8" points="169.16 203.05 165.6 201 165.6 199.08 169.16 201.13 169.16 203.05"/><polygon class="cls-8" points="164.97 204.86 153.94 198.49 153.94 196.57 164.97 202.94 164.97 204.86"/><polygon class="cls-8" points="168.88 207.12 165.88 205.38 165.88 203.46 168.88 205.2 168.88 207.12"/><polygon class="cls-87" points="175.26 210.8 170.13 207.84 170.13 205.92 175.26 208.88 175.26 210.8"/><polygon class="cls-8" points="164.44 208.78 153.94 202.72 153.94 200.8 164.44 206.86 164.44 208.78"/><polygon class="cls-87" points="169.74 211.84 165.01 209.11 165.01 207.19 169.74 209.92 169.74 211.84"/><polygon class="cls-8" points="179.87 192.09 153.94 177.12 153.94 175.2 179.87 190.17 179.87 192.09"/><polygon class="cls-8" points="196.32 201.59 182.26 193.47 182.26 191.55 196.32 199.67 196.32 201.59"/><polygon class="cls-8" points="203.01 237.06 201.03 235.91 201.03 235.41 203.01 236.56 203.01 237.06"/><polygon class="cls-8" points="200.74 235.7 198.75 234.55 198.75 234.05 200.74 235.21 200.74 235.7"/><path class="cls-84" d="M205.66,238.42c0,.49-.34.68-.76.44a1.69,1.69,0,0,1-.76-1.32c0-.49.34-.69.76-.45A1.71,1.71,0,0,1,205.66,238.42Z"/><path class="cls-8" d="M205.24,239.46a1.13,1.13,0,0,1-.59-.17,2.18,2.18,0,0,1-1-1.75,1,1,0,0,1,1.5-.88,2.21,2.21,0,0,1,1,1.76A.94.94,0,0,1,205.24,239.46Zm-.6-1.94a1.2,1.2,0,0,0,.51.91,1.11,1.11,0,0,0-.5-.9Z"/><path class="cls-88" d="M207.38,201.77v35.17a.64.64,0,0,1-.55-.09l-53.67-31.22a1.91,1.91,0,0,1-.87-1.5v-2a61.83,61.83,0,0,1,22.84-4.91C196.31,197.23,204.62,201.14,207.38,201.77Z"/><path class="cls-8" d="M228.21,264.18l29.25,17s6.6-5,10.54-6.17l-31.08-18.08a44.86,44.86,0,0,0-10.52,6.11c-.06,0,1.81,1.13,1.81,1.13Z"/><g class="cls-83"><path class="cls-84" d="M228.22,264.16c2.49,1.32,5,2.63,7.45,4l3.7,2.05,3.67,2.1q3.68,2.08,7.31,4.25l3.65,2.16c1.21.71,2.41,1.46,3.61,2.19l-.46.27a4.2,4.2,0,0,1,.52-.51l.28-.23.23-.15.93-.63c.6-.43,1.24-.8,1.87-1.19l.95-.57c.32-.2.66-.36,1-.53l2-1S263,277.5,263,277.5c-.32.19-.64.36-1,.56l-.92.61c-.62.41-1.24.81-1.84,1.25l-1.78,1.27c-.05,0-29.3-17-29.3-17Z"/></g><path class="cls-7" d="M268,275a44.63,44.63,0,0,0-10.54,6.14v2.17l10.59-6.16V275Z"/><path class="cls-85" d="M228.21,264.18l-1.87-1.09c0,.73,0,1.45,0,2.17l31.13,18.1v-2.17Z"/><path class="cls-84" d="M245.05,255.41v12.85a1.07,1.07,0,0,0,.63.88,3.29,3.29,0,0,0,3,0,1.07,1.07,0,0,0,.63-.88V255.41Z"/><polygon class="cls-8" points="257.33 268.52 255.34 267.37 255.34 266.87 257.33 268.02 257.33 268.52"/><polygon class="cls-8" points="259.86 269.99 257.87 268.84 257.87 268.34 259.86 269.5 259.86 269.99"/><polygon class="cls-8" points="262.38 271.46 260.4 270.31 260.4 269.81 262.38 270.97 262.38 271.46"/><path class="cls-7" d="M269.67,234.86,216,203.64a1.25,1.25,0,0,0-.81-.19,10.45,10.45,0,0,0-1.55.85l.88,1.64v35.35a3.32,3.32,0,0,0,1.48,2.6l53,30.83.28,1.29,1.16-.72c.42-.05.7-.43.7-1.05V237.45A3.3,3.3,0,0,0,269.67,234.86Z"/><path class="cls-85" d="M268.42,275.83l-53.67-31.22a3.33,3.33,0,0,1-1.49-2.59V205.23a1.11,1.11,0,0,1,.37-.93,1,1,0,0,1,1.12.07l53.67,31.21a3.33,3.33,0,0,1,1.49,2.6V275C269.91,275.92,269.24,276.31,268.42,275.83Z"/><path class="cls-8" d="M269.28,237.81V273.2c0,.53-.39.73-.86.45l-53.67-31.21a1.92,1.92,0,0,1-.86-1.51V205.59a.56.56,0,0,1,.3-.58.66.66,0,0,1,.56.08l53.67,31.22A1.9,1.9,0,0,1,269.28,237.81Z"/><path class="cls-86" d="M269.28,237.81v35.38a.64.64,0,0,1-.55-.09l-53.68-31.22a1.91,1.91,0,0,1-.86-1.5V205a.59.59,0,0,1,.56.08l53.67,31.21A1.93,1.93,0,0,1,269.28,237.81Z"/><path class="cls-89" d="M229.68,244.28a.62.62,0,0,1-.32-.09L218.66,238a.65.65,0,0,1,0-1.12l10.63-6.13a.63.63,0,0,1,.65,0l10.7,6.17a.65.65,0,0,1,0,1.12L230,244.19A.62.62,0,0,1,229.68,244.28Zm-9.41-6.82,9.41,5.43L239,237.5l-9.41-5.43Z"/><path class="cls-89" d="M229.68,235.7a.61.61,0,0,1-.32-.08l-10.7-6.18a.64.64,0,0,1-.32-.56.62.62,0,0,1,.32-.55l10.63-6.14a.63.63,0,0,1,.65,0l10.7,6.18a.64.64,0,0,1,.32.55.66.66,0,0,1-.32.56L230,235.62A.61.61,0,0,1,229.68,235.7Zm-9.41-6.82,9.41,5.44,9.35-5.4-9.41-5.43Z"/><path class="cls-89" d="M229.68,244.28a.62.62,0,0,1-.32-.09L218.66,238a.65.65,0,0,1-.32-.56l0-8.57a.65.65,0,0,1,.32-.56.66.66,0,0,1,.64,0l10.7,6.18a.62.62,0,0,1,.32.55l0,8.57a.66.66,0,0,1-.32.56A.68.68,0,0,1,229.68,244.28Zm-10.05-7.19,9.4,5.43,0-7.08L219.6,230Z"/><path class="cls-89" d="M240.31,238.14a.62.62,0,0,1-.32-.09l-10.7-6.17a.67.67,0,0,1-.32-.56l0-8.57a.65.65,0,0,1,.32-.56.64.64,0,0,1,.64,0l10.7,6.18a.62.62,0,0,1,.32.55l0,8.57a.64.64,0,0,1-.32.56A.63.63,0,0,1,240.31,238.14ZM230.26,231l9.41,5.43,0-7.08-9.41-5.44Z"/><path class="cls-89" d="M229.72,244.28a.65.65,0,0,1-.64-.65l0-8.57a.62.62,0,0,1,.32-.55l10.7-6.18a.66.66,0,0,1,.64,0,.65.65,0,0,1,.32.56l0,8.57a.65.65,0,0,1-.32.56L230,244.19A.62.62,0,0,1,229.72,244.28Zm.67-8.84,0,7.08,9.4-5.43,0-7.08Z"/><path class="cls-89" d="M251.18,256.44a.62.62,0,0,1-.32-.09l-10.7-6.18a.62.62,0,0,1-.32-.55.65.65,0,0,1,.32-.56l10.63-6.14a.68.68,0,0,1,.65,0l10.69,6.18a.65.65,0,0,1,.33.56.63.63,0,0,1-.33.55l-10.63,6.14A.62.62,0,0,1,251.18,256.44Zm-9.41-6.82,9.41,5.43,9.35-5.39-9.42-5.44Z"/><path class="cls-89" d="M251.18,256.44a.62.62,0,0,1-.32-.09l-10.7-6.18a.63.63,0,0,1-.31-.42.66.66,0,0,1,.11-.51l10.63-14.71a.64.64,0,0,1,.72-.24.64.64,0,0,1,.45.61l.06,20.89a.63.63,0,0,1-.32.56A.62.62,0,0,1,251.18,256.44Zm-9.76-7,9.11,5.26-.05-17.8Z"/><path class="cls-89" d="M261.81,250.3a.62.62,0,0,1-.32-.09L250.79,244a.62.62,0,0,1-.32-.55l0-8.57a.66.66,0,0,1,.44-.62.64.64,0,0,1,.72.23l10.73,14.75a.65.65,0,0,1,0,.81A.64.64,0,0,1,261.81,250.3Zm-10.05-7.2,7.75,4.48-7.78-10.69Z"/><polygon class="cls-8" points="264.91 272.94 262.93 271.78 262.93 271.28 264.91 272.44 264.91 272.94"/><polygon class="cls-8" points="262.64 271.58 260.65 270.42 260.65 269.93 262.64 271.08 262.64 271.58"/><path class="cls-84" d="M267.56,274.29c0,.49-.34.69-.76.44a1.67,1.67,0,0,1-.76-1.32c0-.49.34-.69.76-.44A1.69,1.69,0,0,1,267.56,274.29Z"/><path class="cls-8" d="M267.14,275.34a1.24,1.24,0,0,1-.59-.17,2.2,2.2,0,0,1-1-1.76,1,1,0,0,1,1.5-.87,2.19,2.19,0,0,1,1,1.75A1,1,0,0,1,267.14,275.34Zm-.6-1.95a1.18,1.18,0,0,0,.51.91,1.16,1.16,0,0,0-.5-.9Z"/><path class="cls-90" d="M269.28,237.65v35.17a.69.69,0,0,1-.55-.1l-53.68-31.21a1.94,1.94,0,0,1-.86-1.51v-2A61.63,61.63,0,0,1,237,233.11C258.21,233.11,266.52,237,269.28,237.65Z"/><path class="cls-91" d="M110.51,273.78l-5.19,21.3s-1.82,1.67-2.36,1.61c-.15-.06-.17-.2-.09-.47.47-1.55,1.74-2.38,2-4.38.23-1.46,3-12,4.45-17.65.45-1.72-.47-2.74-1.81-2l-2,1.13c-6.65,3.69-18,10.09-19.37,11.5-1.9,2-6,7.11-6,7.11s-.73.51-.83.19c0-.15,0-.48.43-1.14A61.7,61.7,0,0,1,85,284.7l.16-.16.4-.37.19-.16.19-.16.32-.25.37-.24,19.17-11.06,2.08-1.21a3.6,3.6,0,0,1,.58-.26,2.54,2.54,0,0,1,.74-.12C110.68,270.68,111.57,271.84,110.51,273.78Z"/><path class="cls-92" d="M109.37,274.19c-1.47,5.62-4.22,16.19-4.45,17.65-.31,2-1.58,2.83-2,4.38-.08.27-.06.41,0,.46-.5-.13-4-1.07-3.59-2.52s1.74-2.37,2.05-4.37c.22-1.36,2.62-10.67,4.14-16.47l2-1.13C108.9,271.45,109.82,272.47,109.37,274.19Z"/><path class="cls-91" d="M109.18,270.71a2,2,0,0,0-.74.12,3.6,3.6,0,0,0-.58.26l-2.08,1.21L86.61,283.36l-.27.18-.33.24-.28.23-.19.16-.4.37-.16.16A61.7,61.7,0,0,0,79.74,291c-.38.66-.47,1-.43,1.14s-3.31-2-3.31-2c-.28.06-.44-.14.19-1.24,0,0,4.58-6.28,6.87-7.61L104.31,269a2,2,0,0,1,1.61,0l1.18.62Z"/><polygon class="cls-5" points="121.39 312.08 121.13 327.57 119.68 326.03 121.39 312.08"/><g class="cls-93"><path class="cls-94" d="M149.26,373.1a1.08,1.08,0,0,1-.31.19Z"/><path class="cls-95" d="M146.82,374.44a1.69,1.69,0,0,1-.49,1.32,1.45,1.45,0,0,1-1.71-.05,4.88,4.88,0,0,1-2.21-3.82,2,2,0,0,1,.18-.91,1.11,1.11,0,0,1,.65-.61,1.69,1.69,0,0,1,1.38.24,3.63,3.63,0,0,1,.64.49,5.24,5.24,0,0,1,1.47,2.53,3.76,3.76,0,0,1,.09.65Z"/><path class="cls-96" d="M147,373.37a2,2,0,0,1-.18.91,3.76,3.76,0,0,0-.09-.65,5.24,5.24,0,0,0-1.47-2.53,3.63,3.63,0,0,0-.64-.49,1.67,1.67,0,0,0-1.37-.24,1.1,1.1,0,0,0-.66.61.86.86,0,0,1,0-.16,1.44,1.44,0,0,1,.84-1.51,1.69,1.69,0,0,1,1.31.2,3.37,3.37,0,0,1,.71.53,5.15,5.15,0,0,1,1.46,2.53A3.19,3.19,0,0,1,147,373.37Z"/><path class="cls-97" d="M149.76,371.78a2,2,0,0,1-.18.91,1.11,1.11,0,0,1-.32.41l-.31.19-2.13,1.22v-.23a2,2,0,0,0,.18-.91,3.19,3.19,0,0,0-.1-.8,5.15,5.15,0,0,0-1.46-2.53,3,3,0,0,0-.65-.49,1.73,1.73,0,0,0-1.37-.24l2.4-1.39a1.46,1.46,0,0,1,1.73,0A4.9,4.9,0,0,1,149.76,371.78Z"/><path class="cls-98" d="M149.58,372.84a1.68,1.68,0,0,1-.49,1.33l-.32.18-2.44,1.41a1.63,1.63,0,0,0,.49-1.25l2.13-1.22.31-.19a1.11,1.11,0,0,0,.32-.41Z"/><path class="cls-94" d="M96.46,342.62a1.09,1.09,0,0,1-.31.18Z"/><path class="cls-95" d="M94,344a1.67,1.67,0,0,1-.5,1.32,1.45,1.45,0,0,1-1.71,0,4.86,4.86,0,0,1-2.21-3.82,2.2,2.2,0,0,1,.18-.91,1.19,1.19,0,0,1,.66-.61,1.75,1.75,0,0,1,1.37.24,3.69,3.69,0,0,1,.65.49,5.19,5.19,0,0,1,1.46,2.53,3.76,3.76,0,0,1,.09.65A.92.92,0,0,1,94,344Z"/><path class="cls-96" d="M94.2,342.89a2,2,0,0,1-.19.9,3.76,3.76,0,0,0-.09-.65,5.19,5.19,0,0,0-1.46-2.53,3.69,3.69,0,0,0-.65-.49,1.75,1.75,0,0,0-1.37-.24,1.19,1.19,0,0,0-.66.61v-.15a1.45,1.45,0,0,1,.84-1.52,1.64,1.64,0,0,1,1.3.21,3.7,3.7,0,0,1,.72.52,5.3,5.3,0,0,1,1.46,2.53A3.74,3.74,0,0,1,94.2,342.89Z"/><path class="cls-97" d="M97,341.29a2,2,0,0,1-.19.91,1.21,1.21,0,0,1-.31.42l-.31.18L94,344a1.42,1.42,0,0,0,0-.24,2,2,0,0,0,.19-.9,3.74,3.74,0,0,0-.1-.81,5.3,5.3,0,0,0-1.46-2.53,4.1,4.1,0,0,0-.65-.49,1.74,1.74,0,0,0-1.37-.24l2.4-1.38a1.43,1.43,0,0,1,1.73,0A4.86,4.86,0,0,1,97,341.29Z"/><path class="cls-98" d="M96.78,342.35a1.67,1.67,0,0,1-.5,1.33l-.31.18-2.45,1.41A1.61,1.61,0,0,0,94,344l2.13-1.23.31-.18a1.21,1.21,0,0,0,.31-.42A.76.76,0,0,1,96.78,342.35Z"/><path class="cls-94" d="M96.46,373.1a1.44,1.44,0,0,1-.31.19Z"/><path class="cls-95" d="M94,374.44a1.69,1.69,0,0,1-.5,1.32,1.45,1.45,0,0,1-1.71-.05,4.88,4.88,0,0,1-2.21-3.82,2.2,2.2,0,0,1,.18-.91,1.15,1.15,0,0,1,.66-.61,1.67,1.67,0,0,1,1.37.24,3.69,3.69,0,0,1,.65.49,5.15,5.15,0,0,1,1.46,2.53,3.76,3.76,0,0,1,.09.65A.86.86,0,0,1,94,374.44Z"/><path class="cls-96" d="M94.2,373.37a2,2,0,0,1-.19.91,3.76,3.76,0,0,0-.09-.65,5.15,5.15,0,0,0-1.46-2.53,3.69,3.69,0,0,0-.65-.49,1.67,1.67,0,0,0-1.37-.24,1.15,1.15,0,0,0-.66.61v-.16a1.44,1.44,0,0,1,.84-1.51,1.67,1.67,0,0,1,1.3.2,3.73,3.73,0,0,1,.72.53,5.3,5.3,0,0,1,1.46,2.53A3.73,3.73,0,0,1,94.2,373.37Z"/><path class="cls-97" d="M97,371.78a2,2,0,0,1-.19.91,1.09,1.09,0,0,1-.31.41l-.31.19L94,374.51a1.29,1.29,0,0,0,0-.23,2,2,0,0,0,.19-.91,3.73,3.73,0,0,0-.1-.8A5.3,5.3,0,0,0,92.64,370a3.58,3.58,0,0,0-.65-.49,1.74,1.74,0,0,0-1.37-.24l2.4-1.39a1.46,1.46,0,0,1,1.73,0A4.9,4.9,0,0,1,97,371.78Z"/><path class="cls-98" d="M96.78,372.84a1.69,1.69,0,0,1-.5,1.33l-.31.18-2.45,1.41a1.63,1.63,0,0,0,.5-1.25l2.13-1.22.31-.19a1.09,1.09,0,0,0,.31-.41A.76.76,0,0,1,96.78,372.84Z"/><path class="cls-94" d="M149.26,342.62a.87.87,0,0,1-.31.18Z"/><path class="cls-95" d="M146.82,344a1.67,1.67,0,0,1-.49,1.32,1.45,1.45,0,0,1-1.71,0,4.86,4.86,0,0,1-2.21-3.82,2,2,0,0,1,.18-.91,1.14,1.14,0,0,1,.65-.61,1.77,1.77,0,0,1,1.38.24,3.63,3.63,0,0,1,.64.49,5.29,5.29,0,0,1,1.47,2.53,3.76,3.76,0,0,1,.09.65Z"/><path class="cls-96" d="M147,342.89a2,2,0,0,1-.18.9,3.76,3.76,0,0,0-.09-.65,5.29,5.29,0,0,0-1.47-2.53,3.63,3.63,0,0,0-.64-.49,1.76,1.76,0,0,0-1.37-.24,1.13,1.13,0,0,0-.66.61.76.76,0,0,1,0-.15,1.45,1.45,0,0,1,.84-1.52,1.66,1.66,0,0,1,1.31.21,3.34,3.34,0,0,1,.71.52,5.15,5.15,0,0,1,1.46,2.53A3.21,3.21,0,0,1,147,342.89Z"/><path class="cls-97" d="M149.76,341.29a2,2,0,0,1-.18.91,1.23,1.23,0,0,1-.32.42l-.31.18L146.82,344v-.24a2,2,0,0,0,.18-.9,3.21,3.21,0,0,0-.1-.81,5.15,5.15,0,0,0-1.46-2.53,3.36,3.36,0,0,0-.65-.49,1.73,1.73,0,0,0-1.37-.24l2.4-1.38a1.43,1.43,0,0,1,1.73,0A4.86,4.86,0,0,1,149.76,341.29Z"/><path class="cls-98" d="M149.58,342.35a1.67,1.67,0,0,1-.49,1.33l-.32.18-2.44,1.41a1.61,1.61,0,0,0,.49-1.24L149,342.8l.31-.18a1.23,1.23,0,0,0,.32-.42Z"/><path class="cls-99" d="M148.15,336.5c-.26-.05-1.08-.75-1.42-.82-8.18-1.71-17.65.53-27.12,6s-19,14.19-27.22,25.39c-.67.91-.87,2-.46,2.4s1.23.62,1.42.82c.43.42,1.26,0,1.88-.81C103,358.85,112,350.59,121,345.4s17.95-7.29,25.7-5.67c.62.14,1.45-.44,1.86-1.32S148.82,336.64,148.15,336.5Z"/><path class="cls-99" d="M148.15,367.88C140,356.72,130.51,348,121,342.55s-19-7.77-27.22-6.05c-.34.07-1.16.77-1.42.82-.67.14-.87,1-.46,1.88s1.26,1.49,1.88,1.36c7.78-1.64,16.79.51,25.8,5.72s18,13.43,25.7,24c.62.85,1.45,1.23,1.86.82.21-.21,1.14-.54,1.42-.82S148.82,368.79,148.15,367.88Z"/><path class="cls-100" d="M120.65,344.27a2.9,2.9,0,0,1-2.66,0c-.54-.31-.68-.77-.42-1.16V311l3.55,2.05V343.2C121.31,343.57,121.15,344,120.65,344.27Z"/><path class="cls-101" d="M117.62,251.83s4.15.74,5.51.37a40.34,40.34,0,0,1,6.44-1,4,4,0,0,0,1.58-.18l7.7-3.62,6-2.3a16.28,16.28,0,0,0,4.21,0c1.12-.34,2-.57,1.58.33a3.43,3.43,0,0,1-2.72,1.58,4,4,0,0,0-1.57.39l4.51.23s.39,1.79-.91,1.79-4.69.26-4.69.26a10.78,10.78,0,0,0-3,2.26,13.58,13.58,0,0,0-2.05,3,2.45,2.45,0,0,0,2.8.9c2.07-.43,2.95.88,2.95,1.55s-1.51,1.63-2.4,1.48-1.7-.67-1.94-.65a8.5,8.5,0,0,1-3.46-.12c-2.49-.44-5.19-1.58-6.27-1.6a32,32,0,0,0-3.38.29s-14.59,1.92-17.47,1.76-6.9-.25-5.93-5.71S117.62,251.83,117.62,251.83Z"/><path class="cls-102" d="M127.37,290.89l1.87,36.16a.69.69,0,0,0,.35.71c1.21.7,5.22-.47,9-2.63,1.54-.89,2.92-27.1,3.78-27.92.44-.3.61-11,.61-11Z"/><path class="cls-103" d="M135.27,231.63c-.64,1.56-1.71,1.84-1.66,2.8s1,.58.06,2.41-1.29,5.52-3.76,6.38l-.2.06c-2.34.76-3.67,0-4,1.93s-1.31,6.65-1.08,6.89c20.76,21.26-23.72,2.48-12.55-6.81l2.67-6.4.12-.29s-4.28-6.21-2.79-11.31,4.83-7.66,12.66-7.71,9.54,5.15,9.86,6.22S135.91,230.08,135.27,231.63Z"/><path class="cls-101" d="M135.27,231.63c-.64,1.56-1.71,1.84-1.66,2.8s1,.58.06,2.41-1.29,5.52-3.76,6.38l-.2.06c-.12-.21-11,2-11.48-1.88-.34-2.83-2.23-1.3-3.45-2.51l.12-.29s-4.28-6.21-2.79-11.31,4.83-7.66,12.66-7.71,9.54,5.15,9.86,6.22S135.91,230.08,135.27,231.63Z"/><path class="cls-92" d="M111.85,283.22h-2.76V284a.66.66,0,0,0,.4.63,2.1,2.1,0,0,0,2,0,.63.63,0,0,0,.4-.63S111.85,283.22,111.85,283.22Z"/><path class="cls-5" d="M111.44,283.79a2.16,2.16,0,0,1-2,0,.6.6,0,0,1,0-1.13,2.16,2.16,0,0,1,2,0A.6.6,0,0,1,111.44,283.79Z"/><path class="cls-92" d="M121.26,299.12H118.5v.78a.68.68,0,0,0,.41.64,2.16,2.16,0,0,0,2,0,.64.64,0,0,0,.39-.64S121.26,299.12,121.26,299.12Z"/><path class="cls-5" d="M120.86,299.68a2.16,2.16,0,0,1-2,0,.6.6,0,0,1,0-1.13,2.16,2.16,0,0,1,2,0A.6.6,0,0,1,120.86,299.68Z"/><path class="cls-102" d="M147.45,282.65c-6.42-2.21-17.42,3.55-25.81,7.66.51,7.1,2.08,14.06,3.32,21.07,6.25-2.17,11.37-8.87,18.86-14.21l7.1-3.63C151.4,286.19,150.85,283.81,147.45,282.65Z"/><path class="cls-104" d="M132.56,319.88l-5.14,3.93c.07,4.73,0,7.06,1.89,8.29,2.23,1.5,6,.29,8.27-.75l.61-1.84c2.19-.3,1.7.35,4.06-1,4-2.2,9.79-5.6,10.57-9.53.2-1-.58-2.82-1.59-2.64l-9.33,3.23Z"/><path class="cls-104" d="M154.72,336.12l-5.3,3.71c-.14,4.73-.24,7.06,1.53,8.36,2.17,1.59,6,.55,8.3-.4l.69-1.8c3.12-.3,2.26.17,5.43-1.47,3.84-2,8.5-4.79,9.34-8.26.24-1-.45-2.84-1.47-2.71l-6.6,2.92Z"/><path class="cls-105" d="M162.55,291.31c-.65,3.2-8.49,9.8-9.26,13,0,0-3.7,36.83-3.53,37,1,1,10.52,2.74,11.87-5,4-1,9.37-37.61,9.37-37.61C173.31,291,164.59,284.47,162.55,291.31Z"/><path class="cls-96" d="M162.74,312.92l-17.34,5.35-10.61,8.13-11.21,3.78-2.45-2.61L119.68,326l1.71-13.95.55-4.45-2.87-10.77-1.53-8.3A6,6,0,0,1,121,289C121.05,289,162.74,312.92,162.74,312.92Z"/><path class="cls-105" d="M113.53,291.51l-13.3-.52c-1.6,7.24-.7,15.81,2.63,19.3,4.82,5,14.12,11.86,23.42,9.73,6.91-1.59,18.81-8.67,26.85-14.39l17.56-7.71c3.31-6.61,5-10.74-4.2-12.73-6.64-1.42-24.21,5.72-32.6,9.83Z"/><path class="cls-106" d="M130.57,311.55a8.66,8.66,0,0,1-4.72.14c-7-1.26-25.78-7.48-25.44-19.56.15-5.06,3.72-5.86-1.13-18.91-9.36-25.18,4-32,6.53-32s7.15,2.09,7.15,2.09-3.17,4.73,1.49,7.62c7.59,4.68,7.81,2.35,10.45,2,3.06-.38,7.65,4.21,10.25,6.86,5,5.08-2.25,20.63-.19,24.73s3.72,13.8,3.72,13.8S140.74,307.42,130.57,311.55Z"/><path class="cls-107" d="M130.57,311.55a8.66,8.66,0,0,1-4.72.14c-2.41-4.39-1.8-13.6-4.15-21.41-3.49-11.55,0-27.26,5.26-28.69a4.07,4.07,0,0,1,1.53-.15c1.58,1.24,2.89,2.28,3.27,2.67.8.8,1.17,2.47,1.24,4.61,0,.72,0,1.53,0,2.37-.1,2.36-.08,9.32,2,13.42s3.72,13.8,3.72,13.8S140.74,307.42,130.57,311.55Z"/><path class="cls-101" d="M140.76,282.53s5.51-7.22,6.17-8.59,5.55-8.66,5.55-8.66l-1.87-1.46s-.33-1.43-.88-1.77-2.32-1.39-1.43-2a2.42,2.42,0,0,1,3.16.67c.79,1,1.25,1.55,1.25,1.55l1.91-4.56,0-4.49s-.11-2,.72-2.14,1.77-.08,1.25,1.15.14,1.72.14,1.72l.49,4,1.08-3.86a15.53,15.53,0,0,0,1.23-2.3c.16-.6,1.37-.54,1.41.32s-.12,3.13-.12,3.13l-1,3.27,2.12-3.52,2.32-2.06s1.56-.12,1,1a16,16,0,0,1-1.63,2.38L161.94,260l2.79-.71,2.82.08s.06,1.54-.87,1.61a10.94,10.94,0,0,0-1.58.23l-2,1s-.61,3.37-1.86,4.44a18,18,0,0,1-2.5,1.78s-10.82,24.91-14.45,27S138.76,286.53,140.76,282.53Z"/><path class="cls-107" d="M139.28,279.13s2.08-3.23,5.67-2.24,7.12,6.09,6.62,9.28-4.39,9.8-8.42,9.54S135,283.94,139.28,279.13Z"/><path class="cls-106" d="M124.29,268c0,6.83,8.85,33.29,18.2,28.59s1.35-15.08,0-18.7-2.25-18.45-8.75-18.91S124.25,261.15,124.29,268Z"/><path class="cls-103" d="M128.68,237.12c-.16,0,.51-1.47-.79-.88a3.13,3.13,0,0,0-2,2.36c-.22,1.11-.27,3.76.48,3.22a7.65,7.65,0,0,0,1.57-2.09H127c-.49,0,0-1.88.28-2.25C128.37,236,128.68,237.12,128.68,237.12Z"/><path class="cls-108" d="M121.6,241.28s1.29-3,7.25-5.69c2.92-1.31,9.8-8.17,3.8-13.18a11.09,11.09,0,0,0-6.43-2.78c-3.93-.59-13,2-13.53,9.89C112,240.44,119.35,246,121.6,241.28Z"/><path class="cls-109" d="M121.39,312.08,119.68,326l1.45,1.54,0,2.61-40-22.88-.09-.25a3.91,3.91,0,0,1-.59-.26c-6.35-3.67-1.26-12.09-1.26-18.85s-4.26-18.34-4.42-20.8.67-4.35,1-4.15l41.43,23.93.31,1.64,1.53,8.3,2.36,12.82Z"/><path class="cls-97" d="M117.24,286.92s6.94,18.5,6.71,22.56-4.7,16-.32,18.5,24.23-11.44,27.47-13.31,11.76-3.42,11.76-1-4.26-.18-7.58,1.74-27,18.93-33.39,15.26-1.26-12.09-1.26-18.85-4.26-18.33-4.42-20.79S116.88,286.71,117.24,286.92Z"/><path class="cls-97" d="M155.5,299.76l-5.19,21.29s-1.82,1.68-2.36,1.62c-.15-.06-.17-.2-.09-.48.47-1.55,1.74-2.37,2-4.37.23-1.47,3-12,4.45-17.65.45-1.73-.47-2.74-1.81-2l-2.05,1.13c-6.65,3.68-18,10.09-19.37,11.5-1.9,2-6,7.11-6,7.11s-.73.5-.83.19c0-.15,0-.49.43-1.15a62.89,62.89,0,0,1,5.24-6.28l.17-.15c.13-.13.26-.26.39-.37l.19-.17.19-.15.32-.25.37-.24,19.17-11.07,2.09-1.2a3.62,3.62,0,0,1,.57-.27,2,2,0,0,1,.74-.11C155.31,296.73,156,298,155.5,299.76Z"/><path class="cls-109" d="M154.36,300.17c-1.47,5.62-4.22,16.18-4.45,17.65-.31,2-1.58,2.82-2,4.37-.08.28-.06.42,0,.46-.5-.12-4-1.07-3.59-2.51s1.74-2.37,2.05-4.37c.22-1.37,2.62-10.67,4.14-16.47l2.05-1.13C153.89,297.43,154.81,298.44,154.36,300.17Z"/><path class="cls-109" d="M154.17,296.69a2,2,0,0,0-.74.11,3.62,3.62,0,0,0-.57.27l-2.09,1.2L131.6,309.34l-.27.17-.33.25-.28.22-.19.17c-.13.11-.26.24-.39.37l-.17.15a62.89,62.89,0,0,0-5.24,6.28c-.38.66-.47,1-.43,1.15s-3.31-2-3.31-2c-.28.05-.44-.14.19-1.24,0,0,4.58-6.29,6.87-7.61L149.3,295a1.91,1.91,0,0,1,1.61,0l1.19.62Z"/><path class="cls-110" d="M119.88,243.27s-.18-11.05,5.78-13.71c2.92-1.31,12.14-1.61,9.37-11.1-.38-1.29-3.12-6.39-14.76-2.05-3.34,1.25-8.79,3.59-9.3,11.53C110.28,238.86,111.48,242.61,119.88,243.27Z"/></g><polygon class="cls-111" points="209.29 299.12 237.8 283.93 237.8 281.96 237.8 280.57 188.72 285.1 188.72 288.46 209.29 299.12"/><polygon class="cls-112" points="209.29 295.76 237.8 280.57 217.24 269.91 188.72 285.1 209.29 295.76"/><polygon class="cls-113" points="223.94 283.93 230.32 280.62 218.56 274.52 212.18 277.83 223.94 283.93"/><polygon class="cls-114" points="209.61 296.61 209.61 298.39 189.49 288.21 189.49 286.21 209.61 296.61"/><polygon class="cls-115" points="209.61 296.61 237.8 281.7 237.8 283.28 209.61 298.39 209.61 296.61"/><polygon class="cls-116" points="314.61 97.65 287.25 81.86 287.25 50.47 314.61 66.26 314.61 97.65"/><polygon class="cls-117" points="321.33 93.84 314.58 97.65 314.58 66.26 321.33 62.45 321.33 93.84"/><polygon class="cls-118" points="314.66 66.22 287.31 50.42 293.89 46.71 321.24 62.5 314.66 66.22"/><path class="cls-94" d="M297,70a3.33,3.33,0,0,1-.65,1.54,10,10,0,0,1,.75,3.05v3.94a5.71,5.71,0,0,0,.06.86,2.63,2.63,0,0,0,1.44,2l.32.18v4l-.32-.18a14.32,14.32,0,0,1-1.44-.94,8.75,8.75,0,0,1-3.65-6.62V73.79a5.75,5.75,0,0,0-.06-.87A2.58,2.58,0,0,0,292,71l-.31-.18v-4L292,67a3.81,3.81,0,0,0,.41.2,1.52,1.52,0,0,0,.37.11H293a.36.36,0,0,0,.24-.09.38.38,0,0,0,.09-.09.7.7,0,0,0,.13-.26.84.84,0,0,0,.05-.17,4.58,4.58,0,0,0,.06-.8V62.35c.27-2.52,1.38-3.3,3.65-2.38a12,12,0,0,1,1.44.72l.32.18v3.95l-.32-.18c-.9-.52-1.3-.38-1.44.3a4.42,4.42,0,0,0-.06.8V69.3C297.1,69.56,297.07,69.76,297,70Z"/><path class="cls-94" d="M304.83,78.29a3.29,3.29,0,0,1,.65-1.54,10,10,0,0,1-.75-3.06V70.13a5.71,5.71,0,0,0-.06-.86,2.61,2.61,0,0,0-1.44-2l-.31-.18v-4l.31.18a14.32,14.32,0,0,1,1.44.94,8.75,8.75,0,0,1,3.65,6.62v3.54a5.75,5.75,0,0,0,.06.87,2.62,2.62,0,0,0,1.44,2l.31.18v4l-.31-.18a3.19,3.19,0,0,0-.41-.21,1.6,1.6,0,0,0-.36-.11h-.16a.42.42,0,0,0-.24.09l-.09.09a.79.79,0,0,0-.13.26,1,1,0,0,0-.05.18,4.46,4.46,0,0,0-.06.79v3.94c-.27,2.52-1.38,3.3-3.65,2.38a12,12,0,0,1-1.44-.72l-.31-.18V83.79l.31.18c.91.52,1.3.39,1.44-.3a4.42,4.42,0,0,0,.06-.8V78.93C304.76,78.68,304.79,78.48,304.83,78.29Z"/><polygon class="cls-116" points="150.2 84.85 126.16 70.92 126.16 52.39 150.2 66.33 150.2 84.85"/><polygon class="cls-117" points="154.17 82.6 150.18 84.85 150.18 66.33 154.17 64.08 154.17 82.6"/><polygon class="cls-118" points="150.23 66.3 126.19 52.36 130.08 50.17 154.12 64.1 150.23 66.3"/><path class="cls-94" d="M131.11,65.85,133.75,70v.75l-2-1.15-2.82-4.53v-1l2.82-1.26,2,1.15v.73Z"/><path class="cls-94" d="M136.27,74.18l-2-1.13v-.61L139.67,65l2,1.12v.61Z"/><path class="cls-94" d="M142.18,68.85l2,1.16L147,74.53v1l-2.83,1.26-2-1.16v-.75l2.66-1.12-2.66-4.18Z"/><polygon class="cls-112" points="387.71 298.3 361.44 283.13 361.44 252.98 387.71 268.15 387.71 298.3"/><polygon class="cls-111" points="394.17 294.64 387.69 298.3 387.69 268.15 394.17 264.48 394.17 294.64"/><polygon class="cls-113" points="387.77 268.1 361.49 252.93 367.81 249.36 394.09 264.53 387.77 268.1"/><path class="cls-119" d="M367.63,281.62l-.19-.11a5.61,5.61,0,0,1-3.11-5.43v-12c0-2.51.89-3.09,3.11-1.81l.19.11v2.39l-.19-.11c-.72-.42-.9-.15-.9.66v12.07a1.68,1.68,0,0,0,.9,1.71l.19.11Z"/><path class="cls-119" d="M381.71,287.36c.72.41.91.13.91-.66V274.63a1.67,1.67,0,0,0-.91-1.71l-.19-.11v-2.39l.19.11a5.58,5.58,0,0,1,3.11,5.41v12c0,2.51-.89,3.11-3.11,1.83l-.19-.11v-2.39Z"/><polygon class="cls-82" points="96.64 151.25 71.14 136.53 71.14 107.26 96.64 121.99 96.64 151.25"/><polygon class="cls-120" points="102.9 147.69 96.61 151.25 96.61 121.99 102.9 118.43 102.9 147.69"/><polygon class="cls-121" points="96.69 121.94 71.19 107.22 77.32 103.75 102.82 118.47 96.69 121.94"/><path class="cls-94" d="M78.43,130.81v-2.74l1.75,1v-8.24l3,1.72v9.63c0,.8-.5,1.08-1.2.68Z"/><path class="cls-94" d="M84,126.7v-2.31c0-.8.5-1.08,1.21-.67l5.21,3v1.35l-.47,1.15L87,127.52v.5l2.6,3.5a3.4,3.4,0,0,1,.81,2.34v2.5c0,.8-.49,1.08-1.19.67L84,134v-2.75l3.42,2v-.72L84.79,129A3.37,3.37,0,0,1,84,126.7Z"/><polygon class="cls-103" points="196.01 151.05 169.09 135.5 169.09 104.6 196.01 120.15 196.01 151.05"/><polygon class="cls-122" points="202.63 147.29 195.98 151.05 195.98 120.15 202.63 116.39 202.63 147.29"/><polygon class="cls-123" points="196.07 120.1 169.14 104.55 175.62 100.89 202.55 116.44 196.07 120.1"/><path class="cls-94" d="M180.39,120.46v1.44l-.49,1.2-3.12-1.8v5.79l3.61,2.08v2.9l-5.51-3.17a2.66,2.66,0,0,1-1.27-2.19V118c0-.84.52-1.14,1.27-.71Z"/><path class="cls-94" d="M183,131.26l-2-1.16v-2.34l2,1.16v-2.3l-2-1.17v-2.34l2,1.16V122l2.06,1.19v2.32l2,1.16v-2.33l2.05,1.19v2.32l2,1.16v2.35l-2-1.17v2.31l2,1.16V136l-2-1.16v2.3L187,135.9v-2.3l-2-1.15v2.3L183,133.56Zm2.06-1.15,2,1.15V129l-2-1.16Z"/><polygon class="cls-112" points="272.56 175.94 245.63 160.39 245.63 129.49 272.56 145.03 272.56 175.94"/><polygon class="cls-111" points="279.17 172.18 272.52 175.94 272.52 145.03 279.17 141.28 279.17 172.18"/><polygon class="cls-113" points="272.61 144.99 245.68 129.44 252.16 125.78 279.09 141.33 272.61 144.99"/><polygon class="cls-112" points="272.56 175.94 245.63 160.39 245.63 129.49 272.56 145.03 272.56 175.94"/><polygon class="cls-111" points="279.17 172.18 272.52 175.94 272.52 145.03 279.17 141.28 279.17 172.18"/><polygon class="cls-113" points="272.61 144.99 245.68 129.44 252.16 125.78 279.09 141.33 272.61 144.99"/><polygon class="cls-112" points="272.56 175.94 245.63 160.39 245.63 129.49 272.56 145.03 272.56 175.94"/><polygon class="cls-111" points="279.17 172.18 272.52 175.94 272.52 145.03 279.17 141.28 279.17 172.18"/><polygon class="cls-113" points="272.61 144.99 245.68 129.44 252.16 125.78 279.09 141.33 272.61 144.99"/><polygon class="cls-112" points="272.56 175.94 245.63 160.39 245.63 129.49 272.56 145.03 272.56 175.94"/><polygon class="cls-111" points="279.17 172.18 272.52 175.94 272.52 145.03 279.17 141.28 279.17 172.18"/><polygon class="cls-113" points="272.61 144.99 245.68 129.44 252.16 125.78 279.09 141.33 272.61 144.99"/><polygon class="cls-112" points="272.56 175.94 245.63 160.39 245.63 129.49 272.56 145.03 272.56 175.94"/><polygon class="cls-111" points="279.17 172.18 272.52 175.94 272.52 145.03 279.17 141.28 279.17 172.18"/><polygon class="cls-113" points="272.61 144.99 245.68 129.44 252.16 125.78 279.09 141.33 272.61 144.99"/><polygon class="cls-112" points="272.56 175.94 245.63 160.39 245.63 129.49 272.56 145.03 272.56 175.94"/><polygon class="cls-111" points="279.17 172.18 272.52 175.94 272.52 145.03 279.17 141.28 279.17 172.18"/><polygon class="cls-113" points="272.61 144.99 245.68 129.44 252.16 125.78 279.09 141.33 272.61 144.99"/><polygon class="cls-112" points="272.56 175.94 245.63 160.39 245.63 129.49 272.56 145.03 272.56 175.94"/><polygon class="cls-111" points="279.17 172.18 272.52 175.94 272.52 145.03 279.17 141.28 279.17 172.18"/><polygon class="cls-113" points="272.61 144.99 245.68 129.44 252.16 125.78 279.09 141.33 272.61 144.99"/><polygon class="cls-112" points="272.56 175.94 245.63 160.39 245.63 129.49 272.56 145.03 272.56 175.94"/><polygon class="cls-111" points="279.17 172.18 272.52 175.94 272.52 145.03 279.17 141.28 279.17 172.18"/><polygon class="cls-113" points="272.61 144.99 245.68 129.44 252.16 125.78 279.09 141.33 272.61 144.99"/><polygon class="cls-112" points="272.56 175.94 245.63 160.39 245.63 129.49 272.56 145.03 272.56 175.94"/><polygon class="cls-111" points="279.17 172.18 272.52 175.94 272.52 145.03 279.17 141.28 279.17 172.18"/><polygon class="cls-113" points="272.61 144.99 245.68 129.44 252.16 125.78 279.09 141.33 272.61 144.99"/><polygon class="cls-112" points="272.56 175.94 245.63 160.39 245.63 129.49 272.56 145.03 272.56 175.94"/><polygon class="cls-111" points="279.17 172.18 272.52 175.94 272.52 145.03 279.17 141.28 279.17 172.18"/><polygon class="cls-113" points="272.61 144.99 245.68 129.44 252.16 125.78 279.09 141.33 272.61 144.99"/><polygon class="cls-112" points="272.56 175.94 245.63 160.39 245.63 129.49 272.56 145.03 272.56 175.94"/><polygon class="cls-111" points="279.17 172.18 272.52 175.94 272.52 145.03 279.17 141.28 279.17 172.18"/><polygon class="cls-113" points="272.61 144.99 245.68 129.44 252.16 125.78 279.09 141.33 272.61 144.99"/><polygon class="cls-112" points="272.56 175.94 245.63 160.39 245.63 129.49 272.56 145.03 272.56 175.94"/><polygon class="cls-111" points="279.17 172.18 272.52 175.94 272.52 145.03 279.17 141.28 279.17 172.18"/><polygon class="cls-113" points="272.61 144.99 245.68 129.44 252.16 125.78 279.09 141.33 272.61 144.99"/><polygon class="cls-112" points="272.56 175.94 245.63 160.39 245.63 129.49 272.56 145.03 272.56 175.94"/><polygon class="cls-111" points="279.17 172.18 272.52 175.94 272.52 145.03 279.17 141.28 279.17 172.18"/><polygon class="cls-113" points="272.61 144.99 245.68 129.44 252.16 125.78 279.09 141.33 272.61 144.99"/><polygon class="cls-112" points="272.56 175.94 245.63 160.39 245.63 129.49 272.56 145.03 272.56 175.94"/><polygon class="cls-111" points="279.17 172.18 272.52 175.94 272.52 145.03 279.17 141.28 279.17 172.18"/><polygon class="cls-113" points="272.61 144.99 245.68 129.44 252.16 125.78 279.09 141.33 272.61 144.99"/><polygon class="cls-112" points="272.56 175.94 245.63 160.39 245.63 129.49 272.56 145.03 272.56 175.94"/><polygon class="cls-111" points="279.17 172.18 272.52 175.94 272.52 145.03 279.17 141.28 279.17 172.18"/><polygon class="cls-113" points="272.61 144.99 245.68 129.44 252.16 125.78 279.09 141.33 272.61 144.99"/><polygon class="cls-112" points="272.56 175.94 245.63 160.39 245.63 129.49 272.56 145.03 272.56 175.94"/><polygon class="cls-111" points="279.17 172.18 272.52 175.94 272.52 145.03 279.17 141.28 279.17 172.18"/><polygon class="cls-113" points="272.61 144.99 245.68 129.44 252.16 125.78 279.09 141.33 272.61 144.99"/><polygon class="cls-112" points="272.56 175.94 245.63 160.39 245.63 129.49 272.56 145.03 272.56 175.94"/><polygon class="cls-111" points="279.17 172.18 272.52 175.94 272.52 145.03 279.17 141.28 279.17 172.18"/><polygon class="cls-113" points="272.61 144.99 245.68 129.44 252.16 125.78 279.09 141.33 272.61 144.99"/><polygon class="cls-112" points="272.56 175.94 245.63 160.39 245.63 129.49 272.56 145.03 272.56 175.94"/><polygon class="cls-111" points="279.17 172.18 272.52 175.94 272.52 145.03 279.17 141.28 279.17 172.18"/><polygon class="cls-113" points="272.61 144.99 245.68 129.44 252.16 125.78 279.09 141.33 272.61 144.99"/><polygon class="cls-112" points="272.56 175.94 245.63 160.39 245.63 129.49 272.56 145.03 272.56 175.94"/><polygon class="cls-111" points="279.17 172.18 272.52 175.94 272.52 145.03 279.17 141.28 279.17 172.18"/><polygon class="cls-113" points="272.61 144.99 245.68 129.44 252.16 125.78 279.09 141.33 272.61 144.99"/><polygon class="cls-112" points="272.56 175.94 245.63 160.39 245.63 129.49 272.56 145.03 272.56 175.94"/><polygon class="cls-111" points="279.17 172.18 272.52 175.94 272.52 145.03 279.17 141.28 279.17 172.18"/><polygon class="cls-113" points="272.61 144.99 245.68 129.44 252.16 125.78 279.09 141.33 272.61 144.99"/><polygon class="cls-82" points="272.56 175.94 245.63 160.39 245.63 129.49 272.56 145.03 272.56 175.94"/><polygon class="cls-120" points="279.17 172.18 272.52 175.94 272.52 145.03 279.17 141.28 279.17 172.18"/><polygon class="cls-121" points="272.61 144.99 245.68 129.44 252.16 125.78 279.09 141.33 272.61 144.99"/><polygon class="cls-124" points="230.09 87.92 203.16 72.37 203.16 41.47 230.09 57.02 230.09 87.92"/><polygon class="cls-125" points="236.71 84.16 230.06 87.92 230.06 57.02 236.71 53.26 236.71 84.16"/><polygon class="cls-126" points="230.14 56.97 203.21 41.42 209.69 37.76 236.62 53.31 230.14 56.97"/><path class="cls-94" d="M261,149.29v1.45l-.49,1.19-3.12-1.8v5.79L261,158v2.9l-5.5-3.18a2.63,2.63,0,0,1-1.27-2.17v-8.73c0-.84.52-1.14,1.27-.7Zm-48.15-93.1v1.44l-.49,1.19L209.25,57v5.79l3.6,2.09v2.9l-5.5-3.18a2.63,2.63,0,0,1-1.27-2.18V53.72c0-.85.52-1.14,1.27-.71Z"/><path class="cls-94" d="M216,62.63V59.71L218,60.89v2.92l2.56,1.48v2.34L218,66.15v2.94L216,67.91V65l-2.54-1.47V61.16Z"/><path class="cls-94" d="M223.7,67.09V64.17l2,1.19v2.91l2.57,1.48v2.34l-2.57-1.48v2.94l-2-1.18V69.43L221.15,68V65.62Z"/><polygon class="cls-103" points="380.49 169.4 351.46 152.64 351.46 119.33 380.49 136.09 380.49 169.4"/><polygon class="cls-122" points="387.63 165.35 380.46 169.4 380.46 136.09 387.63 132.04 387.63 165.35"/><polygon class="cls-123" points="380.55 136.04 351.52 119.28 358.51 115.33 387.54 132.09 380.55 136.04"/><path class="cls-94" d="M362.34,135v1.56l-.53,1.29-3.36-1.94v6.24l3.89,2.24v3.13l-5.93-3.43a2.81,2.81,0,0,1-1.38-2.34v-9.41c0-.91.56-1.23,1.38-.76Z"/><path class="cls-94" d="M363,139.56v-2.63c0-.91.57-1.23,1.38-.76l5.93,3.43v1.54l-.53,1.3-3.36-1.94v.57l3,4a3.87,3.87,0,0,1,.92,2.67v2.84c0,.91-.56,1.23-1.36.77L363,147.89v-3.12l3.89,2.24v-.82l-3-4A3.89,3.89,0,0,1,363,139.56Z"/><path class="cls-94" d="M370.88,144.14v-2.63c0-.91.56-1.23,1.37-.76l5.93,3.42v1.54l-.53,1.3-3.35-1.93v.57l3,4a3.88,3.88,0,0,1,.91,2.66v2.84c0,.91-.56,1.23-1.35.77l-5.95-3.43v-3.13l3.89,2.25v-.83l-3-4A3.89,3.89,0,0,1,370.88,144.14Z"/><polygon class="cls-124" points="336.09 225.17 308.65 209.33 308.65 177.83 336.09 193.68 336.09 225.17"/><polygon class="cls-125" points="342.84 221.34 336.06 225.17 336.06 193.68 342.84 189.85 342.84 221.34"/><polygon class="cls-126" points="336.15 193.63 308.7 177.78 315.31 174.06 342.75 189.9 336.15 193.63"/><path class="cls-94" d="M311.61,193.29v-2.48c0-.87.53-1.17,1.3-.73l5.61,3.24v1.46L318,196l-3.17-1.83v.54l2.8,3.76a3.65,3.65,0,0,1,.88,2.52v2.68c0,.87-.54,1.17-1.29.73l-5.62-3.24v-3l3.67,2.12v-.78l-2.8-3.75A3.63,3.63,0,0,1,311.61,193.29Z"/><path class="cls-94" d="M324.5,208.61l.65,1.52v1.48l-2.45-1.42-.49-2.9-1.52-.88a2.68,2.68,0,0,1-1.3-2.22V195.3c0-.86.53-1.16,1.3-.72l5.15,3a2.69,2.69,0,0,1,1.3,2.22v8.89c0,.87-.53,1.17-1.3.73Zm-1.88-9.94v5.9l1.29.74v-5.9Z"/><path class="cls-94" d="M328.31,199l3.22,1.86v8.87l3.25,1.88v3l-6.47-3.74Z"/><path class="cls-127" d="M203,257.25a3.43,3.43,0,0,0-3,3.65c0,2.6,2.42,4.91,3.5,5a3.48,3.48,0,0,0,3.5-1.27c1.09-1.17,2.09-4.77.3-6.28C206.28,257.52,205.4,257,203,257.25Z"/><path class="cls-128" d="M202.81,257.7c.45-.84-2.81.54-2.81,2.81s2.12,4.31,3.07,4.42a3,3,0,0,0,3.07-1.11c1-1,1.83-4.18.27-5.51C205.51,257.55,201.41,260.29,202.81,257.7Z"/><path class="cls-129" d="M201.52,259.33a1,1,0,0,0-.88,1.09,1.69,1.69,0,0,0,1,1.49,1,1,0,0,0,1-.37c.32-.35.62-1.42.09-1.87A1.43,1.43,0,0,0,201.52,259.33Z"/><path class="cls-126" d="M203.66,258.07s-.48-1.44-.22-1.94l.26-.49.44.25s-.42.26-.48.5A15.5,15.5,0,0,0,203.66,258.07Z"/><path class="cls-123" d="M193.46,278.85a7.46,7.46,0,0,1-6.76,0c-1.87-1.08-1.88-2.83,0-3.9a7.46,7.46,0,0,1,6.76,0C195.31,276,195.32,277.78,193.46,278.85Z"/><rect class="cls-123" x="185.29" y="268.56" width="9.56" height="8.24"/><path class="cls-101" d="M193.46,270.41a7.49,7.49,0,0,1-6.76,0c-1.87-1.08-1.88-2.83,0-3.9a7.46,7.46,0,0,1,6.76,0C195.31,267.59,195.32,269.34,193.46,270.41Z"/><path class="cls-123" d="M194.27,268.47a1.25,1.25,0,0,1-.29.76,2.83,2.83,0,0,1-.81.68,6.91,6.91,0,0,1-6.18,0,2.63,2.63,0,0,1-.84-.71,1.27,1.27,0,0,1-.28-.74A1.82,1.82,0,0,1,187,267a6.22,6.22,0,0,1,3.07-.73,6.41,6.41,0,0,1,3.11.74A1.88,1.88,0,0,1,194.27,268.47Z"/><path class="cls-130" d="M194,269.23a2.83,2.83,0,0,1-.81.68,6.91,6.91,0,0,1-6.18,0,2.63,2.63,0,0,1-.84-.71,2.54,2.54,0,0,1,.81-.68,6.86,6.86,0,0,1,6.18,0A2.65,2.65,0,0,1,194,269.23Z"/><path class="cls-101" d="M194.7,270.91l-.72.41.87.56a3.43,3.43,0,0,1,1.41,2l.07.92c0,1-.4,1.42-1.17,1.35l-.46-.05-.72.42,1.12.95A2.24,2.24,0,0,0,197,275.4l0-1.48a3,3,0,0,0-1.24-2.29Z"/><path class="cls-103" d="M194,271.32v.78l.78.45a2.07,2.07,0,0,1,1,1.64v.9c0,1-.5,1.54-1.27,1.46l-.46,0v.91l.93,0c.84,0,1.38-.6,1.4-1.64l0-1.48a2.86,2.86,0,0,0-1.17-2.29Z"/></svg>