<svg id="Lager_1" data-name="Lager 1" xmlns="http://www.w3.org/2000/svg" xmlns:xlink="http://www.w3.org/1999/xlink" viewBox="0 0 1200 1000"><defs><style>.cls-1{fill:#e58b0a;}.cls-2{fill:none;}.cls-107,.cls-3{fill:#e3f1fe;}.cls-4,.cls-5{opacity:0.1;}.cls-6{fill:#4e6496;}.cls-7{fill:#5c75b0;}.cls-8{fill:#598aea;}.cls-9{fill:#6782c5;}.cls-10{fill:#465a87;}.cls-11{fill:#475b89;}.cls-12{fill:#6783c5;}.cls-13{fill:#5e77b4;}.cls-14{fill:#85a9ff;}.cls-15{fill:#435580;}.cls-16{fill:#c3dff4;}.cls-17{fill:#5bb0ff;}.cls-18{fill:#3d93ff;}.cls-19{fill:#223a7a;}.cls-20{fill:#282528;}.cls-21{fill:#2c4481;}.cls-22{fill:#ffaa83;}.cls-23{fill:#f29c79;}.cls-24{fill:#1cb799;}.cls-25{fill:#ffe9fe;}.cls-26{fill:#27e0c0;}.cls-27{fill:#f79f7c;}.cls-28{fill:#3a2528;}.cls-29{opacity:0.8;}.cls-30{fill:#709dda;}.cls-31{isolation:isolate;}.cls-32,.cls-75{fill:#fff;}.cls-33{fill:#ff66a8;}.cls-34{fill:#4267c5;}.cls-35{fill:#ffb420;}.cls-36{fill:#7392dc;}.cls-37{clip-path:url(#clip-path);}.cls-38{clip-path:url(#clip-path-2);}.cls-39{clip-path:url(#clip-path-3);}.cls-40{fill:#70a6c5;}.cls-41{fill:#e83d8f;}.cls-42{clip-path:url(#clip-path-4);}.cls-43{fill:#318385;}.cls-44{fill:#33888a;}.cls-45{fill:#358d8f;}.cls-46{fill:#379294;}.cls-47{fill:#399799;}.cls-48{fill:#3b9c9e;}.cls-49{fill:#3da1a3;}.cls-50{fill:#3fa6a8;}.cls-51{fill:#41abad;}.cls-52{fill:#43b0b3;}.cls-53{fill:#44b5b8;}.cls-54{clip-path:url(#clip-path-5);}.cls-55{fill:#858585;}.cls-56{fill:#338789;}.cls-57{fill:#898989;}.cls-58{clip-path:url(#clip-path-6);}.cls-59{fill:#949494;}.cls-60{fill:#999;}.cls-61{fill:#9e9e9e;}.cls-62{fill:#a3a3a3;}.cls-63{fill:#a8a8a8;}.cls-64{fill:#adadad;}.cls-65{fill:#b3b3b3;}.cls-66{fill:#b8b8b8;}.cls-67{fill:#8f8f8f;}.cls-68{fill:#8a8a8a;}.cls-69{fill:#dcdcdc;}.cls-70{fill:#4a79d8;}.cls-71{clip-path:url(#clip-path-7);}.cls-72{clip-path:url(#clip-path-8);}.cls-73{clip-path:url(#clip-path-9);}.cls-74{clip-path:url(#clip-path-10);}.cls-75{opacity:0.3;}.cls-76{fill:#add3ea;}.cls-77{fill:#608eea;}.cls-78{fill:#487fd8;}.cls-79{fill:#345eb2;}.cls-80{fill:#c3cfdb;}.cls-81{clip-path:url(#clip-path-11);}.cls-82{clip-path:url(#clip-path-12);}.cls-83{clip-path:url(#clip-path-13);}.cls-84{clip-path:url(#clip-path-14);}.cls-85{fill:#858e94;}.cls-86{fill:#81898f;}.cls-87{fill:#7c848a;}.cls-88{fill:#787f85;}.cls-89{fill:#7b8388;}.cls-90{clip-path:url(#clip-path-15);}.cls-91{clip-path:url(#clip-path-16);}.cls-92{clip-path:url(#clip-path-17);}.cls-93{fill:#357280;}.cls-94{fill:#336e7c;}.cls-95{fill:#899298;}.cls-96{clip-path:url(#clip-path-18);}.cls-97{clip-path:url(#clip-path-19);}.cls-98{fill:#2f6673;}.cls-99{fill:#367584;}.cls-100{fill:#316976;}.cls-101{fill:#57bcd3;}.cls-102{clip-path:url(#clip-path-20);}.cls-103{fill:#316a77;}.cls-104{fill:#ccf2e8;}.cls-105{fill:#abd9ce;}.cls-106{fill:#e3b1e5;}.cls-107{stroke-miterlimit:10;stroke:url(#Unnamed_Pattern);}</style><clipPath id="clip-path"><path class="cls-1" d="M522.34,171.06l-8.61-5c-1.54-.89-2.52-2.81-2.52-5.54l8.6,5C519.82,168.26,520.79,170.17,522.34,171.06Z"/></clipPath><clipPath id="clip-path-2"><path class="cls-1" d="M560,86l8.62,5c-1.59-.93-3.77-.8-6.17.59l-8.61-5C556.28,85.25,558.46,85.12,560,86Z"/></clipPath><clipPath id="clip-path-3"><path class="cls-1" d="M519.7,126.31l-8.61-5c0-5.52,3.88-12.2,8.63-14.94l8.62,5C523.57,114.11,519.7,120.8,519.7,126.31Z"/></clipPath><clipPath id="clip-path-4"><path class="cls-2" d="M913.77,495q0-16.28.09-32.52a2.41,2.41,0,0,1,1.42-2,7.69,7.69,0,0,1,7,0l-.11,32.5a7.75,7.75,0,0,0-7,0A2.49,2.49,0,0,0,913.77,495Z"/></clipPath><clipPath id="clip-path-5"><path class="cls-2" d="M913.77,495q0-16.28.09-32.52a2.46,2.46,0,0,0,1.46,2L915.21,497A2.51,2.51,0,0,1,913.77,495Z"/></clipPath><clipPath id="clip-path-6"><path class="cls-2" d="M1003,508.3c0,10.84,0,21.67-.09,32.52a2.46,2.46,0,0,1-1.45,2,7.57,7.57,0,0,1-7,0l.09-32.52a7.69,7.69,0,0,0,7,0A2.49,2.49,0,0,0,1003,508.3Z"/></clipPath><clipPath id="clip-path-7"><path class="cls-2" d="M647.27,697.88a26.83,26.83,0,0,0-13.16-3.16q.06-16.26.09-32.53a27,27,0,0,1,13.16,3.16C647.34,675.11,647.29,688.13,647.27,697.88Z"/></clipPath><clipPath id="clip-path-8"><path class="cls-2" d="M621,697.88c-3.6,2.09-5.39,4.82-5.4,7.58l.1-32.54c0-2.74,1.78-5.48,5.4-7.57a26.79,26.79,0,0,1,13.13-3.16q0,16.26-.09,32.53h0A26.64,26.64,0,0,0,621,697.88Z"/></clipPath><clipPath id="clip-path-9"><path class="cls-2" d="M652.76,705.54c0-2.78-1.83-5.54-5.49-7.66l.09-32.53c3.65,2.12,5.5,4.9,5.5,7.66C652.83,682.79,652.78,695.79,652.76,705.54Z"/></clipPath><clipPath id="clip-path-10"><path class="cls-2" d="M652.86,673q-.08,16.26-.11,32.53c0,2.72-1.79,5.47-5.39,7.55-7.26,4.22-19,4.22-26.29,0-3.68-2.12-5.52-4.89-5.5-7.64q.06-16.28.1-32.54c0,2.78,1.82,5.55,5.49,7.67,7.28,4.2,19,4.2,26.27,0C651,678.51,652.84,675.77,652.86,673Z"/></clipPath><clipPath id="clip-path-11"><path class="cls-1" d="M655,578.77l-17.41-10.12c-3.12-1.82-5.08-5.69-5.1-11.2l17.4,10.12C650,573.08,651.9,577,655,578.77Z"/></clipPath><clipPath id="clip-path-12"><path class="cls-1" d="M731.22,406.93,748.63,417c-3.18-1.84-7.6-1.59-12.45,1.21l-17.41-10.1C723.62,405.34,728,405.08,731.22,406.93Z"/></clipPath><clipPath id="clip-path-13"><path class="cls-1" d="M649.71,488.32l-17.39-10.11c0-11.14,7.81-24.67,17.43-30.21l17.41,10.1C657.54,463.66,649.67,477.18,649.71,488.32Z"/></clipPath><clipPath id="clip-path-14"><path class="cls-2" d="M995,439.28c4-2.34,5.73-8.49,3.76-13.68l3.18-.21c2,5.18.27,11.35-3.76,13.66C997.22,439.13,996,439.2,995,439.28Z"/></clipPath><clipPath id="clip-path-15"><path class="cls-2" d="M984,401.8l3.18-.2c3.25-.23,6.5,2,8,6.06l-3.19.24C990.5,403.87,987.26,401.58,984,401.8Z"/></clipPath><clipPath id="clip-path-16"><path class="cls-2" d="M986.18,395.09l3.19-.21a6.55,6.55,0,0,0-2.88.9l-3.18.2A6.66,6.66,0,0,1,986.18,395.09Z"/></clipPath><clipPath id="clip-path-17"><path class="cls-2" d="M984,401.8l3.18-.2a6.64,6.64,0,0,0-2.89.88l-3.18.2A6.92,6.92,0,0,1,984,401.8Z"/></clipPath><clipPath id="clip-path-18"><path class="cls-2" d="M964.67,456.77h.19l1.82-.11c.39,0,.78,0,1.17-.08a6.56,6.56,0,0,1-2.89.89l-3.18.2A6.36,6.36,0,0,0,964.67,456.77Z"/></clipPath><clipPath id="clip-path-19"><path class="cls-2" d="M965,457.46l-3.18.2c-3.26.22-6.51-2.07-8-6.07l3.19-.2C958.44,455.36,961.68,457.68,965,457.46Z"/></clipPath><clipPath id="clip-path-20"><path class="cls-2" d="M950.21,433.66l-3.19.21c-2-5.22-.31-11.32,3.76-13.67L954,420C949.89,422.34,948.22,428.44,950.21,433.66Z"/></clipPath><pattern id="Unnamed_Pattern" data-name="Unnamed Pattern" width="23.82" height="43.03" patternUnits="userSpaceOnUse" viewBox="0 0 23.82 43.03"><rect class="cls-2" width="23.82" height="43.03"/><path class="cls-3" d="M23.77,0l.05,18.76c0,10.32-4.49,17.84-12.11,22.25C4.4,45.23.08,43.05,0,32.38L0,13.73l6.57-3.8,0,19.26c0,5.75,1.94,7.6,5.3,5.66s5.34-5.89,5.33-11.8L17.2,3.79Z"/></pattern></defs><title>fixed</title><path class="cls-4" d="M1143.07,484.21c-28.38-43.42-72.72-84.06-133.12-118.88C870.7,284.82,678.78,253.86,499,272c-113.46,11.42-222.14,42.59-309.6,93.38C88.25,424.06,32.83,499.24,22.64,576.13c-12.52,94.72,43.91,192,169.43,264.45,190.59,110,479.47,127.82,701,53.29,42.82-14.32,83.11-32.07,119.62-53.29C1178.44,744.33,1221.67,603.9,1143.07,484.21Z"/><g class="cls-5"><path d="M587.12,332.73c73.25,42.29,73.63,110.83.86,153.13s-191.1,42.31-264.36,0-73.6-110.81-.81-153.1S513.91,290.47,587.12,332.73Z"/></g><g class="cls-5"><path d="M416.61,502.6c73.25,42.29,73.64,110.82.86,153.13s-191.1,42.28-264.36,0-73.6-110.82-.82-153.11S343.4,460.33,416.61,502.6Z"/></g><g class="cls-5"><path d="M620.33,518.77c33.8,19.53,34,51.16.39,70.68s-88.23,19.54-122,0-34-51.14-.38-70.67S586.53,499.25,620.33,518.77Z"/></g><polygon class="cls-6" points="467.3 246.85 467.19 286.3 465.3 313.69 465.4 274.24 467.3 246.85"/><polygon class="cls-6" points="423.87 274.62 423.76 314.06 422.33 334.62 422.44 295.17 423.87 274.62"/><polygon class="cls-6" points="465.4 274.24 465.3 313.69 463.78 335.63 463.89 296.18 465.4 274.24"/><polygon class="cls-7" points="463.89 296.18 463.78 335.63 422.33 334.62 422.44 295.17 463.89 296.18"/><polygon class="cls-8" points="334.94 306.2 334.83 345.67 307.81 328.82 307.92 289.39 334.94 306.2"/><polygon class="cls-8" points="591.2 290.35 591.08 329.79 561 347.29 561.1 307.83 591.2 290.35"/><polygon class="cls-9" points="532.36 290.44 532.25 329.88 501.58 347.7 501.7 308.27 532.36 290.44"/><polygon class="cls-10" points="396.34 309.25 396.25 348.69 364.1 328.67 364.21 289.24 396.34 309.25"/><polygon class="cls-11" points="531.13 325.26 531.01 364.69 501.58 347.7 501.7 308.27 531.13 325.26"/><polygon class="cls-9" points="561.1 307.83 561 347.29 531.01 364.69 531.13 325.26 561.1 307.83"/><polygon class="cls-10" points="366.04 325.59 365.94 365.02 334.83 345.67 334.94 306.2 366.04 325.59"/><polygon class="cls-12" points="396.34 309.25 396.25 348.69 365.94 365.02 366.04 325.59 396.34 309.25"/><polygon class="cls-13" points="351.85 342.48 351.75 381.92 308.93 383 309.05 343.56 351.85 342.48"/><polygon class="cls-13" points="585.58 344.39 585.47 383.83 541.43 384.94 541.54 345.48 585.58 344.39"/><path class="cls-14" d="M496.38,325.71a78.82,78.82,0,0,0-9.47-4.54,5.35,5.35,0,0,1-.59-.29,2.29,2.29,0,0,1-.37-.12q-3.66-1.41-7.53-2.53c-.2-.07-.38-.14-.57-.19-.55-.16-1.13-.27-1.68-.42-1.48-.39-3-.77-4.48-1.11-.37-.07-.73-.18-1.11-.25-.55-.12-1.12-.19-1.66-.3-1.26-.24-2.52-.46-3.8-.66-.48-.08-1-.18-1.45-.25s-1.07-.1-1.59-.17c-1.18-.16-2.35-.29-3.53-.4-.55-.06-1.09-.14-1.64-.19s-1-.05-1.51-.08c-1.22-.09-2.43-.15-3.65-.18-.57,0-1.13-.09-1.7-.1h-1.34c-1.33,0-2.67,0-4,0-.6,0-1.21,0-1.8,0-.35,0-.7.07-1.06.08-1.61.06-3.21.18-4.81.31-.62.06-1.24.07-1.85.13-.18,0-.37.06-.56.07-2.67.28-5.3.65-7.91,1.11l-.41,0c-.82.14-1.63.36-2.45.53-1.2.24-2.41.47-3.6.76l-3,.8c-1.13.31-2.25.62-3.36,1-.27.09-.56.14-.82.24-.46.14-.87.34-1.32.5q-2.71.93-5.32,2c-.71.29-1.4.58-2.1.9a67.76,67.76,0,0,0-6.54,3.3c-.29.16-.56.33-.84.5-.65.39-1.22.8-1.84,1.22-.83.55-1.69,1.08-2.46,1.65s-1.31,1-2,1.53-1.49,1.19-2.17,1.81a3.31,3.31,0,0,0-.41.35c-.26.23-.45.49-.7.74a41.8,41.8,0,0,0-3,3.19c-.2.25-.46.47-.65.71s-.3.47-.48.71c-.6.79-1.13,1.61-1.64,2.42-.2.35-.49.68-.69,1-.09.17-.14.35-.23.54-.39.71-.71,1.43-1,2.17-.18.42-.42.83-.59,1.25-.05.15-.07.29-.12.42-.25.7-.42,1.39-.6,2.08-.13.48-.31,1-.4,1.43,0,.12,0,.24-.05.36-.13.74-.18,1.46-.25,2.19,0,.48-.14,1-.16,1.44,0,.19,0,.4,0,.59l-.11,39.46c0-.69.11-1.37.17-2.06s.12-1.45.25-2.17.29-1.22.46-1.83.34-1.34.58-2a16.9,16.9,0,0,1,.75-1.76c.3-.71.61-1.42,1-2.12.29-.54.62-1,.95-1.55.5-.83,1-1.63,1.63-2.44.35-.47.74-.94,1.12-1.4.9-1.09,1.92-2.16,3-3.22.38-.35.72-.72,1.1-1.06.69-.64,1.47-1.24,2.22-1.86s1.22-1,1.89-1.48,1.7-1.15,2.56-1.7,1.68-1.13,2.6-1.68a73,73,0,0,1,6.55-3.31c.69-.31,1.38-.6,2.07-.89,1.76-.72,3.54-1.4,5.37-2,.7-.26,1.38-.51,2.1-.73,1.16-.37,2.33-.69,3.51-1,.93-.25,1.85-.52,2.78-.75,1.24-.3,2.5-.54,3.75-.79.92-.2,1.83-.4,2.76-.57,2.61-.46,5.24-.81,7.91-1.09.79-.09,1.6-.14,2.4-.2,1.6-.14,3.21-.25,4.82-.33.95,0,1.89-.07,2.84-.08,1.34,0,2.67,0,4,0,1,0,2,0,3,.08,1.22.05,2.43.1,3.66.2,1,.06,2.1.15,3.15.26s2.36.24,3.53.39c1,.14,2,.27,3,.43,1.28.19,2.54.41,3.8.66l2.77.56c1.52.33,3,.71,4.48,1.1.75.19,1.5.4,2.25.61,2.57.74,5.08,1.59,7.51,2.53.34.13.65.29,1,.42a75.89,75.89,0,0,1,9.47,4.54c13.76,7.94,20.64,18.37,20.6,28.77l.12-39.45C517,344.08,510.14,333.65,496.38,325.71Z"/><polygon class="cls-15" points="353.82 366.47 353.73 405.92 351.75 381.92 351.85 342.48 353.82 366.47"/><polygon class="cls-13" points="353.82 366.47 353.72 405.92 309.75 407.03 309.86 367.58 353.82 366.47"/><polygon class="cls-8" points="628.57 367.36 628.46 406.79 584.48 407.89 584.59 368.46 628.57 367.36"/><polygon class="cls-8" points="309.86 367.58 309.75 407.03 268.57 408.07 268.69 368.63 309.86 367.58"/><polygon class="cls-14" points="268.69 368.63 268.57 408.07 266.59 384.07 266.7 344.62 268.69 368.63"/><polygon class="cls-13" points="584.59 368.46 584.48 407.89 543.32 408.93 543.42 369.49 584.59 368.46"/><polygon class="cls-15" points="543.42 369.49 543.32 408.93 541.43 384.94 541.54 345.48 543.42 369.49"/><polygon class="cls-12" points="528.54 382.94 528.44 422.39 498.13 438.71 498.25 399.27 528.54 382.94"/><polygon class="cls-11" points="400.61 401.12 400.49 440.55 371.06 423.55 371.18 384.11 400.61 401.12"/><path class="cls-14" d="M583.31,372.12a59.48,59.48,0,0,1-3.23,6.89c-.32.57-.62,1.14-1,1.69s-.83,1.37-1.27,2.06-1,1.45-1.47,2.18-1,1.35-1.46,2-1,1.3-1.56,2c-.74.91-1.51,1.8-2.31,2.69-.53.6-1,1.18-1.61,1.76-.87.91-1.78,1.82-2.72,2.7-.54.53-1.08,1.07-1.66,1.58-1.71,1.57-3.51,3.12-5.44,4.64l-.11,39.44c1.92-1.51,3.72-3.06,5.45-4.64.17-.15.37-.31.53-.46.4-.36.74-.74,1.13-1.1.93-.91,1.85-1.81,2.72-2.71.54-.59,1.07-1.17,1.6-1.78.8-.88,1.56-1.78,2.31-2.69.27-.33.59-.65.85-1s.46-.64.71-1c.5-.68,1-1.33,1.46-2s1-1.46,1.48-2.21.85-1.34,1.24-2c.23-.37.47-.73.68-1.09.12-.21.18-.44.31-.65a57.33,57.33,0,0,0,3.2-6.86c.06-.12.14-.27.19-.4.42-1.1.78-2.19,1.11-3.28l.11-39.43C584.22,369.68,583.77,370.9,583.31,372.12Z"/><polygon class="cls-10" points="559.62 402.29 559.51 441.73 528.44 422.39 528.54 382.94 559.62 402.29"/><path class="cls-14" d="M309.86,367.58,309.75,407c3.77,12.88,13,25.35,27.53,36.15l.11-39.43C322.81,392.93,313.63,380.48,309.86,367.58Z"/><polygon class="cls-9" points="371.18 384.11 371.06 423.55 337.28 443.18 337.39 403.75 371.18 384.11"/><polygon class="cls-7" points="475.54 413.9 475.44 453.35 434.03 452.3 434.15 412.85 475.54 413.9"/><polygon class="cls-10" points="530.34 419.26 530.23 458.71 498.13 438.71 498.25 399.27 530.34 419.26"/><polygon class="cls-9" points="400.61 401.12 400.49 440.55 367.39 459.79 367.5 420.35 400.61 401.12"/><polygon class="cls-6" points="475.54 413.9 475.43 453.35 474.07 472.98 474.19 433.55 475.54 413.9"/><path class="cls-14" d="M530.34,419.26c-4.62,2-9.42,3.75-14.34,5.34-3,1-6,1.83-9.07,2.66-1.36.38-2.7.82-4.07,1.16q-6.81,1.71-13.84,3c-4.89.87-9.85,1.59-14.83,2.15L474.07,473c5-.54,9.95-1.28,14.83-2.14a.58.58,0,0,0,.14,0c4.65-.83,9.21-1.83,13.71-2.95,1.36-.34,2.67-.77,4-1.13,2.73-.75,5.49-1.46,8.15-2.32.35-.1.64-.25,1-.36,4.92-1.61,9.73-3.36,14.34-5.34Z"/><path class="cls-14" d="M417.93,433.07c-.95-.11-1.91-.18-2.85-.33-5.17-.71-10.29-1.6-15.33-2.67-1.78-.39-3.49-.88-5.26-1.29-3.33-.8-6.65-1.61-9.88-2.56-3.5-1-6.86-2.25-10.23-3.44-2.28-.82-4.65-1.54-6.88-2.43l-.1,39.44,1.8.72c1.55.6,3.23,1,4.82,1.62,3.44,1.24,6.87,2.46,10.44,3.52.53.15,1,.36,1.55.52,2.76.79,5.62,1.4,8.45,2.07,1.73.41,3.43.9,5.19,1.27.32.06.62.16.94.23q6.8,1.39,13.75,2.39c.21,0,.43,0,.64.07.93.12,1.9.2,2.85.31,3.32.42,6.65.85,10,1.12,1.55.13,3.11.25,4.68.35l.1-39.45C427.7,434.23,422.8,433.69,417.93,433.07Z"/><polygon class="cls-6" points="434.15 412.85 434.03 452.3 432.54 473.98 432.64 434.53 434.15 412.85"/><polygon class="cls-14" points="586.73 419.17 586.62 458.6 556.26 474.91 556.39 435.47 586.73 419.17"/><polygon class="cls-8" points="556.39 435.47 556.26 474.91 530.23 458.71 530.34 419.26 556.39 435.47"/><polygon class="cls-8" points="367.5 420.35 367.39 459.79 340.39 475.48 340.5 436.05 367.5 420.35"/><polygon class="cls-14" points="340.5 436.05 340.39 475.48 310.95 458.49 311.07 419.05 340.5 436.05"/><path class="cls-16" d="M584.59,368.46l-41.17,1,41.17-1,44-1.1-1.9-24-41.09,1c-2.8-12.9-11-25.49-24.48-36.56l30.1-17.48-29.44-17-29.4,17.08c-20-9-43.13-14.36-67-16.2l1.9-27.39-41.44-1-2,28.77c-21.17,2-41.67,6.91-59.66,14.62l-26-16.18-30.3,16.33,27,16.81c-14.31,11.23-22.93,24.13-25.89,37.36l-42.35,1.06,2,24,41.18-1.05c3.77,12.9,12.95,25.35,27.53,36.17l-26.32,15.3,29.43,17,27-15.7c19.73,8,42.19,12.76,65.14,14.18l-1.91,27.66,41.4,1,2.06-29.68,1.35-19.65-41.39-1,41.39,1-1.35,19.65c19.92-2.22,39.16-7,56.15-14.29l26,16.21,30.34-16.3-27.11-16.88C572.65,392.08,581,380.47,584.59,368.46ZM398.17,382.78c-27.3-15.76-27.46-41.28-.32-57.06s71.22-15.77,98.53,0,27.51,41.34.37,57.1S425.5,398.57,398.17,382.78Z"/><polygon class="cls-14" points="472.13 463.23 472.02 502.66 430.62 501.62 430.73 462.19 472.13 463.23"/><polygon class="cls-8" points="474.19 433.55 474.07 472.98 472.02 502.66 472.13 463.23 474.19 433.55"/><polygon class="cls-6" points="288.4 412.13 288.3 451.57 286.39 478.95 286.51 439.5 288.4 412.13"/><polygon class="cls-6" points="244.97 439.89 244.86 479.34 243.44 499.87 243.55 460.44 244.97 439.89"/><polygon class="cls-6" points="286.51 439.5 286.39 478.95 284.88 500.9 284.98 461.46 286.51 439.5"/><polygon class="cls-7" points="284.98 461.46 284.88 500.9 243.44 499.87 243.55 460.44 284.98 461.46"/><polygon class="cls-8" points="156.03 471.48 155.93 510.92 128.91 494.09 129.02 454.67 156.03 471.48"/><polygon class="cls-8" points="412.3 455.62 412.18 495.06 382.1 512.55 382.2 473.1 412.3 455.62"/><polygon class="cls-9" points="353.48 455.71 353.36 495.16 322.69 512.98 322.8 473.55 353.48 455.71"/><polygon class="cls-10" points="217.45 474.53 217.35 513.97 185.2 493.95 185.31 454.51 217.45 474.53"/><polygon class="cls-11" points="352.23 490.53 352.12 529.97 322.69 512.98 322.8 473.55 352.23 490.53"/><polygon class="cls-9" points="382.2 473.1 382.1 512.55 352.12 529.97 352.23 490.53 382.2 473.1"/><polygon class="cls-10" points="187.15 490.87 187.04 530.3 155.93 510.92 156.03 471.48 187.15 490.87"/><polygon class="cls-12" points="217.45 474.53 217.35 513.97 187.04 530.3 187.15 490.87 217.45 474.53"/><polygon class="cls-13" points="172.95 507.76 172.84 547.19 130.03 548.26 130.15 508.83 172.95 507.76"/><polygon class="cls-13" points="406.68 509.65 406.57 549.1 362.53 550.21 362.64 510.76 406.68 509.65"/><path class="cls-14" d="M317.48,491a75.75,75.75,0,0,0-9.46-4.54c-.21-.09-.4-.22-.61-.3s-.25-.08-.36-.12c-2.44-.95-4.95-1.78-7.52-2.53l-.58-.2c-.55-.16-1.12-.26-1.68-.4-1.47-.4-3-.79-4.47-1.11-.38-.08-.74-.19-1.12-.27-.54-.12-1.11-.18-1.66-.29-1.26-.23-2.52-.46-3.8-.66-.48-.07-1-.18-1.44-.25s-1.08-.11-1.6-.18l-3.54-.4c-.54-.05-1.08-.13-1.63-.18s-1,0-1.5-.08c-1.23-.08-2.44-.14-3.66-.2-.57,0-1.13-.07-1.69-.08h-1.34c-1.34,0-2.67,0-4,0-.6,0-1.2,0-1.79,0-.36,0-.71,0-1.06.08-1.62.06-3.22.19-4.82.31-.62.06-1.23.07-1.84.12-.19,0-.39.07-.57.08-2.66.27-5.3.65-7.91,1.11l-.41.05c-.82.15-1.63.36-2.45.53-1.2.24-2.41.47-3.59.77-1,.24-2,.52-3,.8s-2.25.61-3.36.95c-.26.09-.55.15-.82.23-.45.16-.87.35-1.31.51q-2.73.93-5.33,2c-.71.29-1.4.57-2.09.89A68.06,68.06,0,0,0,219,491c-.28.15-.56.33-.84.5-.65.37-1.22.8-1.83,1.21-.84.56-1.7,1.08-2.47,1.65s-1.31,1-1.95,1.53-1.49,1.18-2.17,1.8l-.42.35c-.26.24-.45.51-.7.75a42,42,0,0,0-3,3.2c-.19.23-.46.46-.65.69s-.3.48-.47.71a28.14,28.14,0,0,0-1.64,2.44c-.22.34-.5.67-.69,1-.1.17-.15.36-.24.52-.39.74-.71,1.46-1,2.19-.17.42-.43.83-.58,1.25,0,.14-.08.29-.12.42-.25.69-.42,1.39-.61,2.09-.12.48-.3,1-.4,1.41,0,.12,0,.24,0,.38-.13.73-.18,1.45-.25,2.17,0,.48-.14,1-.16,1.44,0,.21,0,.42,0,.61l-.11,39.45c0-.68.11-1.37.18-2.07s.12-1.43.25-2.15a16.29,16.29,0,0,1,.45-1.83c.18-.68.35-1.36.59-2s.48-1.17.74-1.75.62-1.42,1-2.13c.28-.52.62-1,.94-1.54.49-.82,1-1.62,1.64-2.43.34-.48.73-.94,1.12-1.4a40.42,40.42,0,0,1,3-3.23c.37-.35.71-.71,1.1-1.07.69-.62,1.46-1.23,2.22-1.84s1.22-1,1.88-1.49c.81-.58,1.7-1.15,2.56-1.71s1.68-1.13,2.61-1.67a68,68,0,0,1,6.55-3.31c.68-.32,1.37-.59,2.07-.89,1.75-.72,3.53-1.41,5.36-2,.7-.25,1.4-.5,2.1-.72,1.15-.37,2.33-.69,3.51-1,.94-.26,1.85-.54,2.79-.75,1.23-.3,2.48-.55,3.75-.8.91-.19,1.82-.4,2.76-.56,2.6-.47,5.24-.82,7.9-1.1.79-.1,1.59-.13,2.4-.21,1.6-.13,3.21-.24,4.83-.32.94,0,1.9-.07,2.84-.08,1.34,0,2.67,0,4,0,1,0,2,0,3,.07,1.22,0,2.42.11,3.64.21,1.06.06,2.11.16,3.15.26,1.19.1,2.37.24,3.54.4,1,.13,2,.25,3,.41,1.28.21,2.54.43,3.8.66.92.2,1.86.38,2.77.57,1.52.33,3,.7,4.48,1.1.75.2,1.51.39,2.25.62,2.58.74,5.09,1.56,7.51,2.52a9.85,9.85,0,0,1,1,.43,74.33,74.33,0,0,1,9.46,4.53c13.76,7.94,20.64,18.37,20.6,28.78l.12-39.45C338.12,509.35,331.24,498.93,317.48,491Z"/><polygon class="cls-15" points="174.94 531.75 174.83 571.2 172.84 547.19 172.95 507.76 174.94 531.75"/><polygon class="cls-13" points="174.94 531.75 174.83 571.2 130.84 572.3 130.96 532.86 174.94 531.75"/><polygon class="cls-8" points="449.67 532.61 449.56 572.05 405.59 573.16 405.7 533.72 449.67 532.61"/><polygon class="cls-8" points="130.96 532.86 130.84 572.3 89.67 573.33 89.79 533.88 130.96 532.86"/><polygon class="cls-14" points="89.79 533.88 89.67 573.33 87.69 549.33 87.81 509.89 89.79 533.88"/><polygon class="cls-13" points="405.7 533.72 405.59 573.16 364.43 574.21 364.53 534.76 405.7 533.72"/><polygon class="cls-15" points="364.53 534.76 364.43 574.21 362.53 550.21 362.64 510.76 364.53 534.76"/><polygon class="cls-12" points="349.64 548.21 349.54 587.66 319.23 603.99 319.35 564.55 349.64 548.21"/><polygon class="cls-11" points="221.71 566.38 221.59 605.82 192.16 588.82 192.28 549.38 221.71 566.38"/><path class="cls-14" d="M404.41,537.38a60.52,60.52,0,0,1-3.23,6.91c-.31.56-.62,1.13-.95,1.68s-.83,1.38-1.28,2.06-.95,1.46-1.46,2.17-1,1.35-1.47,2-1,1.31-1.56,2c-.73.89-1.51,1.81-2.31,2.7-.52.58-1.06,1.17-1.61,1.74-.86.92-1.78,1.83-2.71,2.71-.55.52-1.09,1.07-1.66,1.59-1.72,1.57-3.52,3.1-5.45,4.63L380.61,607c1.93-1.53,3.72-3.07,5.45-4.65.17-.15.37-.31.55-.45.38-.37.73-.74,1.11-1.12.94-.9,1.85-1.8,2.72-2.72.54-.58,1.07-1.16,1.6-1.75.8-.89,1.57-1.78,2.31-2.69.27-.33.59-.66.85-1s.46-.66.71-1c.51-.67,1-1.34,1.46-2s1-1.46,1.48-2.19.85-1.36,1.26-2c.21-.35.46-.72.66-1.09.11-.2.18-.43.3-.63a58.17,58.17,0,0,0,3.21-6.87,4.11,4.11,0,0,0,.21-.42c.4-1.08.76-2.16,1.1-3.26l.11-39.44C405.33,535,404.87,536.17,404.41,537.38Z"/><polygon class="cls-10" points="380.72 567.56 380.61 607.01 349.54 587.66 349.64 548.21 380.72 567.56"/><path class="cls-14" d="M131,532.86l-.12,39.44c3.79,12.89,13,25.35,27.55,36.16l.1-39.44C143.92,558.21,134.75,545.75,131,532.86Z"/><polygon class="cls-9" points="192.28 549.38 192.16 588.82 158.39 608.46 158.49 569.02 192.28 549.38"/><polygon class="cls-7" points="296.65 579.16 296.54 618.62 255.14 617.56 255.25 578.12 296.65 579.16"/><polygon class="cls-10" points="351.46 584.53 351.34 623.99 319.23 603.99 319.35 564.55 351.46 584.53"/><polygon class="cls-9" points="221.71 566.38 221.59 605.82 188.51 625.05 188.62 585.6 221.71 566.38"/><polygon class="cls-6" points="296.65 579.16 296.54 618.62 295.17 638.26 295.29 598.82 296.65 579.16"/><path class="cls-14" d="M351.46,584.53c-4.63,2-9.44,3.75-14.36,5.35-3,1-6,1.82-9.06,2.64-1.37.4-2.7.83-4.08,1.16q-6.81,1.73-13.84,3c-4.88.88-9.85,1.59-14.83,2.15l-.12,39.44c5-.55,9.95-1.28,14.83-2.15l.14,0c4.64-.83,9.21-1.84,13.71-3,1.36-.34,2.67-.75,4-1.13,2.72-.73,5.48-1.45,8.15-2.31.34-.11.64-.25,1-.35,4.93-1.61,9.73-3.37,14.35-5.35Z"/><path class="cls-14" d="M239,598.34c-.94-.12-1.9-.17-2.84-.32-5.18-.71-10.3-1.62-15.34-2.67-1.78-.39-3.49-.88-5.25-1.3-3.34-.79-6.66-1.61-9.89-2.56-3.49-1-6.86-2.24-10.23-3.45-2.28-.82-4.64-1.53-6.86-2.44l-.11,39.45c.58.25,1.19.49,1.79.72,1.55.62,3.24,1,4.83,1.63,3.42,1.24,6.86,2.47,10.43,3.51.53.17,1,.38,1.55.53,2.77.79,5.62,1.4,8.45,2.07,1.73.4,3.43.9,5.2,1.27.31.06.62.14.94.22,4.53,1,9.11,1.74,13.75,2.4.2,0,.42,0,.62.06.94.14,1.91.2,2.86.32,3.33.43,6.66.84,10,1.13,1.55.13,3.11.25,4.68.34l.11-39.45C248.8,599.5,243.9,599,239,598.34Z"/><polygon class="cls-6" points="255.25 578.12 255.14 617.56 253.64 639.25 253.75 599.8 255.25 578.12"/><polygon class="cls-14" points="407.82 584.44 407.73 623.88 377.36 640.18 377.48 600.75 407.82 584.44"/><polygon class="cls-8" points="377.48 600.75 377.36 640.18 351.34 623.99 351.46 584.53 377.48 600.75"/><polygon class="cls-8" points="188.62 585.6 188.51 625.05 161.49 640.76 161.6 601.31 188.62 585.6"/><polygon class="cls-14" points="161.6 601.31 161.49 640.76 132.05 623.75 132.17 584.31 161.6 601.31"/><path class="cls-16" d="M405.7,533.72l-41.17,1,41.17-1,44-1.11-1.88-24-41.11,1c-2.8-12.88-11-25.47-24.48-36.55l30.1-17.48-29.44-17-29.38,17.07c-20-9-43.14-14.36-67-16.21l1.89-27.37-41.44-1-2,28.77c-21.17,2-41.66,6.91-59.66,14.62l-26-16.18L129,454.67l27,16.81c-14.3,11.22-22.94,24.12-25.9,37.35l-42.33,1.06,2,24,41.17-1c3.79,12.89,13,25.35,27.53,36.16l-26.32,15.29,29.43,17,27-15.71c19.72,8,42.17,12.76,65.13,14.2l-1.92,27.66,41.4,1,2.06-29.68,1.36-19.66-41.4-1,41.4,1-1.36,19.66c19.92-2.23,39.16-7,56.17-14.29l26,16.22,30.35-16.31-27.11-16.88C393.76,557.34,402.07,545.74,405.7,533.72ZM219.28,548.06C192,532.29,191.82,506.76,219,491s71.22-15.78,98.53,0,27.51,41.33.37,57.09S246.6,563.84,219.28,548.06Z"/><polygon class="cls-14" points="293.23 628.5 293.12 667.93 251.72 666.89 251.83 627.46 293.23 628.5"/><polygon class="cls-8" points="295.29 598.82 295.17 638.26 293.12 667.93 293.23 628.5 295.29 598.82"/><path class="cls-17" d="M495.55,553.61s-4.44,9.21,2.22,12.07,6.67-1.6,19.05,8.56,23.32,5.63,25.36,3.84c3.38-3,1.45-11.69-26.09-25.65Z"/><path class="cls-18" d="M497.78,565.68c6.67,2.86,6.67-1.6,19.07,8.56s23.56,5.89,25.34,3.84c.21-.24.9-.75.94-1.33-11.58,4.09-18.38-1.59-23.45-5.5s-9.64-5.62-17.57-7.33-5-7.84-5-7.84a3.74,3.74,0,0,0-2.17-.77C494,558.12,492.91,563.58,497.78,565.68Z"/><path class="cls-17" d="M534.4,526.14s-4.44,9.21,2.22,12.06,6.69-1.59,19.06,8.58,23.57,5.87,25.35,3.84c1.34-1.52,1.47-11.7-26.08-25.65Z"/><path class="cls-18" d="M536.64,538.2c6.67,2.86,6.67-1.59,19.05,8.58s23.57,5.87,25.37,3.84a2.28,2.28,0,0,0,.4-1.26c-11.57,4.1-17.85-1.66-22.92-5.56s-9.65-5.63-17.59-7.35-5-7.84-5-7.84a3.6,3.6,0,0,0-2.17-.75C532.83,530.65,531.78,536.11,536.64,538.2Z"/><path class="cls-19" d="M475.87,405.08s13.14-2,20.4-9.64c0,0,50.14,34.8,54.31,46,4,10.67,9.71,62.84,9.37,85.27-.12,7.17-27,12.4-28.6,2.13-2.88-18.5-5.13-70.42-5.13-70.42S466.49,437.09,475.87,405.08Z"/><path class="cls-20" d="M431.86,401.67s-7.21,25.18,11.16,39.27,50.76,33.71,50.76,33.71S492,491.8,492.65,521c.58,26.59.09,25.87,1.13,35.19.79,6.72,26.89,8.94,28.15-2.89,2.58-24.16,1.94-85.5-3.17-96.61S478,420.88,478,420.88l5.65-17.31S450.21,411.9,431.86,401.67Z"/><path class="cls-21" d="M431.86,401.67s-7.21,25.18,11.16,39.27,50.76,33.71,50.76,33.71S492,491.8,492.65,521c.58,26.59.09,25.87,1.13,35.19.79,6.72,26.89,8.94,28.15-2.89,2.58-24.16,1.94-85.5-3.17-96.61S478,420.88,478,420.88l5.65-17.31S450.21,411.9,431.86,401.67Z"/><path class="cls-22" d="M547.73,350.37s2.7-2.05,8.83-2.75,7.74.82,11.29,2.17,6.12,2.76,5.41,4.52-8.79,4.73-13.68,3.56c-3-.75-10.57,3.42-12.31,3.42S545.88,351.36,547.73,350.37Z"/><path class="cls-23" d="M547.27,361.29c1.74,0,9.3-4.17,12.31-3.42,3.5.85,8.65-.45,11.54-1.9a1.28,1.28,0,0,0-.11-.24c-.75-1-3.34-.28-5-.7s-6.73-.1-10-.67-9.29,3.11-9.29,3.11l-.57.37C546.22,359.76,546.57,361.29,547.27,361.29Z"/><path class="cls-24" d="M472.83,297.8s9.82-12.63,19.58,1.38c6.32,9.1,17,45.36,21,48.44,2,1.52,35.61.28,35.61.28s-5,5,1.54,14.54c0,0-43.77,13.93-51,4.95C487.3,352,466.65,313.07,472.83,297.8Z"/><path class="cls-25" d="M490.81,371.58c-.11-1.17-.28-2.61-.33-4.36a.86.86,0,0,0,0-.16c-.16-5.29-.66-10.53,5.24-23.38,4-8.73,4.21-21.16,1.53-29.43-1.22-13.13-7.93-21.88-11.44-24.52-5.35-4-52.39,15.58-53.69,16.51-17.37,12.48,6.24,36.54,0,78.4-3.29,22-1.81,23.29-1.81,23.29,32.44,15.92,67.77-11.56,67.77-11.56a28,28,0,0,1-1.91-3.29C494.46,387.6,491.26,376.7,490.81,371.58Z"/><path class="cls-26" d="M490.81,371.58c-.11-1.17-.28-2.61-.33-4.36a.86.86,0,0,0,0-.16c-.16-5.29-.66-10.53,5.24-23.38,4-8.73,4.21-21.16,1.53-29.43-1.22-13.13-7.93-21.88-11.44-24.52-5.35-4-52.39,15.58-53.69,16.51-17.37,12.48,6.24,36.54,0,78.4-3.29,22-1.81,23.29-1.81,23.29,32.44,15.92,67.77-11.56,67.77-11.56a28,28,0,0,1-1.91-3.29C494.46,387.6,491.26,376.7,490.81,371.58Z"/><path class="cls-27" d="M475.48,284.44s-2.53,11.43,0,17.49-6.66,8-11,6.46-11.25-4.53-10.34-8.41,4.82-16.6,2.3-21.13S475.48,284.44,475.48,284.44Z"/><path class="cls-22" d="M453.3,249.16s-13.14,13-9.58,26.74c1.95,7.59,10.69,12.53,15.65,16.41S476.8,305,482,296s11.21-35.17,0-46.8S453.3,249.16,453.3,249.16Z"/><path class="cls-28" d="M482,254.8s-1.54,9.05-18.75,11.69c-4.91.75-4,15.66-7.86,11.9-1.45-1.45-5.29-4.27-5.73-2.12-2.19,10.27,12.62,13.35,10.23,20.1-3.72,10.48-33.37,24.88-23.05-35.8,2.42-14.27,11.19-24.43,31.77-22.76,16.13,1.31,23,15.33,17.2,17.22C484.9,255.33,485.43,254.43,482,254.8Z"/><path class="cls-22" d="M467.17,393.34s3.51-.39,9.31,2.31,6.4,4.88,8.83,8,3.93,5.74,2.35,6.95-10.34-.5-14-4.19c-2.31-2.28-11.23-2.64-12.77-3.58S465,393.24,467.17,393.34Z"/><path class="cls-23" d="M460.89,402.87c1.54.94,10.46,1.3,12.77,3.58,2.64,2.64,7.88,4.26,11.22,4.52a.83.83,0,0,0,0-.27c-.11-1.31-2.81-2.06-4.05-3.33s-5.9-3.72-8.49-6-9.89-2.26-9.89-2.26l-.72,0C460.8,400.92,460.3,402.5,460.89,402.87Z"/><path class="cls-24" d="M433,305.83c3.22-1.78,10.05-3.31,11.54,8.16s-10.58,53.66-8.62,58.6c.94,2.43,33.71,19.25,33.71,19.25s-7.12,1.71-6.44,13.82c0,0-46.23-11.13-47.77-23.06C412.79,362.17,418,314.1,433,305.83Z"/><path class="cls-19" d="M493.78,556.17c-1-9.32-.55-8.6-1.13-35.19-.63-29.18,1.13-46.33,1.13-46.33S461.37,455,443,440.94c-9.16-7-11.95-16.8-12.46-24.83C437.28,432.68,478.06,461,491,465c16.45,5.16,7.72,25.32,8,29.75.27,3.57-1,48-1.49,65.08C495.43,558.91,494,557.65,493.78,556.17Z"/><g class="cls-29"><polygon class="cls-30" points="624.63 239.92 624.98 362.27 560.27 399.64 559.92 277.28 624.63 239.92"/><g class="cls-31"><polygon class="cls-30" points="746.24 209.79 746.37 253.86 644 312.95 643.87 268.88 746.24 209.79"/><path class="cls-32" d="M546.94,270.47,755.22,150.22l.41,148L547.35,418.51Zm78,91.8-.35-122.35-64.71,37.36.35,122.36L625,362.27ZM746.37,253.86l-.13-44.07L643.86,268.88,644,313l102.37-59.09Zm-.16-55.63-.1-28.46L643.76,228.88l.06,28.46,102.39-59.11Zm.25,93.89-.06-27.52L644,323.7l.1,27.53,102.34-59.11Z"/><polygon class="cls-30" points="746.4 264.6 746.46 292.12 644.12 351.23 644.02 323.7 746.4 264.6"/><polygon class="cls-30" points="746.11 169.77 746.21 198.23 643.82 257.34 643.76 228.88 746.11 169.77"/></g><polygon class="cls-30" points="755.17 135.51 755.22 150.22 546.94 270.47 546.9 255.77 755.17 135.51"/></g><path class="cls-33" d="M557.54,255.72c2.16-1.24,3.9-.27,3.92,2.23a8.53,8.53,0,0,1-3.9,6.73c-2.14,1.24-3.89.24-3.9-2.23A8.54,8.54,0,0,1,557.54,255.72Z"/><path class="cls-34" d="M567.38,250.05c2.15-1.26,3.91-.28,3.92,2.24a8.56,8.56,0,0,1-3.89,6.71c-2.14,1.24-3.9.25-3.91-2.22A8.53,8.53,0,0,1,567.38,250.05Z"/><path class="cls-35" d="M577.24,244.36c2.15-1.25,3.89-.26,3.89,2.24a8.45,8.45,0,0,1-3.86,6.7c-2.17,1.28-3.91.26-3.91-2.23A8.46,8.46,0,0,1,577.24,244.36Z"/><polygon class="cls-34" points="748.12 153.5 748.13 155.84 735.38 163.19 735.38 160.85 748.12 153.5"/><polygon class="cls-34" points="748.1 149.03 748.1 151.36 735.38 158.72 735.37 156.37 748.1 149.03"/><polygon class="cls-34" points="748.09 144.54 748.09 146.88 735.36 154.24 735.36 151.9 748.09 144.54"/><path class="cls-14" d="M547.06,255.84,755.45,135.51l.06,21.36L547.11,277.2ZM567.41,259a8.56,8.56,0,0,0,3.89-6.71c0-2.52-1.77-3.5-3.92-2.24a8.53,8.53,0,0,0-3.88,6.73c0,2.47,1.77,3.46,3.91,2.22Zm-9.85,5.68a8.53,8.53,0,0,0,3.9-6.73c0-2.5-1.76-3.47-3.92-2.23a8.54,8.54,0,0,0-3.88,6.73c0,2.47,1.76,3.47,3.9,2.23Zm19.71-11.38a8.45,8.45,0,0,0,3.86-6.7c0-2.5-1.74-3.49-3.89-2.24a8.46,8.46,0,0,0-3.88,6.71c0,2.49,1.74,3.51,3.91,2.23ZM748.09,146.88v-2.34l-12.73,7.36v2.34l12.73-7.36Zm0,9V153.5l-12.74,7.35v2.34l12.75-7.35Zm0-4.48V149l-12.73,7.34v2.35l12.72-7.36Z"/><g class="cls-29"><polygon class="cls-30" points="685.31 271.39 685.6 370.09 633.41 400.21 633.13 301.51 685.31 271.39"/><g class="cls-31"><polygon class="cls-30" points="783.41 247.09 783.52 282.64 700.95 330.31 700.83 294.75 783.41 247.09"/><path class="cls-32" d="M622.66,296l168-97L791,318.44l-168,97Zm62.94,74.07-.29-98.7-52.19,30.12.29,98.7,52.19-30.12Zm97.92-87.45-.11-35.55-82.58,47.66.12,35.56,82.57-47.67Zm-.13-44.87-.09-23-82.55,47.68,0,23,82.59-47.68Zm.19,75.72,0-22.2L701,339l.08,22.21,82.54-47.69Z"/><polygon class="cls-30" points="783.54 291.29 783.59 313.49 701.04 361.18 700.96 338.97 783.54 291.29"/><polygon class="cls-30" points="783.3 214.8 783.39 237.77 700.8 285.45 700.75 262.48 783.3 214.8"/></g><polygon class="cls-30" points="790.62 187.17 790.66 199.02 622.65 296.02 622.62 284.18 790.62 187.17"/></g><path class="cls-33" d="M631.21,284.14c1.73-1,3.15-.23,3.15,1.79a6.93,6.93,0,0,1-3.13,5.43c-1.73,1-3.15.2-3.16-1.8A6.9,6.9,0,0,1,631.21,284.14Z"/><path class="cls-34" d="M639.14,279.55c1.74-1,3.16-.21,3.16,1.8a6.91,6.91,0,0,1-3.14,5.43c-1.72,1-3.15.19-3.15-1.8A7,7,0,0,1,639.14,279.55Z"/><path class="cls-35" d="M647.1,275c1.73-1,3.13-.21,3.13,1.79a6.84,6.84,0,0,1-3.11,5.43c-1.76,1-3.15.2-3.16-1.8A6.81,6.81,0,0,1,647.1,275Z"/><polygon class="cls-34" points="784.93 201.68 784.94 203.57 774.66 209.49 774.65 207.61 784.93 201.68"/><polygon class="cls-34" points="784.92 198.06 784.92 199.96 774.64 205.88 774.64 204 784.92 198.06"/><polygon class="cls-34" points="784.9 194.46 784.91 196.34 774.64 202.27 774.64 200.38 784.9 194.46"/><path class="cls-36" d="M622.75,284.23l168.1-97.06,0,17.23-168.1,97.06Zm16.41,2.55a6.91,6.91,0,0,0,3.14-5.43c0-2-1.42-2.8-3.16-1.8A7,7,0,0,0,636,285c0,2,1.43,2.8,3.15,1.8Zm-7.93,4.58a6.93,6.93,0,0,0,3.13-5.43c0-2-1.42-2.79-3.15-1.79a6.9,6.9,0,0,0-3.14,5.42c0,2,1.43,2.8,3.16,1.8Zm15.89-9.17a6.84,6.84,0,0,0,3.11-5.43c0-2-1.4-2.79-3.13-1.79a6.81,6.81,0,0,0-3.14,5.42c0,2,1.4,2.81,3.16,1.8Zm137.79-85.85v-1.88l-10.26,5.92v1.89l10.27-5.93Zm0,7.23v-1.89l-10.27,5.93v1.88l10.27-5.92Zm0-3.61v-1.9L774.64,204v1.87L784.92,200Z"/><path class="cls-1" d="M522.34,171.06l-8.61-5c-1.54-.89-2.52-2.81-2.52-5.54l8.6,5C519.82,168.26,520.79,170.17,522.34,171.06Z"/><g class="cls-37"><g class="cls-31"><path class="cls-1" d="M522.34,171.06l-8.61-5c-1.54-.89-2.52-2.81-2.52-5.54l8.6,5c0,2.74,1,4.65,2.53,5.54Z"/></g></g><path class="cls-35" d="M571.18,96.59c0-5.52-3.93-7.69-8.69-5l-34.15,19.73c-4.77,2.74-8.64,9.43-8.64,14.94l0,3.45-1.42.81,1.42,2,0,9.32-1.52,3.94,1.53.89.06,18.77c0,5.51,3.93,7.69,8.69,4.94l34.16-19.72c4.75-2.74,8.64-9.43,8.63-14.94Z"/><path class="cls-1" d="M560,86l8.62,5c-1.59-.93-3.77-.8-6.17.59l-8.61-5C556.28,85.25,558.46,85.12,560,86Z"/><g class="cls-38"><g class="cls-31"><path class="cls-1" d="M562.49,91.64l-8.61-5a11.44,11.44,0,0,1,1.21-.61l8.6,5a8.29,8.29,0,0,0-1.2.59Z"/><path class="cls-1" d="M563.69,91.05l-8.6-5a8.57,8.57,0,0,1,1-.34l8.62,5a7.93,7.93,0,0,0-1,.36Z"/><path class="cls-1" d="M564.72,90.69l-8.62-5a4.66,4.66,0,0,1,.77-.17l8.6,5a4.19,4.19,0,0,0-.75.16Z"/><path class="cls-1" d="M565.47,90.53l-8.6-5c.21,0,.43-.06.65-.07l8.59,5a5.2,5.2,0,0,0-.64.07Z"/><path class="cls-1" d="M566.11,90.46l-8.59-5h.57l8.61,5Z"/><path class="cls-1" d="M566.7,90.46l-8.61-5,.52.06,8.62,5a4.81,4.81,0,0,0-.53-.07Z"/><path class="cls-1" d="M567.23,90.53l-8.62-5a3.37,3.37,0,0,1,.48.12l8.62,5-.48-.1Z"/><path class="cls-1" d="M567.71,90.63l-8.62-5a1.86,1.86,0,0,1,.47.16l8.6,5-.45-.16Z"/><path class="cls-1" d="M568.16,90.79l-8.6-5A2.53,2.53,0,0,1,560,86l8.6,5a3.61,3.61,0,0,0-.44-.23Z"/><path class="cls-1" d="M568.6,91,560,86l0,0,8.62,5-.06,0Z"/></g></g><polygon class="cls-1" points="519.81 165.52 511.21 160.52 511.09 121.31 519.7 126.31 519.81 165.52"/><polygon class="cls-1" points="528.34 111.36 519.72 106.36 553.88 86.64 562.49 91.64 528.34 111.36"/><path class="cls-1" d="M519.7,126.31l-8.61-5c0-5.52,3.88-12.2,8.63-14.94l8.62,5C523.57,114.11,519.7,120.8,519.7,126.31Z"/><g class="cls-39"><g class="cls-31"><path class="cls-1" d="M519.7,126.31l-8.61-5a12.22,12.22,0,0,1,.12-1.69l8.6,5a14.12,14.12,0,0,0-.11,1.7Z"/><path class="cls-1" d="M519.81,124.61l-8.6-5c0-.41.12-.8.19-1.21l8.62,5c-.09.4-.16.79-.21,1.19Z"/><path class="cls-1" d="M520,123.42l-8.62-5c.08-.33.17-.67.26-1l8.6,5c-.09.33-.18.66-.24,1Z"/><path class="cls-1" d="M520.26,122.43l-8.6-5c.07-.3.17-.58.26-.88l8.62,5a8.21,8.21,0,0,0-.28.88Z"/><path class="cls-1" d="M520.54,121.55l-8.62-5c.1-.27.18-.55.29-.81l8.62,5c-.11.26-.2.54-.29.82Z"/><path class="cls-1" d="M520.83,120.73l-8.62-5,.32-.77,8.62,5a5.32,5.32,0,0,0-.32.78Z"/><path class="cls-1" d="M521.15,120l-8.62-5c.11-.26.22-.51.34-.77l8.62,5c-.13.25-.24.5-.34.75Z"/><path class="cls-1" d="M521.49,119.2l-8.62-5c.12-.24.25-.5.38-.73l8.6,5c-.13.25-.25.49-.36.74Z"/><path class="cls-1" d="M521.85,118.46l-8.6-5c.14-.25.26-.48.4-.72l8.61,5-.41.73Z"/><path class="cls-1" d="M522.26,117.73l-8.61-5c.16-.25.3-.51.45-.74l8.61,5c-.16.24-.3.49-.45.73Z"/><path class="cls-1" d="M522.71,117l-8.61-5c.17-.25.32-.5.51-.76l8.6,5c-.17.25-.34.5-.5.75Z"/><path class="cls-1" d="M523.21,116.25l-8.6-5c.19-.26.37-.52.57-.77l8.61,5c-.19.26-.4.51-.58.79Z"/><path class="cls-1" d="M523.79,115.46l-8.61-5c.24-.31.46-.58.71-.86l8.6,5c-.24.28-.48.56-.7.85Z"/><path class="cls-1" d="M524.49,114.61l-8.6-5c.31-.35.62-.68.94-1l8.62,5c-.34.32-.65.65-1,1Z"/><path class="cls-1" d="M525.45,113.61l-8.62-5a14.48,14.48,0,0,1,2.89-2.22l8.62,5a13.39,13.39,0,0,0-2.89,2.24Z"/></g></g><polygon class="cls-3" points="540.62 127.82 540.63 131.22 530.49 142.2 530.49 142.27 540.65 141.51 540.67 144.95 527.21 145.52 527.21 142.74 540.62 127.82"/><polygon class="cls-3" points="551.5 116.6 545.58 143.37 542.74 145.02 548.66 118.23 551.5 116.6"/><polygon class="cls-3" points="553.17 120.58 566.6 119.9 566.62 122.84 553.2 137.7 553.2 134.26 563.56 123.17 563.56 123.1 553.17 123.98 553.17 120.58"/><polygon class="cls-40" points="362.55 145.06 362.73 205.16 280.87 252.44 280.7 192.32 362.55 145.06"/><path class="cls-3" d="M321,183.15l.05,18.76c0,10.32-4.49,17.84-12.12,22.25-7.31,4.22-11.63,2-11.66-8.64l-.05-18.64,6.57-3.8.05,19.26c0,5.75,1.94,7.59,5.31,5.66s5.34-5.89,5.32-11.8l0-19.26Z"/><path class="cls-3" d="M350.07,166.38l-8.13,21.08,8.65,12.14L343,204l-2.63-4.56c-1.12-1.71-1.8-3-2.61-4.5l-.1.06c-.62,2.28-1.32,4.4-2.23,7.28l-2.4,7.47-7.52,4.34,8.38-21.8-8.18-11.83,7.58-4.38,2.54,4.65c.88,1.54,1.53,2.81,2.22,4.31l.1-.06c.67-2.56,1.26-4.37,1.95-6.71l2.46-7.53Z"/><path class="cls-33" d="M251.7,272.65c0-5.5-3.93-7.69-8.7-4.95l-34.15,19.72c-4.75,2.74-8.64,9.44-8.63,15l0,3.44-1.41.81,1.41,2.06V318l-1.49,3.95,1.52.89,0,18.76c0,5.51,3.94,7.71,8.7,4.95l34.16-19.72c4.75-2.75,8.63-9.43,8.62-15Z"/><path class="cls-41" d="M244.9,266.87a8.26,8.26,0,0,1,1.43-.32h.12a5.43,5.43,0,0,1,1.41.07.06.06,0,0,1,.06,0,4.27,4.27,0,0,1,1.25.46l-8.61-5a0,0,0,0,0-.05,0,3,3,0,0,0-.44-.22l-.44-.16-.34-.06h0a.24.24,0,0,0-.11,0,3.19,3.19,0,0,0-.53-.06h-.89l-.34,0-.74.16a1.8,1.8,0,0,0-.35.12,1.25,1.25,0,0,0-.29.1l-.4.12a11.33,11.33,0,0,0-1.2.61l-34.16,19.72a14.32,14.32,0,0,0-2.88,2.25,5.5,5.5,0,0,0-.4.42.78.78,0,0,0-.15.16c-.14.15-.27.27-.4.42s-.47.57-.71.86-.39.51-.57.77l-.51.76c-.15.25-.3.49-.44.74,0,0,0,0,0,.06h0c-.14.22-.25.44-.37.66s-.25.49-.38.74-.22.5-.34.75-.22.53-.31.78-.21.55-.3.82-.08.29-.13.43a.38.38,0,0,1,0,.1l-.11.34c-.09.35-.17.67-.25,1s-.14.79-.2,1.18a12.47,12.47,0,0,0-.11,1.71l.11,39.2c0,2.73,1,4.65,2.52,5.55l8.62,5c-1.56-.91-2.53-2.83-2.54-5.56l-.1-39.2a15,15,0,0,1,.67-4.26l0-.05a20.18,20.18,0,0,1,1.83-4.19h0a20.41,20.41,0,0,1,2.68-3.63,1.14,1.14,0,0,1,.15-.16,15.27,15.27,0,0,1,3.27-2.66L243,267.7a10.47,10.47,0,0,1,1.6-.72A2.22,2.22,0,0,1,244.9,266.87Z"/><path class="cls-3" d="M221.09,294.82c2.67-1.54,4.68-2.09,5.59-2.06l-1,5.26a10.82,10.82,0,0,0-4.3,1.52,14.61,14.61,0,0,0-7.2,12.77c0,5.19,2.72,6.91,7.28,4.29a21.53,21.53,0,0,0,4.26-3.31l.78,4.13a24,24,0,0,1-5.81,4.49c-7.8,4.49-11.85,1.24-11.86-6.16C208.77,306.9,214.25,298.78,221.09,294.82Z"/><polygon class="cls-3" points="239.2 290.28 239.23 298.67 246.26 294.62 246.26 298.25 239.25 302.3 239.26 310.79 235.97 312.7 235.95 304.22 228.94 308.26 228.93 304.63 235.94 300.57 235.91 292.18 239.2 290.28"/><g class="cls-5"><path d="M985.07,677.84c-30,17.32-30.14,45.4-.34,62.71s78.27,17.32,108.25,0,30.14-45.39.36-62.7S1015.06,660.54,985.07,677.84Z"/></g><path class="cls-4" d="M511.24,647.39,530.9,636,848.68,451.27l5.43-3.14c14.66-8.52,38.48-8.52,53.24,0l190.62,110c14.75,8.5,14.85,22.34.18,30.84l-5.43,3.16L774.93,776.86l-19.66,11.42c-14.65,8.52-38.5,8.52-53.25,0L511.41,678.22C496.65,669.71,496.58,655.89,511.24,647.39Z"/><path class="cls-14" d="M522.73,636.74l-.08,32.52c-6.8-3.93-10.19-9.08-10.19-14.22l.1-32.52c0,5.15,3.39,10.29,10.17,14.22Z"/><g class="cls-31"><g class="cls-42"><g class="cls-31"><path class="cls-43" d="M922.27,460.48l-.11,32.5a3.78,3.78,0,0,0-.7-.32l.1-32.52a3.57,3.57,0,0,1,.71.34Z"/><path class="cls-44" d="M921.56,460.14l-.1,32.52a2.49,2.49,0,0,0-.58-.2l.09-32.53a5.89,5.89,0,0,1,.59.21Z"/><path class="cls-45" d="M921,459.93l-.09,32.53a2.17,2.17,0,0,0-.53-.13l.08-32.53.54.13Z"/><path class="cls-46" d="M920.43,459.8l-.08,32.53a2.53,2.53,0,0,0-.48-.08l.09-32.53a4.2,4.2,0,0,0,.47.08Z"/><path class="cls-47" d="M920,459.72l-.09,32.53-.48-.07.09-32.52.48.06Z"/><path class="cls-48" d="M919.48,459.66l-.09,32.52-.5,0,.11-32.53.48,0Z"/><path class="cls-49" d="M919,459.63l-.11,32.53h-.5l.1-32.53Z"/><path class="cls-50" d="M918.49,459.63l-.1,32.53-.53,0,.08-32.52.55-.05Z"/><path class="cls-51" d="M917.94,459.68l-.08,32.52a6.37,6.37,0,0,0-.65.09l.1-32.51a3.19,3.19,0,0,1,.63-.1Z"/><path class="cls-52" d="M917.31,459.78l-.1,32.51a8.43,8.43,0,0,0-.93.23l.11-32.52a4.42,4.42,0,0,1,.92-.22Z"/><path class="cls-53" d="M916.39,460l-.11,32.52a6.62,6.62,0,0,0-1.08.46.12.12,0,0,0-.05,0l.09-32.53,0,0a4.83,4.83,0,0,1,1.11-.48Z"/><path class="cls-52" d="M915.24,460.5,915.15,493a4.65,4.65,0,0,0-.63.45l.09-32.51a2.87,2.87,0,0,1,.63-.47Z"/><path class="cls-51" d="M914.61,461l-.09,32.51a2.93,2.93,0,0,0-.3.34l.08-32.53.31-.32Z"/><path class="cls-50" d="M914.3,461.29l-.08,32.53a1.37,1.37,0,0,0-.19.3l.08-32.52.19-.31Z"/><path class="cls-49" d="M914.11,461.6,914,494.12a1.12,1.12,0,0,0-.16.28l.1-32.52a1.83,1.83,0,0,0,.14-.28Z"/><path class="cls-48" d="M914,461.88l-.1,32.52c0,.08-.06.18-.07.28l.09-32.54a2.58,2.58,0,0,1,.08-.26Z"/><path class="cls-47" d="M913.89,462.14l-.09,32.54a1.24,1.24,0,0,0,0,.27l.09-32.52a1.5,1.5,0,0,1,0-.29Z"/><path class="cls-46" d="M913.86,462.43,913.77,495V495l.09-32.52v-.05Z"/></g></g></g><g class="cls-31"><g class="cls-54"><g class="cls-31"><path class="cls-55" d="M915.32,464.51,915.21,497a2.51,2.51,0,0,1-1.44-2l.09-32.52a2.46,2.46,0,0,0,1.46,2Z"/></g></g></g><polygon class="cls-56" points="1001.6 506.26 1001.49 538.78 922.16 492.98 922.27 460.48 1001.6 506.26"/><polygon class="cls-57" points="994.63 510.3 994.54 542.82 915.21 497.03 915.32 464.51 994.63 510.3"/><g class="cls-31"><g class="cls-58"><g class="cls-31"><path class="cls-59" d="M1003,508.3l-.09,32.52v0l.09-32.51v-.05Z"/><path class="cls-60" d="M1003,508.35l-.09,32.51a1.45,1.45,0,0,1,0,.29l.09-32.52a1,1,0,0,0,0-.28Z"/><path class="cls-61" d="M1003,508.63l-.09,32.52c0,.1,0,.18-.06.27l.08-32.52c0-.1.06-.2.07-.27Z"/><path class="cls-62" d="M1002.93,508.9l-.08,32.52c-.06.08-.1.18-.17.28l.11-32.53a2.29,2.29,0,0,0,.14-.27Z"/><path class="cls-63" d="M1002.79,509.17l-.11,32.53a1.46,1.46,0,0,1-.16.3l.09-32.52c.06-.1.11-.2.18-.31Z"/><path class="cls-64" d="M1002.61,509.48l-.09,32.52c-.11.1-.19.21-.32.32l.09-32.51a3.27,3.27,0,0,0,.32-.33Z"/><path class="cls-65" d="M1002.29,509.81l-.09,32.51a3.7,3.7,0,0,1-.62.46l.08-32.51a4.11,4.11,0,0,0,.63-.46Z"/><path class="cls-66" d="M1001.65,510.27l-.07,32.51s-.05,0-.08,0a6.2,6.2,0,0,1-1.07.49l.09-32.54a5.21,5.21,0,0,0,1.1-.47s0,0,0,0Z"/><path class="cls-65" d="M1000.52,510.77l-.09,32.54c-.31.08-.62.18-.94.23l.1-32.52a5.05,5.05,0,0,0,.93-.25Z"/><path class="cls-64" d="M999.59,511l-.1,32.52-.61.09.08-32.52.63-.09Z"/><path class="cls-63" d="M999,511.11l-.08,32.52-.55,0,.09-32.54.54,0Z"/><path class="cls-62" d="M998.42,511.13l-.09,32.54h-.51l.09-32.54Z"/><path class="cls-61" d="M997.91,511.13l-.09,32.54-.49,0,.1-32.51Z"/><path class="cls-60" d="M997.43,511.12l-.1,32.51a2.88,2.88,0,0,1-.47-.06l.09-32.5.48.05Z"/><path class="cls-59" d="M997,511.07l-.09,32.5a3.85,3.85,0,0,1-.49-.07l.1-32.54a3.38,3.38,0,0,0,.48.11Z"/><path class="cls-67" d="M996.47,511l-.1,32.54a2.44,2.44,0,0,1-.5-.14l.08-32.51a2.82,2.82,0,0,0,.52.11Z"/><path class="cls-68" d="M996,510.85l-.08,32.51a5.35,5.35,0,0,1-.6-.19l.07-32.52c.21.08.4.13.61.2Z"/><path class="cls-55" d="M995.34,510.65l-.07,32.52a4.49,4.49,0,0,1-.73-.35l.09-32.52a3.91,3.91,0,0,0,.71.35Z"/></g></g></g><path class="cls-69" d="M1001.6,506.26c1.91,1.13,1.91,2.92,0,4a7.69,7.69,0,0,1-7,0l-79.31-45.79c-1.93-1.11-2-2.91,0-4a7.69,7.69,0,0,1,7,0Z"/><path class="cls-14" d="M1069.67,541.7a4.36,4.36,0,0,1,0,.51c0,.16,0,.31,0,.47s-.07.33-.09.5-.07.31-.11.47a3.88,3.88,0,0,1-.11.49c0,.16-.1.31-.13.45s-.11.35-.17.51a3.5,3.5,0,0,1-.17.43c0,.18-.14.36-.21.54s-.15.28-.22.43-.17.34-.25.51-.15.28-.24.43-.24.4-.38.6a2.36,2.36,0,0,1-.24.38l-.48.65c-.06.1-.14.2-.21.3-.28.35-.58.7-.9,1a1.64,1.64,0,0,1-.27.26c-.24.29-.51.53-.76.8-.13.11-.25.21-.37.33l-.5.45-.48.39-.53.41c-.17.15-.35.27-.52.4l-.59.4c-.17.11-.35.26-.56.38a6.18,6.18,0,0,1-.61.37,6.3,6.3,0,0,1-.79.49l-5,2.9-.11,32.52,5-2.88a3.78,3.78,0,0,0,.43-.26c.11-.05.24-.15.36-.22s.43-.28.66-.4a4,4,0,0,1,.52-.36l.61-.44a5.15,5.15,0,0,0,.48-.37l.58-.43.44-.38.51-.45a.84.84,0,0,0,.2-.18c.06,0,.11-.1.17-.15.27-.26.54-.53.78-.79l.24-.26c.33-.34.63-.7.91-1l0,0a2,2,0,0,0,.18-.26,7.63,7.63,0,0,0,.49-.67l.24-.35c.13-.2.25-.41.38-.62a.69.69,0,0,0,.1-.17c.06-.08.08-.16.14-.26s.17-.34.27-.51.14-.28.19-.41a5.38,5.38,0,0,0,.24-.55.78.78,0,0,0,.07-.23.93.93,0,0,0,.07-.2,4.83,4.83,0,0,0,.16-.5,2.44,2.44,0,0,0,.14-.44c0-.18.1-.35.14-.51s0-.18.05-.28a.49.49,0,0,1,0-.2c0-.16.07-.33.09-.5a3.87,3.87,0,0,1,.06-.46c0-.16,0-.33,0-.52s0-.19,0-.3v-.31q0-16.26.1-32.5A4.28,4.28,0,0,1,1069.67,541.7Z"/><path class="cls-16" d="M1059.54,526.87c13.5,7.8,13.58,20.44.17,28.21l-5,2.9L831.4,429l5-2.87c13.42-7.8,35.22-7.8,48.71,0Z"/><path class="cls-70" d="M994.63,510.3a7.69,7.69,0,0,0,7,0c1.89-1.12,1.89-2.91,0-4l-79.33-45.78a7.69,7.69,0,0,0-7,0c-1.91,1.12-1.89,2.92,0,4l79.31,45.79Z"/><path class="cls-14" d="M994.63,510.3l-79.31-45.79a3.58,3.58,0,0,1-.7-.6,2.92,2.92,0,0,1,.66-.59,7.75,7.75,0,0,1,7,0l79.33,45.79a3.38,3.38,0,0,1,.69.6,3.87,3.87,0,0,1-.67.59A7.69,7.69,0,0,1,994.63,510.3Z"/><polygon class="cls-56" points="1054.74 557.98 1054.63 590.5 831.29 461.57 831.4 429.03 1054.74 557.98"/><polygon class="cls-57" points="763.91 727 763.82 759.52 540.49 630.58 540.57 598.05 763.91 727"/><g class="cls-31"><g class="cls-71"><g class="cls-31"><path class="cls-43" d="M647.36,665.35l-.09,32.53a20,20,0,0,0-2.67-1.3l.06-32.49a18.1,18.1,0,0,1,2.7,1.26Z"/><path class="cls-44" d="M644.66,664.09l-.06,32.49c-.74-.28-1.49-.53-2.27-.75l.08-32.53a19.23,19.23,0,0,1,2.25.79Z"/><path class="cls-45" d="M642.41,663.3l-.08,32.53c-.63-.19-1.28-.35-1.93-.48l.09-32.51c.66.13,1.3.28,1.92.46Z"/><path class="cls-46" d="M640.49,662.84l-.09,32.51c-.62-.12-1.24-.23-1.87-.31l.08-32.52c.65.1,1.28.19,1.88.32Z"/><path class="cls-47" d="M638.61,662.52,638.53,695c-.58-.08-1.2-.16-1.8-.2l.09-32.53c.61.05,1.21.12,1.79.21Z"/><path class="cls-48" d="M636.82,662.31l-.09,32.53c-.6-.05-1.22-.08-1.84-.1l.1-32.54c.62,0,1.23.06,1.83.11Z"/><path class="cls-49" d="M635,662.2l-.1,32.54a15.21,15.21,0,0,0-1.91,0l.12-32.54c.62,0,1.27,0,1.89,0Z"/></g></g></g><g class="cls-31"><g class="cls-72"><g class="cls-31"><path class="cls-49" d="M635,662.2l-.1,32.54a15.21,15.21,0,0,0-1.91,0l.12-32.54c.62,0,1.27,0,1.89,0Z"/><path class="cls-50" d="M633.1,662.2,633,694.74c-.67,0-1.36.08-2.05.14l.09-32.52c.69-.06,1.39-.12,2.08-.16Z"/><path class="cls-51" d="M631,662.36l-.09,32.52c-.81.08-1.59.19-2.36.32l.08-32.51c.77-.14,1.58-.24,2.37-.33Z"/><path class="cls-52" d="M628.65,662.69l-.08,32.51a31.94,31.94,0,0,0-3.53.88l.1-32.51a26.49,26.49,0,0,1,3.51-.88Z"/><path class="cls-53" d="M625.14,663.57l-.1,32.51a21.81,21.81,0,0,0-4.07,1.8l-.23.13.1-32.52.23-.14a20.21,20.21,0,0,1,4.07-1.78Z"/><path class="cls-52" d="M620.84,665.49l-.1,32.52a14.08,14.08,0,0,0-2.35,1.75l.1-32.53a12.91,12.91,0,0,1,2.35-1.74Z"/><path class="cls-51" d="M618.49,667.23l-.1,32.53a8.66,8.66,0,0,0-1.14,1.23l.08-32.52a10.29,10.29,0,0,1,1.16-1.24Z"/><path class="cls-50" d="M617.33,668.47,617.25,701a8.21,8.21,0,0,0-.76,1.12l.11-32.53a7.83,7.83,0,0,1,.73-1.11Z"/><path class="cls-49" d="M616.6,669.58l-.11,32.53c-.19.33-.35.72-.51,1.06l.11-32.53a6,6,0,0,1,.51-1.06Z"/><path class="cls-48" d="M616.09,670.64,616,703.17a6,6,0,0,0-.27,1l.08-32.52a6.07,6.07,0,0,1,.3-1Z"/><path class="cls-47" d="M615.79,671.68l-.08,32.52a5,5,0,0,0-.14,1.07l.1-32.52a5.48,5.48,0,0,1,.12-1.07Z"/><path class="cls-46" d="M615.67,672.75l-.1,32.52v.19l.1-32.54v-.17Z"/></g></g></g><g class="cls-31"><g class="cls-73"><g class="cls-31"><path class="cls-43" d="M652.86,673l-.1,32.53c0-2.78-1.83-5.54-5.49-7.66l.09-32.53c3.65,2.12,5.5,4.9,5.5,7.66Z"/></g></g></g><g class="cls-31"><g class="cls-74"><g class="cls-31"><path class="cls-59" d="M652.86,673l-.11,32.53v.16l.11-32.52V673Z"/><path class="cls-60" d="M652.86,673.18l-.11,32.52a7.59,7.59,0,0,1-.12,1.08l.08-32.52a6.68,6.68,0,0,0,.15-1.08Z"/><path class="cls-61" d="M652.71,674.26l-.08,32.52a6.22,6.22,0,0,1-.31,1.05l.09-32.53a5.09,5.09,0,0,0,.3-1Z"/><path class="cls-62" d="M652.41,675.3l-.09,32.53a6.05,6.05,0,0,1-.49,1l.1-32.51a5.49,5.49,0,0,0,.48-1.05Z"/><path class="cls-63" d="M651.93,676.35l-.1,32.51a8.85,8.85,0,0,1-.75,1.13l.09-32.52a11.62,11.62,0,0,0,.76-1.12Z"/><path class="cls-64" d="M651.17,677.47,651.08,710a11.09,11.09,0,0,1-1.16,1.25L650,678.7a10.79,10.79,0,0,0,1.14-1.23Z"/><path class="cls-65" d="M650,678.7l-.11,32.54A14.59,14.59,0,0,1,647.6,713l.06-32.52A14.71,14.71,0,0,0,650,678.7Z"/><path class="cls-66" d="M647.66,680.45,647.6,713c-.11,0-.17.1-.24.12a20.46,20.46,0,0,1-4.09,1.81l.11-32.53a21.78,21.78,0,0,0,4-1.78l.23-.14Z"/><path class="cls-65" d="M643.38,682.37l-.11,32.53a25.5,25.5,0,0,1-3.52.87l.08-32.53a23.91,23.91,0,0,0,3.55-.87Z"/><path class="cls-64" d="M639.83,683.24l-.08,32.53c-.79.14-1.58.24-2.38.34l.11-32.53a22.92,22.92,0,0,0,2.35-.34Z"/><path class="cls-63" d="M637.48,683.58l-.11,32.53c-.67.07-1.35.1-2.06.13l.11-32.52c.68,0,1.37-.07,2.06-.14Z"/><path class="cls-62" d="M635.42,683.72l-.11,32.52a14.9,14.9,0,0,1-1.89,0l.1-32.5c.63,0,1.25,0,1.9,0Z"/><path class="cls-61" d="M633.52,683.74l-.1,32.5c-.62,0-1.23,0-1.85-.09l.11-32.52c.61.06,1.23.09,1.84.11Z"/><path class="cls-60" d="M631.68,683.63l-.11,32.52c-.59,0-1.18-.13-1.79-.19l.09-32.53c.59.09,1.19.15,1.81.2Z"/><path class="cls-59" d="M629.87,683.43,629.78,716c-.6-.11-1.23-.19-1.83-.32l.09-32.52c.6.11,1.21.22,1.83.31Z"/><path class="cls-67" d="M628,683.12,628,715.64q-1-.21-2-.48l.09-32.52c.64.17,1.28.35,1.95.48Z"/><path class="cls-68" d="M626.09,682.64,626,715.16c-.77-.22-1.52-.48-2.25-.77l.09-32.51a19.81,19.81,0,0,0,2.25.76Z"/><path class="cls-55" d="M623.84,681.88l-.09,32.51a18.4,18.4,0,0,1-2.68-1.29c-3.68-2.12-5.52-4.89-5.5-7.64l.1-32.54c0,2.78,1.82,5.55,5.49,7.67a18.44,18.44,0,0,0,2.68,1.29Z"/></g></g></g><path class="cls-14" d="M647.36,665.35c7.28,4.21,7.33,11,.07,15.24s-19,4.2-26.27,0-7.33-11-.09-15.24S640.08,661.16,647.36,665.35Z"/><path class="cls-14" d="M647.36,665.35c7.28,4.21,7.33,11,.07,15.24s-19,4.2-26.27,0-7.33-11-.09-15.24S640.08,661.16,647.36,665.35Z"/><path class="cls-14" d="M647.36,665.35c7.28,4.21,7.33,11,.07,15.24s-19,4.2-26.27,0-7.33-11-.09-15.24S640.08,661.16,647.36,665.35Z"/><path class="cls-70" d="M644.57,667.05c-6.92-4-17.84-4.12-25.13-.54a13.85,13.85,0,0,1,1.63-1.16c7.23-4.19,19-4.19,26.29,0s7.33,11,.07,15.24c-.36.2-.77.35-1.16.54C651.77,676.92,651.22,670.9,644.57,667.05Z"/><path class="cls-14" d="M618.28,667.05c.35-.2.78-.35,1.16-.54-5.47,4.23-5,10.24,1.72,14.08,6.93,4,17.83,4.15,25.11.54a15.56,15.56,0,0,1-1.63,1.17c-7.23,4.21-19,4.21-26.27,0S611.05,671.26,618.28,667.05Z"/><polygon class="cls-16" points="1054.74 557.98 1054.63 590.5 763.82 759.52 763.91 727 1054.74 557.98"/><polygon class="cls-3" points="1054.74 557.98 763.91 727 540.57 598.05 831.4 429.03 1054.74 557.98"/><path class="cls-16" d="M522.58,608.51l18-10.46L763.91,727l-18,10.47c-13.41,7.8-35.22,7.8-48.73,0L522.73,636.74C509.23,628.94,509.15,616.3,522.58,608.51Zm124.78,56.84c-7.28-4.19-19.06-4.19-26.29,0s-7.2,11,.09,15.24,19,4.2,26.27,0,7.21-11-.07-15.24Z"/><path class="cls-14" d="M512.56,622.52c0,5.15,3.39,10.29,10.17,14.22L697.18,737.46c.83.46,1.68.89,2.53,1.31a9.19,9.19,0,0,0,.86.36c.6.28,1.21.56,1.86.8l.59.22c.7.25,1.39.5,2.12.72l.7.22c.46.14.93.25,1.41.37.68.19,1.39.38,2.1.52l1.45.31c.6.09,1.22.22,1.81.32l1.53.21c.59,0,1.17.14,1.75.18s1.05.1,1.6.14l1.71.1c.54,0,1.06,0,1.61,0h1.87l1.49,0,2.35-.16c.46-.06.92-.08,1.37-.12l.71-.09c.8-.09,1.59-.22,2.37-.33l.57-.1c.49-.08,1-.18,1.42-.28l1.88-.4c.49-.12.93-.24,1.38-.38s1.19-.32,1.75-.49c.86-.28,1.67-.55,2.49-.86.09,0,.18-.09.28-.11.77-.3,1.5-.62,2.21-.95l.65-.3c.78-.38,1.56-.8,2.31-1.21l18-10.47-.09,32.53-18,10.45c-.76.43-1.52.83-2.31,1.23-.23.09-.45.2-.67.3-.7.32-1.42.64-2.16.92a2.84,2.84,0,0,1-.32.14c-.69.26-1.38.49-2.09.73-.13.05-.26.06-.38.11-.6.2-1.2.34-1.8.5s-.89.27-1.34.38c-.62.14-1.25.26-1.91.4-.37.07-.72.16-1.09.25a1.46,1.46,0,0,0-.31,0c-.18,0-.39.06-.58.07-.77.13-1.56.26-2.36.34-.23,0-.48.06-.72.09a3.21,3.21,0,0,0-.43.07l-.93,0c-.79.07-1.55.14-2.35.16-.17,0-.36,0-.55,0s-.61,0-.9,0c-.65,0-1.3,0-1.94,0-.23,0-.46,0-.68,0l-.86-.06c-.6,0-1.16,0-1.78-.1l-.76,0-.82-.09c-.57-.07-1.18-.12-1.74-.21-.26,0-.53-.05-.78-.09s-.5-.09-.72-.11c-.63-.11-1.24-.21-1.85-.34-.28,0-.58-.08-.85-.15s-.39-.1-.58-.14c-.72-.15-1.43-.33-2.11-.51-.31-.09-.62-.15-.91-.22s-.33-.11-.51-.15l-.71-.25c-.72-.2-1.41-.45-2.08-.69l-.6-.22a.86.86,0,0,0-.3-.09c-.52-.22-1-.47-1.55-.7l-.88-.38c-.86-.4-1.72-.85-2.53-1.32L522.65,669.26c-6.8-3.93-10.19-9.08-10.19-14.22Q512.55,638.8,512.56,622.52Z"/><path class="cls-75" d="M831.22,429l5-2.9c13.4-7.79,35.21-7.79,48.7,0l174.45,100.72a25.67,25.67,0,0,1,5.55,4.34l-538.7,75.09L540.4,598Z"/><g class="cls-5"><polygon points="774.4 706.58 1010.7 569.26 811.3 453.54 571.71 592.52 774.4 706.58"/></g><path class="cls-14" d="M1008.93,599.43a.57.57,0,0,1,0-.12.62.62,0,0,1,0-.13s0-.08,0-.14a1,1,0,0,0,0-.12.27.27,0,0,0,0-.13s0-.09,0-.12,0-.11,0-.15a1,1,0,0,1,0-.14.25.25,0,0,1,0-.1h0v0a.61.61,0,0,1,.05-.12c0-.05,0-.09,0-.14l0-.14a.43.43,0,0,0,.05-.12s0-.07,0-.13a.44.44,0,0,0,.06-.12s0-.09.07-.13a1,1,0,0,0,.07-.16c0-.08.08-.12.11-.18h0s0,0,0,0l.2-.31a1.46,1.46,0,0,1,.17-.24l.1-.15a.85.85,0,0,0,.1-.14l.11-.1a.58.58,0,0,1,.1-.12.58.58,0,0,0,.1-.12.38.38,0,0,0,.11-.11l.13-.1s.07-.08.11-.1a.43.43,0,0,1,.13-.09l.1-.1.11-.07s.09-.05.11-.09a.58.58,0,0,0,.11-.05h0l27.8-16.08.08,0,.12-.06.1,0a.27.27,0,0,1,.11-.05l.1,0,.11,0a.16.16,0,0,1,.11-.05l.11,0h.49l.15,0,.18,0a.74.74,0,0,0,.22.1l2.75,1.62a1.42,1.42,0,0,0-.83-.18h0a2.7,2.7,0,0,0-1,.35l-27.82,16.06a4.6,4.6,0,0,0-1,.83h0a5.66,5.66,0,0,0-.82,1.12s0,0,0,0a6.31,6.31,0,0,0-.56,1.25h0a4.75,4.75,0,0,0-.2,1.32,2.54,2.54,0,0,0,.2,1h0a1.37,1.37,0,0,0,.56.64l-2.76-1.61a1.29,1.29,0,0,1-.45-.45,1.28,1.28,0,0,1-.1-.17.94.94,0,0,1-.06-.15l-.06-.14a.59.59,0,0,1,0-.13.53.53,0,0,0,0-.12c0-.05,0-.1,0-.13s0-.1,0-.14,0-.07,0-.12v-.12h0Z"/><path class="cls-76" d="M1014.3,596.63a5.77,5.77,0,0,0-2.61,4.54c0,1.67,1.18,2.32,2.63,1.5l27.81-16.07a5.77,5.77,0,0,0,2.61-4.53c0-1.66-1.17-2.33-2.62-1.5Z"/><path class="cls-14" d="M969.23,621.81a.41.41,0,0,0,0-.12.45.45,0,0,1,0-.12v-.13a.7.7,0,0,0,0-.14s0-.08,0-.14a1.3,1.3,0,0,0,0-.13.49.49,0,0,0,0-.14s0-.08,0-.13a.22.22,0,0,1,0-.11h0a.48.48,0,0,0,0-.15.57.57,0,0,0,0-.14.45.45,0,0,0,.06-.12.73.73,0,0,1,0-.12.78.78,0,0,0,0-.14.45.45,0,0,0,.06-.12.67.67,0,0,0,.06-.15.54.54,0,0,0,.09-.15s.07-.11.1-.18h0l0,0,.19-.31c.06-.09.13-.17.17-.24l.12-.15a.24.24,0,0,1,.1-.12,1.47,1.47,0,0,1,.1-.13.38.38,0,0,0,.1-.12l.11-.1L971,618l.12-.11a.63.63,0,0,1,.12-.1c0-.05.06-.06.11-.1l.11-.08.11-.08.12-.07.1-.08h0l27.81-16.07.09,0,.11,0,.11,0,.09,0a.23.23,0,0,1,.12-.06l.1,0a.24.24,0,0,1,.12,0l.09,0,.12,0h.38l.15,0,.18,0,.22.11,2.75,1.59a1.45,1.45,0,0,0-.84-.16h0a2.56,2.56,0,0,0-1,.36L974.6,619a5.11,5.11,0,0,0-1,.83h0a4.62,4.62,0,0,0-.82,1.12l0,0a6.25,6.25,0,0,0-.55,1.27h0a4.53,4.53,0,0,0-.19,1.29,2.58,2.58,0,0,0,.19,1.06h0a1.31,1.31,0,0,0,.57.61L970,623.62a1.45,1.45,0,0,1-.45-.44l-.1-.18a.44.44,0,0,1-.05-.15.84.84,0,0,1-.06-.14.61.61,0,0,1,0-.13l0-.13c0-.05,0-.08,0-.11a.57.57,0,0,0,0-.14v-.13a.45.45,0,0,1,0-.12h0Z"/><path class="cls-76" d="M974.6,619a5.76,5.76,0,0,0-2.6,4.53c0,1.66,1.18,2.34,2.63,1.5l27.81-16a5.75,5.75,0,0,0,2.61-4.53c0-1.67-1.19-2.35-2.64-1.5Z"/><path class="cls-77" d="M626.31,710.28a8.73,8.73,0,0,1,4,6.85c0,2.53-1.79,3.54-4,2.28l-42.07-24.29a8.76,8.76,0,0,1-4-6.84c0-2.53,1.79-3.55,4-2.27Z"/><path class="cls-77" d="M626.31,710.28a8.73,8.73,0,0,1,4,6.85c0,2.53-1.79,3.54-4,2.28l-42.07-24.29a8.76,8.76,0,0,1-4-6.84c0-2.53,1.79-3.55,4-2.27Z"/><path class="cls-77" d="M626.31,710.28a8.73,8.73,0,0,1,4,6.85c0,2.53-1.79,3.54-4,2.28l-42.07-24.29a8.76,8.76,0,0,1-4-6.84c0-2.53,1.79-3.55,4-2.27Z"/><path class="cls-78" d="M626.31,710.28a8.73,8.73,0,0,1,4,6.85,5,5,0,0,1-.11.58s0,0,0,0L588,693.41a8.77,8.77,0,0,1-3.94-6.85,4.08,4.08,0,0,1,.11-.59l0,0Z"/><path class="cls-3" d="M763.71,376.86a9.82,9.82,0,0,1,4.33-1.6l-.82,4.08a8.11,8.11,0,0,0-3.33,1.18,11.41,11.41,0,0,0-5.59,9.93c0,4,2.12,5.37,5.65,3.32a16.78,16.78,0,0,0,3.31-2.56l.62,3.2a18.91,18.91,0,0,1-4.5,3.48c-6.08,3.5-9.23,1-9.24-4.78A19.33,19.33,0,0,1,763.71,376.86Z"/><path class="cls-3" d="M777.16,369.07a10.28,10.28,0,0,1,4.48-1.55l-.86,4.19a7.62,7.62,0,0,0-3.69,1.15,4.44,4.44,0,0,0-2.54,3.43c0,1.29,1,1.27,3.26.95,3.1-.46,4.58.55,4.58,3.39,0,3.4-2.25,7.58-7.08,10.36a10.53,10.53,0,0,1-5,1.64l.79-4.23a9.17,9.17,0,0,0,4.4-1.29c1.84-1.06,2.79-2.46,2.79-3.8s-.85-1.49-3-1.15c-2.91.52-4.82-.23-4.83-3.17C770.52,375.56,773,371.48,777.16,369.07Z"/><path class="cls-3" d="M791.75,360.65a10.58,10.58,0,0,1,4.5-1.57l-.89,4.21a7.59,7.59,0,0,0-3.67,1.15c-1.73,1-2.55,2.35-2.54,3.42,0,1.28,1,1.28,3.26.95,3.11-.46,4.56.56,4.56,3.4,0,3.4-2.22,7.57-7.05,10.35a10.59,10.59,0,0,1-5,1.64l.81-4.23a9,9,0,0,0,4.4-1.29c1.82-1.06,2.79-2.47,2.79-3.81s-.84-1.49-2.95-1.14c-2.93.51-4.83-.23-4.83-3.17C785.13,367.12,787.61,363.06,791.75,360.65Z"/><polygon class="cls-40" points="850.84 376.76 850.97 424.66 785.75 462.32 785.62 414.42 850.84 376.76"/><path class="cls-3" d="M817.74,407.12l0,14.95c0,8.22-3.57,14.21-9.65,17.71-5.83,3.38-9.26,1.65-9.29-6.86l0-14.87,5.24-3,0,15.34c0,4.59,1.54,6.05,4.23,4.51s4.26-4.68,4.24-9.41l0-15.32Z"/><path class="cls-3" d="M840.9,393.75l-6.5,16.79,6.91,9.68-6,3.49-2.11-3.63c-.88-1.35-1.43-2.41-2.07-3.59l-.09.05c-.49,1.82-1,3.52-1.77,5.8l-1.91,6-6,3.45L828,414.39,821.49,405l6-3.48,2,3.7c.71,1.23,1.22,2.24,1.77,3.44l.08-.05c.54-2,1-3.5,1.56-5.36l2-6Z"/><path class="cls-34" d="M941.52,457.87c0-8.05-5.74-11.25-12.69-7.23l-49.9,28.8c-6.93,4-12.61,13.79-12.58,21.83v5l-2.05,1.18,2.07,3,0,13.58-2.21,5.78,2.24,1.29.07,27.41c0,8.06,5.74,11.25,12.69,7.22L929.08,537c6.95-4,12.62-13.78,12.61-21.82Z"/><path class="cls-79" d="M931.61,449.42a9,9,0,0,1,2.07-.45l.18,0a6.91,6.91,0,0,1,2,.1l.08,0a6.06,6.06,0,0,1,1.85.7l-12.58-7.3s0-.05-.07-.06l-.64-.31a4.67,4.67,0,0,0-.66-.23l-.48-.11h-.07l-.17-.05c-.25,0-.5-.07-.76-.08a6,6,0,0,0-.85,0l-.27,0-.18,0a4,4,0,0,0-.49,0c-.35.06-.73.15-1.1.24-.17.05-.33.12-.49.16l-.42.15c-.2.08-.38.12-.58.2a14,14,0,0,0-1.77.89l-49.89,28.8a20.6,20.6,0,0,0-4.22,3.26l-.56.61-.24.25c-.19.21-.39.41-.58.63-.36.4-.7.82-1,1.24s-.57.75-.84,1.15-.5.73-.74,1.09-.44.7-.66,1.08l0,.09h0c-.19.32-.37.64-.54,1s-.37.7-.54,1.06-.34.74-.51,1.11-.31.74-.45,1.13-.3.79-.43,1.19c-.08.22-.14.43-.21.64l0,.15c0,.16-.11.33-.16.5-.14.48-.25,1-.35,1.44s-.23,1.17-.3,1.75a17.63,17.63,0,0,0-.17,2.48l.17,57.26c0,4,1.43,6.79,3.68,8.11l12.58,7.3c-2.26-1.31-3.68-4.1-3.69-8.1l-.15-57.27a20.79,20.79,0,0,1,1-6.21s0,0,0-.08a30.59,30.59,0,0,1,2.68-6.12,0,0,0,0,0,0,0,29.77,29.77,0,0,1,3.91-5.27c.06-.09.15-.16.21-.25a22.82,22.82,0,0,1,4.78-3.87l49.9-28.8a13.47,13.47,0,0,1,2.32-1.06A3.63,3.63,0,0,1,931.61,449.42Z"/><path class="cls-3" d="M902.66,496c2,.64,3.4,2.86,3.41,6.34a20.27,20.27,0,0,1-2.88,10.27A28.07,28.07,0,0,1,893,522.22a16.55,16.55,0,0,1-2.42,1.22l0,12.88-7,4-.1-35.54a92.32,92.32,0,0,1,9.56-6.24C897.45,496.08,900.6,495.23,902.66,496ZM893,516c3.77-2.17,6.08-5.67,6.07-9.36,0-3.34-2-4.15-5.54-2.11a18.73,18.73,0,0,0-2.93,2l0,10.62A12.49,12.49,0,0,0,893,516Z"/><polygon class="cls-80" points="730.25 468.92 712.85 458.82 720.73 454.28 738.13 464.39 730.25 468.92"/><path class="cls-1" d="M655,578.77l-17.41-10.12c-3.12-1.82-5.08-5.69-5.1-11.2l17.4,10.12C650,573.08,651.9,577,655,578.77Z"/><g class="cls-81"><g class="cls-31"><path class="cls-1" d="M655,578.77l-17.41-10.12c-3.12-1.82-5.08-5.69-5.1-11.2l17.4,10.12c0,5.51,2,9.38,5.11,11.2Z"/></g></g><path class="cls-35" d="M753.74,428.26c0-11.15-7.93-15.56-17.56-10l-69,39.85c-9.62,5.56-17.49,19.08-17.45,30.22l0,6.95-2.84,1.64,2.86,4.15,0,18.77-3.07,8,3.1,1.8.1,37.93c0,11.14,7.94,15.55,17.56,10l69-39.84c9.61-5.55,17.46-19.07,17.43-30.22Z"/><path class="cls-1" d="M731.22,406.93,748.63,417c-3.18-1.84-7.6-1.59-12.45,1.21l-17.41-10.1C723.62,405.34,728,405.08,731.22,406.93Z"/><g class="cls-82"><g class="cls-31"><path class="cls-1" d="M736.18,418.25l-17.41-10.1a19.92,19.92,0,0,1,2.45-1.22L738.62,417a22,22,0,0,0-2.44,1.21Z"/><path class="cls-1" d="M738.62,417l-17.4-10.11a16.81,16.81,0,0,1,2.06-.71l17.41,10.11a18.13,18.13,0,0,0-2.07.71Z"/><path class="cls-1" d="M740.69,416.33l-17.41-10.11c.53-.14,1-.24,1.55-.33L742.22,416a9.48,9.48,0,0,0-1.53.32Z"/><path class="cls-1" d="M742.22,416l-17.39-10.12c.44-.07.87-.1,1.31-.14l17.4,10.12a8.58,8.58,0,0,0-1.32.14Z"/><path class="cls-1" d="M743.54,415.87l-17.4-10.12c.38,0,.77,0,1.16,0l17.39,10.12a8.83,8.83,0,0,0-1.15,0Z"/><path class="cls-1" d="M744.69,415.88,727.3,405.76c.35,0,.71.07,1.05.13L745.75,416a7.49,7.49,0,0,0-1.06-.13Z"/><path class="cls-1" d="M745.75,416l-17.4-10.12a8.84,8.84,0,0,1,1,.23l17.38,10.11a8,8,0,0,0-1-.22Z"/><path class="cls-1" d="M746.72,416.23l-17.38-10.11a7,7,0,0,1,.91.33l17.41,10.11a7,7,0,0,0-.94-.33Z"/><path class="cls-1" d="M747.66,416.56l-17.41-10.11a5.57,5.57,0,0,1,.89.42L748.54,417a7.94,7.94,0,0,0-.88-.43Z"/><path class="cls-1" d="M748.54,417l-17.4-10.12s.06.05.08.06L748.63,417a.16.16,0,0,0-.09-.05Z"/></g></g><polygon class="cls-1" points="649.93 567.57 632.53 557.45 632.32 478.21 649.71 488.32 649.93 567.57"/><polygon class="cls-1" points="667.16 458.1 649.75 448 718.77 408.15 736.18 418.25 667.16 458.1"/><path class="cls-1" d="M649.71,488.32l-17.39-10.11c0-11.14,7.81-24.67,17.43-30.21l17.41,10.1C657.54,463.66,649.67,477.18,649.71,488.32Z"/><g class="cls-83"><g class="cls-31"><path class="cls-1" d="M649.71,488.32l-17.39-10.11a22.52,22.52,0,0,1,.21-3.44l17.4,10.12a25,25,0,0,0-.22,3.43Z"/><path class="cls-1" d="M649.93,484.89l-17.4-10.12a23.9,23.9,0,0,1,.42-2.41l17.41,10.11a23.2,23.2,0,0,0-.43,2.42Z"/><path class="cls-1" d="M650.36,482.47,633,472.36c.14-.67.31-1.33.5-2l17.38,10.12c-.18.67-.35,1.34-.47,2Z"/><path class="cls-1" d="M650.83,480.47l-17.38-10.12c.15-.57.33-1.18.54-1.78l17.39,10.12c-.19.59-.37,1.19-.55,1.78Z"/><path class="cls-1" d="M651.38,478.69,634,468.57c.17-.54.38-1.1.59-1.64L652,477c-.21.57-.4,1.12-.59,1.67Z"/><path class="cls-1" d="M652,477l-17.39-10.09c.19-.52.42-1.05.63-1.58l17.41,10.12c-.23.52-.45,1-.65,1.55Z"/><path class="cls-1" d="M652.62,475.47l-17.41-10.12c.23-.5.45-1,.71-1.52L653.32,474c-.26.5-.49,1-.7,1.52Z"/><path class="cls-1" d="M653.32,474l-17.4-10.12c.23-.49.48-1,.74-1.48l17.41,10.11c-.27.49-.51,1-.75,1.49Z"/><path class="cls-1" d="M654.07,472.46l-17.41-10.11c.26-.49.54-1,.82-1.48L654.89,471c-.3.48-.57,1-.82,1.47Z"/><path class="cls-1" d="M654.89,471l-17.41-10.12c.3-.5.6-1,.92-1.48l17.39,10.11c-.31.49-.61,1-.9,1.49Z"/><path class="cls-1" d="M655.79,469.5,638.4,459.39c.33-.51.66-1,1-1.52L656.81,468q-.52.74-1,1.5Z"/><path class="cls-1" d="M656.81,468l-17.39-10.13c.36-.53.76-1.07,1.16-1.57L658,466.42c-.41.5-.8,1-1.17,1.58Z"/><path class="cls-1" d="M658,466.42l-17.4-10.12c.46-.6.92-1.18,1.41-1.74l17.41,10.11c-.49.56-1,1.15-1.42,1.75Z"/><path class="cls-1" d="M659.4,464.67,642,454.56c.62-.71,1.26-1.38,1.92-2l17.4,10.11c-.65.64-1.29,1.33-1.91,2Z"/><path class="cls-1" d="M661.31,462.63l-17.4-10.11a28.56,28.56,0,0,1,5.84-4.52l17.41,10.1a29.39,29.39,0,0,0-5.85,4.53Z"/></g></g><path class="cls-33" d="M361.45,790.12c4.95-2.86,9-.6,9,5.12s-4,12.65-8.94,15.5-9,.56-9-5.12S356.52,793,361.45,790.12Z"/><path class="cls-35" d="M384.09,777.05c5-2.86,9-.62,9,5.13s-4,12.63-8.94,15.5-9,.54-9-5.14S379.15,779.91,384.09,777.05Z"/><path class="cls-40" d="M406.79,764c4.94-2.87,8.95-.59,9,5.16s-3.95,12.61-8.9,15.45-9,.57-9-5.12S401.8,766.83,406.79,764Z"/><polygon class="cls-40" points="800.16 554.8 800.17 560.19 770.85 577.11 770.84 571.72 800.16 554.8"/><polygon class="cls-40" points="800.12 544.49 800.14 549.88 770.82 566.81 770.8 561.41 800.12 544.49"/><polygon class="cls-40" points="800.1 534.17 800.11 539.56 770.8 556.49 770.77 551.11 800.1 534.17"/><path class="cls-34" d="M337.31,790.38l479.74-277,.14,49.17-479.76,277Zm46.85,7.3c4.94-2.87,9-9.82,8.94-15.5s-4.05-8-9-5.13-8.95,9.75-8.94,15.49,4.06,8,9,5.14Zm-22.64,13.06c5-2.85,9-9.81,8.94-15.5s-4.06-8-9-5.12-9,9.75-8.94,15.5,4.06,8,9,5.12Zm45.33-26.18c4.95-2.84,8.91-9.77,8.9-15.45s-4-8-9-5.16-9,9.75-9,15.49,4,8,9,5.12Zm393.26-245v-5.39l-29.33,16.94,0,5.38,29.31-16.93Zm.06,20.63V554.8l-29.32,16.92v5.39l29.32-16.92Zm0-10.31,0-5.39L770.8,561.42l0,5.39,29.32-16.93Z"/><g class="cls-31"><g class="cls-84"><g class="cls-31"><path class="cls-85" d="M998.18,439.05l-3.18.23a8.85,8.85,0,0,0,3.24-3.48l3.17-.22a8.41,8.41,0,0,1-3.23,3.47Z"/><path class="cls-86" d="M1001.41,435.58l-3.17.22a12.19,12.19,0,0,0,1.14-3.42l3.18-.19a11.7,11.7,0,0,1-1.15,3.39Z"/><path class="cls-87" d="M1002.56,432.19l-3.18.19a12.59,12.59,0,0,0,.17-3.13l3.18-.22a13.3,13.3,0,0,1-.17,3.16Z"/><path class="cls-88" d="M1002.73,429l-3.18.22a13,13,0,0,0-.79-3.65l3.18-.21a12.64,12.64,0,0,1,.79,3.64Z"/></g></g></g><polygon class="cls-89" points="1001.94 425.39 998.76 425.6 992.02 407.9 995.21 407.66 1001.94 425.39"/><g class="cls-31"><g class="cls-90"><g class="cls-31"><path class="cls-88" d="M995.21,407.66l-3.19.24c-1.52-4-4.76-6.32-8-6.1l3.18-.2c3.25-.23,6.5,2,8,6.06Z"/></g></g></g><g class="cls-31"><g class="cls-91"><g class="cls-31"><path class="cls-85" d="M986.49,395.78l-3.18.2a7.94,7.94,0,0,1,.88-.43l3.17-.21a8.88,8.88,0,0,0-.87.44Z"/><path class="cls-86" d="M987.36,395.34l-3.17.21a6.76,6.76,0,0,1,2-.46l3.19-.21a6.51,6.51,0,0,0-2,.46Z"/></g></g></g><g class="cls-31"><g class="cls-92"><g class="cls-31"><path class="cls-93" d="M984.29,402.48l-3.18.2c.3-.13.58-.31.89-.41l3.16-.22a8.76,8.76,0,0,0-.87.43Z"/><path class="cls-94" d="M985.16,402.05l-3.16.22a6.14,6.14,0,0,1,2-.47l3.18-.2a6.08,6.08,0,0,0-2,.45Z"/></g></g></g><polygon class="cls-95" points="967.85 456.57 964.67 456.77 995 439.28 998.18 439.05 967.85 456.57"/><g class="cls-31"><g class="cls-96"><g class="cls-31"><path class="cls-86" d="M965,457.46l-3.18.2a6,6,0,0,0,2-.46L967,457a6,6,0,0,1-2,.47Z"/><path class="cls-85" d="M967,457l-3.18.21a4.87,4.87,0,0,0,.89-.43l3.18-.2a5.15,5.15,0,0,1-.89.42Z"/></g></g></g><g class="cls-31"><g class="cls-97"><g class="cls-31"><path class="cls-98" d="M965,457.46l-3.18.2c-3.26.22-6.51-2.07-8-6.07l3.19-.2c1.51,4,4.75,6.29,8,6.07Z"/></g></g></g><polygon class="cls-99" points="953.96 420 950.78 420.2 981.11 402.68 984.29 402.48 953.96 420"/><polygon class="cls-100" points="956.93 451.38 953.74 451.59 947.02 433.87 950.21 433.66 956.93 451.38"/><path class="cls-101" d="M984.29,402.48c4-2.32,8.94,0,10.92,5.18l6.73,17.73c2,5.18.27,11.35-3.76,13.66l-30.33,17.52c-4.07,2.35-8.94,0-10.92-5.18l-6.72-17.73c-2-5.22-.32-11.32,3.75-13.66Z"/><g class="cls-31"><g class="cls-102"><g class="cls-31"><path class="cls-98" d="M950.21,433.66l-3.19.21a12.59,12.59,0,0,1-.8-3.68l3.18-.21a12.94,12.94,0,0,0,.81,3.68Z"/><path class="cls-103" d="M949.4,430l-3.18.21a12.64,12.64,0,0,1,.16-3.14l3.19-.21a12.13,12.13,0,0,0-.17,3.14Z"/><path class="cls-94" d="M949.57,426.84l-3.19.21a11.8,11.8,0,0,1,1.14-3.36l3.18-.19a10.71,10.71,0,0,0-1.13,3.34Z"/><path class="cls-93" d="M950.7,423.5l-3.18.19a8.72,8.72,0,0,1,3.26-3.49L954,420a8.37,8.37,0,0,0-3.26,3.5Z"/></g></g></g><path class="cls-104" d="M986.49,395.78c4-2.34,9,0,11,5.23l10.07,26.54c2,5.23.28,11.34-3.76,13.67L965.86,463.1c-4.06,2.36-8.93,0-10.92-5.18l-10.09-26.56c-2-5.23-.32-11.36,3.75-13.71Zm15.45,29.61-6.73-17.73c-2-5.21-6.89-7.5-10.92-5.18L954,420c-4.07,2.34-5.74,8.44-3.75,13.66l6.72,17.73c2,5.17,6.85,7.53,10.92,5.18l30.33-17.52c4-2.31,5.74-8.48,3.76-13.66Z"/><path class="cls-105" d="M954.94,457.92l-10.09-26.56a12.91,12.91,0,0,1-.76-3.49c0-.1,0-.23,0-.33a12.56,12.56,0,0,1,.15-2.75c0-.19,0-.35.08-.54a11,11,0,0,1,1-2.94c.08-.17.19-.35.28-.52a11.73,11.73,0,0,1,.94-1.33c.14-.16.27-.32.41-.47a7.62,7.62,0,0,1,1.67-1.34l37.89-21.87-3.18.2-37.89,21.87a7.44,7.44,0,0,0-1.66,1.35c-.15.14-.29.32-.42.46a10.21,10.21,0,0,0-.94,1.35c-.06.13-.16.21-.22.34s0,.12-.06.16a12,12,0,0,0-1,2.94c0,.11-.07.17-.08.27s0,.18,0,.26a14.16,14.16,0,0,0-.15,2.76.56.56,0,0,0,0,.13c0,.08,0,.13,0,.22a12.82,12.82,0,0,0,.75,3.48l10.08,26.55c1.54,4,4.77,6.33,8,6.1L963,464C959.69,464.22,956.47,461.93,954.94,457.92Z"/><path class="cls-22" d="M1059,533.8s-8.29,13.09-16.63,11.47-9.48-3.42-5.94-5.66,12.85-8.64,11.08-9.21-5.69.26-5.26-1.43,12.19-4,12.19-4l8.21,4Z"/><path class="cls-17" d="M1064.2,703.93c-.51.11-26.62-.77-20.78,9a14.51,14.51,0,0,0,12.9,7.56c3.9.12,11-2.18,12.81-1s10.61,7.27,15.67,1.11c1-1.23,1.72-4.84,1-7.15S1067.08,703.37,1064.2,703.93Z"/><path class="cls-18" d="M1043.42,712.92a14.51,14.51,0,0,0,12.9,7.56c3.9.12,11-2.18,12.81-1s10.61,7.27,15.67,1.11a7.2,7.2,0,0,0,1.19-3.49c-3.5,5.22-12.18,3.78-14.62,2a13.61,13.61,0,0,0-10.11-2.2c-3.42.7-10.82-.15-14.54-3.76a6.18,6.18,0,0,1-1.71-6.32C1042.71,708.16,1041.72,710.06,1043.42,712.92Z"/><path class="cls-19" d="M1067.46,486.65s31.54,40.3,15.59,87.19c-3.48,10.22-10.37,32-8.09,42.63,2.77,12.84,6.79,9.21,9.7,51.67,2.6,37.51,2.14,29.36,3,44.56.26,4.36-15.68,8.88-18.09,2.15-10.5-29.38-25.1-91-22.14-124.91s4.88-65.7,4.88-65.7S1057.09,496.32,1067.46,486.65Z"/><path class="cls-17" d="M1014.87,721.47c-.53,0-27.49-6-23.09,5.26,2.87,7.3,8.08,9.49,12.14,10.35s11.8-.09,13.44,1.43,9.8,9.61,16.07,4.21c1.29-1.09,2.61-4.7,2.29-7.22S1018,721.45,1014.87,721.47Z"/><path class="cls-18" d="M991.78,726.73c2.87,7.3,8.08,9.49,12.14,10.35s11.8-.09,13.44,1.43,9.8,9.61,16.07,4.21a7.44,7.44,0,0,0,1.85-3.4c-4.53,4.7-13.31,1.55-15.52-.72a14.6,14.6,0,0,0-10.12-4.28c-3.67.07-11.22-2.26-14.46-6.72a6.6,6.6,0,0,1-.7-6.88C991.89,721.63,990.5,723.44,991.78,726.73Z"/><path class="cls-21" d="M1069.69,525.49s17.89,19-14.15,67.21c0,0-15.56,34.27-15,45.24.63,13.14,5.93,14.35.73,57.29-4.5,37.25-2.62,38-5.51,41.15-3,3.33-18.23.12-18.76-6.52-2.85-36.46-8.56-90.06-5.25-124,3.78-39,6.55-71,6.55-71S1057.92,533.1,1069.69,525.49Z"/><path class="cls-19" d="M1011.76,605.89c-3.31,33.91,2.4,87.51,5.25,124,.21,2.59,2.67,4.64,5.74,6-.33-12.61-2.26-86.92-2.38-104.26-.16-19-2.17-54.4,10.44-64.75s18.26-29,18.26-29L1047,532c-14.09,2.22-28.64,2.86-28.64,2.86S1015.54,566.92,1011.76,605.89Z"/><path class="cls-106" d="M1064.46,440.8s-1.59-14.76,12.64-15c15.11-.26,11.73,31.21,11.73,31.21s-.75,27.21-3.46,35.65c-3.61,11.23-23.58,40.3-23.58,40.3s-8.9-2.08-11.49-8.42c0,0,15.76-27.45,17.16-37.87C1069,475.28,1064.09,443.3,1064.46,440.8Z"/><path class="cls-24" d="M1061.79,532.94s20-29.07,23.58-40.3c2.71-8.44,3.46-35.65,3.46-35.65s5.37-30.35-11.66-31.75c-6.91-.57-8.06,2.38-9.71,4.62,11,.66,12.06,8,11,24.3-1.14,17.7,1.19,22.74.18,37.87s-17,29.87-19.43,33.44c-1.62,2.36-5.47-.53-8-2.76-.64,1.14-1,1.81-1,1.81C1052.89,530.86,1061.79,532.94,1061.79,532.94Z"/><path class="cls-22" d="M1041,413.7s3.85,11.55-1.73,19.17c-3,4.15,26.76,10.58,23.85-1.55-2.38-10,1.64-19.05,9-26.69Z"/><path class="cls-27" d="M1042.26,422.11s7.34-1.7,11.56-4.19l.5.25,2.79.7,1,.39s-1.56,12.44-17.42,11A26,26,0,0,0,1042.26,422.11Z"/><path class="cls-22" d="M1040.67,366.23s-4.82,7.86-11.37,21.17c-5.73,11.71-6.71,25.27.76,31.41,3.5,2.9,28.3,8.71,39.47-20.1C1076.67,380.36,1064.21,356.21,1040.67,366.23Z"/><path class="cls-28" d="M1027.67,370.7c-3,2.62-.81,6.63,6.87,10,10.91,4.75,2.53,19.21,6.19,22,2.06,1.6,3.28,2.78,8.72-1.13,2.15-1.54,5.59-3,6.1,3.15.48,5.81-3.44,4.82-5.25,13.19-.72,3.32,9.12,4.49,12.78,2.08,10.93-7.23,25.53-28.52,10.78-49.44C1062.66,354.67,1032.82,366.2,1027.67,370.7Z"/><path class="cls-26" d="M1088.68,534.33a63.58,63.58,0,0,0-1.48-9.34,2.47,2.47,0,0,0-.1-.43,96.54,96.54,0,0,0-4.21-15.55l-.15,0c-4-10.86-7.41-15.21-5.66-29,.88-7.05,7.24-28.07,6.41-43.62S1065.86,421,1038.81,432s-23.06,27.47-23.06,27.47c3.35,16.65,9.86,19.34,4.51,61.1-.54,2.15-.54,2.15-3,19.1-4.15,29,67.17,14.9,71.38-5.32Z"/><path class="cls-22" d="M954.39,460.89s-2.89-.62-7-4.48-3.51-3.72-4.71-7.06,0-7.92,1.3-9c1.68-1.46,3.43-.16,6.49,6.43,3.14,6.8,10.15,6.41,11.16,7.63S956.13,461.55,954.39,460.89Z"/><path class="cls-22" d="M954.14,454.31c-.89-.31.38-3.49-3.24-10.14-2.79-5.16,3.32,0,4.05,1.22s6.76,9.24,6.76,9.24S957.19,455.44,954.14,454.31Z"/><path class="cls-24" d="M1038.69,454.61c.26-3.28-1.82-13.39-11.53-14.28-6.29-.57-36,32.77-40.51,32.88-2.2.08-25.49-21.71-25.49-21.71s1.14,6.5-8.4,10.2c0,0,24.4,34.45,34.09,31.55C1003.44,488.29,1037.49,470,1038.69,454.61Z"/><path class="cls-3" d="M711.45,462.31c6.85-4,12-5.38,14.36-5.31l-2.66,13.53a27.48,27.48,0,0,0-11,3.88,37.53,37.53,0,0,0-18.49,32.8c0,13.34,7,17.75,18.7,11a55.56,55.56,0,0,0,10.92-8.5l2,10.59c-2.4,2.82-7.83,7.42-14.94,11.53-20,11.55-30.44,3.19-30.47-15.82C679.81,493.33,693.87,472.47,711.45,462.31Z"/><path class="cls-107" d="M932,478.52l0,15.55c0,8.55-3.91,14.79-10.55,18.44-6.37,3.5-10.13,1.7-10.16-7.15l0-15.46,5.72-3.15,0,16c0,4.76,1.7,6.29,4.63,4.69s4.65-4.89,4.63-9.78l0-16Z"/><path class="cls-107" d="M931.5,498.19l-4.43,2.49,0,12.68c0,3.88-1.26,6.44-3.6,7.76-2,1.09-3.18.35-3.5-2.27a3.48,3.48,0,0,1-.55.76,16.14,16.14,0,0,1-3,2.55,3.1,3.1,0,0,1-.69.33c.79,4.37,3.5,5,7.63,2.68,5.16-2.9,8.21-7.85,8.19-14.64Z"/></svg>