<svg xmlns="http://www.w3.org/2000/svg" xmlns:xlink="http://www.w3.org/1999/xlink" viewBox="0 0 2475 1650"><defs><style>.cls-1{fill:none;}.cls-2{isolation:isolate;}.cls-3{fill:url(#linear-gradient);}.cls-4{fill:#91b3fa;}.cls-5{fill:#7d97f4;}.cls-6{fill:#bdd0fb;}.cls-7{fill:#dce5fe;}.cls-8{fill:#f0f0f0;}.cls-9{fill:url(#linear-gradient-2);}.cls-10{fill:url(#linear-gradient-3);}.cls-11{mix-blend-mode:soft-light;}.cls-12{fill:#fff;}.cls-13{fill:url(#linear-gradient-4);}.cls-14{fill:url(#linear-gradient-5);}.cls-15{fill:url(#linear-gradient-6);}.cls-16{fill:url(#linear-gradient-7);}.cls-17{fill:url(#linear-gradient-8);}.cls-18{fill:url(#linear-gradient-9);}.cls-19{fill:url(#linear-gradient-10);}.cls-20{fill:url(#linear-gradient-11);}.cls-21{fill:url(#linear-gradient-12);}.cls-22{fill:url(#linear-gradient-13);}.cls-23{fill:url(#linear-gradient-14);}.cls-24{fill:url(#linear-gradient-15);}.cls-25{fill:url(#linear-gradient-16);}.cls-26{fill:url(#linear-gradient-17);}.cls-27{fill:url(#linear-gradient-18);}.cls-28{fill:url(#linear-gradient-19);}.cls-29{fill:url(#linear-gradient-20);}.cls-30{fill:url(#linear-gradient-21);}.cls-31{fill:url(#linear-gradient-22);}.cls-32{fill:url(#linear-gradient-23);}.cls-33{fill:url(#linear-gradient-24);}.cls-34{fill:url(#linear-gradient-25);}.cls-35{clip-path:url(#clip-path);}.cls-36{fill:url(#linear-gradient-26);}.cls-37{fill:url(#linear-gradient-27);}.cls-38{fill:url(#linear-gradient-28);}.cls-39{fill:url(#linear-gradient-29);}.cls-40{fill:url(#linear-gradient-30);}.cls-41{fill:url(#linear-gradient-31);}.cls-42{fill:url(#linear-gradient-32);}.cls-43{fill:url(#linear-gradient-33);}.cls-44{fill:url(#linear-gradient-34);}.cls-45{fill:url(#linear-gradient-35);}.cls-46{fill:url(#linear-gradient-36);}.cls-47{fill:url(#linear-gradient-37);}.cls-48{fill:url(#linear-gradient-38);}.cls-49{fill:url(#linear-gradient-39);}.cls-50{fill:url(#linear-gradient-40);}.cls-51{fill:url(#linear-gradient-41);}.cls-52{fill:url(#linear-gradient-42);}.cls-53{fill:url(#linear-gradient-43);}.cls-54{fill:url(#linear-gradient-44);}.cls-55{fill:url(#linear-gradient-45);}.cls-56{fill:url(#linear-gradient-46);}.cls-57{fill:url(#linear-gradient-47);}.cls-58{fill:url(#linear-gradient-48);}.cls-59{fill:url(#linear-gradient-49);}.cls-60{fill:url(#linear-gradient-50);}.cls-61{fill:url(#linear-gradient-51);}.cls-62{fill:url(#linear-gradient-52);}.cls-63{fill:url(#linear-gradient-53);}.cls-64{fill:url(#linear-gradient-54);}.cls-65{fill:url(#linear-gradient-55);}.cls-66{fill:url(#linear-gradient-56);}.cls-67{fill:url(#linear-gradient-57);}.cls-68{fill:url(#linear-gradient-58);}.cls-69{fill:url(#linear-gradient-59);}.cls-70{fill:url(#linear-gradient-60);}.cls-71{fill:url(#linear-gradient-61);}.cls-72{fill:url(#linear-gradient-62);}.cls-73{fill:url(#linear-gradient-63);}.cls-74{fill:url(#linear-gradient-64);}.cls-75{fill:url(#linear-gradient-65);}.cls-76{fill:url(#linear-gradient-66);}.cls-77{fill:url(#linear-gradient-67);}.cls-78{fill:url(#linear-gradient-68);}.cls-79{fill:url(#linear-gradient-69);}.cls-80{fill:url(#linear-gradient-70);}.cls-81{fill:url(#linear-gradient-71);}.cls-82{fill:url(#linear-gradient-72);}.cls-83{fill:url(#linear-gradient-73);}.cls-84{fill:url(#linear-gradient-74);}.cls-85{fill:url(#linear-gradient-75);}.cls-86{fill:url(#linear-gradient-76);}.cls-87{fill:url(#linear-gradient-77);}.cls-88{fill:url(#linear-gradient-78);}.cls-89{fill:url(#linear-gradient-79);}.cls-90{fill:url(#linear-gradient-80);}.cls-91{fill:url(#linear-gradient-81);}.cls-92{fill:url(#linear-gradient-82);}.cls-93{fill:url(#linear-gradient-83);}.cls-94{fill:url(#linear-gradient-84);}.cls-95{fill:url(#linear-gradient-85);}.cls-96{fill:url(#linear-gradient-86);}.cls-97{fill:url(#linear-gradient-87);}.cls-98{fill:url(#linear-gradient-88);}.cls-99{fill:url(#linear-gradient-89);}.cls-100{fill:url(#linear-gradient-90);}.cls-101{fill:url(#linear-gradient-91);}.cls-102{fill:url(#linear-gradient-92);}.cls-103{fill:url(#linear-gradient-93);}.cls-104{fill:url(#linear-gradient-94);}.cls-105{fill:url(#linear-gradient-95);}.cls-106{fill:url(#linear-gradient-96);}.cls-107{fill:url(#linear-gradient-97);}.cls-108{fill:url(#linear-gradient-98);}.cls-109{fill:url(#linear-gradient-99);}.cls-110{fill:url(#linear-gradient-100);}.cls-111{fill:url(#linear-gradient-101);}.cls-112{fill:url(#linear-gradient-102);}.cls-113{fill:url(#linear-gradient-103);}.cls-114{fill:url(#linear-gradient-104);}.cls-115{fill:url(#linear-gradient-105);}.cls-116{fill:url(#linear-gradient-106);}.cls-117{fill:url(#linear-gradient-107);}.cls-118{fill:url(#linear-gradient-108);}.cls-119{fill:url(#linear-gradient-109);}.cls-120{fill:url(#linear-gradient-110);}.cls-121{fill:url(#linear-gradient-111);}.cls-122{fill:url(#linear-gradient-112);}.cls-123{fill:url(#linear-gradient-113);}.cls-124{fill:url(#linear-gradient-114);}.cls-125{fill:url(#linear-gradient-115);}.cls-126{fill:url(#linear-gradient-116);}.cls-127{fill:url(#linear-gradient-117);}.cls-128{fill:url(#linear-gradient-118);}.cls-129{fill:url(#linear-gradient-119);}.cls-130{fill:url(#linear-gradient-120);}.cls-131{fill:url(#linear-gradient-121);}.cls-132{fill:url(#linear-gradient-122);}.cls-133{fill:url(#linear-gradient-123);}.cls-134{fill:url(#linear-gradient-124);}.cls-135{fill:url(#linear-gradient-125);}.cls-136{fill:url(#linear-gradient-126);}.cls-137{fill:url(#linear-gradient-127);}.cls-138{fill:url(#linear-gradient-128);}.cls-139{fill:url(#linear-gradient-129);}.cls-140{fill:url(#linear-gradient-130);}.cls-141{fill:url(#linear-gradient-131);}.cls-142{fill:url(#linear-gradient-132);}.cls-143{fill:url(#linear-gradient-133);}.cls-144{fill:url(#linear-gradient-134);}.cls-145{fill:url(#linear-gradient-135);}.cls-146{fill:url(#linear-gradient-136);}.cls-147{fill:url(#linear-gradient-137);}.cls-148{fill:url(#linear-gradient-138);}.cls-149{fill:url(#linear-gradient-139);}.cls-150{fill:url(#linear-gradient-140);}.cls-151{fill:url(#linear-gradient-141);}.cls-152{fill:url(#linear-gradient-142);}.cls-153{fill:url(#linear-gradient-143);}.cls-154{fill:url(#linear-gradient-144);}.cls-155{fill:url(#linear-gradient-145);}.cls-156{fill:url(#linear-gradient-146);}.cls-157{fill:url(#linear-gradient-147);}.cls-158{fill:url(#linear-gradient-148);}.cls-159{fill:url(#linear-gradient-149);}.cls-160{fill:url(#linear-gradient-150);}.cls-161{fill:url(#linear-gradient-151);}.cls-162{fill:url(#linear-gradient-152);}.cls-163{fill:url(#linear-gradient-153);}.cls-164{fill:url(#linear-gradient-154);}.cls-165{fill:url(#linear-gradient-155);}.cls-166{fill:url(#linear-gradient-156);}.cls-167{fill:url(#linear-gradient-157);}.cls-168{fill:url(#linear-gradient-158);}.cls-169{fill:url(#linear-gradient-159);}.cls-170{fill:url(#linear-gradient-160);}.cls-171{fill:url(#linear-gradient-161);}.cls-172{fill:url(#linear-gradient-162);}.cls-173{fill:url(#linear-gradient-163);}.cls-174{fill:url(#linear-gradient-164);}.cls-175{fill:url(#linear-gradient-165);}.cls-176{fill:url(#linear-gradient-166);}.cls-177{fill:url(#linear-gradient-167);}.cls-178{fill:url(#linear-gradient-168);}.cls-179{fill:url(#linear-gradient-169);}.cls-180{fill:url(#linear-gradient-170);}.cls-181{fill:url(#linear-gradient-171);}.cls-182{fill:url(#linear-gradient-172);}.cls-183{fill:url(#linear-gradient-173);}.cls-184{fill:url(#linear-gradient-174);}.cls-185{fill:url(#linear-gradient-175);}.cls-186{fill:url(#linear-gradient-176);}.cls-187{fill:url(#linear-gradient-177);}.cls-188{fill:url(#linear-gradient-178);}.cls-189{fill:url(#linear-gradient-179);}.cls-190{fill:url(#linear-gradient-180);}.cls-191{fill:url(#linear-gradient-181);}.cls-192{fill:url(#linear-gradient-182);}.cls-193{fill:url(#linear-gradient-183);}.cls-194{fill:url(#linear-gradient-184);}.cls-195{fill:url(#linear-gradient-185);}.cls-196{fill:url(#linear-gradient-186);}.cls-197{fill:url(#linear-gradient-187);}.cls-198{fill:url(#linear-gradient-188);}.cls-199{fill:url(#linear-gradient-189);}.cls-200{fill:url(#linear-gradient-190);}.cls-201{fill:url(#linear-gradient-191);}.cls-202{fill:url(#linear-gradient-192);}.cls-203{fill:url(#linear-gradient-193);}.cls-204{fill:url(#linear-gradient-194);}.cls-205{fill:url(#linear-gradient-195);}.cls-206{fill:url(#linear-gradient-196);}</style><linearGradient id="linear-gradient" x1="-1585.02" y1="3445.64" x2="658.02" y2="3445.64" gradientTransform="translate(774 4250) rotate(180)" gradientUnits="userSpaceOnUse"><stop offset="0" stop-color="#dae3fe"/><stop offset="1" stop-color="#e9effd"/></linearGradient><linearGradient id="linear-gradient-2" x1="1214.03" y1="474.78" x2="1275.5" y2="1934.8" gradientUnits="userSpaceOnUse"><stop offset="0" stop-color="#fe7062"/><stop offset="1" stop-color="#ff928e"/></linearGradient><linearGradient id="linear-gradient-3" x1="1213.5" y1="154.95" x2="1272.95" y2="1566.88" gradientUnits="userSpaceOnUse"><stop offset="0" stop-color="#e1473d"/><stop offset="1" stop-color="#e9605a"/></linearGradient><linearGradient id="linear-gradient-4" x1="1366.47" y1="822.83" x2="1877.09" y2="1338.34" gradientUnits="userSpaceOnUse"><stop offset="0" stop-color="#09005d"/><stop offset="1" stop-color="#1a0f91"/></linearGradient><linearGradient id="linear-gradient-5" x1="1633.97" y1="1454.27" x2="1601.31" y2="1306.27" gradientUnits="userSpaceOnUse"><stop offset="0" stop-color="#ff928e"/><stop offset="1" stop-color="#feb3b1"/></linearGradient><linearGradient id="linear-gradient-6" x1="5435.6" y1="445.19" x2="5444.95" y2="527" gradientTransform="translate(-3933.96)" gradientUnits="userSpaceOnUse"><stop offset="0" stop-color="#4042e2"/><stop offset="1" stop-color="#4f52ff"/></linearGradient><linearGradient id="linear-gradient-7" x1="1691.38" y1="1099.72" x2="1614.71" y2="1286.39" xlink:href="#linear-gradient-5"/><linearGradient id="linear-gradient-8" x1="847.13" y1="1293.36" x2="926.6" y2="1448.8" gradientTransform="translate(808.21)" xlink:href="#linear-gradient-4"/><linearGradient id="linear-gradient-9" x1="5340.59" y1="456.06" x2="5349.94" y2="537.86" xlink:href="#linear-gradient-6"/><linearGradient id="linear-gradient-10" x1="5586.83" y1="1180.37" x2="5659.61" y2="1338.77" xlink:href="#linear-gradient-6"/><linearGradient id="linear-gradient-11" x1="1635.53" y1="1122.64" x2="1668.2" y2="1202.64" xlink:href="#linear-gradient-5"/><linearGradient id="linear-gradient-12" x1="1663.91" y1="1525" x2="1715.24" y2="1519.67" gradientTransform="translate(-3933.96)" xlink:href="#linear-gradient-5"/><linearGradient id="linear-gradient-13" x1="1373.64" y1="815.73" x2="1884.26" y2="1331.24" xlink:href="#linear-gradient-4"/><linearGradient id="linear-gradient-14" x1="1664.89" y1="1534.3" x2="1716.22" y2="1528.97" gradientTransform="translate(-3933.96)" xlink:href="#linear-gradient-5"/><linearGradient id="linear-gradient-15" x1="1813.89" y1="1277.67" x2="1656.56" y2="1263.67" xlink:href="#linear-gradient-5"/><linearGradient id="linear-gradient-16" x1="5603.44" y1="1453.46" x2="5623.17" y2="1329.35" xlink:href="#linear-gradient-6"/><linearGradient id="linear-gradient-17" x1="5611.36" y1="1454.72" x2="5631.09" y2="1330.61" xlink:href="#linear-gradient-6"/><linearGradient id="linear-gradient-18" x1="5596.11" y1="1452.3" x2="5615.84" y2="1328.19" xlink:href="#linear-gradient-6"/><linearGradient id="linear-gradient-19" x1="5548.48" y1="1616.59" x2="5467.49" y2="1638.79" gradientTransform="translate(-3925.29 -86.8) rotate(-2.83)" xlink:href="#linear-gradient-4"/><linearGradient id="linear-gradient-20" x1="1499.08" y1="1273.74" x2="1589.08" y2="1211.74" xlink:href="#linear-gradient-4"/><linearGradient id="linear-gradient-21" x1="1391.5" y1="1289.03" x2="1819.92" y2="1289.03" gradientTransform="matrix(1, 0, 0, 1, 0, 0)" xlink:href="#linear-gradient"/><linearGradient id="linear-gradient-22" x1="1416.11" y1="1382.93" x2="1500.68" y2="1382.93" gradientTransform="matrix(1, 0, 0, 1, 0, 0)" xlink:href="#linear-gradient"/><linearGradient id="linear-gradient-23" x1="1425.87" y1="1382.93" x2="1510.45" y2="1382.93" gradientTransform="matrix(1, 0, 0, 1, 0, 0)" xlink:href="#linear-gradient"/><linearGradient id="linear-gradient-24" x1="1720.15" y1="1382.93" x2="1804.72" y2="1382.93" gradientTransform="matrix(1, 0, 0, 1, 0, 0)" xlink:href="#linear-gradient"/><linearGradient id="linear-gradient-25" x1="1729.91" y1="1382.93" x2="1814.48" y2="1382.93" gradientTransform="matrix(1, 0, 0, 1, 0, 0)" xlink:href="#linear-gradient"/><clipPath id="clip-path"><polygon class="cls-1" points="684.02 755 1238.26 1089.55 1760.88 774.77 1760.88 287.42 727.54 287.42 684.02 755"/></clipPath><linearGradient id="linear-gradient-26" x1="1284.19" y1="279.27" x2="1179.26" y2="1377.91" gradientTransform="matrix(1, 0, 0, 1, 0, 0)" xlink:href="#linear-gradient-6"/><linearGradient id="linear-gradient-27" x1="2083.83" y1="773.12" x2="2086.55" y2="773.12" gradientTransform="matrix(1, 0, 0, 1, 0, 0)" xlink:href="#linear-gradient"/><linearGradient id="linear-gradient-28" x1="2084.89" y1="794.34" x2="2087.3" y2="794.34" gradientTransform="matrix(1, 0, 0, 1, 0, 0)" xlink:href="#linear-gradient"/><linearGradient id="linear-gradient-29" x1="2083.6" y1="815.57" x2="2086.74" y2="815.57" gradientTransform="matrix(1, 0, 0, 1, 0, 0)" xlink:href="#linear-gradient"/><linearGradient id="linear-gradient-30" x1="2080.55" y1="836.65" x2="2084.43" y2="836.65" gradientTransform="matrix(1, 0, 0, 1, 0, 0)" xlink:href="#linear-gradient"/><linearGradient id="linear-gradient-31" x1="2075.83" y1="857.44" x2="2080.42" y2="857.44" gradientTransform="matrix(1, 0, 0, 1, 0, 0)" xlink:href="#linear-gradient"/><linearGradient id="linear-gradient-32" x1="2069.49" y1="877.82" x2="2074.78" y2="877.82" gradientTransform="matrix(1, 0, 0, 1, 0, 0)" xlink:href="#linear-gradient"/><linearGradient id="linear-gradient-33" x1="2061.61" y1="897.69" x2="2067.58" y2="897.69" gradientTransform="matrix(1, 0, 0, 1, 0, 0)" xlink:href="#linear-gradient"/><linearGradient id="linear-gradient-34" x1="2052.27" y1="916.94" x2="2058.89" y2="916.94" gradientTransform="matrix(1, 0, 0, 1, 0, 0)" xlink:href="#linear-gradient"/><linearGradient id="linear-gradient-35" x1="2041.53" y1="935.45" x2="2048.79" y2="935.45" gradientTransform="matrix(1, 0, 0, 1, 0, 0)" xlink:href="#linear-gradient"/><linearGradient id="linear-gradient-36" x1="2029.45" y1="953.14" x2="2037.33" y2="953.14" gradientTransform="matrix(1, 0, 0, 1, 0, 0)" xlink:href="#linear-gradient"/><linearGradient id="linear-gradient-37" x1="2016.09" y1="969.91" x2="2024.57" y2="969.91" gradientTransform="matrix(1, 0, 0, 1, 0, 0)" xlink:href="#linear-gradient"/><linearGradient id="linear-gradient-38" x1="2001.52" y1="985.64" x2="2010.58" y2="985.64" gradientTransform="matrix(1, 0, 0, 1, 0, 0)" xlink:href="#linear-gradient"/><linearGradient id="linear-gradient-39" x1="1985.78" y1="1000.23" x2="1995.4" y2="1000.23" gradientTransform="matrix(1, 0, 0, 1, 0, 0)" xlink:href="#linear-gradient"/><linearGradient id="linear-gradient-40" x1="1968.96" y1="1013.56" x2="1979.13" y2="1013.56" gradientTransform="matrix(1, 0, 0, 1, 0, 0)" xlink:href="#linear-gradient"/><linearGradient id="linear-gradient-41" x1="1951.16" y1="1025.48" x2="1961.81" y2="1025.48" gradientTransform="matrix(1, 0, 0, 1, 0, 0)" xlink:href="#linear-gradient"/><linearGradient id="linear-gradient-42" x1="1932.47" y1="1035.91" x2="1943.49" y2="1035.91" gradientTransform="matrix(1, 0, 0, 1, 0, 0)" xlink:href="#linear-gradient"/><linearGradient id="linear-gradient-43" x1="1912.96" y1="1044.71" x2="1924.35" y2="1044.71" gradientTransform="matrix(1, 0, 0, 1, 0, 0)" xlink:href="#linear-gradient"/><linearGradient id="linear-gradient-44" x1="1892.8" y1="1051.84" x2="1904.48" y2="1051.84" gradientTransform="matrix(1, 0, 0, 1, 0, 0)" xlink:href="#linear-gradient"/><linearGradient id="linear-gradient-45" x1="1872.16" y1="1057.37" x2="1884.1" y2="1057.37" gradientTransform="matrix(1, 0, 0, 1, 0, 0)" xlink:href="#linear-gradient"/><linearGradient id="linear-gradient-46" x1="1851.18" y1="1061.32" x2="1863.33" y2="1061.32" gradientTransform="matrix(1, 0, 0, 1, 0, 0)" xlink:href="#linear-gradient"/><linearGradient id="linear-gradient-47" x1="1829.98" y1="1063.74" x2="1842.31" y2="1063.74" gradientTransform="matrix(1, 0, 0, 1, 0, 0)" xlink:href="#linear-gradient"/><linearGradient id="linear-gradient-48" x1="1808.69" y1="1064.68" x2="1821.15" y2="1064.68" gradientTransform="matrix(1, 0, 0, 1, 0, 0)" xlink:href="#linear-gradient"/><linearGradient id="linear-gradient-49" x1="1787.39" y1="1064.2" x2="1799.97" y2="1064.2" gradientTransform="matrix(1, 0, 0, 1, 0, 0)" xlink:href="#linear-gradient"/><linearGradient id="linear-gradient-50" x1="1766.17" y1="1062.42" x2="1778.84" y2="1062.42" gradientTransform="matrix(1, 0, 0, 1, 0, 0)" xlink:href="#linear-gradient"/><linearGradient id="linear-gradient-51" x1="1745.11" y1="1059.38" x2="1757.84" y2="1059.38" gradientTransform="matrix(1, 0, 0, 1, 0, 0)" xlink:href="#linear-gradient"/><linearGradient id="linear-gradient-52" x1="1724.26" y1="1055.17" x2="1737.04" y2="1055.17" gradientTransform="matrix(1, 0, 0, 1, 0, 0)" xlink:href="#linear-gradient"/><linearGradient id="linear-gradient-53" x1="1703.66" y1="1049.84" x2="1716.49" y2="1049.84" gradientTransform="matrix(1, 0, 0, 1, 0, 0)" xlink:href="#linear-gradient"/><linearGradient id="linear-gradient-54" x1="1683.38" y1="1043.47" x2="1696.22" y2="1043.47" gradientTransform="matrix(1, 0, 0, 1, 0, 0)" xlink:href="#linear-gradient"/><linearGradient id="linear-gradient-55" x1="1663.44" y1="1036.09" x2="1676.3" y2="1036.09" gradientTransform="matrix(1, 0, 0, 1, 0, 0)" xlink:href="#linear-gradient"/><linearGradient id="linear-gradient-56" x1="1643.89" y1="1027.77" x2="1656.75" y2="1027.77" gradientTransform="matrix(1, 0, 0, 1, 0, 0)" xlink:href="#linear-gradient"/><linearGradient id="linear-gradient-57" x1="1624.75" y1="1018.53" x2="1637.61" y2="1018.53" gradientTransform="matrix(1, 0, 0, 1, 0, 0)" xlink:href="#linear-gradient"/><linearGradient id="linear-gradient-58" x1="1606.12" y1="1008.42" x2="1618.88" y2="1008.42" gradientTransform="matrix(1, 0, 0, 1, 0, 0)" xlink:href="#linear-gradient"/><linearGradient id="linear-gradient-59" x1="1587.9" y1="997.55" x2="1600.59" y2="997.55" gradientTransform="matrix(1, 0, 0, 1, 0, 0)" xlink:href="#linear-gradient"/><linearGradient id="linear-gradient-60" x1="1570.11" y1="985.99" x2="1582.71" y2="985.99" gradientTransform="matrix(1, 0, 0, 1, 0, 0)" xlink:href="#linear-gradient"/><linearGradient id="linear-gradient-61" x1="1552.74" y1="973.82" x2="1565.25" y2="973.82" gradientTransform="matrix(1, 0, 0, 1, 0, 0)" xlink:href="#linear-gradient"/><linearGradient id="linear-gradient-62" x1="1535.77" y1="961.08" x2="1548.19" y2="961.08" gradientTransform="matrix(1, 0, 0, 1, 0, 0)" xlink:href="#linear-gradient"/><linearGradient id="linear-gradient-63" x1="1519.17" y1="947.85" x2="1531.53" y2="947.85" gradientTransform="matrix(1, 0, 0, 1, 0, 0)" xlink:href="#linear-gradient"/><linearGradient id="linear-gradient-64" x1="1502.94" y1="934.18" x2="1515.23" y2="934.18" gradientTransform="matrix(1, 0, 0, 1, 0, 0)" xlink:href="#linear-gradient"/><linearGradient id="linear-gradient-65" x1="1487.03" y1="920.11" x2="1499.26" y2="920.11" gradientTransform="matrix(1, 0, 0, 1, 0, 0)" xlink:href="#linear-gradient"/><linearGradient id="linear-gradient-66" x1="1471.44" y1="905.71" x2="1483.61" y2="905.71" gradientTransform="matrix(1, 0, 0, 1, 0, 0)" xlink:href="#linear-gradient"/><linearGradient id="linear-gradient-67" x1="1456.11" y1="891.03" x2="1468.25" y2="891.03" gradientTransform="matrix(1, 0, 0, 1, 0, 0)" xlink:href="#linear-gradient"/><linearGradient id="linear-gradient-68" x1="1441" y1="876.08" x2="1453.11" y2="876.08" gradientTransform="matrix(1, 0, 0, 1, 0, 0)" xlink:href="#linear-gradient"/><linearGradient id="linear-gradient-69" x1="1426.09" y1="860.93" x2="1438.19" y2="860.93" gradientTransform="matrix(1, 0, 0, 1, 0, 0)" xlink:href="#linear-gradient"/><linearGradient id="linear-gradient-70" x1="1411.35" y1="845.61" x2="1423.44" y2="845.61" gradientTransform="matrix(1, 0, 0, 1, 0, 0)" xlink:href="#linear-gradient"/><linearGradient id="linear-gradient-71" x1="1396.73" y1="830.17" x2="1408.83" y2="830.17" gradientTransform="matrix(1, 0, 0, 1, 0, 0)" xlink:href="#linear-gradient"/><linearGradient id="linear-gradient-72" x1="1382.2" y1="814.64" x2="1394.31" y2="814.64" gradientTransform="matrix(1, 0, 0, 1, 0, 0)" xlink:href="#linear-gradient"/><linearGradient id="linear-gradient-73" x1="1367.72" y1="799.06" x2="1379.86" y2="799.06" gradientTransform="matrix(1, 0, 0, 1, 0, 0)" xlink:href="#linear-gradient"/><linearGradient id="linear-gradient-74" x1="1353.24" y1="783.48" x2="1365.42" y2="783.48" gradientTransform="matrix(1, 0, 0, 1, 0, 0)" xlink:href="#linear-gradient"/><linearGradient id="linear-gradient-75" x1="1338.72" y1="767.93" x2="1350.96" y2="767.93" gradientTransform="matrix(1, 0, 0, 1, 0, 0)" xlink:href="#linear-gradient"/><linearGradient id="linear-gradient-76" x1="1324.12" y1="752.45" x2="1336.44" y2="752.45" gradientTransform="matrix(1, 0, 0, 1, 0, 0)" xlink:href="#linear-gradient"/><linearGradient id="linear-gradient-77" x1="1309.41" y1="737.08" x2="1321.8" y2="737.08" gradientTransform="matrix(1, 0, 0, 1, 0, 0)" xlink:href="#linear-gradient"/><linearGradient id="linear-gradient-78" x1="1294.53" y1="721.85" x2="1307.03" y2="721.85" gradientTransform="matrix(1, 0, 0, 1, 0, 0)" xlink:href="#linear-gradient"/><linearGradient id="linear-gradient-79" x1="1279.46" y1="706.81" x2="1292.06" y2="706.81" gradientTransform="matrix(1, 0, 0, 1, 0, 0)" xlink:href="#linear-gradient"/><linearGradient id="linear-gradient-80" x1="1264.17" y1="692" x2="1276.88" y2="692" gradientTransform="matrix(1, 0, 0, 1, 0, 0)" xlink:href="#linear-gradient"/><linearGradient id="linear-gradient-81" x1="1248.63" y1="677.47" x2="1261.42" y2="677.47" gradientTransform="matrix(1, 0, 0, 1, 0, 0)" xlink:href="#linear-gradient"/><linearGradient id="linear-gradient-82" x1="1232.8" y1="663.24" x2="1245.65" y2="663.24" gradientTransform="matrix(1, 0, 0, 1, 0, 0)" xlink:href="#linear-gradient"/><linearGradient id="linear-gradient-83" x1="1216.65" y1="649.4" x2="1229.57" y2="649.4" gradientTransform="matrix(1, 0, 0, 1, 0, 0)" xlink:href="#linear-gradient"/><linearGradient id="linear-gradient-84" x1="1200.15" y1="635.98" x2="1213.15" y2="635.98" gradientTransform="matrix(1, 0, 0, 1, 0, 0)" xlink:href="#linear-gradient"/><linearGradient id="linear-gradient-85" x1="1183.26" y1="623.03" x2="1196.34" y2="623.03" gradientTransform="matrix(1, 0, 0, 1, 0, 0)" xlink:href="#linear-gradient"/><linearGradient id="linear-gradient-86" x1="1165.97" y1="610.62" x2="1179.15" y2="610.62" gradientTransform="matrix(1, 0, 0, 1, 0, 0)" xlink:href="#linear-gradient"/><linearGradient id="linear-gradient-87" x1="1148.26" y1="598.79" x2="1161.55" y2="598.79" gradientTransform="matrix(1, 0, 0, 1, 0, 0)" xlink:href="#linear-gradient"/><linearGradient id="linear-gradient-88" x1="1130.14" y1="587.61" x2="1143.52" y2="587.61" gradientTransform="matrix(1, 0, 0, 1, 0, 0)" xlink:href="#linear-gradient"/><linearGradient id="linear-gradient-89" x1="1111.62" y1="577.11" x2="1125.08" y2="577.11" gradientTransform="matrix(1, 0, 0, 1, 0, 0)" xlink:href="#linear-gradient"/><linearGradient id="linear-gradient-90" x1="1092.74" y1="567.29" x2="1106.28" y2="567.29" gradientTransform="matrix(1, 0, 0, 1, 0, 0)" xlink:href="#linear-gradient"/><linearGradient id="linear-gradient-91" x1="1073.52" y1="558.17" x2="1087.12" y2="558.17" gradientTransform="matrix(1, 0, 0, 1, 0, 0)" xlink:href="#linear-gradient"/><linearGradient id="linear-gradient-92" x1="1053.98" y1="549.73" x2="1067.65" y2="549.73" gradientTransform="matrix(1, 0, 0, 1, 0, 0)" xlink:href="#linear-gradient"/><linearGradient id="linear-gradient-93" x1="1034.16" y1="542" x2="1047.88" y2="542" gradientTransform="matrix(1, 0, 0, 1, 0, 0)" xlink:href="#linear-gradient"/><linearGradient id="linear-gradient-94" x1="1014.08" y1="534.98" x2="1027.85" y2="534.98" gradientTransform="matrix(1, 0, 0, 1, 0, 0)" xlink:href="#linear-gradient"/><linearGradient id="linear-gradient-95" x1="993.77" y1="528.66" x2="1007.57" y2="528.66" gradientTransform="matrix(1, 0, 0, 1, 0, 0)" xlink:href="#linear-gradient"/><linearGradient id="linear-gradient-96" x1="973.25" y1="523.07" x2="987.08" y2="523.07" gradientTransform="matrix(1, 0, 0, 1, 0, 0)" xlink:href="#linear-gradient"/><linearGradient id="linear-gradient-97" x1="952.54" y1="518.2" x2="966.39" y2="518.2" gradientTransform="matrix(1, 0, 0, 1, 0, 0)" xlink:href="#linear-gradient"/><linearGradient id="linear-gradient-98" x1="931.69" y1="514.06" x2="945.55" y2="514.06" gradientTransform="matrix(1, 0, 0, 1, 0, 0)" xlink:href="#linear-gradient"/><linearGradient id="linear-gradient-99" x1="910.7" y1="510.65" x2="924.57" y2="510.65" gradientTransform="matrix(1, 0, 0, 1, 0, 0)" xlink:href="#linear-gradient"/><linearGradient id="linear-gradient-100" x1="889.62" y1="507.99" x2="903.48" y2="507.99" gradientTransform="matrix(1, 0, 0, 1, 0, 0)" xlink:href="#linear-gradient"/><linearGradient id="linear-gradient-101" x1="868.45" y1="506.07" x2="882.31" y2="506.07" gradientTransform="matrix(1, 0, 0, 1, 0, 0)" xlink:href="#linear-gradient"/><linearGradient id="linear-gradient-102" x1="847.24" y1="504.9" x2="861.07" y2="504.9" gradientTransform="matrix(1, 0, 0, 1, 0, 0)" xlink:href="#linear-gradient"/><linearGradient id="linear-gradient-103" x1="826.01" y1="504.5" x2="839.81" y2="504.5" gradientTransform="matrix(1, 0, 0, 1, 0, 0)" xlink:href="#linear-gradient"/><linearGradient id="linear-gradient-104" x1="804.78" y1="504.85" x2="818.55" y2="504.85" gradientTransform="matrix(1, 0, 0, 1, 0, 0)" xlink:href="#linear-gradient"/><linearGradient id="linear-gradient-105" x1="783.58" y1="505.98" x2="797.31" y2="505.98" gradientTransform="matrix(1, 0, 0, 1, 0, 0)" xlink:href="#linear-gradient"/><linearGradient id="linear-gradient-106" x1="762.44" y1="507.88" x2="776.12" y2="507.88" gradientTransform="matrix(1, 0, 0, 1, 0, 0)" xlink:href="#linear-gradient"/><linearGradient id="linear-gradient-107" x1="741.39" y1="510.56" x2="755.01" y2="510.56" gradientTransform="matrix(1, 0, 0, 1, 0, 0)" xlink:href="#linear-gradient"/><linearGradient id="linear-gradient-108" x1="720.46" y1="514.06" x2="734.01" y2="514.06" gradientTransform="matrix(1, 0, 0, 1, 0, 0)" xlink:href="#linear-gradient"/><linearGradient id="linear-gradient-109" x1="699.71" y1="518.44" x2="713.18" y2="518.44" gradientTransform="matrix(1, 0, 0, 1, 0, 0)" xlink:href="#linear-gradient"/><linearGradient id="linear-gradient-110" x1="679.19" y1="523.76" x2="692.55" y2="523.76" gradientTransform="matrix(1, 0, 0, 1, 0, 0)" xlink:href="#linear-gradient"/><linearGradient id="linear-gradient-111" x1="658.99" y1="530.06" x2="672.18" y2="530.06" gradientTransform="matrix(1, 0, 0, 1, 0, 0)" xlink:href="#linear-gradient"/><linearGradient id="linear-gradient-112" x1="639.16" y1="537.43" x2="652.14" y2="537.43" gradientTransform="matrix(1, 0, 0, 1, 0, 0)" xlink:href="#linear-gradient"/><linearGradient id="linear-gradient-113" x1="619.8" y1="545.91" x2="632.54" y2="545.91" gradientTransform="matrix(1, 0, 0, 1, 0, 0)" xlink:href="#linear-gradient"/><linearGradient id="linear-gradient-114" x1="601.02" y1="555.59" x2="613.48" y2="555.59" gradientTransform="matrix(1, 0, 0, 1, 0, 0)" xlink:href="#linear-gradient"/><linearGradient id="linear-gradient-115" x1="582.96" y1="566.51" x2="595.09" y2="566.51" gradientTransform="matrix(1, 0, 0, 1, 0, 0)" xlink:href="#linear-gradient"/><linearGradient id="linear-gradient-116" x1="565.77" y1="578.74" x2="577.53" y2="578.74" gradientTransform="matrix(1, 0, 0, 1, 0, 0)" xlink:href="#linear-gradient"/><linearGradient id="linear-gradient-117" x1="549.63" y1="592.31" x2="560.96" y2="592.31" gradientTransform="matrix(1, 0, 0, 1, 0, 0)" xlink:href="#linear-gradient"/><linearGradient id="linear-gradient-118" x1="534.71" y1="607.19" x2="545.56" y2="607.19" gradientTransform="matrix(1, 0, 0, 1, 0, 0)" xlink:href="#linear-gradient"/><linearGradient id="linear-gradient-119" x1="521.22" y1="623.37" x2="531.52" y2="623.37" gradientTransform="matrix(1, 0, 0, 1, 0, 0)" xlink:href="#linear-gradient"/><linearGradient id="linear-gradient-120" x1="509.44" y1="640.84" x2="519.1" y2="640.84" gradientTransform="matrix(1, 0, 0, 1, 0, 0)" xlink:href="#linear-gradient"/><linearGradient id="linear-gradient-121" x1="499.45" y1="659.41" x2="508.47" y2="659.41" gradientTransform="matrix(1, 0, 0, 1, 0, 0)" xlink:href="#linear-gradient"/><linearGradient id="linear-gradient-122" x1="491.3" y1="678.89" x2="499.66" y2="678.89" gradientTransform="matrix(1, 0, 0, 1, 0, 0)" xlink:href="#linear-gradient"/><linearGradient id="linear-gradient-123" x1="484.98" y1="699.07" x2="492.69" y2="699.07" gradientTransform="matrix(1, 0, 0, 1, 0, 0)" xlink:href="#linear-gradient"/><linearGradient id="linear-gradient-124" x1="480.48" y1="719.75" x2="487.54" y2="719.75" gradientTransform="matrix(1, 0, 0, 1, 0, 0)" xlink:href="#linear-gradient"/><linearGradient id="linear-gradient-125" x1="477.78" y1="740.79" x2="484.21" y2="740.79" gradientTransform="matrix(1, 0, 0, 1, 0, 0)" xlink:href="#linear-gradient"/><linearGradient id="linear-gradient-126" x1="476.88" y1="762" x2="482.67" y2="762" gradientTransform="matrix(1, 0, 0, 1, 0, 0)" xlink:href="#linear-gradient"/><linearGradient id="linear-gradient-127" x1="477.3" y1="783.24" x2="483.34" y2="783.24" gradientTransform="matrix(1, 0, 0, 1, 0, 0)" xlink:href="#linear-gradient"/><linearGradient id="linear-gradient-128" x1="479.42" y1="804.35" x2="485.9" y2="804.35" gradientTransform="matrix(1, 0, 0, 1, 0, 0)" xlink:href="#linear-gradient"/><linearGradient id="linear-gradient-129" x1="483.32" y1="825.2" x2="490.25" y2="825.2" gradientTransform="matrix(1, 0, 0, 1, 0, 0)" xlink:href="#linear-gradient"/><linearGradient id="linear-gradient-130" x1="488.99" y1="845.61" x2="496.37" y2="845.61" gradientTransform="matrix(1, 0, 0, 1, 0, 0)" xlink:href="#linear-gradient"/><linearGradient id="linear-gradient-131" x1="496.46" y1="865.41" x2="504.28" y2="865.41" gradientTransform="matrix(1, 0, 0, 1, 0, 0)" xlink:href="#linear-gradient"/><linearGradient id="linear-gradient-132" x1="505.71" y1="884.42" x2="513.98" y2="884.42" gradientTransform="matrix(1, 0, 0, 1, 0, 0)" xlink:href="#linear-gradient"/><linearGradient id="linear-gradient-133" x1="516.75" y1="902.43" x2="525.4" y2="902.43" gradientTransform="matrix(1, 0, 0, 1, 0, 0)" xlink:href="#linear-gradient"/><linearGradient id="linear-gradient-134" x1="529.55" y1="919.26" x2="538.55" y2="919.26" gradientTransform="matrix(1, 0, 0, 1, 0, 0)" xlink:href="#linear-gradient"/><linearGradient id="linear-gradient-135" x1="544.01" y1="934.67" x2="553.32" y2="934.67" gradientTransform="matrix(1, 0, 0, 1, 0, 0)" xlink:href="#linear-gradient"/><linearGradient id="linear-gradient-136" x1="560" y1="948.53" x2="569.56" y2="948.53" gradientTransform="matrix(1, 0, 0, 1, 0, 0)" xlink:href="#linear-gradient"/><linearGradient id="linear-gradient-137" x1="577.29" y1="960.73" x2="587.04" y2="960.73" gradientTransform="matrix(1, 0, 0, 1, 0, 0)" xlink:href="#linear-gradient"/><linearGradient id="linear-gradient-138" x1="595.7" y1="971.23" x2="605.57" y2="971.23" gradientTransform="matrix(1, 0, 0, 1, 0, 0)" xlink:href="#linear-gradient"/><linearGradient id="linear-gradient-139" x1="615.02" y1="980.01" x2="624.95" y2="980.01" gradientTransform="matrix(1, 0, 0, 1, 0, 0)" xlink:href="#linear-gradient"/><linearGradient id="linear-gradient-140" x1="635.05" y1="987.04" x2="645.01" y2="987.04" gradientTransform="matrix(1, 0, 0, 1, 0, 0)" xlink:href="#linear-gradient"/><linearGradient id="linear-gradient-141" x1="655.65" y1="992.33" x2="665.57" y2="992.33" gradientTransform="matrix(1, 0, 0, 1, 0, 0)" xlink:href="#linear-gradient"/><linearGradient id="linear-gradient-142" x1="676.64" y1="995.86" x2="686.48" y2="995.86" gradientTransform="matrix(1, 0, 0, 1, 0, 0)" xlink:href="#linear-gradient"/><linearGradient id="linear-gradient-143" x1="697.88" y1="997.62" x2="707.59" y2="997.62" gradientTransform="matrix(1, 0, 0, 1, 0, 0)" xlink:href="#linear-gradient"/><linearGradient id="linear-gradient-144" x1="719.21" y1="997.63" x2="728.76" y2="997.63" gradientTransform="matrix(1, 0, 0, 1, 0, 0)" xlink:href="#linear-gradient"/><linearGradient id="linear-gradient-145" x1="740.48" y1="995.8" x2="749.83" y2="995.8" gradientTransform="matrix(1, 0, 0, 1, 0, 0)" xlink:href="#linear-gradient"/><linearGradient id="linear-gradient-146" x1="761.56" y1="992.13" x2="770.63" y2="992.13" gradientTransform="matrix(1, 0, 0, 1, 0, 0)" xlink:href="#linear-gradient"/><linearGradient id="linear-gradient-147" x1="782.24" y1="986.6" x2="790.98" y2="986.6" gradientTransform="matrix(1, 0, 0, 1, 0, 0)" xlink:href="#linear-gradient"/><linearGradient id="linear-gradient-148" x1="802.33" y1="979.2" x2="810.7" y2="979.2" gradientTransform="matrix(1, 0, 0, 1, 0, 0)" xlink:href="#linear-gradient"/><linearGradient id="linear-gradient-149" x1="821.66" y1="969.9" x2="829.58" y2="969.9" gradientTransform="matrix(1, 0, 0, 1, 0, 0)" xlink:href="#linear-gradient"/><linearGradient id="linear-gradient-150" x1="839.99" y1="959.15" x2="846.28" y2="959.15" gradientTransform="matrix(1, 0, 0, 1, 0, 0)" xlink:href="#linear-gradient"/><linearGradient id="linear-gradient-151" x1="1922.69" y1="801.49" x2="2059.78" y2="1375.03" gradientTransform="matrix(1, 0, 0, 1, 0, 0)" xlink:href="#linear-gradient-6"/><linearGradient id="linear-gradient-152" x1="2148.59" y1="1584.23" x2="2150.9" y2="1514.85" gradientTransform="translate(-43.11)" xlink:href="#linear-gradient-6"/><linearGradient id="linear-gradient-153" x1="2231.02" y1="1406.67" x2="2088.07" y2="1518.91" gradientTransform="translate(-43.11)" xlink:href="#linear-gradient-4"/><linearGradient id="linear-gradient-154" x1="1291.66" y1="1408.38" x2="1283.9" y2="1476.1" gradientTransform="matrix(-1, 0, 0, 1, 3394.39, 0)" xlink:href="#linear-gradient-5"/><linearGradient id="linear-gradient-155" x1="1423.39" y1="1439.98" x2="1285.16" y2="1548.52" gradientTransform="matrix(-1, 0, 0, 1, 3394.39, 0)" xlink:href="#linear-gradient-4"/><linearGradient id="linear-gradient-156" x1="1383.53" y1="1627.14" x2="1385.84" y2="1557.76" gradientTransform="matrix(-1, 0, 0, 1, 3394.39, 0)" xlink:href="#linear-gradient-6"/><linearGradient id="linear-gradient-157" x1="1373.4" y1="1417.05" x2="1366.14" y2="1480.39" gradientTransform="matrix(-1, 0, 0, 1, 3394.39, 0)" xlink:href="#linear-gradient-5"/><linearGradient id="linear-gradient-158" x1="-483.24" y1="1415.02" x2="-474.53" y2="1142.2" gradientTransform="matrix(-1, 0, 0, 1, 1582.55, 0)" xlink:href="#linear-gradient-4"/><linearGradient id="linear-gradient-159" x1="2014.29" y1="779.65" x2="2151.36" y2="1353.11" gradientTransform="matrix(1, 0, 0, 1, 0, 0)" xlink:href="#linear-gradient-6"/><linearGradient id="linear-gradient-160" x1="2081.24" y1="937.35" x2="2079.24" y2="1026.69" xlink:href="#linear-gradient-5"/><linearGradient id="linear-gradient-161" x1="2065.68" y1="767.37" x2="2202.75" y2="1340.83" gradientTransform="matrix(1, 0, 0, 1, 0, 0)" xlink:href="#linear-gradient-6"/><linearGradient id="linear-gradient-162" x1="-506.17" y1="1156.65" x2="-568.09" y2="1209.54" gradientTransform="matrix(-1, 0, 0, 1, 1582.55, 0)" xlink:href="#linear-gradient-5"/><linearGradient id="linear-gradient-163" x1="-6978.61" y1="239.81" x2="-7001.35" y2="263.84" gradientTransform="matrix(0.96, 0.29, -0.37, 1.22, 8733.16, 2685.15)" xlink:href="#linear-gradient-4"/><linearGradient id="linear-gradient-164" x1="1928" y1="966.89" x2="1930.55" y2="1008.46" xlink:href="#linear-gradient-5"/><linearGradient id="linear-gradient-165" x1="2132.51" y1="932.55" x2="2042.51" y2="955.88" xlink:href="#linear-gradient-5"/><linearGradient id="linear-gradient-166" x1="-4592.9" y1="-3277.35" x2="-4527.68" y2="-3277.35" gradientTransform="matrix(-0.99, -0.16, -0.16, 0.99, -2962.93, 3461.43)" xlink:href="#linear-gradient-4"/><linearGradient id="linear-gradient-167" x1="-4629.94" y1="-3238.34" x2="-4587.06" y2="-3282.33" gradientTransform="matrix(-0.99, -0.16, -0.16, 0.99, -2962.93, 3461.43)" xlink:href="#linear-gradient-5"/><linearGradient id="linear-gradient-168" x1="1531.71" y1="982.13" x2="1556.94" y2="982.13" gradientTransform="matrix(1, 0, 0, 1, 0, 0)" xlink:href="#linear-gradient"/><linearGradient id="linear-gradient-169" x1="1519.94" y1="1010.75" x2="1568.58" y2="1010.75" gradientTransform="matrix(1, 0, 0, 1, 0, 0)" xlink:href="#linear-gradient"/><linearGradient id="linear-gradient-170" x1="1602.5" y1="1006.68" x2="1842.67" y2="1006.68" gradientTransform="matrix(1, 0, 0, 1, 0, 0)" xlink:href="#linear-gradient"/><linearGradient id="linear-gradient-171" x1="1604.96" y1="1030.2" x2="1736.18" y2="1030.2" gradientTransform="matrix(1, 0, 0, 1, 0, 0)" xlink:href="#linear-gradient"/><linearGradient id="linear-gradient-172" x1="1744.39" y1="1030.2" x2="1842.81" y2="1030.2" gradientTransform="matrix(1, 0, 0, 1, 0, 0)" xlink:href="#linear-gradient"/><linearGradient id="linear-gradient-173" x1="685.89" y1="928.77" x2="687.89" y2="1454.77" xlink:href="#linear-gradient-4"/><linearGradient id="linear-gradient-174" x1="-5514.04" y1="1056.56" x2="-6130.24" y2="1844.84" gradientTransform="matrix(-1, -0.02, -0.02, 1, -4875.8, -93.23)" xlink:href="#linear-gradient-6"/><linearGradient id="linear-gradient-175" x1="665.57" y1="988.9" x2="721.76" y2="988.9" gradientTransform="matrix(1, 0, 0, 1, 0, 0)" xlink:href="#linear-gradient-6"/><linearGradient id="linear-gradient-176" x1="593.48" y1="1189.17" x2="784.28" y2="1189.17" gradientTransform="matrix(1, 0, 0, 1, 0, 0)" xlink:href="#linear-gradient"/><linearGradient id="linear-gradient-177" x1="629.56" y1="1189.17" x2="748.21" y2="1189.17" gradientTransform="matrix(1, 0, 0, 1, 0, 0)" xlink:href="#linear-gradient-6"/><linearGradient id="linear-gradient-178" x1="545.99" y1="1381.66" x2="576.38" y2="1381.66" gradientTransform="matrix(1, 0, 0, 1, 0, 0)" xlink:href="#linear-gradient-6"/><linearGradient id="linear-gradient-179" x1="1673.83" y1="1414.4" x2="1483.28" y2="1621.67" gradientTransform="translate(-1198.53)" xlink:href="#linear-gradient-4"/><linearGradient id="linear-gradient-180" x1="1611.98" y1="1429.79" x2="1628.9" y2="1429.79" gradientTransform="translate(-1198.53)" xlink:href="#linear-gradient-5"/><linearGradient id="linear-gradient-181" x1="1581.32" y1="1414.74" x2="1618.72" y2="1197.46" gradientTransform="translate(-1198.53)" xlink:href="#linear-gradient-4"/><linearGradient id="linear-gradient-182" x1="1631.08" y1="1375.1" x2="1440.53" y2="1582.36" gradientTransform="translate(-1198.53)" xlink:href="#linear-gradient-4"/><linearGradient id="linear-gradient-183" x1="1550.98" y1="1428.92" x2="1565.59" y2="1428.92" gradientTransform="translate(-1198.53)" xlink:href="#linear-gradient-5"/><linearGradient id="linear-gradient-184" x1="1539.02" y1="1407.46" x2="1576.43" y2="1190.18" gradientTransform="translate(-1198.53)" xlink:href="#linear-gradient-4"/><linearGradient id="linear-gradient-185" x1="1379.63" y1="1475.1" x2="1235.63" y2="1741.1" gradientTransform="translate(-1198.53)" xlink:href="#linear-gradient-2"/><linearGradient id="linear-gradient-186" x1="1681.63" y1="988.22" x2="1768.1" y2="988.22" gradientTransform="translate(-1198.53)" xlink:href="#linear-gradient-5"/><linearGradient id="linear-gradient-187" x1="7462.94" y1="973.72" x2="7520.97" y2="1105.74" gradientTransform="matrix(-1, 0, 0, 1, 8013.25, 0)" xlink:href="#linear-gradient-5"/><linearGradient id="linear-gradient-188" x1="495.7" y1="1013.45" x2="621.7" y2="869.45" xlink:href="#linear-gradient-5"/><linearGradient id="linear-gradient-189" x1="1323.04" y1="1444.46" x2="1179.04" y2="1710.46" gradientTransform="translate(-1198.53)" xlink:href="#linear-gradient-2"/><linearGradient id="linear-gradient-190" x1="399.59" y1="991.19" x2="381.59" y2="1127.19" xlink:href="#linear-gradient-5"/><linearGradient id="linear-gradient-191" x1="-3032.84" y1="2086.46" x2="-3092.84" y2="1975.46" gradientTransform="matrix(0.75, -0.67, 0.67, 0.75, 4456.71, -1476.32)" xlink:href="#linear-gradient-5"/><linearGradient id="linear-gradient-192" x1="-1711.61" y1="-4239.84" x2="-1578.66" y2="-4391.62" gradientTransform="matrix(0.75, -0.67, 0.67, 0.75, 4456.71, -1476.32)" xlink:href="#linear-gradient-4"/><linearGradient id="linear-gradient-193" x1="-3044.49" y1="2092.76" x2="-3104.49" y2="1981.76" gradientTransform="matrix(0.75, -0.67, 0.67, 0.75, 4456.71, -1476.32)" xlink:href="#linear-gradient-5"/><linearGradient id="linear-gradient-194" x1="1581.73" y1="1171.89" x2="1492.65" y2="1100.63" gradientTransform="translate(-1198.53)" xlink:href="#linear-gradient-5"/><linearGradient id="linear-gradient-195" x1="-8450.42" y1="720.82" x2="-8473.16" y2="744.85" gradientTransform="matrix(0.96, 0.29, -0.37, 1.22, 8733.16, 2685.15)" xlink:href="#linear-gradient-4"/><linearGradient id="linear-gradient-196" x1="351.95" y1="1140.14" x2="335.44" y2="1152.47" xlink:href="#linear-gradient-5"/></defs><title>mail</title><g class="cls-2"><g id="Illustration"><path class="cls-3" d="M141,750.17c26,46,67.38,84.77,99.24,127.82,92.08,124.4-3.72,270,38.3,404.08,36.61,116.85,188.89,148.17,300.2,152.92,187.56,8,374.91-4,555.74-54.86,125.49-35.3,251.13-81.51,383.39-84.31,135.21-2.86,262.4,51.42,393,77.09,143.43,28.19,315-2.42,349.56-162.59,21.43-99.23-36.24-190.61-41.64-288.31-7.15-129.34,121.79-200.32,138.48-321.23,10.52-76.24-28.79-144.35-80.07-199.51-54.11-58.2-126.87-109.62-210.35-114.4-87.26-5-165.13,40.82-246.69,62.7C1591,411,1460.93,206,1250,177.44c-95.11-12.9-212-6.78-298.38,37.5-80.31,41.18-119.28,132.64-209.36,159.5-95.34,28.43-182.59-28.39-273.19-46.54C375.32,309.12,286.63,342.46,228,415.58,171,486.47,109.47,579.85,116.54,673.46,118.68,701.88,127.91,727,141,750.17Z"/><path class="cls-4" d="M714.84,1406.92c-55.91,11.18-127.31-49.78-150.31-116.38-23.67-68.53,19.73-97.24,19.39-192.33-.38-108-56.57-124.31-93.74-269.92-8.39-32.85-56.92-223,3.23-258.6,55.62-33,211.83,61.61,239.21,182.64,19.52,86.29-40.83,122.53-17.78,223,20.23,88.19,73.38,89.47,93.74,174.56C833.38,1253.52,788.25,1392.24,714.84,1406.92Z"/><path class="cls-5" d="M710.78,1433.09c15.07-116.39-14.33-295.95-41.65-426.09C639.55,866.1,606,751.17,605.64,750L601,751.39c.34,1.14,33.86,115.92,63.4,256.64C691.63,1137.79,721,1316.76,706,1432.47Z"/><path class="cls-6" d="M650.45,1393.92c73.34-38.21,98.44-169.44,56.76-212.08-28.17-28.82-68.57,1.49-107.54-28.38-49.76-38.14-13.16-110-52.28-203.12C514.1,871.06,434.25,796,387.58,811.44,338.74,827.55,313,947.09,354.73,1019c27.12,46.79,68.65,49.08,77.66,92.6,10.45,50.49-40.05,73.52-40.32,122.47C391.57,1322,553.43,1444.48,650.45,1393.92Z"/><path class="cls-4" d="M610.87,1427.53a3,3,0,0,0,2.69-4.29c-97.23-200.36-125.74-432.79-126-435.11a3,3,0,1,0-5.93.71c.28,2.33,28.91,235.76,126.57,437A3,3,0,0,0,610.87,1427.53Z"/><path class="cls-7" d="M411.39,1048.32a1.42,1.42,0,0,0,1.13-2.3c-30.69-39.4-64.71-98.58-52.46-156.82,7.29-34.69,27.81-52.78,28-53a1.43,1.43,0,1,0-1.87-2.16c-.87.76-21.46,18.91-28.95,54.53-6.88,32.74-3.27,86.93,53,159.16A1.45,1.45,0,0,0,411.39,1048.32Z"/><path class="cls-8" d="M657.06,1376.43a1.41,1.41,0,0,0,1.18-.63c47.17-68.83,63.25-122,47.8-158.08-13.73-32.06-48.4-38-48.75-38.08a1.42,1.42,0,0,0-.46,2.81c.34.06,33.51,5.81,46.6,36.43,15,35.1-1,87.36-47.54,155.31a1.43,1.43,0,0,0,.37,2A1.45,1.45,0,0,0,657.06,1376.43Z"/><path class="cls-4" d="M1772.19,1406.92c55.91,11.18,127.31-49.78,150.31-116.38,23.67-68.53-19.73-97.24-19.39-192.33.38-108,56.57-124.31,93.74-269.92,8.39-32.85,56.92-223-3.23-258.6-55.62-33-211.83,61.61-239.21,182.64-19.52,86.29,40.83,122.53,17.78,223-20.23,88.19-73.38,89.47-93.75,174.56C1653.65,1253.52,1698.78,1392.24,1772.19,1406.92Z"/><path class="cls-5" d="M1776.25,1433.09c-15.07-116.39,14.33-295.95,41.65-426.09,29.58-140.9,63.15-255.83,63.49-257l4.65,1.36c-.34,1.14-33.86,115.92-63.4,256.64-27.24,129.76-56.57,308.73-41.58,424.44Z"/><path class="cls-6" d="M1836.58,1393.92c-73.34-38.21-98.44-169.44-56.76-212.08,28.17-28.82,68.57,1.49,107.54-28.38,49.76-38.14,13.16-110,52.28-203.12,33.29-79.28,113.14-154.3,159.81-138.9,48.84,16.11,74.57,135.65,32.85,207.6-27.13,46.79-68.65,49.08-77.66,92.6-10.45,50.49,40.05,73.52,40.32,122.47C2095.46,1322,1933.6,1444.48,1836.58,1393.92Z"/><path class="cls-4" d="M1876.16,1427.53a3.09,3.09,0,0,1-1.31-.3,3,3,0,0,1-1.38-4c97.23-200.36,125.74-432.79,126-435.11a3,3,0,1,1,5.93.71c-.28,2.33-28.91,235.76-126.57,437A3,3,0,0,1,1876.16,1427.53Z"/><path class="cls-7" d="M2075.64,1048.32a1.42,1.42,0,0,1-1.13-2.3c30.69-39.4,64.71-98.58,52.46-156.82-7.29-34.69-27.81-52.78-28-53a1.43,1.43,0,1,1,1.87-2.16c.87.76,21.46,18.91,28.95,54.53,6.88,32.74,3.27,86.93-53,159.16A1.45,1.45,0,0,1,2075.64,1048.32Z"/><path class="cls-8" d="M1830,1376.43a1.41,1.41,0,0,1-1.18-.63c-47.17-68.83-63.25-122-47.8-158.08,13.73-32.06,48.4-38,48.75-38.08a1.42,1.42,0,0,1,.46,2.81c-.34.06-33.51,5.81-46.61,36.43-15,35.1,1,87.36,47.55,155.31a1.43,1.43,0,0,1-.37,2A1.45,1.45,0,0,1,1830,1376.43Z"/><path class="cls-9" d="M633.91,724.72v613.43c0,45.14,39.65,81.73,88.56,81.73H1752.53c48.91,0,88.56-36.59,88.56-81.73V724.72Z"/><path class="cls-10" d="M1539.92,542.07,1278.1,383.65c-25.47-15.41-55.73-15.41-81.2,0L935.08,542,632.66,725,935.08,907.44l302.42,182.48,302.42-182.68L1842.34,725Z"/><g class="cls-11"><path class="cls-12" d="M657.56,1393.37a2.08,2.08,0,0,1-1.4-.53,2.11,2.11,0,0,1-.18-3l377.19-424.37a2.12,2.12,0,0,1,3.17,2.81L659.15,1392.66A2.12,2.12,0,0,1,657.56,1393.37Z"/><path class="cls-12" d="M1817.44,1393.37a2.12,2.12,0,0,1-1.59-.71L1438.66,968.29a2.12,2.12,0,1,1,3.17-2.81L1819,1389.85a2.11,2.11,0,0,1-.18,3A2.08,2.08,0,0,1,1817.44,1393.37Z"/></g><path class="cls-13" d="M1635.39,1103.38s-12.44-14.91,4.47-24.1,43.47.89,46.83,20.44,20.16,7.94,27.49,3.66,27.79-10.08,33,12.21c2.06,8.84-.54,20.12,3.29,28.34,5.27,11.31,22.45,8.39,31.83,12.71,12.19,5.63,18.56,16.51,12.22,29.2-9.77,19.54-29,32-18.63,49s-31.46,55.18-45.81,19.75-36.65-29.43-54.67-31.66-27.18-17.82-22.29-33.7-1.53-25.34-8.24-32.06S1615.54,1121.4,1635.39,1103.38Z"/><path class="cls-14" d="M1609.22,1293.45s-13.56,2.11-28.81,12.3a7.61,7.61,0,0,0-3.36,7.27c1.83,14.46,9.34,61.28,34.1,107a11.52,11.52,0,0,1,1.1,7.9l-4.3,20-8,7.48h20.55l13.68-37-5.85-1.85a11.07,11.07,0,0,1-7.73-10.37l-.69-39.71c.59-17.7-10.85-29.91-10.85-29.91l32.82-1.59Z"/><path class="cls-15" d="M1592,1459c-1.87,2.45,20.14,5.68,31.26.32,0,0,15.42-26.82,15.42-40.63,0,0-1.23-2.81-10.28-2.17,0,0-5.18,31.75-10.64,35.31s-15.29.36-15.29.36S1594.71,1455.43,1592,1459Z"/><path class="cls-16" d="M1637.75,1337.16c-.18-.31-35.33-4.23-35.33-4.23s1.15,10.69-2.45,25.4-55.21,78.47-55.21,78.47l5.41,17.16c-16.73,5.83-33.19,6.76-49.39,3l33.54-20.13s31.39-107,50.62-126.06l35.24-12.19Z"/><path class="cls-17" d="M1716.59,1274.91s20.26,30.13,21.92,43.87-5.55,19.33-26.8,20.25-78,.9-78,.9l-48.43-41.38s35.29-12.59,44.47-16.15S1716.59,1274.91,1716.59,1274.91Z"/><path class="cls-18" d="M1548.13,1448.18s5.82,5.64,1.89,11.92c0,0-46.16,8.18-58.69,4.47,0,0,2.6-5.94,16.71-12.7l-1,.8a1.69,1.69,0,0,0,1.11,3C1517.41,1455.16,1536.66,1453.46,1548.13,1448.18Z"/><path class="cls-19" d="M1661.81,1270.92s-23.58-22.46-35.19-37.33a31.57,31.57,0,0,1-5.35-28.41c5.3-17.86,14.72-36.35,15.58-39.23,1.32-4.42,27.77-4.23,27.77-4.23s52,33.77,72.49,91l-23,7.15s-13.59-22.8-27-37.29c0,0,23.23,30.69,24,43.25Z"/><path class="cls-20" d="M1633.65,1141.29c.28.91,7.18,23.8,7.72,24.27s15.14,1.26,22-3.43l-11.66-24.41Z"/><path class="cls-21" d="M1645,1093.22s-12.46,5.26-20.93,23.27-2.15,26.32,5.8,27.46,19.83,1,32.41-10.66S1661.19,1087,1645,1093.22Z"/><path class="cls-22" d="M1653.81,1123.68s9.41-26.35-14-26.66l-5.5,3.84s-8.57-14.61,5.5-21.58,35.05-.76,41,18.19,2.48,31.19-7.48,40.25-14.06-1.21-14.06-1.21,5.42-8.48,3.22-13-7.3.94-7.3.94Z"/><path class="cls-23" d="M1651.33,1127.88s4.75-13.57,11.09-8.16-5.15,12.53-9.65,14.84Z"/><path class="cls-24" d="M1613.76,1272.59l17.33-16.7,24,10.13s23.87,3.69,37.52,0l13.66-3.7,30.87-9.61,4.84,13.7a8.25,8.25,0,0,1-3,9.48,55.05,55.05,0,0,1-7.79,4.85c-4.07,1.78-100.2-1.23-100.2-1.23Z"/><g class="cls-11"><path class="cls-6" d="M1739.65,1125.27l-.82-.08c.71-6.56-.37-10.92-3.33-13.35-5.85-4.83-18-1-28.7,2.27-5.43,1.69-10.55,3.28-14.14,3.47a8.19,8.19,0,0,1-6.54-2.17c-2.92-2.9-2.71-7.61-2.7-7.8l.83,0s-.2,4.54,2.45,7.18a7.43,7.43,0,0,0,5.91,1.93c3.49-.19,8.57-1.76,13.94-3.43,10.91-3.39,23.28-7.23,29.48-2.13C1739.21,1113.82,1740.4,1118.43,1739.65,1125.27Z"/></g><g class="cls-11"><path class="cls-6" d="M1765.16,1224c-1.93-7.93,3.28-14.64,9.32-22.39,4.34-5.59,9.26-11.92,11.89-19.52a11.13,11.13,0,0,0-.81-9.9c-5.61-9.16-24.25-11.83-24.44-11.85l.11-.82c.78.11,19.22,2.75,25,12.24a11.92,11.92,0,0,1,.89,10.6c-2.68,7.73-7.64,14.12-12,19.75-5.9,7.59-11,14.15-9.16,21.69Z"/></g><rect class="cls-25" x="1672.05" y="1359.28" width="9.13" height="98.72"/><path class="cls-26" d="M1716.59,1459.9h-79.95a5.94,5.94,0,0,1,5.94-5.94h68.07a5.94,5.94,0,0,1,5.94,5.94Z"/><rect class="cls-27" x="1627.93" y="1337.16" width="100.53" height="28.51" rx="9.82"/><path class="cls-28" d="M1679.34,1280.47h-.23l-100.53-.11a4.5,4.5,0,0,1,0-9l100.53.11a4.5,4.5,0,0,1,.22,9Z"/><path class="cls-29" d="M1488.21,1189.19h83.72a16,16,0,0,1,14.44,9.15l38.7,82.07H1521a9.7,9.7,0,0,1-9-6.13l-30-75.94A6.69,6.69,0,0,1,1488.21,1189.19Z"/><path class="cls-30" d="M1819.85,1284.14a3.74,3.74,0,0,0-.88-3.22,4.26,4.26,0,0,0-3.2-1.41H1396.28a4.89,4.89,0,0,0-4,2.06,4.26,4.26,0,0,0-.31,4.29l4.55,9.23a6.4,6.4,0,0,0,5.78,3.46H1812.9a4.75,4.75,0,0,0,4.73-3.66Z"/><path class="cls-31" d="M1419.79,1478.52a3.54,3.54,0,0,1-1.45-.31,3.8,3.8,0,0,1-1.93-5l77.21-183.63a3.65,3.65,0,0,1,4.83-2,3.81,3.81,0,0,1,1.93,4.95l-77.21,183.64A3.67,3.67,0,0,1,1419.79,1478.52Z"/><path class="cls-32" d="M1506.77,1478.52a3.68,3.68,0,0,1-3.39-2.28l-77.2-183.64a3.79,3.79,0,0,1,1.92-4.95,3.65,3.65,0,0,1,4.84,2l77.21,183.63a3.8,3.8,0,0,1-1.93,5A3.57,3.57,0,0,1,1506.77,1478.52Z"/><path class="cls-33" d="M1723.83,1478.52a3.62,3.62,0,0,1-1.46-.31,3.8,3.8,0,0,1-1.92-5l77.2-183.63a3.66,3.66,0,0,1,4.84-2,3.81,3.81,0,0,1,1.93,4.95l-77.21,183.64A3.68,3.68,0,0,1,1723.83,1478.52Z"/><path class="cls-34" d="M1810.8,1478.52a3.68,3.68,0,0,1-3.38-2.28l-77.21-183.64a3.81,3.81,0,0,1,1.93-4.95,3.65,3.65,0,0,1,4.84,2l77.2,183.63a3.8,3.8,0,0,1-1.92,5A3.62,3.62,0,0,1,1810.8,1478.52Z"/><g class="cls-35"><path class="cls-6" d="M1613,427.88H768c-14.9,0-27.24,12.92-27.24,27.83v685.72h993.44V551Z"/><path class="cls-4" d="M1733.75,551l-110.88,1a9.81,9.81,0,0,1-7.33-3.19c-2.09-2.08-2.3-4.89-2.3-7.83V428.72Z"/><path class="cls-36" d="M1456.66,750.44q0,38.67-12.35,70.75t-34.91,50.35q-22.56,18.27-52.37,18.26-19.86,0-35.17-9.53a54.57,54.57,0,0,1-22-25.11h-4.3q-29,34.65-73.85,34.64-47.52,0-74.92-28.59t-27.39-78.28q0-56.67,36-91.3t94-34.64a324.58,324.58,0,0,1,50.89,4.43Q1328,665.85,1346,672l-6.17,131.32q0,37.32,20.41,37.32,17.17,0,27.39-25.1t10.2-65.66q0-43.23-18-76.4a122.16,122.16,0,0,0-50.62-50.62q-32.62-17.45-74.52-17.45-54.24,0-94.25,22.29T1099.11,692q-21.34,42-21.35,97.07,0,74.11,39.61,113.73t114.8,39.61q28.45,0,62.56-6.31a414.58,414.58,0,0,0,67.14-18.4v51.56q-57.46,24.44-127.56,24.44-102,0-159.1-53.71t-57.06-149.3q0-66.33,29.13-120.44t83-84.86q53.84-30.75,123.93-30.74,59.07,0,105.53,24.16t71.7,68.75Q1456.67,692.17,1456.66,750.44Zm-275,33.56q0,56.67,46.19,56.66,24.17,0,36.79-17t15.3-55.45l3.5-59.35a147.08,147.08,0,0,0-30.89-2.95q-33.55,0-52.23,20.95T1181.68,784Z"/></g><path class="cls-5" d="M1796.88,423.48c-1.21-104.16,82.56-189.89,186.72-191.09a187.71,187.71,0,0,1,107.26,31.9l10.74-10.89a5.53,5.53,0,0,1,9.27,2.42l18.78,68.28a5.52,5.52,0,0,1-6.72,6.81L2054.4,313a5.55,5.55,0,0,1-2.54-9.25l12.1-12.28A150.74,150.74,0,0,0,1984,269.75c-83.51,1-150.67,69.66-149.71,153.13s69.7,150.5,153.21,149.53a151.94,151.94,0,0,0,149.71-150.19c0-2.88,2.27-6.11,5.45-6.15l26.4-.31c1.7,0,2.94,1.24,3.75,2.08l.22.22a7.15,7.15,0,0,1,1.64,4.64A189.15,189.15,0,0,1,1988,610.2C1883.81,611.4,1798.08,527.64,1796.88,423.48Zm328.88-97.94a1.49,1.49,0,0,0-.05-.36l-18.79-68.28a1.43,1.43,0,0,0-2.41-.62l-13.14,13.31-1.41-1a183.62,183.62,0,0,0-106.31-32.15c-101.91,1.18-183.86,85-182.68,187s85,183.86,187,182.68a185.05,185.05,0,0,0,182.69-183.44h0a3.32,3.32,0,0,0-.46-1.74l-.22-.23a6.46,6.46,0,0,0-.94-.84l-26.25.3c-.56,0-1.4,1.12-1.41,2.1A156,156,0,0,1,1987.58,576.5c-85.77,1-156.36-67.9-157.35-153.58s68-156.27,153.75-157.26a154.9,154.9,0,0,1,84.33,23.72l2.16,1.36-15.69,15.92a1.48,1.48,0,0,0-.37,1.4,1.45,1.45,0,0,0,1,1L2124,327a1.43,1.43,0,0,0,1.8-1.41Z"/><path class="cls-5" d="M1928.07,458.46h-54.44V447l19.55-19.76q8.68-8.89,11.35-12.33a27.26,27.26,0,0,0,3.83-6.36,16.27,16.27,0,0,0,1.17-6.08c0-3.12-.86-5.45-2.58-7a10,10,0,0,0-6.9-2.29,19.88,19.88,0,0,0-8.78,2.07,45.64,45.64,0,0,0-8.9,5.91l-8.95-10.59a58.16,58.16,0,0,1,9.54-6.93,34.6,34.6,0,0,1,8.25-3.11,42.15,42.15,0,0,1,10-1.1,29.54,29.54,0,0,1,12.89,2.67,20.57,20.57,0,0,1,8.69,7.45,19.84,19.84,0,0,1,3.09,11,27.06,27.06,0,0,1-1.89,10.09,39.41,39.41,0,0,1-5.86,9.67q-4,4.95-14,14.11l-10,9.43v.74h33.93Z"/><path class="cls-5" d="M1992.09,442.32h-9.37v16.14h-16.09V442.32H1933.4V430.87l34.14-50.28h15.18v49h9.37Zm-25.46-12.78V416.33q0-3.3.27-9.59t.42-7.29h-.42a60.74,60.74,0,0,1-4.74,8.52l-14.28,21.57Z"/><path class="cls-5" d="M2038.32,380.59l-29,77.87h-14.76l29-77.87Z"/><path class="cls-5" d="M2051,458.46l29.24-63.91h-38.4V380.7h55.87V391l-29.45,67.43Z"/><path class="cls-37" d="M2083.84,770l.52,6.32v0a1.09,1.09,0,1,0,2.18-.18h0l-.59-6.38a1.06,1.06,0,0,0-1.15-1,1.08,1.08,0,0,0-1,1.15Z"/><path class="cls-38" d="M2084.92,791.15l0,6.34v0a1.19,1.19,0,0,0,1.19,1.21,1.21,1.21,0,0,0,1.22-1.2h0l0-6.4a1.17,1.17,0,0,0-2.34,0Z"/><path class="cls-39" d="M2084.18,812.28l-.57,6.31v0a1.32,1.32,0,0,0,2.62.23h0l.51-6.39a1.28,1.28,0,0,0-2.55-.22Z"/><path class="cls-40" d="M2081.67,833.27l-1.09,6.24v0a1.42,1.42,0,1,0,2.8.48h0l1-6.33a1.39,1.39,0,0,0-2.75-.46Z"/><path class="cls-41" d="M2077.46,854l-1.58,6.13v0a1.53,1.53,0,1,0,3,.77v0l1.53-6.21a1.5,1.5,0,0,0-2.91-.74Z"/><path class="cls-42" d="M2071.64,874.28l-2,6v0a1.64,1.64,0,1,0,3.1,1.06h0l2-6.09a1.61,1.61,0,0,0-3-1Z"/><path class="cls-43" d="M2064.27,894.08l-2.5,5.82,0,0a1.75,1.75,0,1,0,3.22,1.38h0l2.47-5.93a1.72,1.72,0,0,0-3.16-1.34Z"/><path class="cls-44" d="M2055.43,913.26l-2.93,5.62,0,0a1.86,1.86,0,1,0,3.3,1.72v0l2.91-5.71a1.85,1.85,0,0,0-.8-2.46,1.83,1.83,0,0,0-2.45.78Z"/><path class="cls-45" d="M2045.18,931.72l-3.33,5.38,0,0a2,2,0,0,0,3.35,2.07v0l3.33-5.49a1.93,1.93,0,0,0-3.3-2Z"/><path class="cls-46" d="M2033.6,949.36l-3.72,5.11,0,0a2.08,2.08,0,0,0,3.36,2.45v0l3.73-5.23a2,2,0,0,0-3.32-2.39Z"/><path class="cls-47" d="M2020.74,966.08l-4.09,4.82,0,0a2.19,2.19,0,1,0,3.33,2.84v0l4.11-4.94a2.15,2.15,0,0,0-3.29-2.77Z"/><path class="cls-48" d="M2006.67,981.77l-4.45,4.5,0,0a2.29,2.29,0,0,0,3.26,3.23l0,0,4.48-4.62a2.26,2.26,0,0,0-3.23-3.17Z"/><path class="cls-49" d="M1991.44,996.34l-4.78,4.13-.05,0a2.41,2.41,0,0,0,3.15,3.64h0l4.82-4.26a2.37,2.37,0,0,0-3.12-3.57Z"/><path class="cls-50" d="M1975.13,1009.66l-5.09,3.73,0,0a2.52,2.52,0,0,0,3,4.06l0,0,5.14-3.85a2.48,2.48,0,0,0-3-4Z"/><path class="cls-51" d="M1957.82,1021.62l-5.37,3.31,0,0a2.59,2.59,0,0,0,2.72,4.42h0l5.46-3.41a2.58,2.58,0,0,0-2.71-4.38Z"/><path class="cls-52" d="M1939.61,1032.12,1934,1035l-.07,0a2.66,2.66,0,1,0,2.4,4.74h0l5.73-2.93a2.64,2.64,0,0,0-2.39-4.7Z"/><path class="cls-53" d="M1920.58,1041l-5.85,2.34-.07,0a2.71,2.71,0,1,0,2,5h0l6-2.43a2.7,2.7,0,0,0-2-5Z"/><path class="cls-54" d="M1900.85,1048.25l-6,1.87-.07,0a2.77,2.77,0,0,0,1.64,5.3h0l6.14-1.94a2.75,2.75,0,0,0-1.64-5.26Z"/><path class="cls-55" d="M1880.59,1053.91l-6.16,1.38-.06,0a2.84,2.84,0,0,0,1.25,5.54h0l6.27-1.46a2.82,2.82,0,0,0-1.26-5.5Z"/><path class="cls-56" d="M1860,1058l-6.24.93h-.07a2.9,2.9,0,0,0,.85,5.74h0l6.36-1a2.88,2.88,0,0,0-.86-5.7Z"/><path class="cls-57" d="M1839.08,1060.55l-6.3.47h-.06a3,3,0,1,0,.45,5.9h0l6.41-.52a2.94,2.94,0,0,0-.46-5.87Z"/><path class="cls-58" d="M1818.06,1061.63l-6.31,0h-.06a3,3,0,0,0,0,6h0l6.44-.09a3,3,0,0,0-.07-6Z"/><path class="cls-59" d="M1797,1061.32l-6.3-.36h-.06a3.08,3.08,0,0,0-.35,6.16h0l6.43.33a3.07,3.07,0,0,0,.32-6.13Z"/><path class="cls-60" d="M1776,1059.68l-6.28-.74h0a3.15,3.15,0,0,0-.74,6.25h0l6.39.71a3.13,3.13,0,0,0,.72-6.21Z"/><path class="cls-61" d="M1755.15,1056.79l-6.22-1.1h-.06a3.21,3.21,0,0,0-1.11,6.32h0l6.33,1.08a3.19,3.19,0,0,0,1.1-6.28Z"/><path class="cls-62" d="M1734.48,1052.72l-6.15-1.44h0a3.27,3.27,0,1,0-1.49,6.37h0l6.26,1.43a3.25,3.25,0,0,0,1.46-6.33Z"/><path class="cls-63" d="M1714.05,1047.55l-6.08-1.77h0a3.33,3.33,0,0,0-1.85,6.39h0l6.19,1.76a3.31,3.31,0,0,0,1.83-6.37Z"/><path class="cls-64" d="M1693.9,1041.31l-6-2.06,0,0a3.39,3.39,0,0,0-2.22,6.41h0l6.09,2.06a3.37,3.37,0,0,0,2.18-6.38Z"/><path class="cls-65" d="M1674.1,1034.09l-5.87-2.36,0,0a3.45,3.45,0,0,0-2.57,6.41h0l6,2.36a3.44,3.44,0,0,0,2.54-6.39Z"/><path class="cls-66" d="M1654.66,1025.91l-5.75-2.63-.05,0a3.52,3.52,0,0,0-2.92,6.4h0l5.86,2.64a3.49,3.49,0,0,0,2.89-6.36Z"/><path class="cls-67" d="M1635.64,1016.82l-5.63-2.9,0,0a3.58,3.58,0,1,0-3.28,6.36h0l5.74,2.92a3.56,3.56,0,0,0,3.24-6.34Z"/><path class="cls-68" d="M1617,1006.87l-5.49-3.14,0,0a3.6,3.6,0,0,0-3.57,6.26h0l5.57,3.17a3.59,3.59,0,0,0,3.55-6.25Z"/><path class="cls-69" d="M1598.85,996.16l-5.37-3.35,0,0a3.62,3.62,0,0,0-3.83,6.15h0l5.45,3.39a3.61,3.61,0,0,0,3.81-6.14Z"/><path class="cls-70" d="M1581.08,984.75l-5.26-3.54,0,0a3.64,3.64,0,1,0-4.07,6h0l5.33,3.58a3.63,3.63,0,1,0,4-6Z"/><path class="cls-71" d="M1563.71,972.72l-5.13-3.72,0,0a3.66,3.66,0,0,0-4.3,5.92h0l5.19,3.75a3.65,3.65,0,1,0,4.28-5.92Z"/><path class="cls-72" d="M1546.74,960.12l-5-3.88,0,0a3.68,3.68,0,0,0-4.51,5.82h0l5.07,3.92a3.68,3.68,0,1,0,4.49-5.82Z"/><path class="cls-73" d="M1530.15,947l-4.9-4h0a3.7,3.7,0,1,0-4.69,5.72h0l5,4.06a3.7,3.7,0,0,0,4.68-5.73Z"/><path class="cls-74" d="M1513.92,933.44l-4.81-4.15,0,0a3.72,3.72,0,0,0-4.86,5.64h0l4.86,4.18a3.71,3.71,0,1,0,4.84-5.63Z"/><path class="cls-75" d="M1498,919.47l-4.71-4.26h0a3.74,3.74,0,1,0-5,5.55h0L1493,925a3.74,3.74,0,0,0,5-5.55Z"/><path class="cls-76" d="M1482.42,905.16l-4.63-4.36h0a3.76,3.76,0,1,0-5.16,5.48h0l4.66,4.37a3.76,3.76,0,1,0,5.15-5.47Z"/><path class="cls-77" d="M1467.09,890.54l-4.55-4.44h0a3.78,3.78,0,0,0-5.28,5.42h0l4.59,4.46a3.78,3.78,0,0,0,5.26-5.42Z"/><path class="cls-78" d="M1452,875.66l-4.49-4.52h0a3.81,3.81,0,0,0-5.4,5.37h0l4.52,4.53a3.8,3.8,0,1,0,5.37-5.37Z"/><path class="cls-79" d="M1437.1,860.55l-4.43-4.57h0a3.83,3.83,0,1,0-5.49,5.33h0l4.46,4.58a3.82,3.82,0,1,0,5.47-5.33Z"/><path class="cls-80" d="M1422.38,845.28l-4.4-4.62a3.84,3.84,0,1,0-5.58,5.28v0l4.42,4.62a3.84,3.84,0,0,0,5.55-5.3Z"/><path class="cls-81" d="M1407.78,829.86l-4.36-4.65a3.86,3.86,0,0,0-5.65,5.27v0l4.38,4.65a3.86,3.86,0,0,0,5.62-5.29Z"/><path class="cls-82" d="M1393.27,814.34l-4.33-4.67a3.88,3.88,0,1,0-5.7,5.28h0l4.35,4.66a3.87,3.87,0,1,0,5.67-5.28Z"/><path class="cls-83" d="M1378.82,798.75l-4.33-4.68a3.91,3.91,0,0,0-5.74,5.3h0l4.35,4.68a3.9,3.9,0,0,0,5.71-5.31Z"/><path class="cls-84" d="M1364.38,783.15l-4.34-4.68a3.93,3.93,0,0,0-5.76,5.34h0l4.34,4.66a3.92,3.92,0,1,0,5.75-5.33Z"/><path class="cls-85" d="M1349.9,767.57l-4.35-4.66a3.94,3.94,0,0,0-5.77,5.38h0l4.36,4.65a3.94,3.94,0,1,0,5.75-5.38Z"/><path class="cls-86" d="M1335.35,752.05l-4.38-4.64a4,4,0,0,0-5.77,5.45h0l4.38,4.62a4,4,0,1,0,5.75-5.44Z"/><path class="cls-87" d="M1320.69,736.62l-4.43-4.6a4,4,0,0,0-5.74,5.52h0l4.42,4.58h0a4,4,0,0,0,5.73-5.52Z"/><path class="cls-88" d="M1305.88,721.32l-4.48-4.55a4,4,0,1,0-5.72,5.62h0l4.47,4.53h0a4,4,0,0,0,5.7-5.62Z"/><path class="cls-89" d="M1290.87,706.2l-4.55-4.5a4,4,0,0,0-5.66,5.73h0l0,0,4.53,4.46h0a4,4,0,0,0,5.65-5.72Z"/><path class="cls-90" d="M1275.63,691.29l-4.62-4.42a4,4,0,1,0-5.6,5.84h0l4.59,4.39h0a4,4,0,1,0,5.58-5.84Z"/><path class="cls-91" d="M1260.12,676.66l-4.72-4.34a4,4,0,0,0-5.46,5.95h0l4.68,4.31h0a4,4,0,1,0,5.47-5.94Z"/><path class="cls-92" d="M1244.29,662.34l-4.81-4.23a4,4,0,1,0-5.31,6l0,0,4.76,4.2,0,0a4,4,0,1,0,5.32-6Z"/><path class="cls-93" d="M1228.13,648.38l-4.91-4.11a4,4,0,1,0-5.14,6.14l0,0,4.86,4.07,0,0a4,4,0,0,0,5.15-6.14Z"/><path class="cls-94" d="M1211.63,634.83l-5-4a4,4,0,0,0-4.95,6.26h0l5,3.94,0,0a4,4,0,0,0,5-6.25Z"/><path class="cls-95" d="M1194.74,621.75l-5.14-3.82a4,4,0,1,0-4.74,6.38h0l5.08,3.79,0,0a4,4,0,1,0,4.76-6.37Z"/><path class="cls-96" d="M1177.45,609.19l-5.27-3.65a4,4,0,1,0-4.51,6.5l0,0,5.19,3.61,0,0a4,4,0,1,0,4.52-6.5Z"/><path class="cls-97" d="M1159.74,597.21l-5.4-3.48a3.94,3.94,0,0,0-4.27,6.63l0,0,5.32,3.44,0,0a3.95,3.95,0,1,0,4.28-6.63Z"/><path class="cls-98" d="M1141.59,585.86l-5.53-3.27a3.93,3.93,0,0,0-4,6.76l0,0,5.44,3.23,0,0a3.93,3.93,0,0,0,4-6.76Z"/><path class="cls-99" d="M1123,575.2l-5.64-3.06a3.91,3.91,0,0,0-3.74,6.87l0,0,5.56,3,0,0a3.91,3.91,0,0,0,3.75-6.87Z"/><path class="cls-100" d="M1104.11,565.23l-5.74-2.86a3.9,3.9,0,0,0-3.47,7h0l5.67,2.83,0,0a3.9,3.9,0,0,0,3.48-7Z"/><path class="cls-101" d="M1084.84,556,1079,553.3a3.88,3.88,0,1,0-3.2,7.07l0,0,5.76,2.62h0a3.88,3.88,0,1,0,3.22-7.07Z"/><path class="cls-102" d="M1065.25,547.37l-5.94-2.43a3.86,3.86,0,1,0-2.93,7.15h0l5.86,2.41,0,0a3.87,3.87,0,0,0,3-7.16Z"/><path class="cls-103" d="M1045.37,539.5l-6-2.22a3.85,3.85,0,1,0-2.67,7.22h0l5.94,2.2,0,0a3.86,3.86,0,0,0,2.68-7.23Z"/><path class="cls-104" d="M1025.21,532.34l-6.09-2a3.83,3.83,0,1,0-2.4,7.28h0l6,2h0a3.84,3.84,0,1,0,2.42-7.28Z"/><path class="cls-105" d="M1004.82,525.89l-6.17-1.79a3.82,3.82,0,1,0-2.13,7.33h0l6.09,1.78h0a3.82,3.82,0,1,0,2.15-7.34Z"/><path class="cls-106" d="M984.2,520.17,978,518.59a3.8,3.8,0,1,0-1.86,7.37h0l6.14,1.56,0,0a3.81,3.81,0,0,0,1.88-7.38Z"/><path class="cls-107" d="M963.4,515.17l-6.27-1.36a3.79,3.79,0,0,0-1.6,7.41h0l6.19,1.35h0a3.79,3.79,0,0,0,1.61-7.41Z"/><path class="cls-108" d="M942.44,510.91l-6.31-1.14a3.77,3.77,0,0,0-1.34,7.43h0l6.23,1.13h0a3.78,3.78,0,0,0,1.35-7.43Z"/><path class="cls-109" d="M921.34,507.39l-6.35-.92a3.76,3.76,0,0,0-1.07,7.44h0l6.27.91h0a3.76,3.76,0,0,0,1.08-7.44Z"/><path class="cls-110" d="M900.14,504.61l-6.38-.69a3.74,3.74,0,0,0-.8,7.44h0l6.3.69h0a3.74,3.74,0,1,0,.81-7.44Z"/><path class="cls-111" d="M878.85,502.58l-6.4-.46a3.72,3.72,0,1,0-.54,7.43h0l6.32.46h0a3.73,3.73,0,1,0,.55-7.44Z"/><path class="cls-112" d="M857.5,501.31l-6.42-.23a3.71,3.71,0,1,0-.27,7.41h0l6.33.24h0a3.71,3.71,0,0,0,.28-7.42Z"/><path class="cls-113" d="M836.12,500.8H829.7a3.69,3.69,0,0,0,0,7.38h0l6.34,0h0a3.7,3.7,0,0,0,0-7.4Z"/><path class="cls-114" d="M814.74,501.06l-6.42.23a3.68,3.68,0,0,0,.27,7.35h0l6.33-.22h0a3.68,3.68,0,1,0-.25-7.36Z"/><path class="cls-115" d="M793.38,502.09l-6.4.47a3.66,3.66,0,1,0,.53,7.3h0l6.32-.45h0a3.67,3.67,0,0,0-.52-7.32Z"/><path class="cls-116" d="M772.07,503.91l-6.38.69a3.65,3.65,0,1,0,.8,7.25h0l6.3-.68h0a3.65,3.65,0,1,0-.78-7.26Z"/><path class="cls-117" d="M750.84,506.51l-6.34.93a3.63,3.63,0,1,0,1,7.18h0l6.27-.91h0a3.64,3.64,0,0,0-1-7.2Z"/><path class="cls-118" d="M729.72,509.91l-6.31,1.19a3.62,3.62,0,0,0,1.34,7.11h0L731,517h0a3.62,3.62,0,0,0-1.33-7.12Z"/><path class="cls-119" d="M708.75,514.2l-6.26,1.47a3.6,3.6,0,1,0,1.65,7h0l6.16-1.44h0a3.6,3.6,0,0,0-1.64-7Z"/><path class="cls-120" d="M688,519.43l-6.19,1.76a3.59,3.59,0,0,0,2,6.9l0,0,6.09-1.72h.05a3.59,3.59,0,0,0-2-6.91Z"/><path class="cls-121" d="M667.48,525.67l-6.09,2.08a3.54,3.54,0,1,0,2.29,6.7h0l6-2h0a3.56,3.56,0,1,0-2.27-6.74Z"/><path class="cls-122" d="M647.32,533l-6,2.41a3.49,3.49,0,0,0,2.62,6.48h0l5.87-2.34,0,0a3.51,3.51,0,0,0-2.6-6.52Z"/><path class="cls-123" d="M627.59,541.42l-5.82,2.76a3.45,3.45,0,0,0,3,6.23l0,0,5.72-2.68.06,0a3.46,3.46,0,1,0-2.95-6.27Z"/><path class="cls-124" d="M608.4,551.05l-5.63,3.13a3.4,3.4,0,0,0,3.31,6l0,0,5.52-3,.06,0a3.41,3.41,0,1,0-3.29-6Z"/><path class="cls-125" d="M589.88,561.94l-5.4,3.53a3.36,3.36,0,1,0,3.67,5.62l.05,0,5.29-3.42.06,0a3.37,3.37,0,0,0-3.65-5.66Z"/><path class="cls-126" d="M572.19,574.16l-5.13,3.92a3.31,3.31,0,1,0,4,5.25l0,0,5-3.8.07,0a3.32,3.32,0,0,0-4-5.29Z"/><path class="cls-127" d="M555.49,587.72l-4.79,4.34a3.26,3.26,0,1,0,4.38,4.83l0,0,4.68-4.21.06,0a3.28,3.28,0,0,0-4.37-4.88Z"/><path class="cls-128" d="M540,602.64l-4.4,4.74a3.21,3.21,0,1,0,4.71,4.37l.05,0,4.3-4.59.06-.06a3.23,3.23,0,1,0-4.71-4.42Z"/><path class="cls-129" d="M525.82,618.88l-4,5.14a3.17,3.17,0,1,0,5,3.85l.05-.06,3.84-5,.06-.07a3.18,3.18,0,1,0-5-3.9Z"/><path class="cls-130" d="M513.3,636.45l-3.4,5.5a3.12,3.12,0,0,0,5.31,3.28l0-.07,3.32-5.32,0-.08a3.13,3.13,0,1,0-5.31-3.32Z"/><path class="cls-131" d="M502.61,655.16,499.77,661a3.07,3.07,0,1,0,5.52,2.7l0-.07,2.79-5.63,0-.08a3.09,3.09,0,1,0-5.53-2.74Z"/><path class="cls-132" d="M493.78,674.8l-2.29,6.05a3,3,0,0,0,5.66,2.14l0-.07,2.25-5.87,0-.08a3,3,0,1,0-5.68-2.18Z"/><path class="cls-133" d="M486.81,695.17l-1.72,6.21a3,3,0,1,0,5.74,1.59l0-.06,1.71-6,0-.08a3,3,0,1,0-5.76-1.62Z"/><path class="cls-134" d="M481.7,716.05l-1.17,6.35a2.93,2.93,0,1,0,5.76,1.07v-.07l1.18-6.19v-.07a2.95,2.95,0,1,0-5.79-1.1Z"/><path class="cls-135" d="M478.42,737.3l-.63,6.42a2.89,2.89,0,0,0,5.75.56v-.06l.65-6.27v-.07a2.9,2.9,0,1,0-5.77-.59Z"/><path class="cls-136" d="M477,758.74l-.08,6.45a2.84,2.84,0,1,0,5.67.08v-.06l.11-6.31v-.07a2.86,2.86,0,0,0-5.71-.1Z"/><path class="cls-137" d="M477.31,780.23l.45,6.43a2.79,2.79,0,0,0,5.57-.4v-.06l-.42-6.29v-.07a2.81,2.81,0,0,0-5.6.37Z"/><path class="cls-138" d="M479.45,801.6l1,6.37a2.74,2.74,0,1,0,5.42-.85v0l-.94-6.24v-.07a2.76,2.76,0,0,0-5.46.83Z"/><path class="cls-139" d="M483.39,822.72l1.54,6.26a2.7,2.7,0,1,0,5.24-1.28l0-.06-1.47-6.13,0-.07a2.71,2.71,0,1,0-5.27,1.27Z"/><path class="cls-140" d="M489.14,843.42l2.07,6.11a2.65,2.65,0,0,0,5-1.71l0-.06-2-6,0-.06a2.67,2.67,0,1,0-5.06,1.69Z"/><path class="cls-141" d="M496.68,863.53l2.62,5.89a2.61,2.61,0,0,0,4.76-2.12l0,0-2.53-5.77,0-.06a2.62,2.62,0,1,0-4.79,2.1Z"/><path class="cls-142" d="M506,882.87l3.15,5.62a2.56,2.56,0,0,0,4.46-2.5l0-.06-3.06-5.5,0-.07a2.57,2.57,0,1,0-4.49,2.5Z"/><path class="cls-143" d="M517.2,901.23l3.7,5.29a2.48,2.48,0,0,0,4.07-2.83l0-.06-3.58-5.19,0-.06a2.5,2.5,0,0,0-4.12,2.83Z"/><path class="cls-144" d="M530.14,918.4l4.2,4.88a2.39,2.39,0,0,0,3.64-3.11l-.05,0-4.07-4.8-.05-.06a2.42,2.42,0,0,0-3.69,3.13Z"/><path class="cls-145" d="M544.74,934.16l4.69,4.43a2.31,2.31,0,0,0,3.19-3.34l-.06,0L548,930.83l-.06-.05a2.33,2.33,0,0,0-3.23,3.36Z"/><path class="cls-146" d="M560.87,948.35l5.11,3.93a2.22,2.22,0,0,0,2.73-3.51l-.06,0-5-3.89-.06-.05a2.25,2.25,0,0,0-2.77,3.55Z"/><path class="cls-147" d="M578.31,960.86l5.45,3.42a2.14,2.14,0,0,0,2.29-3.62l0,0-5.32-3.4,0,0a2.17,2.17,0,1,0-2.33,3.65Z"/><path class="cls-148" d="M596.85,971.65l5.74,2.89a2.06,2.06,0,0,0,1.87-3.66l-.05,0L598.79,968l0,0a2.08,2.08,0,1,0-1.91,3.7Z"/><path class="cls-149" d="M616.28,980.69l6,2.36a2,2,0,0,0,1.47-3.66l-.05,0L617.82,977l-.05,0a2,2,0,0,0-1.51,3.71Z"/><path class="cls-150" d="M636.42,988l6.16,1.84a1.89,1.89,0,0,0,1.09-3.62l0,0-6.06-1.85,0,0A1.92,1.92,0,1,0,636.4,988Z"/><path class="cls-151" d="M657.11,993.47l6.28,1.31a1.81,1.81,0,0,0,.76-3.54h0l-6.19-1.34h0a1.84,1.84,0,0,0-.78,3.59Z"/><path class="cls-152" d="M678.18,997.21l6.37.77a1.72,1.72,0,0,0,.43-3.42h0l-6.28-.82h0a1.75,1.75,0,1,0-.45,3.47Z"/><path class="cls-153" d="M699.48,999.17l6.41.24a1.64,1.64,0,0,0,.14-3.28h0l-6.33-.29h0a1.67,1.67,0,1,0-.15,3.33Z"/><path class="cls-154" d="M720.86,999.33l6.41-.3a1.56,1.56,0,1,0-.13-3.11h0l-6.33.25h0a1.58,1.58,0,1,0,.12,3.16Z"/><path class="cls-155" d="M742.18,997.68l6.37-.85a1.47,1.47,0,0,0-.38-2.92h0l-6.3.8h0a1.5,1.5,0,0,0,.38,3Z"/><path class="cls-156" d="M763.29,994.19l6.26-1.41a1.39,1.39,0,0,0-.6-2.72h0l-6.19,1.35h0a1.41,1.41,0,1,0,.6,2.76Z"/><path class="cls-157" d="M784,988.83l6.09-2a1.31,1.31,0,0,0-.79-2.49h0l-6,1.9h0a1.34,1.34,0,0,0,.8,2.55Z"/><path class="cls-158" d="M804.07,981.59l5.89-2.54a1.22,1.22,0,0,0-1-2.25h0l-5.84,2.47,0,0a1.24,1.24,0,0,0-.66,1.63,1.26,1.26,0,0,0,1.64.67Z"/><path class="cls-159" d="M823.39,972.45l5.6-3.1a1.14,1.14,0,0,0-1.09-2h0l-5.57,3,0,0a1.17,1.17,0,1,0,1.11,2.05Z"/><path class="cls-160" d="M841.69,961.44l4.13-2.85a1.06,1.06,0,0,0-1.2-1.75h0l-4.1,2.79,0,0a1.08,1.08,0,1,0,1.21,1.79Z"/><path class="cls-5" d="M581.7,542.46a6.54,6.54,0,0,1-6.15-4.34l-9.1-25.71A132.35,132.35,0,0,1,530.76,498l-24.43,12.16a6.51,6.51,0,0,1-7.48-1.2l-25.24-24.83a6.53,6.53,0,0,1-1.32-7.45L484.05,452a132.42,132.42,0,0,1-15-35.45l-25.86-8.68a6.51,6.51,0,0,1-4.44-6.12l-.29-35.42a6.52,6.52,0,0,1,4.34-6.19l25.71-9.1a132.29,132.29,0,0,1,14.46-35.7l-12.16-24.43a6.51,6.51,0,0,1,1.19-7.47l24.84-25.25a6.51,6.51,0,0,1,7.45-1.31l24.63,11.75a132.55,132.55,0,0,1,35.45-15L573,227.73a6.54,6.54,0,0,1,6.12-4.44l35.42-.29h.05a6.51,6.51,0,0,1,6.14,4.35l9.1,25.7a132.42,132.42,0,0,1,35.69,14.46L690,255.36a6.54,6.54,0,0,1,7.47,1.18l25.25,24.84a6.51,6.51,0,0,1,1.31,7.45l-11.75,24.63a132.69,132.69,0,0,1,15,35.45l25.85,8.68a6.54,6.54,0,0,1,4.45,6.12l.29,35.42a6.52,6.52,0,0,1-4.35,6.2l-25.7,9.1a132.55,132.55,0,0,1-14.46,35.69l12.15,24.43a6.51,6.51,0,0,1-1.19,7.47L699.5,507.27a6.5,6.5,0,0,1-7.45,1.31l-24.64-11.75a132.35,132.35,0,0,1-35.44,15l-8.68,25.86a6.53,6.53,0,0,1-6.12,4.44l-35.42.29Zm-50.56-53.83,1.93,1.17A124.46,124.46,0,0,0,570.46,505l2.2.49,10.21,28.83,33-.27,9.73-29,2.19-.53A124.32,124.32,0,0,0,665,488.72l1.91-1.21,27.62,13.18,23.17-23.56L704,449.74l1.18-1.93a124.44,124.44,0,0,0,15.14-37.39l.5-2.2L749.68,398l-.27-33-29-9.73-.54-2.2a124.31,124.31,0,0,0-15.75-37.13L702.93,314l13.17-27.62-23.55-23.17-27.39,13.63-1.93-1.18a124.44,124.44,0,0,0-37.39-15.14l-2.21-.5-10.2-28.83-33,.28-9.73,29-2.2.54a124.25,124.25,0,0,0-37.14,15.75L529.41,278,501.8,264.78l-23.17,23.55,13.62,27.39-1.17,1.93a124.42,124.42,0,0,0-15.15,37.4l-.5,2.2-28.82,10.2.27,33,29,9.73.53,2.2a124.53,124.53,0,0,0,15.76,37.14l1.2,1.91-13.17,27.61,23.56,23.17ZM567.5,257h0Zm30.14,215.85a89.55,89.55,0,0,1-.71-179.09,90.61,90.61,0,0,1,19,1.85,4.09,4.09,0,1,1-1.66,8A81.35,81.35,0,1,0,667.16,341a4.09,4.09,0,1,1,7-4.26A89.55,89.55,0,0,1,598.4,472.85Z"/><path class="cls-5" d="M598.09,418.28a35.54,35.54,0,0,1-8.92-69.93h0a35.54,35.54,0,1,1,8.92,69.93Zm-6.86-62a27.36,27.36,0,1,0,33.39,19.56,27.22,27.22,0,0,0-33.39-19.56Z"/><path class="cls-5" d="M443.59,675.46a4.22,4.22,0,0,1-3.41-1.73l-7.43-10.08a64.68,64.68,0,0,1-17.59-1.59l-9.11,8.6a4.24,4.24,0,0,1-4.88.67l-15.08-7.9a4.22,4.22,0,0,1-2.22-4.38l1.87-12.4a65,65,0,0,1-11.32-13.55l-12.52-.36a4.25,4.25,0,0,1-3.92-3l-5.08-16.26a4.23,4.23,0,0,1,1.54-4.67l10.08-7.43a64.68,64.68,0,0,1,1.59-17.59l-8.6-9.12a4.23,4.23,0,0,1-.68-4.86l7.91-15.1a4.25,4.25,0,0,1,4.39-2.22l12.39,1.88a64.72,64.72,0,0,1,13.55-11.32l.36-12.52a4.24,4.24,0,0,1,3-3.92l16.26-5.08a4.23,4.23,0,0,1,4.67,1.53l7.43,10.08a65.08,65.08,0,0,1,17.59,1.59l9.11-8.6a4.25,4.25,0,0,1,4.87-.67l15.09,7.9a4.25,4.25,0,0,1,2.23,4.39l-1.88,12.39a65,65,0,0,1,11.32,13.55l12.52.37a4.23,4.23,0,0,1,3.92,3l5.08,16.25a4.25,4.25,0,0,1-1.53,4.68L495,595.42A64.6,64.6,0,0,1,493.41,613l8.6,9.12a4.25,4.25,0,0,1,.67,4.87l-7.91,15.09a4.21,4.21,0,0,1-4.38,2.22L478,642.42a64.47,64.47,0,0,1-13.56,11.32l-.36,12.52a4.24,4.24,0,0,1-3,3.92l-16.27,5.08A3.91,3.91,0,0,1,443.59,675.46Zm-.57-6.05ZM435.7,657.3l8.62,11.7L458,664.73l.42-14.52,1.46-.86a59.06,59.06,0,0,0,14.62-12.21l1.1-1.29L490,638l6.64-12.68-10-10.58.42-1.64a58.61,58.61,0,0,0,1.71-19l-.12-1.69,11.7-8.62-4.28-13.67-14.52-.42-.86-1.46a58.88,58.88,0,0,0-12.21-14.62l-1.28-1.1,2.18-14.38-12.69-6.64-10.58,10-1.64-.42a58.9,58.9,0,0,0-19-1.72l-1.69.13-8.61-11.7-13.67,4.27-.43,14.53-1.46.86A58.4,58.4,0,0,0,385,559.69L383.92,561l-14.38-2.18-6.64,12.69,10,10.58-.43,1.64a58.58,58.58,0,0,0-1.71,19l.12,1.69L359.17,613l4.27,13.67,14.52.42.86,1.46A58.7,58.7,0,0,0,391,643.14l1.28,1.11-2.17,14.37,12.68,6.65,10.58-10,1.64.43a58.89,58.89,0,0,0,19,1.71ZM404,665.89h0ZM388.93,658h0Zm108.61-31.66h0Zm-1.87-57.44ZM368.2,558.59h0Zm102.38-19.76Zm-69-8.09Zm-3.07-.09h0Zm18-3.23h0Zm13.14,115.5a44.17,44.17,0,0,1-13.2-86.33,45,45,0,0,1,9.22-1.85,3.07,3.07,0,0,1,.55,6.12A38,38,0,1,0,455,570.37a3.07,3.07,0,1,1,4.08-4.58,44.19,44.19,0,0,1-29.39,77.13Z"/><path class="cls-161" d="M2009,1009s-23.59,22.38-31.39,62.14-26.31-56.21-26.31-56.21h-18.72s-7.06,98.9,45.78,106.76a28.35,28.35,0,0,0,26.47-10.48c9.65-12.25,24.7-34,28.34-54.82C2030,1023.68,2009,1009,2009,1009Z"/><path class="cls-162" d="M2128.84,1467a3.9,3.9,0,0,0-.09-.89c-4.43-17.54-22.53-26.54-22.53-26.54l-8.7.69c-5,15.46-8.23,23-7.43,27.24l.09.34A206.78,206.78,0,0,0,2128.84,1467Z"/><path class="cls-163" d="M2090.18,1467.85a3.78,3.78,0,0,0,2.76,2.79c10.22,2.15,26.45.42,33.27-.47a3.18,3.18,0,0,0,2.63-3.16A206.78,206.78,0,0,1,2090.18,1467.85Z"/><path class="cls-164" d="M2113.39,1426l-3.81,18.35a3,3,0,0,1-2.56,2.46,25.23,25.23,0,0,1-5.91-.09,3.77,3.77,0,0,1-3-4.43l2.65-16.29Z"/><path class="cls-165" d="M2016.23,1467.7c9.29-.26,14.1-1.36,16.59-2.37,0,.92,0,1.86,0,2.84A1.84,1.84,0,0,1,2031,1470l-51-.33a2.32,2.32,0,0,1-1.87-3.39C1984.81,1466.86,2001.86,1468.1,2016.23,1467.7Z"/><path class="cls-166" d="M1978.12,1466.31a2,2,0,0,1,.2-.38c4.51-6.3,16-18.84,38.68-24.28l10.88-.35s4.84,8.43,4.94,24c-2.49,1-7.3,2.11-16.59,2.37C2001.86,1468.1,1984.81,1466.86,1978.12,1466.31Z"/><path class="cls-167" d="M2029.9,1424.81c-.12.81-1.62,13.14-2.19,17.92a2.36,2.36,0,0,1-2,2.14,24.94,24.94,0,0,1-7.48-.12,3.23,3.23,0,0,1-2.44-3.23v-19.35Z"/><path class="cls-168" d="M2106.12,1185.13s17.41,154.8,7.74,251.55c0,0-11.61,0-17.42-1.93,0,0-18.09-151.36-24-194.67a1.45,1.45,0,0,0-2.87-.09c-7.22,36.44-35.59,179.33-39,192.82,0,0-9.67,3.87-17.41,0,0,0,15.48-207,27.09-243.81Z"/><path class="cls-169" d="M2141,1005.17s-73.53-11.61-131.58,3.87l3.87,60s15.48,83.21,27.09,120c0,0,44.5,7.74,65.79-3.87,0,0,17.41-104.49,27.09-120C2133.21,1065.16,2142.89,1024.52,2141,1005.17Z"/><path class="cls-170" d="M2089.35,942l7.84,59.82s-20.46,9.4-34.79-.41l3.08-35Z"/><path class="cls-171" d="M2141,1005.17s114.17,123.85-20.32,171.25v-9.67s50.31-42.57,11.61-100.62C2132.24,1066.13,2137.08,1011,2141,1005.17Z"/><path class="cls-172" d="M2119.66,1167.72s-17.41-11.61-25.15-7.74-7.74,9.67-7.74,9.67,3.87,7.74,9.67,5.81,19.35,1.93,25.16,0C2121.6,1175.46,2123.53,1167.72,2119.66,1167.72Z"/><path class="cls-173" d="M1931.41,952.42l24.57,8.27c3,.9,5,3.9,5.26,7.72l-1.28,41c.4,6.42-4.89,12.07-9.89,10.57l-19.7-6.71c-1.92-.58-3.19-2.59-3.21-5.08l-.43-51C1926.7,954.19,1929.14,951.73,1931.41,952.42Z"/><path class="cls-174" d="M1926.73,1005.17s-7.69-24.63-3.78-28.78,11.69-15.59,12.21-6.24S1940.38,1019.92,1926.73,1005.17Z"/><path class="cls-175" d="M2044.33,931.89c-.11.71,8.62,47.49,8.62,47.49l26.61-5.56-1.69-45.57S2046.25,920,2044.33,931.89Z"/><path class="cls-176" d="M2069.91,935.67a3.94,3.94,0,0,1,1.86,2.9l2.73,23.57a3.83,3.83,0,0,1,0,1.07c-.32,2-1.87,8.11-8.18,6.21-5.38-1.62-10.35-3-14-2.39a3.9,3.9,0,0,0-3.12,4.59,146.15,146.15,0,0,0,5.46,20.8,3.9,3.9,0,0,0,4.7,2.4c5.15-1.43,15.13-4.52,22.75-8.87a3.92,3.92,0,0,0,2-3.5c-.16-6.34-.53-24.11.14-29.15.62-4.68,6.27-7.44,9-8.5a3.93,3.93,0,0,0,2.22-2.23c1.2-3.06,2.53-9.42-5.41-12.35a3.92,3.92,0,0,1-2.28-4.94c1.24-3.56,1.57-8.73-4.84-11.74s-11.51.1-14.39,2.93a4.08,4.08,0,0,1-4.82.72,2.57,2.57,0,0,0-2.56,0,3.8,3.8,0,0,1-5.15-1.66c-1.63-3.29-4.91-6.68-11.41-5.68-11.91,1.83-13.47,15-10.47,22.74s15.81,5,22.27,1.26C2061.06,931,2067.06,933.94,2069.91,935.67Z"/><path class="cls-177" d="M2083.82,961.22s-3.37-13,1.71-16.22,12.47-1.4,10.67,8.48C2094,965.76,2083.82,961.22,2083.82,961.22Z"/><path class="cls-12" d="M2031.81,924.71a.42.42,0,0,1-.38-.24c-4.33-9.26,5.77-16.65,5.87-16.73a.42.42,0,0,1,.48.68c-.09.07-9.63,7.07-5.6,15.7a.41.41,0,0,1-.2.55A.38.38,0,0,1,2031.81,924.71Z"/><path class="cls-6" d="M1872.1,953.74v84.58c0,6.89-4.2,12.48-9.38,12.48H1554.6c-4.3,0-8,3.9-9.1,9.45L1540,1089.7c-.73,3.9-4.81,4.23-5.89.46l-7.12-24.87c-1.39-4.84-4.88-8-8.77-8H1505c-5.18,0-9.38-5.59-9.38-12.48V957.83c0-6.85,4.15-12.42,9.3-12.48l357.77-4.09C1867.86,941.2,1872.1,946.81,1872.1,953.74Z"/><ellipse class="cls-5" cx="1543.25" cy="996.56" rx="37.79" ry="38.79"/><path class="cls-178" d="M1556.94,980.84c0,7-5.65,14.49-12.61,14.49s-12.62-7.52-12.62-14.49,5.65-11.91,12.62-11.91S1556.94,973.87,1556.94,980.84Z"/><path class="cls-179" d="M1528.67,1022.16h30.8a7.46,7.46,0,0,0,7.1-5.19l1.65-5.18a7.44,7.44,0,0,0-4.49-9.26c-12.54-4.59-25.5-4-38.77.42a7.42,7.42,0,0,0-4.76,9l1.28,4.7A7.45,7.45,0,0,0,1528.67,1022.16Z"/><path class="cls-180" d="M1842.67,1006.68A7.5,7.5,0,0,1,1835,1014H1610.14a7.5,7.5,0,0,1-7.64-7.34h0a7.49,7.49,0,0,1,7.64-7.33H1835a7.49,7.49,0,0,1,7.64,7.33Z"/><path class="cls-181" d="M1736.18,1030.2a6.66,6.66,0,0,1-6.66,6.66h-117.9a6.66,6.66,0,0,1-6.66-6.66h0a6.66,6.66,0,0,1,6.66-6.67h117.9a6.66,6.66,0,0,1,6.66,6.67Z"/><path class="cls-182" d="M1842.81,1030.2a6.67,6.67,0,0,1-6.67,6.66h-85.09a6.66,6.66,0,0,1-6.66-6.66h0a6.66,6.66,0,0,1,6.66-6.67h85.09a6.67,6.67,0,0,1,6.67,6.67Z"/><rect class="cls-5" x="1601.88" y="960.99" width="132.25" height="19.48" rx="9.36"/><path class="cls-183" d="M837.68,999.35c-.07,74.36-.64,330.82-5.09,421.61-.47,9.61-7.24,17.19-15.47,17.32-40.72.66-190,1.31-256.44-3.43-13.85-1-24.58-14.37-24.51-30.6.34-78,2.15-297.5,11.63-397.85,1.13-12,9.43-21.43,19.73-22.41,44.43-4.2,194.5-13.56,251.9-7.93C829.78,977.08,837.69,987.2,837.68,999.35Z"/><path class="cls-184" d="M819,1021.75c.86,60,3.35,259.75-.48,333.49-.55,10.78-8,19.34-17.24,19.76-38,1.76-167.47,4.62-223-1.82-10-1.16-17.64-10.81-17.92-22.56-1.47-61.26-5.44-247.25-1.73-320.17.6-11.63,8.51-21,18.45-21.79,41.12-3.4,178.81-10.61,226-6.55C812,1002.88,818.87,1011.36,819,1021.75Z"/><path class="cls-185" d="M721.76,988.13h0a4.06,4.06,0,0,1-3.56,4.21c-9.62.37-36.73,1.44-48.85,2-2.39.11-4.21-2.44-3.69-5.17l.09-.47a3.93,3.93,0,0,1,3.33-3.39c8.2-.69,32.93-2.58,49.27-1.53C720.31,983.9,721.81,985.83,721.76,988.13Z"/><circle class="cls-186" cx="688.88" cy="1189.17" r="95.4"/><path class="cls-187" d="M747.57,1214.1a17,17,0,0,0-10.1-11.18l-6.86-2.72a13.16,13.16,0,0,0-15.39,4.35l-6.11,8.16c-9.6.28-20.67-3.3-30.5-10.65-9.23-6.91-15.58-15.81-18.34-24.55a.3.3,0,0,1,.47-.33l5.51-7.36a15,15,0,0,0-.28-18.37l-4.56-5.73a17.19,17.19,0,0,0-27.23.4,22.14,22.14,0,0,0-3.62,7.39c-5.06,17.88,9.34,44.9,35.9,64.79s56.52,26.06,72.25,16.19a22.42,22.42,0,0,0,6.11-5.57A17,17,0,0,0,747.57,1214.1Z"/><path class="cls-188" d="M575.34,1421.64A29.35,29.35,0,0,1,546,1392.51v-49.77a1,1,0,1,1,2,0v49.77a27.25,27.25,0,0,0,27.26,27,1.08,1.08,0,0,1,1.08,1.06A1,1,0,0,1,575.34,1421.64Z"/><path class="cls-189" d="M415.07,1429.84s-2,11.17-2.95,22.23a7.62,7.62,0,0,0,7.29,8.25c14.73.62,46.23,1.81,57.54,1.31a2.48,2.48,0,0,0,2.18-3.4h0a5.54,5.54,0,0,0-2.84-3l-52-23.92Z"/><path class="cls-190" d="M413.45,1423.27l1.58,13.37s9.12,4.24,15.34-.54l-3.77-14.89Z"/><path class="cls-191" d="M414.64,1172.05c-.68,3.49-3.68,174.14,14.57,250.61a2.6,2.6,0,0,1-1.53,3,45.18,45.18,0,0,1-14.85,3,4.47,4.47,0,0,1-4.44-3.21c-5.21-17.74-30.2-106.64-33.46-191.56-3.64-94.9,0-3.23,0-3.23l2.14-58.66Z"/><path class="cls-192" d="M355.21,1435.67s-3.14,5.64-6.19,20.62a4.66,4.66,0,0,0,4.1,5.57c4.86.48,12.34,1.09,18.34,1.05a4.63,4.63,0,0,0,4.59-5.17c-.66-5.47-2.73-14.44-9.13-21.44Z"/><path class="cls-193" d="M352.45,1418.48l3.7,20.21s3.67,2.72,10.91.75l-1.77-21.75Z"/><path class="cls-194" d="M342.44,1177.28c-14.92,90,3.24,222.54,9.36,248.47a4,4,0,0,0,3.27,3.07,27.28,27.28,0,0,0,11.66-.46,3.72,3.72,0,0,0,2.67-3.42c.82-21-.66-149.67,13.24-200.54a11.59,11.59,0,0,1,4.46-6.38l27-19.18,2.07-31Z"/><path class="cls-195" d="M437.51,1006.68c-44.71-.74-94.05,11.74-94.05,11.74-13.32,77.76-2.33,167.45-2.33,167.45,34.62,9.08,73.66-5.55,73.66-5.55,5.75-32.5,32.6-124,32.6-124,21.84-2.71,39.84-9,54.66-17.35-11.31-13.1-16.64-29.77-18.95-39.63C467.29,1004.28,451.3,1006.91,437.51,1006.68Z"/><path class="cls-196" d="M569.57,940.82a8.56,8.56,0,0,0-10-2.79c-6.58,27.79-41.08,50.32-76.52,61.34,2.31,9.86,7.64,26.53,18.95,39.63C560.87,1005.93,569.57,940.82,569.57,940.82Z"/><path class="cls-197" d="M568.5,942.17c.46,1.46-4.86,3.69-8-2.29-.11-2.86-1.85-15.13-.14-17.46,9.11-12.43,26.78-28,26.78-28a4.2,4.2,0,0,1,.53,5.84l-8.57,8.93c1.79,3.24,4,6,5,9.89a12,12,0,0,1-1.2,8.84,102,102,0,0,1-5.5,9A11.86,11.86,0,0,1,568.5,942.17Z"/><path class="cls-198" d="M575.36,915l-7.81,6.62-2.46,6.6,7,7.72s2.34-13.08,4.08-15.91S577,915.81,575.36,915Z"/><path class="cls-199" d="M360.61,1061.71l-17.15-43.29s-41.76,28.37-48.63,64.35a94.91,94.91,0,0,1,35.18,9.86C336.35,1078.36,360.61,1061.71,360.61,1061.71Z"/><path class="cls-200" d="M392.22,970.38,378,1011.52a1.5,1.5,0,0,0,.68,1.79c3.88,2.14,17.85,8.34,34.68-2.34a7,7,0,0,0,3.22-5l4.6-35.61Z"/><path class="cls-201" d="M423.17,932.28s15.62,29.41,13.62,41.29-21.36,11-38.27,1.38l-11.81-31.76Z"/><path class="cls-202" d="M399.27,959.35a1.21,1.21,0,0,0,.53-1.77c-1.25-1.91-3.6-5.81-4.35-9.23,0,0-2.81-1.8,7.15-4.18s24.8-6.08,27.92-14.56c3.05-8.26-4.95-29-17.7-12.48a1.21,1.21,0,0,1-1.92,0c-2.09-2.72-7.59-8.37-15.22-4.94-7.14,3.2-7.95,8.44-7.85,11.07a1.21,1.21,0,0,1-1.43,1.24c-3.61-.69-12.27-1.28-16.32,7.6-3.33,7.33-1.16,11.47.81,13.5a1.2,1.2,0,0,1-.52,2c-2.37.73-5.44,2.74-5.13,8.3.42,7.69,9,7,11.46,6.66a1.21,1.21,0,0,1,1.08.38c2.1,2.32,11.55,12.18,21.78,13.37a1.22,1.22,0,0,0,1.28-1.62l-4.43-12.86a1.23,1.23,0,0,1,.66-1.51Z"/><path class="cls-203" d="M401.05,961.18s-11.12-7.63-11.94-1.21,10,9.31,15.38,6.92Z"/><path class="cls-204" d="M295.12,1083.12s-28.54,65,41.23,74.53l9.52-7.93s-34.89-19-15.86-57.09C330,1092.63,309.39,1075.19,295.12,1083.12Z"/><path class="cls-205" d="M345.23,1117.34l24.57,8.28c3,.89,5,3.9,5.26,7.71l-1.28,41c.4,6.42-4.89,12.07-9.89,10.57l-19.7-6.71c-1.91-.58-3.19-2.59-3.21-5.08l-.43-51C340.52,1119.12,343,1116.66,345.23,1117.34Z"/><path class="cls-206" d="M338.88,1166c-.67-.74-5.26-9.14-4.07-20.38s-1-16.32,4.22-15.88,9.58,1.32,9,6.85S349.08,1177.22,338.88,1166Z"/></g></g></svg>