<svg xmlns="http://www.w3.org/2000/svg" role="img" viewBox="5.68 128.68 1212.64 865.64"><defs><clipPath id="clip-path"><path fill="none" d="M-893-86.88h2088.74V1007H-893z"/></clipPath><style>.cls-12,.cls-5{fill:none}.cls-18,.cls-3{fill:#fff}.cls-4{fill:#a0c6f4}.cls-18,.cls-5{stroke:#2a1e17}.cls-12,.cls-18,.cls-5{stroke-linecap:round;stroke-linejoin:round}.cls-6{fill:#2a1e17}.cls-7{fill:#f9865f}.cls-8{fill:#2a1e33}.cls-9{fill:#7595ec}.cls-12{stroke:#2a1e33}.cls-13{fill:#ff6d66}.cls-14{fill:#fad8b0}.cls-19{fill:#91ba83}</style></defs><g clip-path="url(#clip-path)"><path d="M782.74 380.19c-45.12-40.56-94.81-62.58-128.73-73.93-30.5-10.21-54-13.85-61.65-14.84 16.43-41.92 43-106.88 48-112a88.62 88.62 0 0 1 13.31-.82c17.32 0 54.37 3.38 107.8 26.05 80.8 34.27 100.06 73.67 102.84 80.42z" class="cls-3"/><path d="M653.63 180.57c17.17 0 53.91 3.36 107 25.89 45.62 19.35 71 40.16 84.2 54.21 10.7 11.37 15.4 20.24 17.1 24l-79.4 92.66c-45-39.92-94.19-61.69-127.9-73a347.77 347.77 0 0 0-59.49-14.59c3.53-9 11.56-29.22 20-49.82 18.73-45.6 24.53-56.24 26.24-58.7a93.82 93.82 0 0 1 12.21-.68m0-4a83.07 83.07 0 0 0-14.09.92c-5.44 1.71-50 115.61-50 115.61s105.75 10.17 193.37 89.95l83.64-97.61s-14-44.32-104.35-82.67c-53-22.47-89.9-26.2-108.58-26.2z" class="cls-4"/><path d="M605.08 302s104 9.9 168 65.34" class="cls-5"/><path d="M694.86 297.17l38.79-71.1 39.87 74.14-78.66-3.04z" class="cls-4"/><path d="M702.41 296.15l38.79-71.1 39.86 74.15-78.65-3.05zM666 172.25s116.59 9.9 189.06 91.08" class="cls-5"/><path d="M725.56 487.33c-6.4-4.44-10.6-7.42-10.6-7.42 1.77-2.23 29.83-30.4 46.07-53.11-.03 0-32.85 62.34-35.47 60.53z" class="cls-6"/><path d="M328 282c3.13 4.91 4.52 2.94 13.54 2.29s21.87 5.56 26.39 16 3.12 12.1.69 13.41-19.79 3.28-20.48 6.55" class="cls-5"/><path d="M561.91 814.59l-8.09-12.88-28.69 45.08 7.53 5.46 29.25-37.66zM371.38 702.8s-14.87-22.79-8.49-33.95l47.43 4.78z" class="cls-7"/><path d="M371.38 702.8l2.84 6.15-8.76 32.22a10.65 10.65 0 0 0 3.69 11.08l43.38-60.44a13.48 13.48 0 0 0-2.21-18.18l-9.69-8.49z"/><path d="M348.17 320.25c13.58-.31 30.8-1.12 27.35-10.85s-16.35-34.08-45.61-26.78c0 0-10.33 8.12 2.58 22.72s15.68 14.91 15.68 14.91z" class="cls-8"/><path d="M416.92 674.17s-23.18-64.54-3.56-92.87c16.19-23.39 69.1 14.65 76.34 19.78l37.86-64.45s-8.74-11.55-30.2-22.86-110.08-45.17-151.73 16.78c-15.4 22.89-15.63 121.14 13.89 158.79z" class="cls-9"/><path d="M416.92 674.17s-23.18-64.54-3.56-92.87c16.19-23.39 69.1 14.65 76.34 19.78" class="cls-5"/><path d="M527.56 536.63c-17.22 17.08-68.26 100.3-79.74 140.08-15.35 53.2-9.58 97.33 74.8 183.73l40.79-56s-28.68-41.06-23.32-79.75c7.75-56 50-110.27 71.39-144.7z" class="cls-9"/><path d="M534.04 543.86l67.85 50.2L622.17 565l-88.13-21.14z" class="cls-6"/><path fill="#ff8a66" d="M923.75 491.08q15.87 3.21 24.18 11.4c5.55 5.46 3 8.31 1 10s-9.82-.24-16.63-5.94-8.55-15.46-8.55-15.46z"/><path d="M715 479.91c1.77-2.23 29.83-30.4 46.07-53.11 0 0 49.1 51.86 54.42 53.53 2 .62 14 .48 29 .33 25.26-.25 58.84-.49 66.27 3 11.83 5.57 18.93 8.36 21.89 16.17s4.12 12.9-3 13.38c-8.28.56-13.6-9.48-13.6-9.48s-6.77 3.85-24.26 10c0 0-62.91 23-105 11.89-11.49-2.98-71.79-45.71-71.79-45.71zM333.59 272.8c-5.4 1.94-8.68 4.25-5.56 9.16s4.52 2.94 13.54 2.29 21.87 5.56 26.39 16 3.12 12.1.69 13.41-19.79 3.28-20.48 6.55 7 12.93 23 12.28l3.82-.66s33.58 30.92 38.45 35.5 40.57 27.39 60.25 32c14.95 3.53 45.25-1 63.46-4.37 8.84-1.62 14.83-3 14.83-3s-13.66-23.2-16.44-58.87c0 0-32.69 4.95-54.41 9.44 0 0-50.68-26.64-75.33-38.42 0 0-21.53-24.87-31.59-28.14s-33.33-5.79-40.62-3.17z" class="cls-7"/><path d="M537.15 395c8.84-1.62 14.83-3 14.83-3s-16.52-19.64-19.3-55.31c0 0-7.47 7.59-5.15 27.79 2.92 25.46 9.62 30.52 9.62 30.52z" class="cls-6"/><path fill="#fff7c9" d="M531.88 332.76s.46 43.59 12.84 61.77l4.45-1.67s-58.38 64.38-77.26 106.45C468.82 506.19 593.12 581 611.48 580c0 0 60.57-87.13 81.28-113L715 483.29s43.66-41.68 46-56.49c0 0-42.17-48.37-76.68-62.54S619 325.83 582 326.49c-32.13.57-50.12 6.27-50.12 6.27z"/><path d="M715.02 483.29l-22.26-16.26 3.54-9.11 18.72 25.37z" class="cls-6"/><path d="M748.88 310.93c-3.89 11.42-15.15 44.48-27.71 48.56s-25.62-1-25.62-1l-13.38 6.45c-1.49 4.22-12 7.86-25.68 8.35-10.09.37-16.23-11.85-13.25-20.69 1.37-4.06 6.5-24.08 6.5-24.08s10.82-37.55 20.78-45.31 19.31-15.43 45.89-5.3c40.7 15.47 32.47 33.02 32.47 33.02z" class="cls-7"/><path d="M668.2 312.55c-1.79 7-9.53 21.06-14.59 18.53s-6.85-9-3.27-21.33 6.55-40.42 16.67-45.48 14.59.85 14.59.85-4.47-20.49 8.64-23.3c0 0 4.46-2 2.68 12.07 0 0 5.06-12.91 21.43-11.23s22 23.3 22 23.3 1.19-5.9 8.63-5.9 18.76 10.39 16.08 21.9c0 0 19-5.62 29.18 8.7s8.94 30-15.48 36.21c-25.53 6.46-25.31-21.61-29.18-25.26s-8-7.86-22.33-2.81-29.14-9.8-29.14-9.8-2.39 18-4.77 19.64-7.14 3.93-6-4.49 2.68-7.58 1.78-9.82-4.92-9.33-13.4-3.09c-9.47 7-3.52 21.31-3.52 21.31z" class="cls-8"/><path d="M672.25 315.7c-5.68-4.5-9.61-12.43-4.62-20.35s13.18-9 15.68-6 3.47 8.06 1.12 14" class="cls-12"/><path d="M532.66 852.25l2.84 6.16-8.76 32.21a10.65 10.65 0 0 0 3.68 11.09l43.38-60.45a13.48 13.48 0 0 0-2.2-18.18l-9.69-8.49z"/><path d="M681.6 265.12s-3.32-10.19-13.28-12.87" class="cls-12"/><path d="M470.54 496.23l120.18-158.25m49.54 11.08c-4.33 5.3-6.31 28.14 13.61 29.62s32.66-6.76 32.66-6.76m-312.32-95.85s13.73 17.14 15.89 23.24m498.45 206.54s9.18 7.12 27.46-2.1c6.62-3.34 1.9-11.25-6.49-9.27s-18.35-1-18.35-1m35.72-1.41s8.81 9.68 8.57 15.44M797.31 491s8-10 18.14-10.69M461.59 358.79s4.65-13.65 19.54-16.16M502 565.92l-17.77 32s-58.58 93.45-38.7 153.83m108.32-78.62L611.48 580S687 476.71 694.76 462.13l26.66-46.49m-242.83 90.51S581.09 576.6 611.48 580m-79.6-247.24s-.09 44.21 12.55 62.33m213.31 24.71c-3.22 18.22-46 56.48-46 56.48" class="cls-5"/><ellipse cx="438.49" cy="640.99" class="cls-6" rx="6.09" ry="5.74"/><path d="M1009.5 764.27l-3.36-21.94 19.86 12.44-10.39 2.14-6.11 7.36zM351 389.65c-37.63-31.29-99.8 46.74 127.72 295.14C610 828.08 713.07 840.93 727 791.08c25.06-89.44-65.45-112.05-31.77-77 49 50.94 188.26 61.7 292.06 14.17 102.42-46.9 39.46-119.74 33.1-124" class="cls-5"/><ellipse cx="988.97" cy="727.78" class="cls-6" rx="6.09" ry="5.74"/><path d="M900.41 774.61l180.4-95.85" class="cls-5"/><ellipse cx="354.74" cy="394.29" class="cls-6" rx="6.09" ry="5.74"/><ellipse cx="509.93" cy="275.84" class="cls-13" rx="13.06" ry="12.31"/><path d="M273 186a1.44 1.44 0 1 1-1.74 1.41A1.63 1.63 0 0 1 273 186m0-4a5.42 5.42 0 1 0 5.74 5.41A5.58 5.58 0 0 0 273 182z" class="cls-4"/><ellipse cx="1042.11" cy="848.58" class="cls-14" rx="5.74" ry="5.41"/><path d="M939.55 604.22l-61.7-27.3a5.9 5.9 0 0 1 .14-11l114.8-47.62a6.79 6.79 0 0 1 5.11 0l78.85 31.9z" class="cls-8"/><path fill="#c6cbcb" d="M935.73 514.5c.16 24.07 3.82 89.72 3.82 89.72l137.2-54-3.08-91.34c-.19-5.61-6.37-9.23-11.78-6.9l-118.13 50.71a12.89 12.89 0 0 0-8.03 11.81z"/><path d="M939.55 604.22l137.2-54-3.08-91.34s-.91-10-11.78-6.9m-55.93 86.58l9.26-20.63m0 20.63l9.26-20.63" class="cls-5"/><ellipse cx="297.74" cy="758.28" class="cls-13" rx="5.74" ry="5.41"/><ellipse cx="781.71" cy="785.09" class="cls-13" rx="7.98" ry="7.52"/><path fill="#fff7dc" d="M357.23 838.51c9.34 4.22 36.51 14.87 72.48 14.65a3.15 3.15 0 0 1 3.24 3.47l-5 37.47a3.15 3.15 0 0 1-2.65 2.64c-10.15 1.8-51.1 7.1-81.73-17.39a3 3 0 0 1-1-3.13l10.12-35.72a3.32 3.32 0 0 1 4.54-1.99z"/><path d="M360.83 849.52s17.69 23.44 24 26.79 40.37-15.78 40.37-15.78m-23.69 12.52l18.59 18.01m-44.41-21.48l-21.74 5.57" class="cls-5"/><path fill="#ffe1c0" d="M905.63 395.28h20.77v19.58h-20.77z"/><path d="M908.45 659.33l6.17 10.08 6.17 10.08H896.1l6.17-10.08 6.18-10.08z" class="cls-4"/><path d="M409.34 212.86l1.66-45.75c-.17-4.27 1.67-5.63 4.46-6.22 13.19-2.75 53.27-11.17 96.86 1 5.63 1.57 5.45 4.38 5.36 6.91l-1.56 43.62c-.11 3.2-3.66 5.52-7.62 5-12.73-1.75-30-2.29-47.62-2.15-18.16.14-34.35 1.41-45.67 3.47-4.38.73-6-2.3-5.87-5.88z" class="cls-5"/><path d="M424 206.17l25.37-28 28.08 26.13c-9.67-2.97-53.45 1.87-53.45 1.87zm40.93-15.04l20.51-15.47 17.29 11.63.65 18.18-25.92-1.17" class="cls-5"/><ellipse cx="430.09" cy="175.64" class="cls-5" rx="4" ry="4.99" transform="rotate(-85.76 430.1 175.632)"/><path d="M900 807.27l17 29.63c1.79 2.65 1.16 4.17-.39 5.51-7.29 6.37-29.43 25.76-61.91 33.32-4.19 1-5.19-.87-6.13-2.51L832.33 845c-1.19-2.07.15-4.79 2.88-5.83 8.78-3.35 20-9.07 31.1-15.32 11.48-6.45 21.26-12.93 27.65-18.21 2.43-2.04 4.66-.64 6.04 1.63z" class="cls-5"/><path d="M893.27 816.66l-5.08 26.68-28.14-6.76c7.32-1.5 33.22-19.92 33.22-19.92zm-20.07 23.9l-6.92 17.01-15.57-1.33-7.58-11.32 16.92-8.34" class="cls-5"/><ellipse cx="901.45" cy="838.19" class="cls-5" rx="3.65" ry="2.96" transform="rotate(-18.31 901.551 838.256)"/><path d="M817.1 301.51l69.14 49.89a3.56 3.56 0 0 0 4.83-.64l10.44-13.34a3.09 3.09 0 0 0-.62-4.43l-68.17-51.42a3.55 3.55 0 0 0-4.9.63l-11.42 14.87a3.1 3.1 0 0 0 .7 4.44z" class="cls-18"/><path d="M822.21 299.28l16.77 11.1 9.9-11.14-16.77-13.18-9.9 13.22z" class="cls-13"/><path d="M845.3 314.7l16.79 12.56 9-10.44-16.91-12.93-8.88 10.81z" class="cls-14"/><path d="M867.74 332.08l16.77 11.1 7.98-9.68-15.88-12.53-8.87 11.11z" class="cls-4"/><path d="M955.07 231.76l15.76 124.82a5.18 5.18 0 0 0 5.9 4.31l26.68-3.45a5 5 0 0 0 4.5-5.36L995 226.63a5.17 5.17 0 0 0-6-4.4l-29.5 4.07a5 5 0 0 0-4.43 5.46z" class="cls-18"/><path d="M963.13 234.68l4.99 29.19 23.53-1.65-2.56-31.43-25.96 3.89z" class="cls-13"/><path d="M969.83 275.02l3.31 30.79 21.76-1.84-3-31.29-22.07 2.34z" class="cls-19"/><path d="M973.55 316.81l4.99 29.19 19.8-2.07-2.37-29.81-22.42 2.69z" class="cls-14"/><path d="M920.67 258.34l43.64 120.9a4.23 4.23 0 0 0 5.35 2.43L997 372.4a3.87 3.87 0 0 0 2.55-4.88l-41-122.1a4.23 4.23 0 0 0-5.41-2.5l-30 10.47a3.87 3.87 0 0 0-2.47 4.95z" class="cls-18"/><path d="M929.53 260.54l11.33 27.58 22.65-6.23-9.44-30.25-24.54 8.9z" class="cls-4"/><path d="M944.99 298.69l10.02 29.46 20.89-6.06-9.84-30.02-21.07 6.62z" class="cls-7"/><path d="M957.85 338.83l11.32 27.58 18.91-5.91-8.9-28.69-21.33 7.02z" class="cls-14"/><rect width="245.8" height="52.09" x="358.74" y="411.06" class="cls-9" rx="5.48"/><rect width="128.53" height="7.93" x="384.93" y="426.39" class="cls-3" rx="1.81"/><path d="M386.13 444.59h204.21" class="cls-5"/><path d="M285.13 316.66l-3.48-3.59-11.51 9.93 3.48 3.59a4.1 4.1 0 0 0 5.56.24l5.7-4.9a3.58 3.58 0 0 0 .25-5.27z" class="cls-19"/><path d="M265.06 293.43l16.38 16.92a2.05 2.05 0 0 1-.14 3l-11.3 9.77a2.37 2.37 0 0 1-3.21-.13l-16.39-16.91a2.06 2.06 0 0 1 .15-3l11.32-9.75a2.38 2.38 0 0 1 3.19.1z" class="cls-5"/><path d="M212.66 382.92h20.59v17.72h-20.59z" class="cls-13"/><path d="M212.66 371.52v11.41h-12.31" class="cls-5"/><path d="M333.72 292.35C120.29 208.94-44 369.57 358.31 615.53c31.68 19.37 80.26 26.16 80.26 26.16" class="cls-5"/><ellipse cx="137.42" cy="297.95" class="cls-6" rx="6.09" ry="5.74"/><path d="M98.69 266.47l6.66-6.03 15.32 8.26 7.69 22.38-23.5-9.27-6.17-15.34z" class="cls-5"/><path d="M105.35 260.44l-6.66 6.03-3.73-4.27 6.4-5.78 3.99 4.02zm23.01 30.64l-15.28-15.83" class="cls-5"/><path d="M165.36 692.71L182 773.29a3.41 3.41 0 0 0 4.06 2.54l17.2-3.44a3.24 3.24 0 0 0 2.66-3.7l-14.79-81.11A3.4 3.4 0 0 0 187 685l-19 4a3.21 3.21 0 0 0-2.64 3.71z" class="cls-18"/><path d="M170.75 694.25l4.74 18.79 15.23-2.14-3.25-20.36-16.72 3.71z" class="cls-13"/><path d="M177.16 720.22l3.72 19.9 14.08-2.17-3.54-20.25-14.26 2.52z" class="cls-14"/><path d="M181.7 747.27l4.74 18.78 12.78-2.23-3.05-19.31-14.47 2.76z" class="cls-4"/><path d="M640.39 894.67l70.11-17.69 2.68 7.16-70.9 17.35-1.89-6.82zm-9.72-9.24l2.02 6m-4-2.09l5.92-1.91m-7.35 20.91l3.82 11.32m-7.07-4.14l10.54-3.15m-23.31-22.71l4.98 14.99M606.3 899l14.76-4.44" class="cls-5"/><path fill="none" stroke="#2a1e17" stroke-linecap="round" stroke-linejoin="round" stroke-width=".67" d="M129.2 176.73l-44.36-18.88 1.83-4.78 44.63 19.37-2.1 4.29zm.89 8.7l1.65-3.93m1.14 2.69l-3.94-1.38m13.24-7.92l3.12-7.4m1.8 4.98l-6.89-2.58m1.87 21.11l4.17-9.77m2.6 6.91l-9.66-3.61"/><path d="M295 529.93c-31.27-21.22-62-54.21-48.52-88.09 0 0 21.56-13.55 55.71 3.39l34.14 16.94z" class="cls-14"/><path d="M281.74 673.7c-9.89-4.22-76.3-34.44-87.7-88.18-10.24-48.26 33.36-114.63 48.56-135.9-7.37 36.78 32.87 68.87 51.56 81.55 18.5 12.56 31.35 18.23 50.8 25z" class="cls-3"/><path d="M240.31 455.46c-.81 11.92 2.92 24.25 11.14 36.81 11.41 17.44 29.06 31.45 41.87 40.14 18 12.21 31.18 18.14 49.49 24.6l-61.74 114.77a212 212 0 0 1-37.22-21.34c-18.58-13.4-42.06-35.59-48.34-65.23s8.43-66.51 21.91-92.12a371.91 371.91 0 0 1 22.89-37.63m6.17-13.62s-66.49 84.7-53.91 144 89.85 89.78 89.85 89.78l64.69-120.27c-20.21-7-33.35-12.68-52.11-25.41-31.27-21.22-62-54.21-48.52-88.09z" class="cls-14"/><path d="M229 491.06s3.86 34 40 52.26m19.29 12.15l36.1 18.22m-90.24-34.02s11.6 24.3 49 40.1m-78.65-36.45s1.29 25.51 19.34 34m21.91-122.71s-3.34 32.77 49.25 75.32m-29.91-69.25s16.76-1.21 41.25 15.8m-120.06 88.84c-1.07 16.25 1.08 75.16 91.59 112.74" class="cls-5"/><path d="M764.24 532.54l-38.39 72.53s26 9 5.68 37.17c0 0 48.13 18.82 79.62-30s-46.91-79.7-46.91-79.7z" class="cls-19"/><path d="M676.38 756c-20.3 0-41.68-7.93-63.56-23.57l73.72-115.13 44.33 26.31h.12a67.12 67.12 0 0 0 22.53 3.66 65.14 65.14 0 0 0 45-17.56l-58.06 93.65c-.21.29-23.33 32.64-64.08 32.64z" class="cls-3"/><path fill="#96bd89" d="M687 619.31l43 25.51.21.13.23.09a69 69 0 0 0 23.08 3.76 66.47 66.47 0 0 0 39-12.29l-53.33 86c-1.1 1.52-23.61 32-62.83 32-19.62 0-40.31-7.56-61.52-22.47L687 619.31m124.12-7.12c-17.79 27.61-40.89 33.61-57.63 33.61a66.19 66.19 0 0 1-22-3.56l-45.47-27-75.23 117.55c25.21 18.32 47.21 24.69 65.59 24.69 42 0 65.33-33.3 65.33-33.3l69.44-112z"/><path d="M725.85 605.07s28.63 9.53 5.68 37.17m-46.36-29.51s39 33.68 60.6 33.45 46.91-5.07 61.85-29.35M690 656.3s26.77 22.41 56.71 15.21m-28.63 18.28s14 9.92 33.68.54m-98.3 13.27s32.41 30.38 83.43 10.34M671.1 674s13.22 8.92 21.5 11.76m78.23-132.17s29.59 9.13 33.14 45.93m-18.26-.44s13.62 19.87-9.41 39.74m-162.76 99.52s74.3 60 128.22-10.16" class="cls-5"/><path fill="none" stroke="#ff6d66" stroke-linecap="round" stroke-linejoin="round" d="M77.22 509.9h17.33m947.56-196.38h17.32"/><path fill="none" stroke="#fad8b0" stroke-miterlimit="10" d="M577.61 201.49h17.32m480.25 196.71l17.05 2.89"/><path fill="none" stroke="#a0c6f4" stroke-linecap="round" stroke-linejoin="round" d="M394.78 805.62h17.32"/><ellipse cx="1112.5" cy="602.08" class="cls-19" rx="5.74" ry="5.41"/><ellipse cx="34.75" cy="342.56" class="cls-19" rx="5.74" ry="5.41"/><ellipse cx="1179.25" cy="950.44" class="cls-6" rx="6.09" ry="5.74"/><path d="M1527.41 754.66s47.79-134.14-165.86-55c-222.12 82.27-310.83 254.78-274.44 268.39S1177.7 951 1177.7 951" class="cls-5"/></g><path d="M890.87 188.72h20.59v17.72h-20.59z" class="cls-14"/></svg>