<svg id="_лой_1" data-name="‘лой_1" xmlns="http://www.w3.org/2000/svg" viewBox="0 0 3000 2000"><defs><style>.cls-1{fill:#ebf3fa;}.cls-2{opacity:0.5;}.cls-3{fill:#aec3ff;}.cls-4{fill:#82b378;}.cls-5{fill:#a8d29f;}.cls-6{fill:#bbd0ff;}.cls-7{fill:#d2e0ff;}.cls-8{fill:#c0d4ff;}.cls-9{fill:#86a2e2;}.cls-10{fill:#798ee8;}.cls-11{fill:#849def;}.cls-12{fill:#8c9df4;}.cls-13{fill:#505aba;}.cls-14{fill:#5e6ecc;}.cls-15{fill:#2c3a64;}.cls-16{fill:#ffb27d;}.cls-17{fill:#2b478b;}.cls-18{fill:#233862;}.cls-19{fill:#ed985f;}.cls-20{fill:#707fe5;}.cls-21{fill:#f99746;}.cls-22{fill:#3d4ca5;}.cls-23{fill:#fff;}.cls-24{fill:#ed7b2e;}.cls-25{fill:#739af0;}.cls-26{fill:#1f3b72;}.cls-27{fill:#f77d48;}.cls-28{fill:#ed917e;}.cls-29{fill:#b3c2ff;}.cls-30{fill:#ed7d2b;}.cls-31{fill:#ff8939;}.cls-32{fill:#6b80dd;}.cls-33{fill:#a4b5ff;}.cls-34{fill:#e58638;}.cls-35{fill:#152949;}.cls-36{fill:#ed975d;}.cls-37{fill:#214c7f;}.cls-38{fill:#fca56b;}.cls-39{fill:#163560;}.cls-40{fill:#6c7aff;}</style></defs><title>Монтажная область 4</title><path class="cls-1" d="M2720.36,1838.75c-154.08,0-2398.49.55-2399.79-3.46l-.22-.51a2.76,2.76,0,0,1-.22-.75c-.86-2-345.82-566.27,190.46-959.07C720.42,721.26,497.46,619.8,664.32,448.7c191.76-196.62,401,20.89,614.26-68.27,37.68-15.74,75.48-41.07,113.33-79.94,87.77-90.06,208.19-131.73,332.53-141.08,238.26-17.8,506.38,82.36,644.75,228.75,27.86,29.48,154.54,182,54.68,391.66-63,132.37,201.08,258.8,294.93,409.95C2957.43,1574.08,2722.52,1833.74,2720.36,1838.75Z"/><g class="cls-2"><g class="cls-2"><path class="cls-3" d="M1022.69,782s-17.48-146.41-92.5-233.78c-10-11.61-29.05-4.21-28.73,11.09,0,.25,0,.51,0,.77C902.45,586.17,986.45,696.33,1022.69,782Z"/></g><g class="cls-2"><path class="cls-3" d="M1031.8,823.88S957.05,640.89,829.36,560c-7.79-4.94-18.33-3.15-23.55,4.45-3.4,5-4.93,12.68-1.11,24.75C814.87,621.35,957.28,729.69,1031.8,823.88Z"/></g></g><path class="cls-4" d="M1963,777.35s-66.93-41.21-32.8-92c0,0,26.91-30.92,54.66-38,0,0-17.84,77.06-3.29,79.49s13.68-87.3,13.68-87.3,73.61-31.73,101.82-27.82c0,0-47.9,74-33.21,72.76S2132,608.62,2132,608.62s74.58-10.64,84.64,33.7-10,65.49-21.11,67.77-81.39-1.53-79.94,7.68,48.36,25.8,75.19,18.67c0,0-32.22,71-70.45,65.73s-49.11-29.49-72.79-32.3-41.31,2.86-29.7,9.75,52,4.25,70.51,21.36,33.63,27.8-2.31,33.63-99.7-1.38-111.36-29.32Z"/><path class="cls-4" d="M2182.22,654.63S1987.78,708.82,1963,777.35c0,0-.37,31.11-21,65.95l-.57,13.7s22-45.76,33.26-51.71C1974.63,805.29,1934.18,743.21,2182.22,654.63Z"/><path class="cls-4" d="M1941.94,843.3s-31.45,43.71-16.84,99.1l7.69-1.73s-4.89-60.55,11.84-90.21S1941.94,843.3,1941.94,843.3Z"/><path class="cls-5" d="M1692.12,775.71s-112.41,9.94-116.62-77.77c0,0,4.46-58.67,30.34-90.63,0,0,45.54,104,64.37,94.35s-59.1-112.24-59.1-112.24,57.56-99.66,93.39-119.35c0,0,8.27,126.27,24.15,112.26S1742,436.53,1742,436.53s76.74-76.19,126.36-33.76,44.59,84,33.8,96.13-95,68-85.47,77.39,77.8-11.76,102.59-43c0,0,23.75,109.35-24.76,136.09s-81.84,8.16-111.52,25.23-45.1,38.71-25.82,36.69,63.51-39.69,99.49-35.87,62.56,3.18,26.19,40.71-116,83.9-153.37,61.72Z"/><path class="cls-5" d="M1839.34,446.41s-177.42,229.12-147.22,329.3c0,0,26.24,36.13,32.32,94l11.1,16.27s-13.87-71.59-6-88.06C1729.5,797.88,1629.7,761.09,1839.34,446.41Z"/><path class="cls-5" d="M1724.44,869.67s1.27,77.3,65.59,128.56l7.38-8.6s-57.56-65.52-63.72-114S1724.44,869.67,1724.44,869.67Z"/><path class="cls-6" d="M635.83,1639.86s-31.49-36.73-1.94-60.07c0,0,21.58-13.06,39.17-12,0,0-24.93,41.81-16.87,46s24.43-48.59,24.43-48.59,49.11-4.76,64.91,2.83c0,0-42,34.36-33.14,36.4s54.18-31.67,54.18-31.67,45.71,7.77,43.27,35.66-18.18,36.49-25.11,35.75-47.41-16.2-48.29-10.53,23.49,24.21,40.56,25.07c0,0-32.23,35.54-53.64,25.29s-23.25-26.52-36.6-32.62-24.74-6.08-19.23.14,29.67,12.26,37.31,25.77,14.48,22.61-7.68,19.28S639,1677,637.41,1658.42Z"/><path class="cls-6" d="M787.38,1609.14s-124.14-4.79-151.55,30.72c0,0-6.07,18.16-24.72,34.69l-2.91,7.93s21.51-22.68,29.21-24.06C637.41,1658.42,625.37,1614.44,787.38,1609.14Z"/><path class="cls-6" d="M611.11,1674.55s-26.65,19.71-28.5,54.92l4.84.43s8.51-36.41,23.89-50.64S611.11,1674.55,611.11,1674.55Z"/><path class="cls-3" d="M525.74,1593.66s50.09-28,26.71-66.11c0,0-18.69-23.37-38.73-29.38,0,0,10.69,56.76,0,58.1s-7.34-64.11-7.34-64.11-52.76-25.38-73.46-23.38c0,0,32.72,55.43,22,54.1s-47.42-57.43-47.42-57.43-54.09-10-62.77,22,5.34,48.08,13.35,50.09,59.44,1.33,58.1,8-36.06,17.36-55.43,11.35c0,0,21.37,52.76,49.42,50.09s36.73-20,54.09-21.37,30.06,3.34,21.37,8-38.06,1.54-52.08,13.46-25.38,19.27.66,24.61,72.79,2,82.14-18Z"/><path class="cls-3" d="M369.48,1497.5s140.24,45.41,156.26,96.16c0,0-.67,22.71,13.36,48.75v10s-14.69-34.06-22.71-38.73C516.39,1613.7,547.78,1569.62,369.48,1497.5Z"/><path class="cls-3" d="M539.1,1642.41s21.63,32.84,9.3,72.82l-5.57-1.49s5.4-44-5.91-66.18S539.1,1642.41,539.1,1642.41Z"/><path class="cls-7" d="M605.42,1555s-66-37-35.21-87.15c0,0,24.65-30.81,51.06-38.73,0,0-14.09,74.82,0,76.59s9.68-84.51,9.68-84.51,69.55-33.45,96.83-30.81c0,0-43.13,73.06-29,71.3s62.51-75.7,62.51-75.7,71.3-13.21,82.74,29-7,63.38-17.6,66-78.35,1.76-76.59,10.56,47.54,22.89,73.07,15c0,0-28.17,69.54-65.15,66s-48.41-26.41-71.3-28.17-39.61,4.4-28.17,10.56,50.18,2,68.66,17.74,33.45,25.4-.88,32.44-95.95,2.64-108.27-23.77Z"/><path class="cls-7" d="M811.41,1428.22s-184.86,59.86-206,126.76c0,0,.88,29.93-17.6,64.26v13.21s19.36-44.9,29.93-51.06C617.75,1581.39,576.37,1523.29,811.41,1428.22Z"/><path class="cls-7" d="M587.82,1619.24s-28.51,43.3-12.26,96l7.34-2s-7.12-58,7.79-87.23S587.82,1619.24,587.82,1619.24Z"/><path class="cls-8" d="M603.2,1829.51a129.33,129.33,0,0,0,129.33-129.32H473.87A129.32,129.32,0,0,0,603.2,1829.51Z"/><path class="cls-8" d="M734.31,1836.09H472.09a16,16,0,0,1,16-15.95H718.36a16,16,0,0,1,15.95,15.95Z"/><rect class="cls-9" x="469.62" y="1700.18" width="265.85" height="3.97"/><path class="cls-10" d="M1485.35,1105l-57.87,688.11s-6.06,41.71,25,41.79c51,.12,253.91,0,253.91,0s-38.4-8.69-37.93-28.22c.55-23,67.64-708.19,67.64-708.19Z"/><path class="cls-3" d="M1725.46,1822.4c-10,0-206.47.36-256.15-.28-21.65-.27-25.44-19.25-25.62-31.53a61.22,61.22,0,0,1,.66-10.24l1.5-17.89,3.84-45.58,3.38-40.28,4.36-51.75,3.66-43.68,41.12-488.95,250.72-6.51s-28.25,286.74-48.24,495.46c-2.23,23.26-4.36,45.55-6.32,66.37-.64,6.64-1.24,13.14-1.84,19.47-1.86,19.75-3.55,37.88-5,53.89-.78,8.44-1.5,16.28-2.15,23.47-2.55,28.14-4,46.12-4.06,49.54a28.87,28.87,0,0,0,.49,5.57C1689.9,1821.41,1721.7,1822.4,1725.46,1822.4Z"/><polygon class="cls-3" points="876.48 730.27 1017.44 1296.5 1036.74 1374.05 1102.4 1637.78 2322.16 1637.78 2080.17 730.27 876.48 730.27"/><polygon class="cls-10" points="876.47 730.27 856.94 736.78 1076.42 1657.48 1102.4 1637.78 876.47 730.27"/><polygon class="cls-11" points="1076.42 1657.48 2288.68 1657.48 2322.16 1637.78 1102.4 1637.78 1076.42 1657.48"/><rect class="cls-3" x="1502.13" y="1822.4" width="262.47" height="12.47" transform="translate(3266.74 3657.27) rotate(180)"/><polygon class="cls-12" points="1697.88 1657.47 1696.53 1667.01 1449.69 1716.88 1453.07 1676.6 1454.69 1657.47 1697.88 1657.47"/><g class="cls-2"><path class="cls-12" d="M1725.46,1822.4c-10,0-206.47.36-256.15-.28-21.65-.27-25.44-19.25-25.62-31.53l245.67-46.22c-2.55,28.14-4,46.12-4.06,49.54a28.87,28.87,0,0,0,.49,5.57C1689.9,1821.41,1721.7,1822.4,1725.46,1822.4Z"/></g><polygon class="cls-12" points="876.47 730.27 2080.17 730.27 2275.47 1459.62 1058.05 1459.62 876.47 730.27"/><polygon class="cls-13" points="2218.7 1428.02 1091.67 1428.02 1051.4 1267.58 1035.82 1205.5 1029.46 1180.19 988.07 1015.31 985.93 1006.72 964.05 919.57 954.25 880.57 945.91 847.31 939.09 820.18 926.33 769.34 2037.11 769.34 2051.13 820.18 2058.6 847.31 2067.77 880.57 2078.52 919.57 2149.35 1176.47 2149.35 1176.48 2155.34 1198.25 2158.14 1208.35 2207.03 1385.71 2218.7 1428.02"/><polygon class="cls-14" points="1772.02 1398.95 1192.14 1398.95 1160.28 1242.79 1147.95 1193.68 1142.93 1173.66 1110.18 1043.23 1108.49 1036.43 1091.18 967.49 1083.43 936.64 1076.83 910.33 1071.43 888.87 1061.34 848.65 1628.74 848.65 1772.02 1398.95"/><polygon class="cls-12" points="1515.36 1459.62 1102.81 1639.9 1058.05 1459.62 1515.36 1459.62"/><path class="cls-15" d="M2454.87,1062.44c.06-1.62,1.31-19.12,28-20,0,0-13.11,1.56-15.38,7.32,0,0,8.93-7.12,16.2-4.83s11.53,15,11.58,19.21-4,17.69-8.61,18.84a14.21,14.21,0,0,1-5.59,0,61.69,61.69,0,0,1,3.58,6.39c10.64,21.83-.33,43.16-9.33,40.81-5.78-1.51-7.41,8.34-7.41,8.34l-56.1-45.42S2432.38,1050.44,2454.87,1062.44Z"/><path class="cls-16" d="M2302,1335.42c4.69,4.14,17.13-10.1,18.85-12a1.11,1.11,0,0,1,.18-.27l-3.79-10.55s-16.32-.63-19,2.07S2296.83,1331,2302,1335.42Z"/><path class="cls-17" d="M2435.33,1705.61l11.92,4.44s51.76-71.78,58.13-134.94c1.14-11.28-1.2-35.18-.31-40.29.41-2.38.91-5.25,1.49-8.54,1.68-9.64,4-22.84,6.64-37.86,6.09-34.56,14-78.75,20.11-111.24l-3.21-1-34.74-11.2-7.18-22.81-25.87-6.81s-5.78,11.31-10.94,64.71c-1,7-1.82,14.73-2.48,23.1a457.66,457.66,0,0,0,2.47,93.54c1.18,9.29,6.11,45.77,5.53,57.06C2454.29,1625.37,2435.33,1705.61,2435.33,1705.61Z"/><path class="cls-18" d="M2448.89,1423.14l56.18,111.68c.41-2.38.91-5.25,1.49-8.54,1.68-9.64,4-22.84,6.64-37.86,6.09-34.56,14-78.75,20.11-111.24l-3.21-1-34.74-11.2-7.18-22.81-25.87-6.81s-5.78,11.31-10.94,64.71C2450.41,1407,2449.55,1414.77,2448.89,1423.14Z"/><path class="cls-17" d="M2473.61,1349.66l1.3-11.15c21.78,5.79,80-16.17,80-16.17s21.11,18.55,18.34,63c-1.35,21.7-3.82,113.94-6.4,141.23-.94,9.89,5.48,35.35,8.06,42.22,25.33,67.49-3.9,150.6-3.9,150.6l-7.58-3.05s-48-174-52.94-192.4c-9.35-34.85-16.88-80.18-21.89-115.16C2487.9,1408.84,2473.61,1349.66,2473.61,1349.66Z"/><path class="cls-16" d="M2457.08,1220.28c37.45,2,29.22-53.78,26.94-53.5-4.59-2.39-12.82-14-17.57-33.47l-1.62.75-27,12.71s2.87,8.79,5,17.21c1.65,6.58,2.84,13,1.84,14.73-2.13.86-3.4,1.41-3.4,1.41a.08.08,0,0,1,0,0C2441,1180.84,2447.09,1219.73,2457.08,1220.28Z"/><path class="cls-19" d="M2437.8,1146.77s2.88,8.79,5,17.21c15.8-4.4,20.6-21,22-29.91Z"/><path class="cls-16" d="M2434.48,1156.08s37.79-8.75,32-32.2-4.84-40.38-29.22-35.79-26.83,14.7-26.79,23S2424.5,1157.75,2434.48,1156.08Z"/><path class="cls-15" d="M2408.32,1097.78c4.06-8.5,8.85-8,11.84-6.54,17.76-16.43,35.18-3,35.18-3a46.09,46.09,0,0,0,21.23,22.81s-5.81,6-22.63,5.82c-5.14,0-10.31-2.4-15-5.65a90.76,90.76,0,0,0,19.71,14.69c-21.06-4-35.19-28.41-36.64-31-1.78,2.64-5.2,8.25-5.48,13-.39,6.43,1.82,18.94-1.87,19.41C2414.64,1127.29,2402.23,1110.53,2408.32,1097.78Z"/><path class="cls-18" d="M2526.91,1725.62h60s1.44-9.15-1.69-16.09c-3-6.66-7.71-9.68-6.58-17.74-3.82,3.93-10,8.32-18.71,7.16-1.06,1.72-6.86,10.94-10.41,13.5C2545.6,1715.26,2528.12,1714.26,2526.91,1725.62Z"/><path class="cls-18" d="M2398,1725.62h60s2.24-9.57-1.7-16.09c-3.49-5.76-2.15-9,.43-13.81a23.33,23.33,0,0,1-10.1,1.9,21.12,21.12,0,0,1-8.93-3.14c-2.58,3-13.64,15.48-17.1,18C2416.74,1715.26,2399.25,1714.26,2398,1725.62Z"/><path class="cls-12" d="M2556,1251.44c-3.23-10.47-6.56-20.51-9.94-29.78-7.69-21.07-12.57-32.07-16.71-40.59-7.89-16.21-43.12-15.19-43.12-15.19-6.79,24.45-25.44,39.7-25.44,39.7-9.94-5.84-17.34-26.37-17.34-26.37l-21.76,11.58h0c-.08.08-6.74,4-12.61,20.9-8.73,25.11-22.9,60.78-32.73,71.69-2.29,2.54-9,6.39-17.14,10.48h0c-.17.27-.31.4-.4.4a81.7,81.7,0,0,0,6.72,12.61c3.11,4.67,7.19,9.39,12,11.83,3.71-1.79,10.39-4.43,13.22-6.17,10.25-6.26,25.5-15.28,37.43-34.31l3.33,44.74,6,80.93c9.25,2.88,18.07,5.13,26.43,6.85a97.87,97.87,0,0,1,2.74-14.9c-.1,4.26,4.88,12.4,7.83,16.83,76.86,12.32,112.89-21.21,112.89-21.21C2584.47,1361.79,2571.52,1301.76,2556,1251.44Z"/><path class="cls-20" d="M2478.48,1161.36s6.39.43,7.77,4.51c0,0-8.35,33.59-25.43,39.71Z"/><path class="cls-20" d="M2460.82,1205.58s-16.33-29.46-16.27-33.45c0,0-6.2,5.5-5.79,9.59C2438.76,1181.72,2452.51,1203.74,2460.82,1205.58Z"/><path class="cls-20" d="M2504.58,1193.63c-.46,1.59-33.78,81.21-63.66,110.56-13.08,12.85,28.6,9.14,29,6.75S2504.58,1193.63,2504.58,1193.63Z"/><path class="cls-20" d="M2432.59,1325.48l2.85,44.91c91.13-21.16,83.48-166.3,83.48-166.3l-45.76,94.49L2433,1324.83Z"/><path class="cls-3" d="M2358.71,1294.12c0,.09.07.14.12.14l-.07-.17C2358.69,1294,2358.67,1294,2358.71,1294.12Z"/><path class="cls-21" d="M2403.79,1232.27l18.14,80.87c2.89,12.88-6.86,23.32-21.78,23.32h-435.7c-14.93,0-29.36-10.44-32.25-23.32l-18.15-80.87a12.75,12.75,0,0,1-.26-1.48c-1.88-12.2,7.7-21.84,22-21.84h435.7c14.35,0,28.25,9.64,31.85,21.84C2403.55,1231.29,2403.68,1231.77,2403.79,1232.27Z"/><polygon class="cls-1" points="1965.42 1300 1961.14 1300 1949.85 1249.68 1954.13 1249.68 1965.42 1300"/><polygon class="cls-1" points="1994.86 1270.45 1964.24 1270.45 1961.05 1256.21 1991.67 1256.21 1994.86 1270.45"/><polygon class="cls-1" points="2009.14 1290.86 1968.83 1290.86 1965.63 1276.62 2005.94 1276.62 2009.14 1290.86"/><polygon class="cls-1" points="2063.36 1300 2059.09 1300 2047.8 1249.68 2052.07 1249.68 2063.36 1300"/><polygon class="cls-1" points="2069.9 1270.45 2039.28 1270.45 2036.09 1256.21 2066.7 1256.21 2069.9 1270.45"/><polygon class="cls-1" points="2079.33 1290.86 2039.02 1290.86 2035.82 1276.62 2076.13 1276.62 2079.33 1290.86"/><polygon class="cls-1" points="2161.31 1300 2157.04 1300 2145.75 1249.68 2150.02 1249.68 2161.31 1300"/><polygon class="cls-1" points="2144.93 1270.45 2114.31 1270.45 2111.11 1256.21 2141.73 1256.21 2144.93 1270.45"/><polygon class="cls-1" points="2149.51 1290.86 2109.2 1290.86 2106 1276.62 2146.31 1276.62 2149.51 1290.86"/><polygon class="cls-1" points="2223.98 1253.75 2173.66 1253.75 2172.7 1249.48 2223.02 1249.48 2223.98 1253.75"/><polygon class="cls-1" points="2195.33 1257.76 2202.2 1288.38 2187.96 1288.38 2181.09 1257.76 2195.33 1257.76"/><polygon class="cls-1" points="2215.74 1257.76 2224.79 1298.07 2210.55 1298.07 2201.5 1257.76 2215.74 1257.76"/><polygon class="cls-1" points="2303.18 1276.97 2252.86 1276.97 2251.9 1272.7 2302.22 1272.7 2303.18 1276.97"/><polygon class="cls-1" points="2269.72 1259.53 2276.59 1290.15 2262.35 1290.15 2255.48 1259.53 2269.72 1259.53"/><polygon class="cls-1" points="2289.04 1254.68 2298.09 1294.99 2283.85 1294.99 2274.8 1254.68 2289.04 1254.68"/><polygon class="cls-1" points="2382.43 1300.38 2332.1 1300.38 2331.14 1296.11 2381.47 1296.11 2382.43 1300.38"/><polygon class="cls-1" points="2344.42 1261.12 2351.29 1291.74 2337.05 1291.74 2330.18 1261.12 2344.42 1261.12"/><polygon class="cls-1" points="2362.66 1251.43 2371.7 1291.74 2357.46 1291.74 2348.42 1251.43 2362.66 1251.43"/><path class="cls-16" d="M2360,1329.22c5,0,12.8-.36,17.33-2.1,0,0-14.47-.2-11.4-4.78.56-.83,7.76-.2,15.79-.2,3.29,0,11.43,4.51,11,4.72,5.82-.77,11.12-1.9,12.83-2.26a3.77,3.77,0,0,0,.63-.18l5.14,15s-1.08.27-3,.64a200.4,200.4,0,0,0-23.9,7.3c-13,5.14-22.53-1.25-26.87-5.77-2.75-2.87-4.91-6.67-4.76-9.43C2353,1329.1,2357,1329.24,2360,1329.22Z"/><path class="cls-16" d="M2394.94,1330.37l3.16,11.54,10.28-1.89c1.9-.37,3-.64,3-.64,5-1,11.09-2.34,17.67-3.78h.1c11.27-2.71,23.89-5.95,34.53-9.56l2.81-1c6.29-2.32-5.87-34.25-11.37-30.28-1.46,1-3,2.14-4.67,3.27-9.12,6.19-20.73,13.1-31,18.91-5.05,2.89-9.83,5.5-13.8,7.67C2399.18,1328.11,2394.94,1330.37,2394.94,1330.37Z"/><path class="cls-12" d="M2450.43,1298s-.66,21.8,19.76,32.41c23.59-8.52,36.21-43.71,46-67.88,1.35-3.33,2.61-6.67,3.87-9.92a245.82,245.82,0,0,0,10.28-34.27c1.36-6.13-24.88-37.06-28.22-29.75-5.14,11.62-10.55,26.69-15.6,41.66-2.8,8.2-5.5,16.41-8.21,24-1.53,4.6-3.07,8.93-4.51,12.9-2.8,7.58-5.32,13.71-7.57,17.58-1.45,2.53-5.59,6-11.09,10C2453.64,1295.8,2452.07,1296.89,2450.43,1298Z"/><polygon class="cls-22" points="2051.13 820.18 939.09 820.18 926.33 769.34 2037.11 769.34 2051.13 820.18"/><path class="cls-1" d="M995.44,795.22c1.45,4.56-1.44,8.28-6.44,8.31s-10.24-3.63-11.69-8.19,1.44-8.27,6.45-8.31S994,790.66,995.44,795.22Z"/><path class="cls-1" d="M1032.94,795c1.45,4.55-1.44,8.28-6.44,8.31s-10.24-3.63-11.69-8.19,1.44-8.27,6.45-8.31S1031.49,790.4,1032.94,795Z"/><path class="cls-1" d="M1070.44,794.7c1.45,4.55-1.44,8.28-6.44,8.31s-10.24-3.63-11.68-8.19,1.43-8.28,6.44-8.31S1069,790.14,1070.44,794.7Z"/><path class="cls-21" d="M1083.43,936.65s130.9.49,225.82,73.26,81.23,138.06,160,154.42c129.07,26.82,48.94-110.93,216.54-96.6L1772,1399H1192.14L1148,1193.68Z"/><path class="cls-23" d="M1499.12,1169a149.51,149.51,0,0,1-30.12-3.52c-43.47-9-59.5-33.42-79.79-64.29-16.81-25.59-37.74-57.43-80.69-90.35-27-20.68-74.53-48.51-148-63.7-44-9.09-76.75-9.32-77.07-9.32v-2.39c.32,0,33.35.23,77.55,9.37,40.8,8.44,99.77,26.41,149,64.14,43.27,33.17,64.32,65.2,81.24,90.94,20.76,31.6,35.77,54.43,78.28,63.26,60.52,12.58,74.21-11.21,90.06-38.75,17.66-30.67,37.68-65.45,126.33-57.87l-.2,2.38c-87.16-7.45-106.76,26.62-124.06,56.69-8,13.93-15.6,27.09-29,35.22C1523.53,1166.31,1512.6,1169,1499.12,1169Z"/><path class="cls-24" d="M1114,1057.67l33.27,132.6L1192.14,1399H1772l-29.24-108.35s-85.84-47.85-202.25-6.15-245.28,3.22-253.57-90.58C1277.6,1088.12,1180.43,1037.17,1114,1057.67Z"/><path class="cls-23" d="M1260.51,1120.41c-33.34-51.54-94.8-77.44-146.16-61.6l-.7-2.28c52.36-16.15,115,10.16,148.86,62.58Z"/><rect class="cls-23" x="1458.56" y="1154.92" width="18.94" height="18.94" transform="translate(127.43 -144.69) rotate(5.9)"/><rect class="cls-23" x="1477.71" y="1004.38" width="3.14" height="324.24" transform="translate(36.35 2377.66) rotate(-78.27)"/><path class="cls-23" d="M1315.14,1133a5.44,5.44,0,1,1,4.85,6A5.44,5.44,0,0,1,1315.14,1133Z"/><path class="cls-23" d="M1632.6,1198.9a5.44,5.44,0,1,1,4.85,6A5.44,5.44,0,0,1,1632.6,1198.9Z"/><rect class="cls-23" x="1235.53" y="961.25" width="18.94" height="18.94" transform="translate(1005.03 -589.64) rotate(43.31)"/><rect class="cls-23" x="1241.38" y="892.24" width="3.14" height="151.96" transform="translate(-320.2 1165.52) rotate(-45.11)"/><path class="cls-23" d="M1184.9,911.17a5.44,5.44,0,1,1,.8,7.65A5.44,5.44,0,0,1,1184.9,911.17Z"/><path class="cls-23" d="M1292.56,1018.41a5.44,5.44,0,1,1,.79,7.65A5.44,5.44,0,0,1,1292.56,1018.41Z"/><rect class="cls-23" x="1598.58" y="1066.91" width="18.94" height="18.94" transform="translate(-11.15 2135.91) rotate(-67)"/><rect class="cls-23" x="1559.93" y="1074.59" width="96.92" height="3.14" transform="matrix(0.42, -0.91, 0.91, 0.42, -39.58, 2090.67)"/><path class="cls-23" d="M1586.48,1125.38a5.44,5.44,0,1,1,6.9-3.4A5.43,5.43,0,0,1,1586.48,1125.38Z"/><path class="cls-23" d="M1626.8,1037.25a5.44,5.44,0,1,1,6.9-3.41A5.45,5.45,0,0,1,1626.8,1037.25Z"/><path class="cls-7" d="M1705.5,879.21,1735,1001c1.27,5.21-3.65,9.44-11,9.44H1420.82c-7.33,0-14.29-4.23-15.55-9.44L1375.8,879.21c-1.26-5.21,3.65-9.44,11-9.44H1690C1697.28,869.77,1704.24,874,1705.5,879.21Z"/><polygon class="cls-17" points="1452.64 950.46 1420.38 950.46 1412.57 918.2 1444.84 918.2 1452.64 950.46"/><polygon class="cls-17" points="1472.68 966.6 1440.41 966.6 1432.61 934.33 1464.87 934.33 1472.68 966.6"/><polygon class="cls-17" points="1527.97 950.46 1495.7 950.46 1487.9 918.2 1520.16 918.2 1527.97 950.46"/><polygon class="cls-25" points="1548.01 966.6 1515.74 966.6 1507.93 934.33 1540.2 934.33 1548.01 966.6"/><path class="cls-26" d="M1549.72,968h-35l-8.48-35h35Zm-32.94-2.76h29.52l-7.14-29.51h-29.52Z"/><polygon class="cls-25" points="1603.3 950.46 1571.03 950.46 1563.22 918.2 1595.49 918.2 1603.3 950.46"/><path class="cls-17" d="M1605,951.84h-35l-8.48-35h35Zm-32.94-2.75h29.52l-7.14-29.51h-29.52Z"/><polygon class="cls-25" points="1623.33 966.6 1591.07 966.6 1583.26 934.33 1615.53 934.33 1623.33 966.6"/><path class="cls-17" d="M1625,968h-35l-8.47-35h35Zm-32.93-2.76h29.51l-7.14-29.51H1585Z"/><polygon class="cls-17" points="1605 951.77 1586 951.77 1581.44 932.95 1600.44 932.95 1605 951.77"/><polygon class="cls-17" points="1678.62 950.46 1646.36 950.46 1638.55 918.2 1670.82 918.2 1678.62 950.46"/><polygon class="cls-17" points="1698.66 966.6 1666.39 966.6 1658.59 934.33 1690.85 934.33 1698.66 966.6"/><polygon class="cls-25" points="1677.71 949.68 1662.93 949.68 1659.38 935.04 1674.17 935.04 1677.71 949.68"/><path class="cls-22" d="M866.76,1263.86H755c-14.9,0-29.65-12.08-32.95-27L638,857.36c-3.3-14.9,6.1-27,21-27H770.75c14.9,0,29.65,12.07,33,27l84.06,379.52C891.06,1251.78,881.66,1263.86,866.76,1263.86Z"/><rect class="cls-3" x="651.03" y="915.72" width="165.67" height="0.72"/><rect class="cls-3" x="670.84" y="1005.15" width="165.67" height="0.72"/><rect class="cls-3" x="690.65" y="1094.58" width="165.67" height="0.72"/><path class="cls-23" d="M752.38,889.35c.22-1.91-8.35-34.82-8.35-34.82l30.37,24.6-14.92-.53Z"/><path class="cls-7" d="M843.91,1225H785.06l-13-58.76h58.84Zm-56.22-3.27h52.14l-11.57-52.22H776.13Z"/><polygon class="cls-27" points="801.63 1191.56 746.14 1191.56 733.85 1136.07 789.34 1136.07 801.63 1191.56"/><rect class="cls-27" x="772.82" y="1193.22" width="70.32" height="4.74" transform="translate(-631.77 1098.66) rotate(-52.1)"/><path class="cls-7" d="M677.68,889.35c.22-1.91-8.35-34.82-8.35-34.82l30.37,24.6-14.92-.53Z"/><polygon class="cls-7" points="689.44 954.54 684.97 954.54 683.2 946.56 713.55 946.56 715.25 954.22 710.78 954.22 710.07 951.03 688.66 951.03 689.44 954.54"/><polygon class="cls-7" points="706.7 974.03 702.23 974.03 696.64 948.79 701.11 948.79 706.7 974.03"/><polygon class="cls-7" points="710.73 975.63 698.9 975.63 697.91 971.15 709.74 971.15 710.73 975.63"/><polygon class="cls-7" points="771.25 978.42 767.21 975.51 788.53 941.96 792.57 944.87 771.25 978.42"/><path class="cls-7" d="M720,1056.59c-8.54,0-17-6.94-18.91-15.48s3.52-15.48,12-15.48,17,6.94,18.91,15.48S728.55,1056.59,720,1056.59Zm-5.95-26.87c-6.28,0-10.26,5.11-8.87,11.39s7.63,11.39,13.91,11.39,10.26-5.11,8.87-11.39S720.35,1029.72,714.07,1029.72Z"/><path class="cls-7" d="M749.48,1070a2.51,2.51,0,0,1-1.61-.63l-20.59-17.33a2.14,2.14,0,0,1-.59-2.89,2.07,2.07,0,0,1,2.91,0l20.58,17.33a2.14,2.14,0,0,1,.59,2.89A1.61,1.61,0,0,1,749.48,1070Z"/><polygon class="cls-7" points="794.07 1024.2 801.73 1038.23 816.48 1038.23 806.47 1046.9 814.13 1060.92 800.28 1052.25 790.27 1060.92 791.72 1046.9 777.87 1038.23 792.62 1038.23 794.07 1024.2"/><path class="cls-28" d="M2218.34,901.44s.4,22.09-2.92,21.69-7.81-18.53-7.85-18.26,1.5,19-2.67,20-8.4-19.88-8.4-19.88,2.8,17.87-.13,18.34-7.55-16.85-8.76-16.9,3.89,14.86.32,15.61-11.55-20.21-8.84-22.88,6.9.19,6.9.19,5.2-3.85,9.19-1.67c0,0,9.35-1.87,12.16,2.28C2207.34,900,2213.17,894.93,2218.34,901.44Z"/><path class="cls-7" d="M2278.65,816.79l75.82,273.36c3.24,11.69-4.16,21.18-16.53,21.18H1826.21c-12.37,0-25-9.49-28.27-21.18l-75.82-273.36c-3.24-11.7,4.16-21.18,16.53-21.18h511.73C2262.75,795.61,2275.41,805.09,2278.65,816.79Z"/><polygon class="cls-29" points="1880.68 940.12 1814.59 940.12 1796.27 874.03 1862.35 874.03 1880.68 940.12"/><polygon class="cls-13" points="1860.01 923.93 1826.29 923.93 1816.94 890.21 1850.65 890.21 1860.01 923.93"/><rect class="cls-27" x="1797.7" y="904.48" width="81.54" height="5.19" transform="translate(26.54 1866.06) rotate(-54.15)"/><polygon class="cls-27" points="1833.64 904.29 1767.56 904.29 1749.23 838.2 1815.32 838.2 1833.64 904.29"/><polygon class="cls-27" points="1871.19 1018.1 1818.06 1018.1 1803.32 964.97 1856.45 964.97 1871.19 1018.1"/><polygon class="cls-30" points="1923.83 1018.1 1870.69 1018.1 1855.96 964.97 1909.09 964.97 1923.83 1018.1"/><polygon class="cls-31" points="1976.96 1018.1 1923.83 1018.1 1909.09 964.97 1962.22 964.97 1976.96 1018.1"/><polygon class="cls-25" points="2030.09 1018.1 1976.96 1018.1 1962.22 964.97 2015.35 964.97 2030.09 1018.1"/><polygon class="cls-12" points="2083.22 1018.1 2030.09 1018.1 2015.35 964.97 2068.48 964.97 2083.22 1018.1"/><polygon class="cls-32" points="2136.35 1018.1 2083.22 1018.1 2068.48 964.97 2121.61 964.97 2136.35 1018.1"/><polygon class="cls-13" points="2189.48 1018.1 2136.35 1018.1 2121.61 964.97 2174.75 964.97 2189.48 1018.1"/><polygon class="cls-17" points="2242.61 1018.1 2189.48 1018.1 2174.75 964.97 2227.88 964.97 2242.61 1018.1"/><polygon class="cls-33" points="1885.92 1071.23 1832.79 1071.23 1818.06 1018.1 1871.19 1018.1 1885.92 1071.23"/><polygon class="cls-12" points="1938.56 1071.23 1885.43 1071.23 1870.69 1018.1 1923.83 1018.1 1938.56 1071.23"/><polygon class="cls-13" points="1991.69 1071.23 1938.56 1071.23 1923.83 1018.1 1976.96 1018.1 1991.69 1071.23"/><polygon class="cls-17" points="2044.82 1071.23 1991.69 1071.23 1976.96 1018.1 2030.09 1018.1 2044.82 1071.23"/><path class="cls-31" d="M2245.22,861H1966.91a9.88,9.88,0,0,1-8.89-7h0c-1.06-3.82,1.2-6.95,5-6.95h278.31a9.89,9.89,0,0,1,8.89,6.95h0C2251.31,857.87,2249,861,2245.22,861Z"/><path class="cls-25" d="M2255,896.11H1976.65a9.88,9.88,0,0,1-8.89-7h0c-1.06-3.83,1.2-7,5-7H2251.1a9.87,9.87,0,0,1,8.88,7h0C2261,893,2258.78,896.11,2255,896.11Z"/><path class="cls-13" d="M2264.7,931.23H1986.38a9.88,9.88,0,0,1-8.88-7h0c-1.06-3.82,1.2-6.95,5-6.95h278.31a9.87,9.87,0,0,1,8.88,6.95h0C2270.78,928.1,2268.52,931.23,2264.7,931.23Z"/><path class="cls-13" d="M1919.59,843.82H1928c4.4,0,7.64,2.36,8.64,6,.86,3.08-.48,4.94-2.9,5.69l7,7.12h-3.89l-6.49-6.56h-4.08l1.82,6.56h-3.31Zm10.72,9.32c2.36,0,3.52-1.24,3-3.2s-2.31-3.12-4.76-3.12h-4.8l1.75,6.32Z"/><path class="cls-13" d="M1929.25,888.71c-1.46-5.26,1.33-9.72,7-9.72a13,13,0,0,1,7.93,2.55l-1.4,2.5a9.5,9.5,0,0,0-5.82-2c-3.47,0-5.26,3-4.24,6.69a8.82,8.82,0,0,0,8.25,6.71,6,6,0,0,0,4.15-1.42l-1-3.52h-4.81l-.79-2.87h8l2.19,7.89a9.09,9.09,0,0,1-7,2.93A13.15,13.15,0,0,1,1929.25,888.71Z"/><path class="cls-13" d="M1939.76,916.54h8.43a8.65,8.65,0,0,1,5.38,1.67,5.92,5.92,0,0,1,2.14,3.17,3.35,3.35,0,0,1-1.52,4.19c2.41.75,4.29,2,5,4.62.93,3.35-1.34,5.15-5.53,5.15H1945Zm10,7.93c2.12,0,3.31-.83,2.82-2.61-.41-1.47-1.84-2.39-4-2.39h-4.75l1.39,5Zm3.17,7.95c2.25,0,3.38-.89,2.89-2.63-.44-1.59-2-2.53-4.56-2.53H1946l1.43,5.16Z"/><path class="cls-16" d="M1218,850a5.25,5.25,0,0,0-.94,5.6l0,0c1.35,3.73,5.8,7.89,11,12,.66.54,1.25,1,1.76,1.47l.4.36.31.27c4.82,4.45,3,5.47,11.68,14.5,9.89,10.29,16.7,10.48,18.63,9.54,1.64-.8-1.69-6.26-5.38-12.39-.17-.3-.35-.6-.53-.9-.49-.81-1-1.64-1.47-2.46-4.32-7.38-3.21-10.85-2.19-21.83.83-8.93,13.89-49.88,13.89-49.88l-19-3.26s-5.71,32.6-12,37.63c-3.36,2.67-7.12,2.71-10.36,4.69l-.67.42A25,25,0,0,0,1218,850Z"/><path class="cls-18" d="M1218,850a5.25,5.25,0,0,0-.94,5.6l0,0c1.65,3.73,6,7.87,11,12,.65.55,1.23,1,1.74,1.51l.4.36.31.27c4.82,4.45,3,5.47,11.68,14.5,9.89,10.29,16.7,10.48,18.63,9.54,1.64-.8-1.69-6.26-5.38-12.39a42.23,42.23,0,0,1-17.62-13c-5.74-7.32-9.64-16.66-13.54-22.39l-1.12-.21A25,25,0,0,0,1218,850Z"/><path class="cls-16" d="M1370.84,838.15c1.17,5.85,9.51,4.87,18.83,2.59s7.1.43,20.36-1,17.28-6.42,17.68-8.39c.36-1.75-6.19-2.36-13.22-3.17l-2.66-.32c-7.93-1-13.74-6.12-20.95-10.32-6.82-4-17-20.21-17-20.21l-18.18,1.44s9.54,14.49,13.23,20.79c2.17,3.71,2,8.61,1.78,12.4A23.58,23.58,0,0,0,1370.84,838.15Z"/><path class="cls-18" d="M1389.67,840.74c9.32-2.27,7.1.43,20.36-1s17.28-6.42,17.68-8.39c.36-1.75-6.19-2.36-13.22-3.17l-.06.13a37.34,37.34,0,0,1-19,5.9c-9,.22-18.52-2.35-24.74-2.25a23.58,23.58,0,0,0,.14,6.22C1372,844,1380.35,843,1389.67,840.74Z"/><path class="cls-34" d="M1301.16,721.88l-17,45.74L1262,827.34a36,36,0,0,1-11.79-1.08c-5.31-1.53-11.4-5.55-11.4-5.55s6.16-64.12,17.65-100.94c3-9.44,6.25-17.09,9.89-21.39C1284.14,677.32,1301.16,721.88,1301.16,721.88Z"/><path class="cls-21" d="M1283.88,649.23c-9.68-3.12-34.93-.05-62.31,4.91a18.57,18.57,0,0,1-19.18-8.66h0l-68.92-5.38s-22.74,50.43-10.29,82.56c1.83,4.73,5.85,7.67,12,7.77h0s41.64.06,55,.06c34.27,0,72.53-23.56,77.48-24.55,8.1-1.62,11.35,14.58,19.45,31.6s76.15,75.34,76.15,75.34,10.46.1,14.78-1.52c4.64-1.74,6.34-4,6.34-4S1309,657.33,1283.88,649.23Z"/><path class="cls-35" d="M1195.07,443.11a24.41,24.41,0,0,0-13.16-3.43,37.54,37.54,0,0,1-6.36-.38c-26.3-3.86-42.14,34.34-43.07,45.89-1.7,21.19-12.92,24.42-28.7,37.7-31.64,26.61-22.36,57.54-5.06,69,10.38,6.89,28.68,0,28.68,0,.26.18,50-27.83,74.59-41.35C1238.78,545.34,1209.85,451.91,1195.07,443.11Z"/><path class="cls-16" d="M1181.42,539.07c.1.07-12.08,4.23-20.22.62-7.67-3.38-13.47-16-13.36-16,3.49-.16,7.31-3.21,10.26-23.21l1.49.54,25,9s-1.81,8-3,15.63C1180.58,532,1180.05,538.17,1181.42,539.07Z"/><path class="cls-36" d="M1184.55,510s-1,4.32-2.45,12.39c-14.34-2.58-20.49-13.62-22.51-21.37Z"/><path class="cls-16" d="M1188.26,518s-34.15-4.59-31-25.81.91-36.11,22.85-34.08,24.95,10.76,25.61,18.1S1197.23,518.59,1188.26,518Z"/><path class="cls-35" d="M1204.52,464.53s-21.86,18.84-36.73,20.36-20.5-3.25-20.5-3.25a58.19,58.19,0,0,0,14-19,10.47,10.47,0,0,1,8.62-6.17C1180.56,455.54,1200.69,455.12,1204.52,464.53Z"/><path class="cls-35" d="M1190.85,462.85s7.31,7.07,9.62,12.31c2.22,5.06,2.89,17.17,1.12,22,0,0,11.39-22.15,4.94-32.92C1199.69,452.8,1190.85,462.85,1190.85,462.85Z"/><path class="cls-12" d="M1210.17,589.38c-1,69.12-.28,54.68-7.84,61.24-1.83,1.57-6.95,2.52-13.69,3-21.19,1.41-58.45-2.08-59.87-6-4.89-13.56-1.44-17.77-5.52-38.52-.42-2.2-1-4.59-1.57-7.19-3.4-14.26-6.71-19.1,5.36-42,10.94-20.74,22.31-37.58,23.33-37,28.87,17.14,31.2,2.73,31.2,2.73S1210.68,555.66,1210.17,589.38Z"/><path class="cls-21" d="M1284.16,767.62,1262,827.34a36,36,0,0,1-11.79-1.08c-5.31-1.53-11.4-5.55-11.4-5.55s6.16-64.12,17.65-100.94Z"/><path class="cls-12" d="M1181.57,525.63s29.7,5,33.19,17.83,15,90.42,15,90.42-8.37,8.18-15.35,1.2-22-72.63-22-72.63Z"/><path class="cls-20" d="M1188.64,653.58c-21.19,1.41-58.45-2.08-59.87-6-4.89-13.56-1.44-17.77-5.52-38.52l10.22-28.78s-1.69,32.05,7.77,40.48,38.71,16.28,43.3,23.33A25.65,25.65,0,0,1,1188.64,653.58Z"/><path class="cls-16" d="M1164.36,640.1s20.91-4.66,24.28-2.8,11.62,8.61,12.65,11-7.51-1.78-10.29-2.53c-1.8-.48-6.53,1.17-8.88,1.95-9.87,3.29-15.92,1.6-15.92,1.6Z"/><path class="cls-12" d="M1150.35,522.89s-28.08,1.73-37.8,15.28c-13.68,19.09-40.82,100.42-25.27,111.27,17.52,12.21,79.73,3.19,79.73,3.19s2.07-9.68-.81-14.36-49.69-12.24-51.85-14.4,27-42.13,27-48.61S1150.35,522.89,1150.35,522.89Z"/><path class="cls-16" d="M1189.65,643.12s4.39,5.65,5.82,6.32a4.28,4.28,0,0,0,2.37.51l-3-5.31Z"/><path class="cls-16" d="M1188.64,637.3l12.74,6.18a2.27,2.27,0,0,1-2.11.82,30.09,30.09,0,0,1-5.52-1.52Z"/><polygon class="cls-35" points="1297.42 651.84 1164.36 651.84 1164.36 654.78 1296.24 654.78 1297.42 651.84"/><polygon class="cls-35" points="1195.47 654.78 1296.24 654.78 1326.55 579.4 1225.94 579.4 1195.47 654.78"/><path class="cls-1" d="M1270.8,617.09c.76-2.65-.77-4.8-3.42-4.8a6.87,6.87,0,0,0-6.17,4.8c-.76,2.65.77,4.8,3.42,4.8A6.87,6.87,0,0,0,1270.8,617.09Z"/><rect class="cls-23" x="1254.66" y="1117.78" width="13.7" height="13.7" transform="translate(1048.07 -551.87) rotate(41.03)"/><path class="cls-34" d="M1128.66,1297.67c-2.06-6.85-3.09-7.47-3.09-7.47s-64.07,8-74.94,7.29c-6.45-.42-83.4-26.08-83.4-26.08l-46.72,44.8s115.87,19.09,132.2,17.84c27-2.07,68.18-25.89,68.18-25.89S1130.28,1303.05,1128.66,1297.67Z"/><path class="cls-37" d="M953.54,1809.11s.9,21.71,5.06,27l58,.34c-.4-2.24-.65-7.42-8.67-8.82a38.88,38.88,0,0,1-28.16-22.23C973.31,1791.3,953.54,1809.11,953.54,1809.11Z"/><path class="cls-37" d="M839.72,1806s-4,28.85,1.45,29.35c.73.07,23.37.43,33.18.6,11.53.19,30.47-.22,30.47-.22a3,3,0,0,0,2.73-4.53c-1.33-2.25-3.87-4.66-8.71-5.59-10.1-1.95-26.93-9.37-32.83-22.86C859.8,1788.53,839.72,1806,839.72,1806Z"/><path class="cls-20" d="M983.7,1510.4s-16.13,56.43-62.35,154.43-48.22,145.22-48.22,145.22a40.77,40.77,0,0,1-16.28,1.49,43.88,43.88,0,0,1-17.13-5.56s3-116.64,24.83-166.09,26.28-184.78,26.28-184.78Z"/><path class="cls-12" d="M1009.59,1461.85s1.28,87.38-13.84,194.67-8,157.18-8,157.18-4,2.92-16.33,2.87c-14.43-.06-21.82-6-21.82-6s-21.64-107.33-15.44-161-29.63-184.27-29.63-184.27Z"/><path class="cls-16" d="M974.47,1244c-.15,6.85-1.06,14.32-3.8,18l-15.39,8.08-17.07-12.65s6.25-13.86,4.73-34.13c-.16-1.22-.76-9-.76-9.14l8.53,4.27L973.86,1230a4.62,4.62,0,0,0,.16,1.06C974.17,1233.37,974.47,1238.4,974.47,1244Z"/><path class="cls-21" d="M889.22,1472.64c5.59,25.54,125.1,14.33,123.54-1.26-.06-.52-.37-7.74-.8-17.46-.91-21-2.29-53.92-2.47-56.48,0,0,0-.09,0-.14-2.15-21.71-4.22-42.94-4.35-56.81a196.93,196.93,0,0,0-4-35.49c-2-10.3-4.53-19.65-6.7-26.94A29.8,29.8,0,0,0,977,1258.92a23.15,23.15,0,0,0-2.9-1c-14.06-4.09-28.24-9.28-33.51-7.74-14.29,4.2-30.18,29.5-37.7,61.56C888.82,1371.73,885.57,1456,889.22,1472.64Z"/><path class="cls-38" d="M974.47,1244c-8.68-3.51-25.29-11.43-29.86-20.42-2-4,1.07-5.18,6.1-5.18L973.86,1230a4.62,4.62,0,0,0,.16,1.06C974.17,1233.37,974.47,1238.4,974.47,1244Z"/><path class="cls-16" d="M985,1228.59s-41.59,13-49.27-13-18.23-41.87,8-51.26,34.35-1,39,7.08S995.64,1224.55,985,1228.59Z"/><path class="cls-39" d="M981.14,1168.85s-2.65,30.29-8.92,29-11.94-2.29-11,6.84,1.21,20.11-18.09,21.72-38.66-48.59-33.36-58C925.05,1141.17,1003.25,1135.68,981.14,1168.85Z"/><path class="cls-34" d="M1012,1453.92c-.91-21-2.29-53.92-2.47-56.48,0,0,0-.09,0-.14l-70.6-42.21S936.14,1453.64,1012,1453.92Z"/><path class="cls-39" d="M1255.54,1119.33l12.72,11.07s-21.81,23.35-19.78,47.92l-32.56,27.49-27-23.47L1211.5,1145S1235.67,1144.07,1255.54,1119.33Z"/><path class="cls-23" d="M1222.45,1159.27a7.24,7.24,0,1,1,.71,10.22A7.25,7.25,0,0,1,1222.45,1159.27Z"/><rect class="cls-23" x="1241.36" y="1117.7" width="2.76" height="58.57" transform="translate(1058.4 -534.08) rotate(41.04)"/><rect class="cls-40" x="1181.62" y="1192.97" width="35.75" height="8.98" transform="translate(1080.62 -493.27) rotate(41.03)"/><path class="cls-39" d="M915,1525.73l-1.31-1.13a17,17,0,0,1-1.67-24l271-311.48,27,23.47L939,1524.07A17,17,0,0,1,915,1525.73Z"/><path class="cls-16" d="M1067.52,1364.68s5.21-4.62,6.43-7.81c.42-1.11,4-6.14,10-5.69,5.53.41,15.37-11.38,15.37-11.38,1.43,3.12,6.37,14.81-.7,20.73-5.76,4.84-19.64,13.2-28.05,18.71C1061.56,1385.15,1067.52,1364.68,1067.52,1364.68Z"/><path class="cls-21" d="M1068.21,1363s-70,11.9-76.23,8.88c-9.91-4.82,3.84-75.88,3.84-75.88s.59-16.1-18.22-19.9c-16.35-3.3-32.12,9-32.12,9s-14.34,12.83-12.51,27.07c4.06,31.55,10.38,95.72,31.49,105.56,27.22,12.69,106-35.18,106-35.18s2.63-3.21,2.25-9.18C1072.37,1368,1068.21,1363,1068.21,1363Z"/><path class="cls-16" d="M1131.58,1302.76s17.67-6.44,16.12-15.48-7.07-7.9-10.39-4.78S1135.83,1301.62,1131.58,1302.76Z"/><path class="cls-16" d="M1072.73,1360.06s2.41-7.09,5-10.12,3.67-8.19,4.83-6.47-.93,7.87,0,10.21S1072.73,1360.06,1072.73,1360.06Z"/><rect class="cls-3" x="2322.16" y="1725.62" width="316.66" height="109.98"/><rect class="cls-18" x="152.99" y="1834.87" width="2694.02" height="7.76" rx="3.18"/></svg>